<svg width="24" height="24" xmlns="http://www.w3.org/2000/svg">

 <g>
  <title>background</title>
  <rect fill="none" id="canvas_background" height="402" width="582" y="-1" x="-1"/>
 </g>
 <g>
  <title>Layer 1</title>
  <path id="svg_1" d="m12.5,11l-1,0c-0.3,0 -0.5,0.2 -0.5,0.5l0,5.5l2,0l0,-5.5c0,-0.3 -0.2,-0.5 -0.5,-0.5zm9.4,-0.7c-0.7,-4.1 -4,-7.5 -8.2,-8.2c-6.8,-1.1 -12.7,4.8 -11.6,11.6c0.7,4.1 4,7.5 8.2,8.2c6.8,1.1 12.7,-4.8 11.6,-11.6zm-2.1,3.3c-0.6,3.1 -3.1,5.7 -6.3,6.3c-5.6,1.1 -10.5,-3.8 -9.4,-9.4c0.6,-3.1 3.1,-5.7 6.3,-6.3c5.7,-1.1 10.5,3.7 9.4,9.4zm-7.3,-6.6l-1,0c-0.3,0 -0.5,0.2 -0.5,0.5l0,1c0,0.3 0.2,0.5 0.5,0.5l1,0c0.3,0 0.5,-0.2 0.5,-0.5l0,-1c0,-0.3 -0.2,-0.5 -0.5,-0.5z" fill="#006df2"/>
 </g>
</svg>