<svg version="1" xmlns="http://www.w3.org/2000/svg" width="933.333" height="933.333" viewBox="0 0 700.000000 700.000000"><path d="M607 176.1c-14 13.8-33.6 33-43.5 42.6-9.9 9.7-34.6 33.9-55 53.9-50.1 49-51.5 50.4-52.4 50.4-.4 0-6.4-6-13.3-13.3-7-7.2-17.3-17.9-22.9-23.7-32.6-33.7-52.9-54.8-56.4-58.6-2.3-2.4-4.5-4.4-5-4.4-.4 0-3.6 2.9-6.9 6.4-3.4 3.5-14.2 14.9-24.1 25.1-9.9 10.3-20.2 21-22.9 23.9-2.7 2.8-13.3 13.8-23.5 24.4l-18.6 19.4-14.3-14.9c-8-8.1-27.6-28.3-43.7-44.8-16.1-16.5-31.3-32.1-33.8-34.8-2.5-2.6-4.9-4.7-5.3-4.7-.5 0-4.4 3.7-8.7 8.2-4.4 4.6-21.5 22.2-38.1 39.2-16.5 17-32.8 33.7-36.1 37.1-3.3 3.4-18.1 18.6-33 33.9-14.8 15.2-27.1 28.1-27.3 28.6-.2.4 1.9 3 4.5 5.7s13.5 13.9 24.1 25l19.3 20 7.7-8.1c4.2-4.4 9.5-9.9 11.7-12.2 6.3-6.6 29.9-31.5 33.6-35.5 1.9-2 10.8-11.4 19.9-20.9 9.1-9.5 17.6-18.5 18.9-20.1 1.3-1.6 2.7-2.9 3.1-2.9.8 0 11.2 10.4 32.5 32.5 5.3 5.5 21 21.6 34.8 35.9 13.9 14.2 25.4 26.1 25.7 26.5.3.3 1.5 1.5 2.8 2.6l2.3 1.9 5.7-6.1c4.9-5.2 27.9-29.3 43.7-45.8 18.4-19.3 37.6-39.4 41.2-43.2 2.8-3.1 4.5-4.3 5.5-3.7 1.2.7 17.2 16.9 48.2 48.7 29.1 29.9 48.7 49.7 49.3 49.7.3 0 2.5-1.9 4.8-4.3 2.3-2.3 17.1-16.8 32.9-32.2 15.9-15.4 33-32.1 38.1-37 5-5 21.9-21.4 37.4-36.5 15.6-15.1 34.7-33.7 42.4-41.3 7.8-7.6 25.9-25.2 40.1-39 14.2-13.9 26.5-25.8 27.3-26.6 1.5-1.5 1.7-1.1-6.2-9.5-1.6-1.8-9.8-10.4-18.1-19.2-8.4-8.7-16.7-17.6-18.6-19.7-1.9-2-3.6-3.7-3.9-3.7-.2.1-11.9 11.3-25.9 25.1zM27 483.9v27.6h540.5l.1-27.6.2-27.6H27v27.6z"/></svg>