<?xml version="1.0" encoding="UTF-8"?>
<svg width="24px" height="24px" viewBox="0 0 24 24" version="1.1" xmlns="http://www.w3.org/2000/svg" xmlns:xlink="http://www.w3.org/1999/xlink">
    <title>Group 10</title>
    <g id="1---Status-Page" stroke="none" stroke-width="1" fill="none" fill-rule="evenodd">
        <g id="Status-page---maintenance" transform="translate(-646.000000, -792.000000)">
            <g id="Group-10" transform="translate(646.000000, 792.000000)">
                <g id="Group-8">
                    <circle id="Oval-Copy-6" fill="#006DF2" cx="12" cy="12" r="12"></circle>
                    <g id="Path-2" transform="translate(6.000000, 6.000000)" fill="#FFFFFF" fill-rule="nonzero">
                        <path d="M10.1355339,3.3855 L8.61453394,1.8645 L10.2185339,0.2605 C9.84603394,0.0945 9.43453394,0 9.00003394,0 C7.34303394,0 6.00003394,1.343 6.00003394,3 C6.00003394,3.297 6.04453394,3.583 6.12503394,3.854 L0.730533944,8.219 C0.285033944,8.6125 0.0190339443,9.1785 0.00103394429,9.772 C-0.0174660557,10.366 0.213033944,10.9475 0.633033944,11.367 C1.04103394,11.7755 1.58353394,12 2.16053394,12 C2.78003394,12 3.37103394,11.734 3.78103394,11.2695 L8.14603394,5.875 C8.41703394,5.9555 8.70303394,6 9.00003394,6 C10.6570339,6 12.0000339,4.657 12.0000339,3 C12.0000339,2.5655 11.9055339,2.154 11.7395339,1.781 L10.1355339,3.3855 Z" id="Path"></path>
                    </g>
                </g>
            </g>
        </g>
    </g>
</svg>