<?xml version="1.0" encoding="UTF-8"?>
<svg width="226px" height="226px" viewBox="0 0 226 226" version="1.1" xmlns="http://www.w3.org/2000/svg" xmlns:xlink="http://www.w3.org/1999/xlink">
    <title>Group 9</title>
    <defs>
        <circle id="path-1" cx="93" cy="93" r="93"></circle>
        <filter x="-16.7%" y="-15.6%" width="133.3%" height="133.3%" filterUnits="objectBoundingBox" id="filter-2">
            <feOffset dx="0" dy="2" in="SourceAlpha" result="shadowOffsetOuter1"></feOffset>
            <feGaussianBlur stdDeviation="10" in="shadowOffsetOuter1" result="shadowBlurOuter1"></feGaussianBlur>
            <feColorMatrix values="0 0 0 0 0.160784314   0 0 0 0 0.239215686   0 0 0 0 0.4  0 0 0 0.2 0" type="matrix" in="shadowBlurOuter1"></feColorMatrix>
        </filter>
    </defs>
    <g id="1---Status-Page" stroke="none" stroke-width="1" fill="none" fill-rule="evenodd">
        <g id="Status-page---maintenance" transform="translate(-725.000000, -175.000000)">
            <g id="Group-9" transform="translate(745.000000, 193.000000)">
                <g id="Oval-Copy-5">
                    <use fill="black" fill-opacity="1" filter="url(#filter-2)" xlink:href="#path-1"></use>
                    <use fill="#006DF2" fill-rule="evenodd" xlink:href="#path-1"></use>
                </g>
                <g id="Path-2-Copy" transform="translate(41.000000, 40.000000)" fill="#FFFFFF" fill-rule="nonzero">
                    <path d="M87.5710133,29.25072 L74.4295733,16.10928 L88.2881333,2.25072 C85.0697333,0.81648 81.5143733,0 77.7602933,0 C63.4438133,0 51.8402933,11.60352 51.8402933,25.92 C51.8402933,28.48608 52.2247733,30.95712 52.9202933,33.29856 L6.31181328,71.01216 C2.46269328,74.412 0.164453279,79.30224 0.00893327871,84.43008 C-0.150906721,89.56224 1.84061328,94.5864 5.46941328,98.21088 C8.99453328,101.74032 13.6817333,103.68 18.6670133,103.68 C24.0194933,103.68 29.1257333,101.38176 32.6681333,97.36848 L70.3817333,50.76 C72.7231733,51.45552 75.1942133,51.84 77.7602933,51.84 C92.0767733,51.84 103.680293,40.23648 103.680293,25.92 C103.680293,22.16592 102.863813,18.61056 101.429573,15.38784 L87.5710133,29.25072 Z" id="Path"></path>
                </g>
            </g>
        </g>
    </g>
</svg>