<?xml version="1.0" encoding="UTF-8"?>
<svg width="152px" height="26px" viewBox="0 0 152 26" version="1.1" xmlns="http://www.w3.org/2000/svg" xmlns:xlink="http://www.w3.org/1999/xlink">
    <!-- Generator: Sketch 63 (92445) - https://sketch.com -->
    <title>Group 7-152w</title>
    <desc>Created with Sketch.</desc>
    <g id="20---Vertical-HR" stroke="none" stroke-width="1" fill="none" fill-rule="evenodd">
        <g id="02---Vertical-HR---mit-Use-Case" transform="translate(-508.000000, -3415.000000)" fill="#1A667A" fill-rule="nonzero">
            <g id="Group-7" transform="translate(508.000000, 3415.000000)">
                <g id="Group">
                    <path d="M9.74852321,19.7136803 L9.74852321,18.3272236 C8.10210595,19.4537196 6.28238162,19.9736409 4.28935021,19.9736409 C1.03984248,19.9736409 0.389940928,18.2838969 0.389940928,15.8575977 C0.389940928,12.7813971 1.29980309,11.1349798 5.0259053,11.1349798 L9.66186967,11.1349798 L9.66186967,9.83517675 C9.66186967,8.27541303 8.96864135,7.7554918 6.93228317,7.7554918 C5.15588561,7.7554918 4.24602344,7.92879887 1.4297834,9.01196812 L1.4297834,6.36903516 C2.90289358,5.93576746 4.93925176,5.41584623 6.93228317,5.41584623 C10.7450389,5.41584623 12.8680506,6.62899578 12.8680506,10.0951374 L12.8680506,19.8003338 L9.74852321,19.8003338 L9.74852321,19.7136803 Z M9.6185429,13.2146648 L5.63248008,13.2146648 C3.37948805,13.2146648 3.24950774,14.0812002 3.24950774,15.7276174 C3.24950774,17.2007276 3.46614158,17.8073024 4.46265729,17.8073024 C5.37251946,17.8073024 7.45220441,17.3307079 8.49204688,16.5941528 L9.66186967,15.8575977 L9.66186967,13.2146648 L9.6185429,13.2146648 Z" id="Shape"></path>
                    <polygon id="Path" points="16.5508261 19.6703535 16.5508261 0.259960619 19.8003338 0.259960619 19.8003338 19.6703535"></polygon>
                    <path d="M29.3322232,19.8436606 C25.779428,19.8436606 25.0428729,18.9337984 25.0428729,15.7709442 L25.0428729,7.79881857 L22.4865935,7.79881857 L22.4865935,5.50249977 L25.0428729,5.50249977 L25.0428729,2.42629911 L28.2923807,2.42629911 L28.2923807,5.50249977 L32.0184829,5.50249977 L32.0184829,7.79881857 L28.2923807,7.79881857 L28.2923807,15.7709442 C28.2923807,17.504015 28.422361,17.504015 29.8954712,17.504015 C30.2854121,17.504015 31.1952743,17.3740347 32.0184829,17.1574008 L32.0184829,19.4970464 C31.1952743,19.7136803 29.9387979,19.8436606 29.3322232,19.8436606 Z" id="Path"></path>
                    <path d="M37.5209827,13.0413577 C37.5643094,17.0274205 38.8207857,17.5473418 40.8571439,17.5473418 C42.6768683,17.5473418 44.4532658,17.1574008 46.6629311,16.1608851 L46.6629311,18.9337984 C44.7565532,19.4103929 42.8935021,19.8869873 40.8571439,19.8869873 C36.9577346,19.8869873 34.3148017,18.6738378 34.3148017,12.6514168 C34.3148017,7.3222241 36.3511599,5.32919269 41.2037581,5.32919269 C45.0598406,5.32919269 47.0961988,6.58566901 47.0961988,10.0084838 L47.0961988,13.0846845 L37.5209827,13.0846845 L37.5209827,13.0413577 Z M44.3232855,10.0084838 C44.3232855,8.36206657 43.3700966,7.62551149 41.1604313,7.62551149 C38.6908054,7.62551149 37.7809433,8.40539334 37.5643094,10.8316925 L44.3232855,10.8316925 L44.3232855,10.0084838 L44.3232855,10.0084838 Z" id="Shape"></path>
                    <path d="M59.9642494,19.7136803 L59.9642494,9.14194843 C59.9642494,8.10210595 59.4876549,7.66883826 58.5777928,7.66883826 C57.9278912,7.66883826 57.0613558,8.05877918 53.5518875,10.6583854 L53.5518875,19.7136803 L50.3457065,19.7136803 L50.3457065,5.63248008 L53.5085607,5.63248008 L53.5085607,7.88547211 C55.154978,6.67232255 56.7147417,5.37251946 58.9677337,5.37251946 C62.5638556,5.37251946 63.1271036,7.36555087 63.1271036,9.79184998 L63.1271036,19.7136803 L59.9642494,19.7136803 L59.9642494,19.7136803 Z" id="Path"></path>
                    <path d="M74.6086976,19.9736409 C72.9622804,19.9736409 71.2725363,19.193759 69.9727332,18.2405701 L69.9727332,19.6703535 L66.8965326,19.6703535 L66.8965326,0.259960619 L70.1027135,0.259960619 L70.1027135,6.75897609 C71.3158631,5.84911392 73.0922607,5.15588561 74.6086976,5.15588561 C78.3347998,5.15588561 80.0678706,6.97560994 80.0678706,12.5647632 C80.0678706,18.1105898 78.3347998,19.9736409 74.6086976,19.9736409 Z M74.3054102,7.49553118 C72.7023197,7.49553118 71.2725363,8.70868073 70.1027135,9.6185429 L70.1027135,15.5109836 C71.3158631,16.4641725 72.7023197,17.6339953 74.3054102,17.6339953 C75.5185598,17.6339953 76.8183629,17.4173615 76.8183629,12.5647632 C76.8183629,7.71216503 75.5185598,7.49553118 74.3054102,7.49553118 Z" id="Shape"></path>
                    <path d="M92.5893071,19.7136803 L92.5893071,17.7639756 C91.0728701,18.8904716 89.59976,20.0169677 87.5634018,20.0169677 C83.9672799,20.0169677 83.3607051,18.0239362 83.3607051,15.5976371 L83.3607051,5.63248008 L86.5668861,5.63248008 L86.5668861,16.2042119 C86.5668861,17.2440544 87.0434805,17.6773221 87.9966695,17.6773221 C88.6032443,17.6773221 89.7297403,17.2873812 92.5459803,14.9910624 L92.5459803,5.63248008 L95.7521613,5.63248008 L95.7521613,15.5976371 L95.7521613,19.7136803 L92.5893071,19.7136803 Z" id="Path"></path>
                    <path d="M105.110744,8.83866104 L102.727771,10.6583854 L102.727771,19.6703535 L99.5215902,19.6703535 L99.5215902,9.70519644 L99.5215902,5.58915331 L102.684444,5.58915331 L102.684444,7.7554918 C104.547496,6.28238162 105.587338,5.32919269 108.186944,5.32919269 L108.186944,8.23208626 C106.62718,8.10210595 105.847299,8.27541303 105.110744,8.83866104 Z" id="Path"></path>
                    <path d="M117.415546,25.3028336 C115.205881,25.3028336 112.996216,24.8262391 111.436452,24.3929714 L111.436452,21.5334046 C113.516137,22.4865935 115.379188,22.9198612 117.415546,22.9198612 C119.408578,22.9198612 120.058479,22.3566132 120.058479,20.5802157 L120.058479,18.5438575 C118.84533,19.4537196 117.112259,20.1902747 115.552495,20.1902747 C111.783066,20.1902747 110.093322,18.3272236 110.093322,12.7813971 C110.093322,7.23557056 111.826393,5.37251946 115.552495,5.37251946 C117.198912,5.37251946 118.888656,6.15240131 120.145133,7.10559025 L120.145133,5.63248008 L123.26466,5.63248008 L123.26466,9.79184998 L123.26466,20.5802157 C123.307987,24.089684 120.925015,25.3028336 117.415546,25.3028336 Z M120.058479,9.83517675 C118.888656,8.88198781 117.458873,7.71216503 115.855782,7.71216503 C114.68596,7.71216503 113.34283,7.92879887 113.34283,12.7813971 C113.34283,17.6339953 114.729286,17.8506292 115.855782,17.8506292 C117.5022,17.8506292 118.888656,16.6374796 120.058479,15.7276174 L120.058479,9.83517675 Z" id="Shape"></path>
                    <path d="M129.807002,13.0413577 C129.850329,17.0274205 131.106805,17.5473418 133.143164,17.5473418 C134.962888,17.5473418 136.739286,17.1574008 138.948951,16.1608851 L138.948951,18.9337984 C137.042573,19.4103929 135.179522,19.8869873 133.143164,19.8869873 C129.243754,19.8869873 126.600821,18.6738378 126.600821,12.6514168 C126.600821,7.3222241 128.63718,5.32919269 133.489778,5.32919269 C137.34586,5.32919269 139.382218,6.58566901 139.382218,10.0084838 L139.382218,13.0846845 L129.807002,13.0846845 L129.807002,13.0413577 Z M136.609305,10.0084838 C136.609305,8.36206657 135.656116,7.62551149 133.446451,7.62551149 C130.976825,7.62551149 130.066963,8.40539334 129.850329,10.8316925 L136.609305,10.8316925 L136.609305,10.0084838 Z" id="Shape"></path>
                    <path d="M148.264206,8.83866104 L145.881234,10.6583854 L145.881234,19.6703535 L142.675053,19.6703535 L142.675053,9.70519644 L142.675053,5.58915331 L145.837907,5.58915331 L145.837907,7.7554918 C147.700958,6.28238162 148.740801,5.32919269 151.340407,5.32919269 L151.340407,8.23208626 C149.780643,8.10210595 149.000761,8.27541303 148.264206,8.83866104 Z" id="Path"></path>
                </g>
            </g>
        </g>
    </g>
</svg>