<svg xmlns="http://www.w3.org/2000/svg" width="155" height="35" viewBox="0 0 155 35">
  <path fill="#F60" d="M18.8677966 19.0166667L9.43389831 19.0166667C9.00508475 19.0166667 8.81016949 19.2111111 8.81016949 19.5611111 8.81016949 20.4166667 9.2779661 21.2333333 10.2135593 22.0111111 11.1491525 22.7888889 12.1627119 23.1777778 13.2542373 23.1777778 13.8779661 23.1777778 14.6186441 23.0611111 15.3983051 22.8277778 16.1779661 22.5944444 16.840678 22.2833333 17.3474576 21.9333333 17.8152542 21.6222222 18.1661017 21.4666667 18.4389831 21.4666667 18.7898305 21.4666667 19.140678 21.6611111 19.4525424 22.0888889 19.8033898 22.5166667 19.959322 22.9444444 19.959322 23.4111111 19.959322 24.3833333 19.3745763 25.2777778 18.1661017 26.1722222 16.0610169 27.7666667 13.6050847 28.5444444 10.8372881 28.5444444 8.03050847 28.5444444 5.69152542 27.7277778 3.78135593 26.0944444 2.84576271 25.2777778 2.10508475 24.3444444 1.52033898 23.2166667.740677966 21.7.350847458 20.1444444.350847458 18.4722222.350847458 16.2555556 1.01355932 14.2333333 2.3779661 12.4444444 3.54745763 10.8888889 5.02881356 9.76111111 6.86101695 8.98333333 8.22542373 8.4 9.70677966 8.12777778 11.2661017 8.12777778 13.8 8.12777778 15.9440678 8.82777778 17.7372881 10.2666667 18.6338983 10.9666667 19.3355932 11.8222222 19.8813559 12.8333333 20.5050847 13.9611111 20.8169492 15.05 20.8169492 16.1 20.8169492 16.9555556 20.6220339 17.6555556 20.2711864 18.2388889 19.8813559 18.7444444 19.4135593 19.0166667 18.8677966 19.0166667zM9.97966102 15.2833333L12.0067797 15.2833333C12.8644068 15.2833333 13.2932203 14.8944444 13.2932203 14.1166667 13.2932203 13.4166667 13.0983051 12.7944444 12.6694915 12.3666667 12.240678 11.9 11.7338983 11.7055556 11.0322034 11.7055556 10.2915254 11.7055556 9.70677966 12.0166667 9.2779661 12.6 8.88813559 13.1444444 8.69322034 13.6888889 8.69322034 14.2722222 8.69322034 14.6611111 8.77118644 14.9333333 8.96610169 15.1277778 9.16101695 15.2055556 9.47288136 15.2833333 9.97966102 15.2833333zM33.5254237 8.05C35.8644068 8.05 37.8135593 8.63333333 39.4118644 9.8 40.2694915 10.4222222 40.8542373 11.1222222 41.2050847 11.9388889 41.5559322 12.7555556 41.7118644 13.8444444 41.7118644 15.2444444L41.6728814 18.2C41.6728814 20.2611111 41.8288136 21.5833333 42.1016949 22.2055556 42.2576271 22.5166667 42.3745763 22.6722222 42.5305085 22.75 42.6474576 22.8277778 42.959322 22.9055556 43.3881356 22.9833333 43.8169492 23.0611111 44.0118644 23.3333333 44.0118644 23.8388889 44.0118644 24.4611111 43.7389831 25.1611111 43.2322034 25.8222222 42.7254237 26.5222222 42.0627119 27.1055556 41.2440678 27.5722222 40.2305085 28.1555556 39.1779661 28.4666667 38.0864407 28.4666667 36.6830508 28.4666667 35.5915254 28 34.7728814 27.0277778 34.5 26.6777778 34.2271186 26.5222222 33.9932203 26.5222222 33.720339 26.5222222 33.3694915 26.6777778 32.940678 27.0277778 31.6152542 28 30.0949153 28.4666667 28.4186441 28.4666667 26.6644068 28.4666667 25.2610169 28.0777778 24.1694915 27.3388889 23.4677966 26.8333333 22.9220339 26.2111111 22.4932203 25.3944444 22.0644068 24.6166667 21.8694915 23.7611111 21.8694915 22.9055556 21.8694915 21.5055556 22.4152542 20.3 23.5457627 19.25 25.3 17.5777778 27.9118644 16.7222222 31.3813559 16.7222222 32.1610169 16.7222222 32.6288136 16.6444444 32.8237288 16.4888889 33.0186441 16.3333333 33.1355932 15.9833333 33.1355932 15.4388889 33.1355932 14.0388889 32.979661 12.9888889 32.7067797 12.3666667 32.3949153 11.7444444 31.9271186 11.4333333 31.2644068 11.4333333 30.8745763 11.4333333 30.5237288 11.55 30.2118644 11.7833333 29.9 12.0166667 29.5101695 12.4444444 29.0423729 13.1055556 27.8728814 14.7777778 26.6254237 15.6333333 25.3389831 15.6333333 24.6762712 15.6333333 24.1694915 15.4388889 23.740678 15.05 23.3118644 14.6611111 23.1169492 14.1555556 23.1169492 13.5333333 23.1169492 12.9111111 23.3898305 12.25 23.8966102 11.6277778 24.4033898 11.0055556 25.1050847 10.4222222 26.0016949 9.95555556 28.379661 8.67222222 30.8745763 8.05 33.5254237 8.05zM32.1610169 19.6C31.5762712 19.6 31.0694915 19.8333333 30.640678 20.3 30.2118644 20.7666667 29.9779661 21.35 29.9779661 22.0111111 29.9779661 22.6333333 30.1338983 23.1777778 30.4457627 23.5666667 30.7576271 23.9555556 31.1474576 24.15 31.6542373 24.15 32.7067797 24.15 33.2525424 23.2555556 33.2525424 21.4666667 33.2525424 20.7277778 33.1745763 20.2611111 33.0186441 19.9888889 32.9016949 19.7555556 32.5898305 19.6 32.1610169 19.6zM53.3288136 8.05C53.9915254 8.05 55.0830508 8.20555556 56.6033898 8.47777778 56.9152542 8.51666667 57.1491525 8.55555556 57.3440678 8.55555556 57.5779661 8.55555556 58.0067797 8.43888889 58.6694915 8.20555556 58.9813559 8.08888889 59.2542373 8.01111111 59.4491525 8.01111111 60.0728814 8.01111111 60.6966102 8.4 61.320339 9.17777778 61.8271186 9.8 62.2559322 10.5 62.5677966 11.2388889 62.879661 11.9777778 63.0355932 12.6388889 63.0355932 13.1833333 63.0355932 13.7277778 62.840678 14.1555556 62.4898305 14.5055556 62.1 14.8555556 61.6322034 15.05 61.0864407 15.05 60.6186441 15.05 60.1898305 14.9333333 59.8389831 14.7 59.4881356 14.4666667 58.8644068 13.9611111 58.0847458 13.2222222 57.2271186 12.4055556 56.5254237 11.9777778 55.979661 11.9777778 55.5898305 11.9777778 55.2779661 12.1333333 55.0050847 12.4055556 54.7322034 12.6777778 54.5762712 12.9888889 54.5762712 13.3777778 54.5762712 14.0388889 55.2 14.6222222 56.4474576 15.2055556 58.7084746 16.2166667 60.4237288 17.3055556 61.6322034 18.5111111 62.6457627 19.5222222 63.1525424 20.7666667 63.1525424 22.2055556 63.1525424 24.0722222 62.3338983 25.5888889 60.6966102 26.8333333 59.2932203 27.9222222 57.5779661 28.4666667 55.5508475 28.4666667 55.0440678 28.4666667 54.0694915 28.3888889 52.7050847 28.1944444 51.4186441 28.0388889 50.6779661 27.9611111 50.5220339 27.9611111 50.3661017 27.9611111 50.1322034 28 49.9372881 28.0388889 49.5474576 28.0777778 49.2745763 28.1166667 49.079661 28.1166667 48.4559322 28.1166667 47.9491525 27.9611111 47.5983051 27.65 47.0525424 27.1444444 46.5457627 26.3666667 46.0779661 25.3166667 45.6101695 24.2666667 45.3762712 23.3333333 45.3762712 22.5944444 45.3762712 21.3888889 45.8440678 20.7666667 46.8186441 20.7666667 47.2084746 20.7666667 47.520339 20.8833333 47.8322034 21.1166667 48.1440678 21.35 48.8067797 22.0111111 49.820339 23.1 50.3661017 23.6833333 50.8338983 24.0722222 51.1847458 24.3055556 51.5355932 24.5388889 51.9254237 24.6166667 52.3542373 24.6166667 52.7830508 24.6166667 53.1338983 24.5 53.4067797 24.2666667 53.679661 24.0333333 53.7966102 23.7222222 53.7966102 23.3333333 53.7966102 22.75 53.2898305 22.2055556 52.2372881 21.7 50.0932203 20.65 48.5338983 19.5611111 47.5983051 18.4333333 46.6627119 17.3055556 46.1559322 16.0222222 46.1559322 14.5444444 46.1559322 12.95 46.6237288 11.5888889 47.5983051 10.4611111 49.0016949 8.90555556 50.9118644 8.05 53.3288136 8.05zM83.8915254 17.8888889L81.240678 25.1222222C80.5779661 26.9111111 79.9152542 28.3888889 79.2525424 29.5166667 78.5898305 30.6444444 77.8491525 31.6166667 76.9915254 32.4333333 75.2762712 34.0666667 73.1711864 34.9222222 70.7152542 34.9222222 68.7271186 34.9222222 67.1288136 34.4166667 65.920339 33.3666667 64.9847458 32.55 64.5169492 31.5388889 64.5169492 30.3333333 64.5169492 29.3222222 64.8288136 28.4666667 65.4915254 27.7666667 66.1542373 27.0666667 66.9728814 26.7166667 67.9084746 26.7166667 68.8830508 26.7166667 69.6237288 27.0277778 70.2474576 27.6888889 70.520339 28 70.7152542 28.2333333 70.7932203 28.4666667 70.8711864 28.7 71.0271186 29.2055556 71.2220339 29.9444444 71.3779661 30.5277778 71.6898305 30.8388889 72.2355932 30.8388889 72.6644068 30.8388889 72.9762712 30.6444444 73.2881356 30.2944444 73.6 29.9444444 73.7169492 29.4777778 73.7169492 28.9722222 73.7169492 28.35 73.3661017 27.3 72.6644068 25.8222222L67.8305085 15.5944444C67.3237288 14.5444444 66.9338983 13.8833333 66.7 13.6111111 66.4271186 13.3388889 65.8813559 13.0277778 65.0237288 12.6388889 64.7508475 12.5222222 64.5169492 12.3277778 64.3220339 12.0166667 64.1271186 11.7055556 64.0491525 11.3944444 64.0491525 11.1222222 64.0491525 9.95555556 65.2186441 9.13888889 67.5966102 8.71111111 69.1559322 8.43888889 70.9491525 8.28333333 72.9762712 8.28333333 74.379661 8.28333333 75.5101695 8.43888889 76.3288136 8.71111111 77.420339 9.1 77.9661017 9.76111111 77.9661017 10.6944444 77.9661017 11.0444444 77.8101695 11.4333333 77.4983051 11.8611111 77.1864407 12.2888889 77.0694915 12.6777778 77.0694915 12.9888889 77.0694915 13.3 77.1474576 13.65 77.2644068 14 77.420339 14.35 77.6932203 14.9333333 78.1610169 15.75 78.6677966 16.6833333 79.0966102 17.15 79.4864407 17.15 79.9152542 17.15 80.3440678 16.7222222 80.7728814 15.9055556 81.2016949 15.0888889 81.4355932 14.3111111 81.4355932 13.5333333 81.4355932 12.9111111 81.279661 12.4055556 80.9288136 12.0555556 80.4220339 11.4722222 80.1491525 10.9277778 80.1491525 10.5 80.1491525 9.83888889 80.6169492 9.29444444 81.5135593 8.86666667 82.4101695 8.47777778 83.6186441 8.24444444 85.1389831 8.24444444 87.9847458 8.24444444 89.3881356 8.90555556 89.3881356 10.2666667 89.3881356 10.7722222 89.2322034 11.1611111 88.959322 11.4722222 88.6864407 11.7833333 88.140678 12.0555556 87.4 12.3277778 86.7762712 12.5611111 86.2694915 12.95 85.879661 13.5333333 85.3338983 14.35 84.6711864 15.8277778 83.8915254 17.8888889zM106.735593.272222222C108.216949.272222222 109.737288.388888889 111.29661.661111111 112.544068.855555556 113.479661 1.16666667 114.025424 1.55555556 114.571186 1.94444444 114.844068 2.45 114.844068 3.11111111 114.844068 3.53888889 114.727119 3.85 114.532203 4.08333333 114.337288 4.31666667 113.908475 4.58888889 113.245763 4.93888889 112.466102 5.32777778 112.037288 5.79444444 111.920339 6.33888889 111.80339 6.88333333 111.686441 8.98333333 111.608475 12.6 111.569492 16.1388889 111.530508 18.2388889 111.491525 18.9388889 111.452542 19.6388889 111.374576 20.3388889 111.257627 21 110.867797 22.9444444 110.088136 24.4611111 108.918644 25.5888889 107.944068 26.4833333 106.735593 27.2222222 105.215254 27.7277778 103.694915 28.2333333 102.135593 28.5055556 100.459322 28.5055556 98.9779661 28.5055556 97.4966102 28.3111111 96.0152542 27.9222222 94.5338983 27.5333333 93.2474576 26.9888889 92.1559322 26.3277778 91.259322 25.7833333 90.5186441 25.0055556 90.0118644 24.0722222 89.4661017 23.1388889 89.1932203 22.0888889 89.1932203 21.0388889 89.1932203 19.7166667 89.6220339 18.5888889 90.440678 17.7333333 91.2983051 16.8777778 92.3508475 16.4111111 93.5983051 16.4111111 94.8457627 16.4111111 95.8983051 16.7611111 96.7559322 17.5 97.6135593 18.2388889 98.0423729 19.1722222 98.0423729 20.2611111 98.0423729 20.5333333 97.9644068 21 97.8084746 21.6611111 97.7694915 21.7777778 97.7694915 21.9333333 97.7694915 22.0888889 97.7694915 22.5166667 97.9254237 22.8666667 98.2372881 23.1388889 98.5491525 23.4111111 98.9389831 23.5277778 99.4457627 23.5277778 100.342373 23.5277778 101.044068 23.1388889 101.589831 22.3222222 102.135593 21.5055556 102.408475 20.4555556 102.408475 19.1722222L102.369492 17.3444444 102.330508 12.4444444C102.213559 9.48888889 102.135593 7.73888889 102.057627 7.19444444 101.979661 6.65 101.862712 6.22222222 101.589831 5.91111111 101.394915 5.63888889 101.2 5.48333333 101.044068 5.40555556 100.888136 5.32777778 100.459322 5.21111111 99.7966102 5.01666667 99.4847458 4.93888889 99.2118644 4.78333333 98.9779661 4.47222222 98.7440678 4.16111111 98.6271186 3.85 98.6271186 3.5 98.6271186 2.8 98.9 2.21666667 99.4847458 1.78888889 100.069492 1.36111111 100.966102 1.01111111 102.252542.738888889 103.733898.427777778 105.215254.272222222 106.735593.272222222zM134.057143 18.6666667L124.87619 18.6666667C124.457143 18.6666667 124.266667 18.8571429 124.266667 19.2 124.266667 20.0380952 124.72381 20.8380952 125.638095 21.6 126.552381 22.3619048 127.542857 22.7428571 128.609524 22.7428571 129.219048 22.7428571 129.942857 22.6285714 130.704762 22.4 131.466667 22.1714286 132.114286 21.8666667 132.609524 21.5238095 133.066667 21.2190476 133.409524 21.0666667 133.67619 21.0666667 134.019048 21.0666667 134.361905 21.2571429 134.666667 21.6761905 135.009524 22.0952381 135.161905 22.5142857 135.161905 22.9714286 135.161905 23.9238095 134.590476 24.8 133.409524 25.6761905 131.352381 27.2380952 128.952381 28 126.247619 28 123.504762 28 121.219048 27.2 119.352381 25.6 118.438095 24.8 117.714286 23.8857143 117.142857 22.7809524 116.380952 21.2952381 116 19.7714286 116 18.1333333 116 15.9619048 116.647619 13.9809524 117.980952 12.2285714 119.12381 10.7047619 120.571429 9.6 122.361905 8.83809524 123.695238 8.26666667 125.142857 8 126.666667 8 129.142857 8 131.238095 8.68571429 132.990476 10.0952381 133.866667 10.7809524 134.552381 11.6190476 135.085714 12.6095238 135.695238 13.7142857 136 14.7809524 136 15.8095238 136 16.647619 135.809524 17.3333333 135.466667 17.9047619 135.085714 18.4 134.628571 18.6666667 134.057143 18.6666667zM125.371429 15.0095238L127.352381 15.0095238C128.190476 15.0095238 128.609524 14.6285714 128.609524 13.8666667 128.609524 13.1809524 128.419048 12.5714286 128 12.152381 127.580952 11.6952381 127.085714 11.5047619 126.4 11.5047619 125.67619 11.5047619 125.104762 11.8095238 124.685714 12.3809524 124.304762 12.9142857 124.114286 13.447619 124.114286 14.0190476 124.114286 14.4 124.190476 14.6666667 124.380952 14.8571429 124.571429 14.9333333 124.914286 15.0095238 125.371429 15.0095238zM148.940329 14L148.940329 20.6538462C148.940329 21.4615385 149.135802 22.0769231 149.526749 22.5769231 149.917695 23.0769231 150.425926 23.3461538 151.05144 23.3461538 151.559671 23.3461538 152.263374 23.1153846 153.123457 22.6538462 153.31893 22.5384615 153.514403 22.4615385 153.709877 22.4615385 154.022634 22.4615385 154.335391 22.6538462 154.609053 23.0384615 154.882716 23.4230769 155 23.8461538 155 24.2692308 155 25.0769231 154.530864 25.8846154 153.631687 26.6153846 151.716049 28.1923077 149.44856 29 146.711934 29 144.561728 29 142.841564 28.4230769 141.55144 27.2307692 140.261317 26.0384615 139.596708 24.4615385 139.596708 22.5384615L139.596708 13.4230769C139.596708 13.1153846 139.557613 12.9230769 139.479424 12.8461538 139.401235 12.7692308 139.205761 12.7307692 138.893004 12.7307692L136.899177 12.7307692C136.50823 12.7307692 136.273663 12.6538462 136.156379 12.5384615 136.039095 12.4230769 136 12.1153846 136 11.6538462L136 10.7692308C136 10.3846154 136.156379 10.0769231 136.469136 9.88461538L145.656379 4.19230769C145.890947 4.07692308 146.164609 4 146.516461 4L148.158436 4C148.510288 4 148.705761 4.07692308 148.823045 4.23076923 148.940329 4.38461538 148.979424 4.69230769 148.979424 5.11538462L148.979424 7.76923077C148.979424 8.15384615 149.057613 8.42307692 149.174897 8.53846154 149.292181 8.65384615 149.565844 8.73076923 149.995885 8.73076923L153.709877 8.73076923C154.218107 8.73076923 154.530864 8.80769231 154.687243 9 154.843621 9.19230769 154.921811 9.53846154 154.921811 10.1538462L154.921811 11.3076923C154.921811 11.9230769 154.843621 12.3846154 154.648148 12.6153846 154.452675 12.8461538 154.100823 12.9615385 153.631687 12.9615385L149.995885 12.9615385C149.604938 12.9615385 149.37037 13.0384615 149.253086 13.1538462 149.018519 13.3846154 148.940329 13.6153846 148.940329 14z"/>
</svg>
