<svg width="150" height="49" viewBox="0 0 150 49" fill="none" xmlns="http://www.w3.org/2000/svg">
<g clip-path="url(#clip0)">
<path d="M0.971045 0.311713L12.7513 8.00169C12.9813 8.15757 12.9813 8.52128 12.7257 8.65118L0.919937 15.276C0.664401 15.4059 0.357758 15.224 0.357758 14.9383V0.649449C0.357758 0.337693 0.689955 0.155835 0.971045 0.311713ZM16.7888 47.6207L5.95401 36.1117C5.72403 35.8779 5.9029 35.4622 6.2351 35.4622H28.6201C28.9523 35.4622 29.1312 35.8519 28.9012 36.1117L18.1431 47.6207C17.7598 48.0103 17.1465 48.0103 16.7888 47.6207ZM34.1141 31.0456H0.741062C0.536633 31.0456 0.357758 30.8638 0.357758 30.6559V20.8616C0.357758 20.7317 0.434418 20.6018 0.562187 20.5239L17.3509 11.0673C17.4532 11.0153 17.6065 11.0153 17.7087 11.0673L34.293 20.2121C34.4208 20.2901 34.4975 20.42 34.4975 20.5499V30.6559C34.4719 30.8898 34.3186 31.0456 34.1141 31.0456ZM33.9353 15.0162L22.3084 8.59922C22.0528 8.46932 22.0528 8.10561 22.2828 7.94973L33.8842 0.337693C34.1397 0.155835 34.4975 0.363672 34.4975 0.675428V14.7044C34.4719 14.9642 34.1653 15.1721 33.9353 15.0162Z" fill="url(#paint0_linear)"/>
<path d="M52.7428 13.5355V21.5633H64.3953V24.0833H52.7428V35.4624H49.7786V11.0415H65.1108V13.5615H52.7428V13.5355Z" fill="#3A3A39"/>
<path d="M68.075 11.0415H70.9115V35.4624H68.075V11.0415Z" fill="#3A3A39"/>
<path d="M89.6678 35.4623H86.7292C86.5758 34.9167 86.5503 34.0853 86.5503 33.0461C85.4259 34.7088 83.1516 35.8 80.6985 35.8C77.1976 35.8 74.8723 33.7216 74.8723 30.5261C74.8723 26.5772 78.3987 24.7067 86.5758 24.343V23.6675C86.5758 21.3293 85.3493 19.7965 82.4872 19.7965C80.0085 19.7965 78.6031 20.9136 77.9898 23.1739L75.3833 22.6023C76.0988 19.3029 78.7309 17.4324 82.5895 17.4324C86.8314 17.4324 89.3356 19.6926 89.3356 23.3817V32.0849C89.3101 33.6177 89.4889 34.527 89.6678 35.4623ZM86.5503 28.7075V26.4993C80.2896 26.811 77.7087 27.9022 77.7087 30.3702C77.7087 32.1628 79.0119 33.4618 81.3373 33.4618C84.3271 33.4878 86.5503 31.5393 86.5503 28.7075Z" fill="#3A3A39"/>
<path d="M100.477 33.2281C100.963 33.2281 101.576 33.1502 102.215 33.0203V35.2805C101.218 35.5663 100.4 35.6442 99.6593 35.6442C96.7206 35.6442 95.6218 34.1114 95.6218 31.3056V20.1604H92.5043V17.7962H95.6474V12.3665H98.4838V17.7962H102.087V20.1604H98.4838V30.838C98.4583 32.6566 99.1993 33.2281 100.477 33.2281Z" fill="#3A3A39"/>
<path d="M110.596 16.2375V17.7703H114.353V20.1344H110.596V35.4364H107.76V20.1344H104.642V17.7703H107.76V16.4453C107.76 12.6263 109.14 10.6519 112.538 10.6519C113.075 10.6519 113.637 10.7298 114.353 10.8597V13.1979C113.714 13.0939 113.126 13.016 112.666 13.016C110.903 13.042 110.596 14.0812 110.596 16.2375Z" fill="#3A3A39"/>
<path d="M116.141 26.837C116.141 21.2254 119.285 17.4324 124.523 17.4324C129.532 17.4324 132.649 20.9136 132.649 26.4733C132.649 31.7212 129.889 35.8 124.319 35.8C119.233 35.826 116.141 32.4486 116.141 26.837ZM129.736 26.4733C129.736 22.2646 127.641 19.8225 124.549 19.8225C121.405 19.8225 119.029 22.2906 119.029 26.6811C119.029 31.0197 121.431 33.4099 124.37 33.4099C127.334 33.4099 129.736 30.9678 129.736 26.4733Z" fill="#3A3A39"/>
<path d="M146.934 35.4623L141.772 28.24L136.687 35.4623H133.262L140.111 26.2395L133.927 17.7961H137.223L141.848 24.369L146.448 17.7961H149.744L143.586 26.1876L150.358 35.4623H146.934Z" fill="#3A3A39"/>
</g>
<defs>
<linearGradient id="paint0_linear" x1="1.42835" y1="32.001" x2="33.974" y2="-0.0109742" gradientUnits="userSpaceOnUse">
<stop stop-color="#FF5000"/>
<stop offset="1" stop-color="#FF4614"/>
</linearGradient>
<clipPath id="clip0">
<rect width="150" height="48.3221" fill="white"/>
</clipPath>
</defs>
</svg>
