<?xml version="1.0" encoding="utf-8"?>
<!-- Generator: Adobe Illustrator 24.1.2, SVG Export Plug-In . SVG Version: 6.00 Build 0)  -->
<svg version="1.1" id="Ebene_1" xmlns="http://www.w3.org/2000/svg" xmlns:xlink="http://www.w3.org/1999/xlink" x="0px" y="0px"
	 viewBox="0 0 300 91.3" enable-background="new 0 0 300 91.3" xml:space="preserve">
<g>
	<g>
		<g>
			<g>
				<defs>
					<rect id="SVGID_1_" x="1.9" y="-4.8" width="264.1" height="85.2"/>
				</defs>
				<clipPath id="SVGID_2_">
					<use xlink:href="#SVGID_1_"  overflow="visible"/>
				</clipPath>
				<path clip-path="url(#SVGID_2_)" d="M11.2,18.6v15.5h0.1c2.2-2.9,4.8-4.2,8.5-4.2c6.7,0,10,4.5,10,11.1V57h-9.5V43.8
					c0-3-0.4-6.3-4.2-6.3c-3.7,0-4.9,3.2-4.9,6.3v13.6H1.9V18.6H11.2z"/>
			</g>
		</g>
		<g>
			<g>
				<defs>
					<rect id="SVGID_3_" x="1.9" y="-4.8" width="264.1" height="85.2"/>
				</defs>
				<clipPath id="SVGID_4_">
					<use xlink:href="#SVGID_3_"  overflow="visible"/>
				</clipPath>
				<path clip-path="url(#SVGID_4_)" d="M61.3,45.7H41.7c0,3.8,2.1,5.9,5.9,5.9c2.1,0,3.5-0.7,4.5-2.4h9c-1.5,6.3-7.4,9-13.4,9
					c-8.7,0-15.2-4.9-15.2-14c0-8.8,6-14.1,14.7-14.1c9-0.2,14.2,5.4,14.2,14.4V45.7z M52.7,40.3c-0.4-2.5-2.8-4.1-5.3-4.1
					c-2.7,0-5,1.4-5.5,4.1H52.7z"/>
			</g>
		</g>
		<g>
			<g>
				<defs>
					<rect id="SVGID_5_" x="1.9" y="-4.8" width="264.1" height="85.2"/>
				</defs>
				<clipPath id="SVGID_6_">
					<use xlink:href="#SVGID_5_"  overflow="visible"/>
				</clipPath>
				<rect x="64" y="18.6" clip-path="url(#SVGID_6_)" width="9.3" height="38.7"/>
			</g>
		</g>
		<g>
			<g>
				<defs>
					<rect id="SVGID_7_" x="1.9" y="-4.8" width="264.1" height="85.2"/>
				</defs>
				<clipPath id="SVGID_8_">
					<use xlink:href="#SVGID_7_"  overflow="visible"/>
				</clipPath>
				<polygon clip-path="url(#SVGID_8_)" points="91.2,44.5 97.4,30.9 107.9,30.9 94.1,57.2 88.2,57.2 74.4,30.9 84.8,30.9 				"/>
			</g>
		</g>
		<g>
			<g>
				<defs>
					<rect id="SVGID_9_" x="1.9" y="-4.8" width="264.1" height="85.2"/>
				</defs>
				<clipPath id="SVGID_10_">
					<use xlink:href="#SVGID_9_"  overflow="visible"/>
				</clipPath>
				<path clip-path="url(#SVGID_10_)" d="M134.7,45.7H115c0,3.8,2.1,5.9,5.9,5.9c2.1,0,3.5-0.7,4.5-2.4h9c-1.5,6.3-7.4,9-13.4,9
					c-8.7,0-15.2-4.9-15.2-14c0-8.8,6-14.1,14.7-14.1c9.1,0,14.4,5.6,14.4,14.7L134.7,45.7L134.7,45.7z M126,40.3
					c-0.4-2.5-2.7-4.1-5.3-4.1c-2.7,0-5,1.4-5.5,4.1H126z"/>
			</g>
		</g>
		<g>
			<g>
				<defs>
					<rect id="SVGID_11_" x="1.9" y="-4.8" width="264.1" height="85.2"/>
				</defs>
				<clipPath id="SVGID_12_">
					<use xlink:href="#SVGID_11_"  overflow="visible"/>
				</clipPath>
				<polygon clip-path="url(#SVGID_12_)" points="148.3,57.2 139.1,57.2 139.1,38.7 136.1,38.7 136.1,30.9 139.1,30.9 139.1,23 
					148.3,23 148.3,30.9 153.8,30.9 153.8,38.7 148.3,38.7 				"/>
			</g>
		</g>
		<g>
			<g>
				<defs>
					<rect id="SVGID_13_" x="1.9" y="-4.8" width="264.1" height="85.2"/>
				</defs>
				<clipPath id="SVGID_14_">
					<use xlink:href="#SVGID_13_"  overflow="visible"/>
				</clipPath>
				<path clip-path="url(#SVGID_14_)" d="M165.4,22.6c0,2.9-2.4,5.2-5.3,5.2c-2.9,0-5.3-2.4-5.3-5.2c0-2.9,2.4-5.3,5.3-5.3
					C163.1,17.4,165.4,19.8,165.4,22.6 M164.9,57.2h-9.3V30.9h9.3V57.2z"/>
			</g>
		</g>
		<g>
			<g>
				<defs>
					<rect id="SVGID_15_" x="1.9" y="-4.8" width="264.1" height="85.2"/>
				</defs>
				<clipPath id="SVGID_16_">
					<use xlink:href="#SVGID_15_"  overflow="visible"/>
				</clipPath>
				<path clip-path="url(#SVGID_16_)" d="M198.3,57.2H189v-2.9h-0.1c-1.6,2.6-4.9,3.8-7.9,3.8c-7.8,0-13.3-6.5-13.3-14.1
					s5.3-14,13.3-14c3,0,6.3,1.2,8.1,3.5v-2.5h9.3L198.3,57.2L198.3,57.2z M177.2,44.1c0,3.4,2.2,5.9,6,5.9c3.8,0,6-2.5,6-5.9
					c0-3.3-2.2-6-6-6C179.4,38.1,177.2,40.8,177.2,44.1"/>
			</g>
		</g>
		<g>
			<g>
				<defs>
					<rect id="SVGID_17_" x="1.9" y="-4.8" width="264.1" height="85.2"/>
				</defs>
				<clipPath id="SVGID_18_">
					<use xlink:href="#SVGID_17_"  overflow="visible"/>
				</clipPath>
				<polygon clip-path="url(#SVGID_18_)" fill="#543764" points="231.6,46.3 219.6,49.3 229,27.8 241,24.9 				"/>
			</g>
		</g>
		<g>
			<g>
				<defs>
					<rect id="SVGID_19_" x="1.9" y="-4.8" width="264.1" height="85.2"/>
				</defs>
				<clipPath id="SVGID_20_">
					<use xlink:href="#SVGID_19_"  overflow="visible"/>
				</clipPath>
				<polygon clip-path="url(#SVGID_20_)" fill="#6F4C83" points="228.3,6.5 240.5,3.9 245.4,15 233.3,17.8 				"/>
			</g>
		</g>
		<g>
			<g>
				<defs>
					<rect id="SVGID_21_" x="1.9" y="-4.8" width="264.1" height="85.2"/>
				</defs>
				<clipPath id="SVGID_22_">
					<use xlink:href="#SVGID_21_"  overflow="visible"/>
				</clipPath>
				<polygon clip-path="url(#SVGID_22_)" fill="#885EA0" points="210.7,47.8 228.3,6.5 233.3,17.8 219.6,49.3 				"/>
			</g>
		</g>
		<g>
			<g>
				<defs>
					<rect id="SVGID_23_" x="1.9" y="-4.8" width="264.1" height="85.2"/>
				</defs>
				<clipPath id="SVGID_24_">
					<use xlink:href="#SVGID_23_"  overflow="visible"/>
				</clipPath>
				<polygon clip-path="url(#SVGID_24_)" fill="#006C73" points="219.6,49.3 231.6,46.3 251.8,49.6 239.8,52.8 				"/>
			</g>
		</g>
	</g>
	<g>
		<polygon fill="#00A2AB" points="244.7,64.1 206.7,57.2 210.7,47.8 239.8,52.8 		"/>
		<polygon fill="#B80718" points="233.3,17.8 245.4,15 266,62.4 254,65.8 		"/>
		<polygon fill="#E2001A" points="229,27.8 233.3,17.8 254,65.8 244.7,64.1 		"/>
	</g>
</g>
</svg>
