<?xml version="1.0" encoding="UTF-8"?>
<svg width="124px" height="50px" viewBox="0 0 124 50" version="1.1" xmlns="http://www.w3.org/2000/svg" xmlns:xlink="http://www.w3.org/1999/xlink">
    <g id="kellerhalscarrard-124w" stroke="none" stroke-width="1" fill="none" fill-rule="evenodd">
        <g id="Group" transform="translate(1.000000, 1.000000)" fill="#000000">
            <path d="M34.6185,47.3733 C29.8449,47.3733 28.3923,43.632 28.3923,31.4343 C28.3923,20.8314 29.9151,17.0199 34.2036,17.0199 C36.6948,17.0199 38.5335,17.9433 39.8088,19.584 C38.7711,19.4454 37.8018,19.3068 37.179,19.3068 C33.9273,19.3068 31.3668,22.0788 31.3668,25.614 C31.3668,29.3553 34.2729,32.2659 38.0097,32.2659 C41.9535,32.2659 44.8596,29.2869 44.8596,25.1289 C44.8596,19.6542 39.9465,15.8418 32.8896,15.8418 C25.3836,15.8418 18.7758,20.8548 16.4673,27.5346 L16.4673,6.39488462e-15 L2.23820962e-14,6.39488462e-15 L2.23820962e-14,0.9018 L1.6605,0.9018 C4.1517,0.9018 4.8429,1.8711 4.8429,5.6835 L4.8429,41.8275 C4.8429,45.7776 3.8736,47.511 1.6605,47.511 L2.23820962e-14,47.511 L2.23820962e-14,48.411 L19.0962,48.411 L19.0962,47.511 C17.2278,47.3724 16.4673,46.8864 16.4673,45.7776 L16.4673,37.8675 C18.6885,44.2935 24.9003,48.9672 32.1282,48.9672 C38.4669,48.9672 43.1271,45.5463 44.8452,40.3785 C44.8452,40.3785 44.3331,40.2201 44.3322,40.2228 C42.4926,44.9694 38.6325,47.3733 34.6185,47.3733" id="Fill-4"></path>
            <path d="M72.2403,23.9517 L67.896,23.9517 L67.896,23.4216 L68.2479,23.4216 C68.5476,23.4216 68.7528,23.4027 68.8626,23.3667 C68.9724,23.3298 69.0273,23.2659 69.0273,23.1732 C69.0273,23.0382 68.8689,22.7493 68.5539,22.3074 L66.8745,19.9368 L65.8827,20.808 L65.8827,22.4982 C65.8827,22.8402 65.9619,23.0796 66.1185,23.2164 C66.2769,23.3523 66.5766,23.4216 67.0194,23.4216 L67.0194,23.9517 L63.1071,23.9517 L63.1071,23.4216 C63.4419,23.4216 63.6885,23.3865 63.8487,23.3172 C64.008,23.2479 64.1124,23.1498 64.1601,23.0229 C64.2078,22.896 64.2321,22.7205 64.2321,22.4982 L64.2321,17.5824 C64.2321,17.3592 64.2105,17.1846 64.1655,17.0604 C64.1214,16.9353 64.0179,16.8372 63.8541,16.7661 C63.6912,16.6941 63.4419,16.659 63.1071,16.659 L63.1071,16.128 L67.0194,16.128 L67.0194,16.659 C66.5388,16.659 66.2283,16.7283 66.0906,16.8669 C65.952,17.0055 65.8827,17.244 65.8827,17.5824 L65.8827,19.9368 L68.3172,17.8074 C68.4864,17.6607 68.6097,17.5347 68.6862,17.4294 C68.7636,17.3232 68.8023,17.2053 68.8023,17.0748 C68.8023,16.7976 68.5386,16.659 68.0112,16.659 L68.0112,16.128 L71.5833,16.128 L71.5833,16.659 C71.3061,16.6824 71.0802,16.7148 70.9047,16.7571 C70.7301,16.7994 70.56,16.8687 70.3944,16.965 C70.2288,17.0604 70.0479,17.1873 69.8517,17.3457 C69.6555,17.5032 69.3459,17.7669 68.9229,18.1359 L68.1039,18.846 L70.4115,22.1346 C70.6581,22.4847 70.8597,22.7448 71.0172,22.9167 C71.1747,23.0868 71.3448,23.211 71.5257,23.2884 C71.7057,23.3649 71.9451,23.4099 72.2403,23.4216 L72.2403,23.9517" id="Fill-5"></path>
            <path d="M76.347,20.8827 C76.347,20.0052 76.0005,19.5669 75.3084,19.5669 C74.9736,19.5669 74.7171,19.6884 74.538,19.9305 C74.3589,20.1726 74.2599,20.4903 74.241,20.8827 L76.347,20.8827 Z M77.778,21.4137 L74.2293,21.4137 C74.2338,21.4857 74.2437,21.6423 74.2617,21.8808 C74.2788,22.1193 74.3319,22.3632 74.4228,22.6134 C74.5137,22.8636 74.6694,23.0742 74.8899,23.2452 C75.1113,23.4162 75.4083,23.5017 75.7818,23.5017 C75.9852,23.5017 76.2318,23.4504 76.5198,23.346 C76.8087,23.2425 77.058,23.0418 77.2704,22.7466 L77.7204,23.0517 C77.2659,23.7789 76.545,24.1425 75.5568,24.1425 C75.114,24.1425 74.7117,24.0795 74.3481,23.9517 C73.9845,23.8248 73.6758,23.6484 73.422,23.4216 C73.1682,23.1939 72.9738,22.9266 72.8388,22.6197 C72.7047,22.311 72.6372,21.9807 72.6372,21.627 C72.6372,21.1617 72.7497,20.7306 72.9747,20.3346 C73.1997,19.9377 73.5219,19.6227 73.9413,19.3878 C74.3607,19.1538 74.8395,19.0359 75.3777,19.0359 C75.9042,19.0359 76.3497,19.1493 76.7133,19.377 C77.0769,19.6038 77.3451,19.8981 77.5179,20.2599 C77.6916,20.6208 77.778,21.0051 77.778,21.4137 L77.778,21.4137 Z" id="Fill-6"></path>
            <path d="M81.7443,23.9517 L78.4269,23.9517 L78.4269,23.4216 L78.6753,23.4216 C78.8985,23.4216 79.0605,23.3901 79.1631,23.3289 C79.2648,23.2677 79.3269,23.1804 79.3503,23.0697 C79.3737,22.9572 79.3845,22.7943 79.3845,22.5792 L79.3845,17.6634 C79.3845,17.3862 79.3206,17.2089 79.1919,17.1324 C79.0632,17.055 78.8076,17.0172 78.4269,17.0172 L78.4269,16.4862 L80.8731,15.9894 L80.8731,22.5792 C80.8731,22.7943 80.8839,22.9572 80.9055,23.0661 C80.9262,23.1759 80.9874,23.2623 81.09,23.3262 C81.1917,23.3892 81.3537,23.4216 81.5778,23.4216 L81.7443,23.4216 L81.7443,23.9517" id="Fill-7"></path>
            <path d="M85.7115,23.9517 L82.3941,23.9517 L82.3941,23.4216 L82.6416,23.4216 C82.8648,23.4216 83.0277,23.3901 83.1294,23.3289 C83.2311,23.2677 83.2941,23.1804 83.3166,23.0697 C83.34,22.9572 83.3517,22.7943 83.3517,22.5792 L83.3517,17.6634 C83.3517,17.3862 83.2869,17.2089 83.1582,17.1324 C83.0295,17.055 82.7748,17.0172 82.3941,17.0172 L82.3941,16.4862 L84.8403,15.9894 L84.8403,22.5792 C84.8403,22.7943 84.8502,22.9572 84.8718,23.0661 C84.8934,23.1759 84.9546,23.2623 85.0563,23.3262 C85.1589,23.3892 85.3209,23.4216 85.5441,23.4216 L85.7115,23.4216 L85.7115,23.9517" id="Fill-8"></path>
            <path d="M89.9523,20.8827 C89.9523,20.0052 89.6058,19.5669 88.9137,19.5669 C88.5789,19.5669 88.3224,19.6884 88.1433,19.9305 C87.9642,20.1726 87.8652,20.4903 87.8463,20.8827 L89.9523,20.8827 Z M91.3833,21.4137 L87.8346,21.4137 C87.8382,21.4857 87.849,21.6423 87.8661,21.8808 C87.8832,22.1193 87.9372,22.3632 88.0281,22.6134 C88.1181,22.8636 88.2738,23.0742 88.4952,23.2452 C88.7166,23.4162 89.0136,23.5017 89.3862,23.5017 C89.5905,23.5017 89.8371,23.4504 90.1251,23.346 C90.414,23.2425 90.6633,23.0418 90.8757,22.7466 L91.3257,23.0517 C90.8712,23.7789 90.1503,24.1425 89.1612,24.1425 C88.7193,24.1425 88.3161,24.0795 87.9525,23.9517 C87.5889,23.8248 87.2802,23.6484 87.0264,23.4216 C86.7726,23.1939 86.5782,22.9266 86.4441,22.6197 C86.31,22.311 86.2425,21.9807 86.2425,21.627 C86.2425,21.1617 86.355,20.7306 86.58,20.3346 C86.805,19.9377 87.1263,19.6227 87.5457,19.3878 C87.966,19.1538 88.4448,19.0359 88.983,19.0359 C89.5095,19.0359 89.955,19.1493 90.3186,19.377 C90.6822,19.6038 90.9504,19.8981 91.1232,20.2599 C91.296,20.6208 91.3833,21.0051 91.3833,21.4137 L91.3833,21.4137 Z" id="Fill-9"></path>
            <path d="M97.1235,19.9476 C97.1235,20.1708 97.0551,20.3463 96.9183,20.4759 C96.7815,20.6046 96.6213,20.6694 96.4368,20.6694 C96.2172,20.6694 96.0255,20.5614 95.8599,20.3463 C95.7834,20.25 95.7195,20.1807 95.6691,20.1384 C95.6196,20.0952 95.5485,20.0745 95.4558,20.0745 C95.1561,20.0745 94.9221,20.2365 94.7547,20.5623 C94.5873,20.8872 94.5036,21.2247 94.5036,21.5748 L94.5036,22.5792 C94.5036,22.9023 94.545,23.1228 94.6278,23.2425 C94.7106,23.3613 94.9293,23.4216 95.283,23.4216 L95.589,23.4216 L95.589,23.9517 L92.0052,23.9517 L92.0052,23.4216 L92.3058,23.4216 C92.6289,23.4216 92.8269,23.3595 92.8998,23.2371 C92.9727,23.1129 93.0096,22.8942 93.0096,22.5792 L93.0096,20.8944 C93.0096,20.6361 92.9835,20.4516 92.9313,20.34 C92.88,20.2284 92.7864,20.1546 92.6514,20.1177 C92.5173,20.0808 92.3013,20.0637 92.0052,20.0637 L92.0052,19.5327 L94.2561,19.0359 C94.3137,19.2321 94.3668,19.6497 94.4172,20.2887 C94.5252,20.061 94.6665,19.8531 94.8411,19.665 C95.0166,19.4769 95.2128,19.3248 95.4297,19.2096 C95.6475,19.0944 95.8698,19.0359 96.0966,19.0359 C96.4116,19.0359 96.6618,19.125 96.8463,19.3014 C97.0308,19.4778 97.1235,19.6938 97.1235,19.9476" id="Fill-10"></path>
            <path d="M103.7628,23.9517 L100.7973,23.9517 L100.7973,23.4216 C101.0628,23.4216 101.2455,23.3739 101.3454,23.2803 C101.4453,23.1849 101.4957,23.0481 101.4957,22.8672 L101.4957,20.9286 C101.4957,20.736 101.4831,20.5632 101.4579,20.4093 C101.4336,20.2554 101.367,20.1159 101.259,19.9908 C101.151,19.8657 100.9863,19.8036 100.7631,19.8036 C100.5822,19.8036 100.3986,19.8531 100.2123,19.9512 C100.0251,20.0493 99.882,20.1762 99.7821,20.3346 C99.6741,20.511 99.6057,20.6811 99.5769,20.8449 C99.5481,21.0087 99.5337,21.2058 99.5337,21.4362 L99.5337,22.4289 C99.5337,22.698 99.5445,22.8951 99.5661,23.0202 C99.5868,23.1453 99.6462,23.2434 99.7443,23.3145 C99.8424,23.3856 100.0053,23.4216 100.2321,23.4216 L100.2321,23.9517 L97.209,23.9517 L97.209,23.4216 C97.4664,23.4216 97.6563,23.3946 97.7769,23.3406 C97.8984,23.2866 97.9731,23.2065 98.0019,23.1012 C98.0307,22.995 98.0451,22.8213 98.0451,22.5792 L98.0451,17.7381 C98.0451,17.4492 97.9992,17.2566 97.9065,17.1585 C97.8147,17.0604 97.5825,17.0091 97.209,17.0055 L97.209,16.4862 L99.5337,15.9894 L99.5337,19.8846 C99.7605,19.6452 99.9963,19.4445 100.2411,19.2816 C100.485,19.1178 100.8243,19.0359 101.259,19.0359 C101.4597,19.0359 101.6586,19.0647 101.8593,19.1232 C102.0591,19.1808 102.2391,19.2645 102.3984,19.377 C102.5586,19.4877 102.6747,19.6146 102.7476,19.7577 C102.9051,20.0376 102.9843,20.4039 102.9843,20.8539 L102.9843,22.5792 C102.9843,22.9023 103.0257,23.1228 103.1085,23.2425 C103.1904,23.3613 103.4091,23.4216 103.7628,23.4216 L103.7628,23.9517" id="Fill-11"></path>
            <path d="M107.8092,22.7808 L107.8092,21.3498 C107.0784,21.5811 106.614,21.8061 106.416,22.0275 C106.218,22.2489 106.119,22.4649 106.119,22.6773 C106.119,22.8537 106.173,22.9959 106.2801,23.1039 C106.3881,23.211 106.5402,23.2659 106.7364,23.2659 C106.9479,23.2659 107.1342,23.2209 107.2962,23.1327 C107.4573,23.0436 107.6292,22.9266 107.8092,22.7808 Z M110.4579,22.7349 C110.4579,23.0265 110.3985,23.2758 110.2788,23.4819 C110.16,23.6871 109.9989,23.8392 109.7973,23.9373 C109.5957,24.0354 109.3671,24.0849 109.1133,24.0849 C108.7902,24.0849 108.5211,24.0084 108.306,23.8572 C108.0909,23.7042 107.9613,23.5224 107.919,23.3118 C107.2773,23.8266 106.6311,24.0849 105.9804,24.0849 C105.5655,24.0849 105.2244,23.9841 104.9589,23.7816 C104.6934,23.58 104.5611,23.3136 104.5611,22.9824 C104.5611,22.7097 104.6322,22.4622 104.7744,22.2417 C104.9175,22.0194 105.1254,21.8232 105.4008,21.6504 C105.6762,21.4767 106.0038,21.3237 106.3845,21.1914 C106.7652,21.0582 107.2404,20.9187 107.8092,20.7729 L107.8092,20.4444 C107.8092,20.1708 107.7453,19.9566 107.6166,19.8009 C107.4879,19.6452 107.2503,19.5669 106.9038,19.5669 C106.6077,19.5669 106.3944,19.6281 106.263,19.7514 C106.1325,19.8747 106.0461,20.061 106.0038,20.3112 C105.9732,20.4876 105.9156,20.6334 105.8337,20.7468 C105.7509,20.8602 105.5781,20.9169 105.3171,20.9169 C105.1551,20.9169 105.0129,20.871 104.8896,20.7792 C104.7672,20.6865 104.7051,20.5497 104.7051,20.3688 C104.7051,20.0115 104.8995,19.7001 105.2883,19.4346 C105.6762,19.1691 106.2729,19.0359 107.0766,19.0359 C107.9235,19.0359 108.5049,19.1781 108.8226,19.4634 C109.1394,19.7478 109.2978,20.1285 109.2978,20.6055 L109.2978,22.4289 C109.2978,22.6593 109.3041,22.8285 109.3158,22.9365 C109.3266,23.0436 109.359,23.1255 109.4103,23.1822 C109.4625,23.2371 109.5444,23.2659 109.656,23.2659 C109.7559,23.2659 109.8432,23.2137 109.9188,23.1093 C109.9935,23.0058 110.0313,22.8807 110.0313,22.7349 L110.4579,22.7349 L110.4579,22.7349 Z" id="Fill-12"></path>
            <path d="M114.2784,23.9517 L110.961,23.9517 L110.961,23.4216 L111.2094,23.4216 C111.4326,23.4216 111.5946,23.3901 111.6963,23.3289 C111.7989,23.2677 111.861,23.1804 111.8844,23.0697 C111.9069,22.9572 111.9186,22.7943 111.9186,22.5792 L111.9186,17.6634 C111.9186,17.3862 111.8538,17.2089 111.7251,17.1324 C111.5973,17.055 111.3417,17.0172 110.961,17.0172 L110.961,16.4862 L113.4072,15.9894 L113.4072,22.5792 C113.4072,22.7943 113.418,22.9572 113.4396,23.0661 C113.4603,23.1759 113.5215,23.2623 113.6241,23.3262 C113.7258,23.3892 113.8878,23.4216 114.111,23.4216 L114.2784,23.4216 L114.2784,23.9517" id="Fill-13"></path>
            <path d="M119.8539,22.5792 C119.8539,22.9095 119.7549,23.1921 119.5569,23.427 C119.3589,23.661 119.088,23.8392 118.7433,23.9607 C118.3986,24.0822 118.0017,24.1425 117.5517,24.1425 C117.2475,24.1425 116.9415,24.1128 116.6346,24.0534 C116.3268,23.9931 116.0577,23.904 115.8264,23.7852 L115.6014,24.1083 L115.1514,24.1083 L115.0938,22.608 L115.5789,22.608 C115.6635,22.8654 115.857,23.0967 116.1612,23.3028 C116.4654,23.508 116.9055,23.6115 117.4824,23.6115 C117.6282,23.6115 117.7866,23.6007 117.9558,23.58 C118.125,23.5584 118.287,23.4999 118.4436,23.4036 C118.5993,23.3073 118.6767,23.1597 118.6767,22.9599 C118.6767,22.7862 118.5975,22.6602 118.4373,22.5819 C118.278,22.5027 117.9792,22.4073 117.54,22.2966 C117.0099,22.1607 116.5752,22.0338 116.2359,21.9123 C115.8975,21.7917 115.6113,21.6171 115.3764,21.3903 C115.1415,21.1626 115.0245,20.871 115.0245,20.5137 C115.0245,20.0592 115.2333,19.7001 115.6509,19.4346 C116.0676,19.1691 116.6157,19.0359 117.2925,19.0359 C117.7155,19.0359 118.0539,19.071 118.3077,19.1403 C118.5615,19.2096 118.7748,19.2843 118.9485,19.3653 L119.0862,19.071 L119.5479,19.071 L119.5479,20.4093 L119.0754,20.4093 C119.0331,20.2518 118.9368,20.1069 118.7865,19.9764 C118.6362,19.8459 118.4373,19.7451 118.1898,19.674 C117.9414,19.602 117.6543,19.5669 117.3267,19.5669 C117.0576,19.5669 116.7894,19.5957 116.5221,19.6533 C116.2548,19.7109 116.1207,19.8477 116.1207,20.0637 C116.1207,20.1519 116.1468,20.2248 116.199,20.2824 C116.2503,20.34 116.3403,20.394 116.4672,20.4444 C116.5941,20.4939 116.8173,20.5596 117.1368,20.6406 C117.4554,20.7207 117.6462,20.7693 117.7074,20.7846 C118.3347,20.9421 118.8486,21.1365 119.2509,21.3669 C119.6532,21.5982 119.8539,22.0023 119.8539,22.5792" id="Fill-14"></path>
            <path d="M70.8327,33.9201 L70.2909,33.9201 C70.2099,33.5898 70.0767,33.2928 69.8922,33.0318 C69.5997,33.336 69.2649,33.597 68.8887,33.8166 C68.5116,34.0353 68.0013,34.1451 67.3596,34.1451 C66.6558,34.1451 66.0024,33.9732 65.4003,33.6312 C64.7991,33.2892 64.3185,32.8113 63.9612,32.1975 C63.603,31.5846 63.4248,30.8925 63.4248,30.1239 C63.4248,29.5767 63.5211,29.0565 63.7155,28.5597 C63.9099,28.0638 64.1871,27.6273 64.5471,27.2502 C64.9062,26.8731 65.3355,26.577 65.8332,26.3619 C66.3309,26.1468 66.8763,26.0388 67.4694,26.0388 C68.4459,26.0388 69.2541,26.3583 69.8922,26.9964 C69.9768,26.8308 70.0596,26.5905 70.1406,26.2755 L70.6599,26.2755 L70.7517,29.1537 L70.1982,29.1537 C70.0983,28.6659 69.9174,28.2312 69.6555,27.8505 C69.3945,27.4698 69.0831,27.1782 68.724,26.9757 C68.3649,26.7741 67.9887,26.6733 67.5963,26.6733 C67.1571,26.6733 66.7638,26.7939 66.4137,27.0342 C66.0627,27.2745 65.7891,27.6408 65.5911,28.1331 C65.3931,28.6254 65.2941,29.2392 65.2941,29.9736 C65.2941,30.6891 65.376,31.284 65.5416,31.7592 C65.7072,32.2344 65.9124,32.5926 66.1563,32.8356 C66.4002,33.0777 66.6459,33.2424 66.8925,33.3288 C67.1382,33.4152 67.3695,33.4584 67.5846,33.4584 C68.058,33.4584 68.4837,33.3315 68.8626,33.0777 C69.2415,32.8239 69.552,32.5035 69.7941,32.1165 C70.0371,31.7304 70.1982,31.347 70.2792,30.9663 L70.8327,30.9663 L70.8327,33.9201" id="Fill-15"></path>
            <path d="M75.3885,32.8293 L75.3885,31.3983 C74.6577,31.6296 74.1933,31.8555 73.9953,32.0769 C73.7973,32.2974 73.6983,32.5143 73.6983,32.7258 C73.6983,32.9031 73.7523,33.0444 73.8594,33.1524 C73.9674,33.2604 74.1195,33.3144 74.3157,33.3144 C74.5272,33.3144 74.7135,33.2694 74.8755,33.1812 C75.0366,33.093 75.2085,32.976 75.3885,32.8293 Z M78.0372,32.7834 C78.0372,33.0759 77.9778,33.3243 77.8581,33.5304 C77.7384,33.7365 77.5782,33.8886 77.3766,33.9867 C77.1741,34.0848 76.9464,34.1334 76.6926,34.1334 C76.3695,34.1334 76.1004,34.0578 75.8853,33.9057 C75.6693,33.7536 75.5406,33.5718 75.4983,33.3603 C74.8557,33.8751 74.2095,34.1334 73.5597,34.1334 C73.1439,34.1334 72.8037,34.0326 72.5382,33.831 C72.2727,33.6285 72.1404,33.3621 72.1404,33.0318 C72.1404,32.7582 72.2115,32.5107 72.3537,32.2902 C72.4959,32.0688 72.7047,31.8717 72.9801,31.6989 C73.2555,31.5252 73.5831,31.3722 73.9638,31.2399 C74.3445,31.1076 74.8188,30.9672 75.3885,30.8214 L75.3885,30.4929 C75.3885,30.2202 75.3237,30.0051 75.195,29.8494 C75.0672,29.6937 74.8287,29.6154 74.4831,29.6154 C74.187,29.6154 73.9737,29.6775 73.8423,29.8008 C73.7118,29.9232 73.6245,30.1104 73.5831,30.3597 C73.5525,30.537 73.4949,30.6819 73.413,30.7953 C73.3302,30.9096 73.1574,30.9663 72.8964,30.9663 C72.7344,30.9663 72.5922,30.9195 72.4689,30.8277 C72.3465,30.735 72.2844,30.5982 72.2844,30.4173 C72.2844,30.06 72.4788,29.7486 72.8676,29.4831 C73.2555,29.2176 73.8522,29.0853 74.6559,29.0853 C75.5028,29.0853 76.0842,29.2275 76.401,29.5119 C76.7187,29.7963 76.8771,30.177 76.8771,30.654 L76.8771,32.4774 C76.8771,32.7087 76.8834,32.877 76.8942,32.985 C76.9059,33.093 76.9383,33.1749 76.9896,33.2307 C77.0418,33.2865 77.1237,33.3144 77.2353,33.3144 C77.3352,33.3144 77.4225,33.2622 77.4972,33.1587 C77.5728,33.0543 77.6106,32.9292 77.6106,32.7834 L78.0372,32.7834 L78.0372,32.7834 Z" id="Fill-16"></path>
            <path d="M83.6298,29.997 C83.6298,30.2202 83.5623,30.3957 83.4255,30.5244 C83.2887,30.6531 83.1285,30.7179 82.944,30.7179 C82.7244,30.7179 82.5318,30.6099 82.3671,30.3948 C82.2897,30.2985 82.2267,30.2292 82.1763,30.1869 C82.1259,30.1446 82.0548,30.1239 81.963,30.1239 C81.6624,30.1239 81.4293,30.2859 81.2619,30.6108 C81.0945,30.9357 81.0108,31.2732 81.0108,31.6233 L81.0108,32.6277 C81.0108,32.9508 81.0522,33.1713 81.135,33.291 C81.2178,33.4107 81.4356,33.4701 81.7893,33.4701 L82.0953,33.4701 L82.0953,34.0011 L78.5124,34.0011 L78.5124,33.4701 L78.8121,33.4701 C79.1352,33.4701 79.3332,33.408 79.407,33.2856 C79.4799,33.1623 79.5168,32.9436 79.5168,32.6277 L79.5168,30.9429 C79.5168,30.6846 79.4907,30.5001 79.4385,30.3885 C79.3863,30.2778 79.2927,30.2031 79.1586,30.1671 C79.0245,30.1302 78.8085,30.1122 78.5124,30.1122 L78.5124,29.5812 L80.7624,29.0853 C80.82,29.2815 80.874,29.6982 80.9244,30.3372 C81.0324,30.1104 81.1737,29.9025 81.3483,29.7135 C81.5229,29.5254 81.7191,29.3733 81.9369,29.2581 C82.1547,29.1429 82.3761,29.0853 82.6029,29.0853 C82.9188,29.0853 83.169,29.1735 83.3535,29.3508 C83.538,29.5272 83.6298,29.7423 83.6298,29.997" id="Fill-17"></path>
            <path d="M89.2422,29.997 C89.2422,30.2202 89.1738,30.3957 89.037,30.5244 C88.9002,30.6531 88.74,30.7179 88.5555,30.7179 C88.3359,30.7179 88.1442,30.6099 87.9786,30.3948 C87.9012,30.2985 87.8382,30.2292 87.7878,30.1869 C87.7374,30.1446 87.6663,30.1239 87.5745,30.1239 C87.2739,30.1239 87.0408,30.2859 86.8734,30.6108 C86.706,30.9357 86.6223,31.2732 86.6223,31.6233 L86.6223,32.6277 C86.6223,32.9508 86.6637,33.1713 86.7465,33.291 C86.8293,33.4107 87.0471,33.4701 87.4008,33.4701 L87.7068,33.4701 L87.7068,34.0011 L84.1239,34.0011 L84.1239,33.4701 L84.4236,33.4701 C84.7467,33.4701 84.9447,33.408 85.0176,33.2856 C85.0914,33.1623 85.1274,32.9436 85.1274,32.6277 L85.1274,30.9429 C85.1274,30.6846 85.1013,30.5001 85.05,30.3885 C84.9978,30.2778 84.9042,30.2031 84.7701,30.1671 C84.6351,30.1302 84.4191,30.1122 84.1239,30.1122 L84.1239,29.5812 L86.3739,29.0853 C86.4315,29.2815 86.4855,29.6982 86.5359,30.3372 C86.6439,30.1104 86.7852,29.9025 86.9598,29.7135 C87.1344,29.5254 87.3306,29.3733 87.5484,29.2581 C87.7662,29.1429 87.9876,29.0853 88.2144,29.0853 C88.5303,29.0853 88.7805,29.1735 88.965,29.3508 C89.1495,29.5272 89.2422,29.7423 89.2422,29.997" id="Fill-18"></path>
            <path d="M93.1122,32.8293 L93.1122,31.3983 C92.3814,31.6296 91.917,31.8555 91.719,32.0769 C91.521,32.2974 91.422,32.5143 91.422,32.7258 C91.422,32.9031 91.4751,33.0444 91.5831,33.1524 C91.6911,33.2604 91.8432,33.3144 92.0394,33.3144 C92.2509,33.3144 92.4372,33.2694 92.5983,33.1812 C92.7603,33.093 92.9313,32.976 93.1122,32.8293 Z M95.7609,32.7834 C95.7609,33.0759 95.7015,33.3243 95.5818,33.5304 C95.4621,33.7365 95.3019,33.8886 95.1003,33.9867 C94.8978,34.0848 94.6701,34.1334 94.4163,34.1334 C94.0932,34.1334 93.8232,34.0578 93.6081,33.9057 C93.393,33.7536 93.2643,33.5718 93.222,33.3603 C92.5794,33.8751 91.9332,34.1334 91.2834,34.1334 C90.8676,34.1334 90.5274,34.0326 90.2619,33.831 C89.9964,33.6285 89.8641,33.3621 89.8641,33.0318 C89.8641,32.7582 89.9352,32.5107 90.0774,32.2902 C90.2196,32.0688 90.4284,31.8717 90.7029,31.6989 C90.9783,31.5252 91.3059,31.3722 91.6875,31.2399 C92.0682,31.1076 92.5425,30.9672 93.1122,30.8214 L93.1122,30.4929 C93.1122,30.2202 93.0474,30.0051 92.9187,29.8494 C92.79,29.6937 92.5524,29.6154 92.2059,29.6154 C91.9107,29.6154 91.6965,29.6775 91.566,29.8008 C91.4346,29.9232 91.3482,30.1104 91.3059,30.3597 C91.2753,30.537 91.2186,30.6819 91.1358,30.7953 C91.0539,30.9096 90.8811,30.9663 90.6201,30.9663 C90.4581,30.9663 90.3159,30.9195 90.1926,30.8277 C90.0702,30.735 90.0081,30.5982 90.0081,30.4173 C90.0081,30.06 90.2025,29.7486 90.5904,29.4831 C90.9792,29.2176 91.5759,29.0853 92.3796,29.0853 C93.2256,29.0853 93.807,29.2275 94.1247,29.5119 C94.4424,29.7963 94.6008,30.177 94.6008,30.654 L94.6008,32.4774 C94.6008,32.7087 94.6062,32.877 94.6179,32.985 C94.6296,33.093 94.6611,33.1749 94.7133,33.2307 C94.7655,33.2865 94.8474,33.3144 94.9581,33.3144 C95.058,33.3144 95.1462,33.2622 95.2209,33.1587 C95.2956,33.0543 95.3334,32.9292 95.3334,32.7834 L95.7609,32.7834 L95.7609,32.7834 Z" id="Fill-19"></path>
            <path d="M101.3535,29.997 C101.3535,30.2202 101.286,30.3957 101.1492,30.5244 C101.0124,30.6531 100.8522,30.7179 100.6668,30.7179 C100.4481,30.7179 100.2555,30.6099 100.0899,30.3948 C100.0134,30.2985 99.9495,30.2292 99.9,30.1869 C99.8496,30.1446 99.7785,30.1239 99.6867,30.1239 C99.3861,30.1239 99.153,30.2859 98.9856,30.6108 C98.8182,30.9357 98.7345,31.2732 98.7345,31.6233 L98.7345,32.6277 C98.7345,32.9508 98.7759,33.1713 98.8587,33.291 C98.9406,33.4107 99.1593,33.4701 99.513,33.4701 L99.819,33.4701 L99.819,34.0011 L96.2361,34.0011 L96.2361,33.4701 L96.5358,33.4701 C96.8589,33.4701 97.0569,33.408 97.1307,33.2856 C97.2036,33.1623 97.2396,32.9436 97.2396,32.6277 L97.2396,30.9429 C97.2396,30.6846 97.2144,30.5001 97.1622,30.3885 C97.11,30.2778 97.0164,30.2031 96.8823,30.1671 C96.7482,30.1302 96.5322,30.1122 96.2361,30.1122 L96.2361,29.5812 L98.4861,29.0853 C98.5437,29.2815 98.5977,29.6982 98.6481,30.3372 C98.7552,30.1104 98.8974,29.9025 99.072,29.7135 C99.2466,29.5254 99.4428,29.3733 99.6606,29.2581 C99.8775,29.1429 100.0998,29.0853 100.3266,29.0853 C100.6425,29.0853 100.8918,29.1735 101.0772,29.3508 C101.2617,29.5272 101.3535,29.7423 101.3535,29.997" id="Fill-20"></path>
            <path d="M106.0713,32.841 L106.0713,30.5046 C105.9093,30.3084 105.7176,30.1293 105.4944,29.9673 C105.2712,29.8062 105.0057,29.7252 104.6979,29.7252 C104.5089,29.7252 104.3325,29.7774 104.1669,29.8809 C104.0013,29.9853 103.869,30.1176 103.7691,30.2796 C103.5999,30.5451 103.5153,30.9933 103.5153,31.6233 C103.5153,32.2623 103.635,32.7429 103.8753,33.066 C104.1165,33.3891 104.4153,33.5511 104.7726,33.5511 C105.0309,33.5511 105.2712,33.4872 105.4944,33.3603 C105.7176,33.2334 105.9093,33.0606 106.0713,32.841 Z M108.4077,33.9318 C107.5923,33.966 106.848,34.0524 106.1748,34.191 C106.1217,34.0758 106.0866,33.8742 106.0713,33.5853 C105.579,33.9894 105.0381,34.191 104.4495,34.191 C103.9959,34.191 103.5756,34.074 103.1895,33.8391 C102.8025,33.6042 102.4947,33.2838 102.2661,32.8788 C102.0366,32.4729 101.9223,32.0319 101.9223,31.554 C101.9223,31.2579 101.9727,30.9645 102.0726,30.672 C102.1725,30.3795 102.3291,30.1104 102.5433,29.8665 C102.7566,29.6226 103.0203,29.4309 103.3362,29.2923 C103.6521,29.1537 104.0112,29.0853 104.4153,29.0853 C104.7114,29.0853 104.9652,29.1213 105.1767,29.1951 C105.3882,29.268 105.5574,29.3517 105.6843,29.4453 C105.8112,29.5398 105.9399,29.6523 106.0713,29.7828 L106.0713,27.891 C106.0713,27.6336 106.0497,27.4482 106.0074,27.3366 C105.9651,27.225 105.885,27.1548 105.768,27.1233 C105.651,27.0927 105.4593,27.0738 105.1938,27.0657 L105.1938,26.5347 L107.5599,26.0388 L107.5599,32.5008 C107.5599,32.778 107.5725,32.9697 107.5968,33.0777 C107.622,33.1857 107.6922,33.2631 107.8083,33.3117 C107.9235,33.3594 108.1233,33.3891 108.4077,33.4008 L108.4077,33.9318 L108.4077,33.9318 Z" id="Fill-21"></path>
        </g>
    </g>
</svg>