<?xml version="1.0" encoding="utf-8"?>
<!-- Generator: Adobe Illustrator 24.1.2, SVG Export Plug-In . SVG Version: 6.00 Build 0)  -->
<svg version="1.1" id="Ebene_1" xmlns="http://www.w3.org/2000/svg" xmlns:xlink="http://www.w3.org/1999/xlink" x="0px" y="0px"
	 viewBox="0 0 300 155" enable-background="new 0 0 300 155" xml:space="preserve">
<path fill="#DA2323" d="M38.5,14.1c0.8,0,1.7-0.3,2.3-0.9c0.7-0.7,1-1.7,0.9-2.6c0.1-0.9-0.3-1.8-0.9-2.4c-0.7-0.6-1.5-0.8-2.3-0.8
	c-0.8,0-1.7,0.3-2.3,0.9c-0.7,0.7-1,1.5-0.9,2.4C35.1,13,36.2,14.1,38.5,14.1z M37.3,42c-0.1-0.1-0.1-0.3-0.1-0.4l2.9-23.6H40
	c-0.4-0.1-0.7-0.2-1.1-0.2c-0.6,0-0.9-0.1-1.2-0.1c-1.1,0-2.2,0.1-3.3,0.4c-0.8,0.3-1.7,0.6-2.5,0.9c-0.4,0.5-0.7,0.9-0.7,1.5
	c-0.2,0.6-0.3,1-0.3,1.6v0.2l4.2-0.5l-3,20.5c0,0.7,0.3,1.4,0.7,2.1c0.4,0.8,0.8,1.6,1.4,2.2v0.1h0.1c0.6,0,1,0,1.6-0.1
	c0.6-0.1,1.2-0.2,1.9-0.3c0.7-0.1,1.2-0.3,1.9-0.4c0.6-0.2,1.1-0.4,1.7-0.6c0.3-0.5,0.6-1,0.7-1.6c0.2-0.6,0.3-1.1,0.3-1.7V42
	l-4.6,0.5C37.4,42.3,37.3,42.2,37.3,42z M23.1,41.9c0-0.2,0-0.3-0.1-0.5l4.3-35.2h-0.1c-0.4-0.1-0.7-0.2-1.1-0.2
	c-0.6,0-0.9-0.1-1.2-0.1c-1,0-2.2,0.1-3.2,0.4c-0.8,0.2-1.7,0.6-2.5,0.9c-0.4,0.5-0.7,0.9-0.7,1.5c-0.2,0.6-0.3,1-0.3,1.6v0.2
	l4.1-0.5l-1.1,8.4c-0.7-0.3-1.4-0.6-2.1-0.7c-0.8-0.2-1.6-0.3-2.4-0.3c-2.2,0-4.3,0.6-6.3,1.6c-1.9,1-3.5,2.5-4.7,4.3
	c-1.3,1.9-2.2,3.9-2.8,6.1C2.3,31.8,2,34.2,2,36.6c0,1.6,0.2,3.2,0.6,4.8c0.3,1.1,0.8,2.2,1.6,3.2c0.7,0.8,1.5,1.4,2.4,1.9
	c1,0.4,2.1,0.6,3.1,0.6c1.6,0,3.1-0.4,4.5-1c1.6-0.7,3.1-1.9,4.1-3.3h0.1c0.1,0.7,0.3,1.5,0.6,2.2c0.2,0.7,0.5,1.4,0.8,2.1V47h0.1
	c0.5,0,1,0,1.5-0.1l1.9-0.3c0.7-0.1,1.2-0.3,1.9-0.4c0.7-0.1,1.1-0.4,1.7-0.6c0.3-0.5,0.6-1,0.7-1.6c0.2-0.6,0.3-1.1,0.3-1.7v-0.2
	l-4.5,0.4C23.2,42.3,23.1,42.1,23.1,41.9z M18.3,38.5c-0.7,1.2-1.6,2.2-2.8,3c-1,0.7-2.2,1-3.5,1c-1.4,0.1-2.7-0.6-3.6-1.6
	c-0.9-1-1.3-2.8-1.3-5.2c-0.1-0.8,0-1.7,0.1-2.5c0.1-0.9,0.3-1.9,0.5-2.8c0.2-0.9,0.5-1.9,0.7-2.8c0.3-0.8,0.7-1.6,1.1-2.3
	c0.7-1.2,1.8-2.2,2.9-3c1.2-0.8,2.6-1.3,4.1-1.2c0.7,0,1.4,0.1,2.1,0.3c0.7,0.2,1.2,0.4,1.8,0.7L18.3,38.5z M59.7,17.4
	c-2.1,0-4,0.5-5.8,1.4c-1.7,0.8-3.2,2.1-4.4,3.5c-1.7,2-2.8,4.3-3.4,6.8c-0.7,2.5-0.9,5.1-0.9,7.8c0,3.2,0.7,5.6,2.1,7.3
	s3.4,2.6,6,2.6c2.1,0,4-0.4,5.9-1.1c1.6-0.7,3-1.5,4.3-2.6c0.2-0.5,0.4-0.9,0.5-1.5s0.2-1.1,0.2-1.7v-0.3l-0.3,0.2
	c-0.7,0.4-1.3,0.7-2.1,1.1l-2.2,0.8c-0.8,0.3-1.6,0.4-2.2,0.6c-0.7,0.1-1.4,0.2-2.1,0.2c-3.1,0-4.7-2.2-4.7-6.9V34
	c2.6,0,5.3-0.4,7.9-1.1c1.8-0.5,3.4-1.3,4.9-2.3c1-0.8,1.9-1.9,2.4-3.1c0.5-1.1,0.7-2.2,0.7-3.5c0.2-1.8-0.4-3.6-1.7-4.8
	C63.3,18,61.5,17.3,59.7,17.4L59.7,17.4z M61.1,26.3c-0.3,0.7-0.7,1.4-1.4,1.9c-0.9,0.7-2.1,1.1-3.2,1.4c-1.8,0.4-3.6,0.7-5.5,0.7
	c0.2-1,0.4-2,0.7-3c0.3-1,0.7-2,1.2-2.8c0.7-1,1.5-2,2.5-2.6c0.9-0.7,2.2-0.9,3.3-0.9c0.8-0.1,1.7,0.3,2.2,0.9
	c0.5,0.7,0.7,1.6,0.7,2.4C61.5,25,61.4,25.7,61.1,26.3z M165.3,17.5c-2.5,0-4.9,0.9-6.6,2.7v-14l-8.1,1.1v36.4l0.2,0.1
	c1.3,0.9,4.4,3.1,10.5,3.1c9.4,0,14-5.4,14-16.1C175.2,22.4,171.6,17.5,165.3,17.5L165.3,17.5z M161.6,39.9c-1,0.1-2.1-0.2-3-0.7
	V26.5c0.9-1.1,2.3-1.8,3.7-1.8c3,0,4.5,2.3,4.5,7.1C166.9,39,163.9,39.9,161.6,39.9z M212.1,7.3c-2.6,0-4.1,1.5-4.1,4v0.3
	c0,2.5,1.5,4,4.1,4c2.6,0,4.1-1.5,4.1-4v-0.3C216.2,8.8,214.7,7.3,212.1,7.3z M193.9,46.2h8.1v-40l-8.1,1.1V46.2z M265.7,17.7
	c-4.2,0-6.1,1.4-7.1,3.3l-1.1-2.7h-6.6v28h8V27.9c1-2.1,3.1-3.4,5.4-3.4c0.7,0,1.7,0.1,1.7,0.1l1-6.9H265.7z M245.2,19.8
	c-3-1.6-6.5-2.3-9.8-2.2c-9.5,0-14.9,5.5-14.9,15.1c0,9.2,3.8,14.2,10.8,14.2c2.2,0,4.8-0.7,6.1-2.3c0.1-0.2,0.2-0.3,0.3-0.5
	l0.8,2.2h6.8L245.2,19.8L245.2,19.8z M237.2,38.2c-0.9,1-2.2,1.7-3.6,1.6c-2.2,0-4.7-0.8-4.7-7.4c0-5.1,2-7.8,5.7-7.8
	c0.9-0.1,1.8,0.1,2.6,0.5L237.2,38.2z M208,18.3h8.1v28H208V18.3z M133.6,17.5c-6.2,0-12.7,3.8-12.7,14.7c0,6.8,3.3,14.7,12.7,14.7
	c6.2,0,12.7-3.8,12.7-14.7S139.7,17.5,133.6,17.5z M133.6,39.8c-2.8,0-4.4-2.6-4.4-7.5s1.5-7.6,4.4-7.6c2.9,0,4.4,2.6,4.5,7.6
	C138.1,37.3,136.5,39.8,133.6,39.8z M179.8,18.3h8.1v28h-8.1V18.3z M106.3,7.3l-9.5,25.5L87.4,7.3h-8.8l-2.5,38.9h8.2l1.2-21.1
	l8.1,21.1h6.3l8-21.1l1.2,21.1h8.3l-2.6-38.9C114.9,7.3,106.3,7.3,106.3,7.3z M183.9,7.3c-2.6,0-4.1,1.5-4.1,4v0.3
	c0,2.5,1.5,4,4.1,4c2.6,0,4.1-1.5,4.1-4v-0.3C188,8.8,186.5,7.3,183.9,7.3z"/>
</svg>
