<svg xmlns="http://www.w3.org/2000/svg" width="300" height="80" viewBox="0 0 300 80">
  <g fill="none" transform="translate(0 3)">
    <g fill="#FD000D">
      <path d="M0.31388512,0.534626866 L0.31388512,71.0086567 L71.5006784,71.0086567 L71.5006784,0.534626866 L0.31388512,0.534626866 Z M68.5897784,68.1259701 C65.241972,68.1259701 6.57349616,68.1259701 3.22478517,68.1259701 C3.22478517,64.8116418 3.22478517,6.73164179 3.22478517,3.41552239 C6.57349616,3.41552239 65.241972,3.41552239 68.5897784,3.41552239 C68.5897784,6.73253731 68.5897784,64.8116418 68.5897784,68.1259701 Z"/>
      <polygon points="63.571 9.494 36.737 9.494 20.48 35.771 36.737 62.053 63.571 62.053 47.315 35.771"/>
    </g>
    <g fill="#313A3D" transform="translate(91.361 31.343)">
      <path d="M15.9222071,5.72865672 C13.7548621,4.88686567 12.5644505,4.50985075 10.3545907,4.50985075 C7.97467209,4.50985075 5.16779738,5.34985075 5.16779738,8.42328358 C5.16779738,14.0623881 17.920398,12.7558209 17.920398,22.4346269 C17.920398,28.7050746 13.0330167,31.1865672 7.08095884,31.1865672 C4.99864315,31.1865672 2.95703302,30.5991045 1.00316599,29.9668657 L1.42831298,26.0534328 C2.87290819,26.6426866 5.42379014,27.4844776 7.59113523,27.4844776 C10.0144731,27.4844776 13.4138399,26.1376119 13.4138399,22.6871642 C13.4138399,16.1229851 0.663048394,17.9328358 0.663048394,8.80208955 C0.663048394,3.58298507 4.82858435,0.806865672 10.1836273,0.806865672 C12.1402081,0.806865672 14.4758028,1.14179104 16.5156038,1.85731343 L15.9222071,5.72865672 Z"/>
      <polygon points="47.845 30.684 43.215 30.684 37.603 12.674 37.518 12.674 32.034 30.684 27.401 30.684 20.431 9.223 24.807 9.223 29.78 26.979 29.867 26.979 35.392 9.223 40.109 9.223 45.55 26.979 45.636 26.979 50.905 9.223 54.817 9.223"/>
      <path d="M68.9317051 26.4752239C70.5029398 27.4844776 72.7571235 27.9886567 73.9041158 27.9886567 75.7313433 27.9886567 77.9855269 27.2310448 77.9855269 24.9179104 77.9855269 21.0053731 68.5906829 21.3402985 68.5906829 15.3232836 68.5906829 10.8644776 71.9493442 8.71522388 76.2424242 8.71522388 78.113071 8.71522388 79.6408865 9.09492537 81.2157395 9.55701493L80.8747173 13.0074627C79.9819086 12.461194 77.60199 11.9131343 76.6675712 11.9131343 74.6259611 11.9131343 72.8421529 12.7540299 72.8421529 14.5244776 72.8421529 18.9008955 82.2342831 17.638209 82.2342831 24.4961194 82.2342831 29.0820896 78.5373134 31.1865672 74.6693804 31.1865672 72.6304839 31.1865672 70.5490728 30.9770149 68.7200362 30.0089552L68.9317051 26.4752239zM86.006332 26.4752239C87.5784713 27.4844776 89.8308458 27.9886567 90.9796472 27.9886567 92.8077793 27.9886567 95.0601538 27.2310448 95.0601538 24.9179104 95.0601538 21.0053731 85.6680235 21.3402985 85.6680235 15.3232836 85.6680235 10.8644776 89.0248756 8.71522388 93.3179557 8.71522388 95.1858887 8.71522388 96.7191316 9.09492537 98.2903664 9.55701493L97.9493442 13.0074627C97.0574401 12.461194 94.6775215 11.9131343 93.740389 11.9131343 91.7014925 11.9131343 89.9167797 12.7540299 89.9167797 14.5244776 89.9167797 18.9008955 99.3116237 17.638209 99.3116237 24.4961194 99.3116237 29.0820896 95.6110357 31.1865672 91.7458164 31.1865672 89.7042062 31.1865672 87.620986 30.9770149 85.794663 30.0089552L86.006332 26.4752239zM117.630936 12.8408955C116.101312 12.2104478 114.570782 11.9149254 113.295341 11.9149254 108.831298 11.9149254 106.325645 15.8713433 106.325645 19.9522388 106.325645 23.780597 108.407056 27.9904478 113.55043 27.9904478 114.911805 27.9904478 116.609679 27.5704478 117.84351 26.7707463L118.139303 30.3053731C116.48123 31.0629851 114.570782 31.1883582 113.124378 31.1883582 106.579828 31.1883582 102.074175 26.0973134 102.074175 19.9522388 102.074175 13.4319403 106.493894 8.71701493 113.124378 8.71701493 114.739032 8.71701493 116.822252 9.09671642 117.96834 9.55880597L117.630936 12.8408955zM123.497965 10.7364179C125.49706 9.55880597 127.877883 8.7161194 130.638625 8.7161194 136.846676 8.7161194 139.354138 11.7465672 139.354138 17.5961194L139.354138 26.4752239C139.354138 28.9155224 139.438263 30.0528358 139.524197 30.6832836L135.783808 30.6832836 135.783808 27.9044776 135.69697 27.9044776C134.763455 29.2101493 132.63772 31.1874627 128.981456 31.1874627 124.305744 31.1874627 121.033017 29.1662687 121.033017 24.4970149 121.033017 19.1104478 126.985075 17.4277612 131.108096 17.4277612 132.679331 17.4277612 133.784713 17.4277612 135.358661 17.5110448 135.358661 13.8080597 133.996382 11.9140299 130.002714 11.9140299 127.74853 11.9140299 125.326097 12.7549254 123.712347 14.101791L123.497965 10.7364179zM135.359566 20.458209C134.507463 20.458209 133.658978 20.3749254 132.806875 20.3749254 130.63953 20.3749254 125.283582 20.7098507 125.283582 24.4979104 125.283582 26.7698507 127.495251 27.9895522 129.324288 27.9895522 133.276346 27.9895522 135.36047 25.5501493 135.36047 22.3513433L135.36047 20.458209 135.359566 20.458209zM145.526911 9.22298507L149.393939 9.22298507 149.393939 12.6322388 149.480778 12.6322388C150.67119 10.1901493 153.561284 8.71701493 156.579828 8.71701493 162.189959 8.71701493 164.696517 12.1683582 164.696517 17.9337313L164.696517 30.6841791 160.702849 30.6841791 160.702849 19.5743284C160.702849 14.5656716 159.597467 12.1244776 156.113071 11.9140299 151.563094 11.9140299 149.524197 15.5355224 149.524197 20.7510448L149.524197 30.6832836 145.527815 30.6832836 145.527815 9.22298507 145.526911 9.22298507zM181.88512 12.4208955L176.148349 12.4208955 176.148349 24.159403C176.148349 26.6426866 177.677974 27.9886567 179.504297 27.9886567 180.738128 27.9886567 181.630936 27.6098507 182.226142 27.2310448L182.226142 30.5991045C181.334238 30.8498507 180.100407 31.1865672 178.824966 31.1865672 174.701945 31.1865672 172.153777 29.2513433 172.153777 24.9591045L172.153777 12.4208955 167.264586 12.4208955 167.264586 9.22298507 172.153777 9.22298507 172.153777 4.25641791 176.148349 2.99462687 176.148349 9.22298507 181.88512 9.22298507 181.88512 12.4208955zM195.289914 8.7161194C201.876979 8.7161194 206.295794 13.4310448 206.295794 19.9513433 206.295794 26.0964179 201.791949 31.1874627 195.289914 31.1874627 188.74265 31.1874627 184.236997 26.0964179 184.236997 19.9513433 184.236997 13.4310448 188.658526 8.7161194 195.289914 8.7161194zM195.289914 27.9895522C199.963817 27.9895522 202.047942 23.780597 202.047942 19.9513433 202.047942 15.8704478 199.539575 11.9140299 195.289914 11.9140299 190.996834 11.9140299 188.487562 15.8704478 188.487562 19.9513433 188.487562 23.780597 190.568973 27.9895522 195.289914 27.9895522z"/>
    </g>
    <path fill="#313A3D" d="M154.851199,35.7671642 L150.345545,35.7671642 L150.345545,31.3074627 L154.851199,31.3074627 L154.851199,35.7671642 Z M150.599729,40.5662687 L154.59611,40.5662687 L154.59611,62.0274627 L150.599729,62.0274627 L150.599729,40.5662687 Z"/>
  </g>
</svg>
