<svg width="151" height="62" viewBox="0 0 151 62" fill="none" xmlns="http://www.w3.org/2000/svg">
<rect width="150" height="62" fill="white"/>
<path d="M111.274 19.4706C114.279 18.9718 117.033 16.8518 117.033 12.9859C117.033 7 111.149 7 108.269 7H97.626H97V28.3247H104.513C104.513 28.3247 104.513 23.8353 104.513 21.7153C105.89 23.7106 109.145 28.3247 109.145 28.3247H118.285C118.411 28.3247 112.401 20.9671 111.274 19.4706ZM107.768 15.7294C107.768 15.7294 105.514 15.7294 104.638 15.7294C104.638 14.9812 104.638 13.7341 104.638 12.9859C105.389 12.9859 107.267 12.9859 107.267 12.9859C109.27 12.9859 109.521 13.36 109.521 14.2329C109.521 15.1059 108.77 15.7294 107.768 15.7294Z" fill="#C60042"/>
<path d="M127.137 7H120V28.3247H127.763V7H127.137Z" fill="#C60042"/>
<path d="M149.533 7H130V13.6094C130 13.6094 135.134 13.6094 136.135 13.6094C136.135 14.7318 136.135 28.3247 136.135 28.3247H143.898C143.898 28.3247 143.898 14.8565 143.898 13.6094C144.9 13.6094 150.033 13.6094 150.033 13.6094V7H149.533Z" fill="#C60042"/>
<path d="M47.3289 31C46.7028 31.6235 29.5492 48.7082 29.5492 48.7082C29.5492 48.7082 12.02 31.6235 11.394 31C10.7679 31 3.25543 31 0 31C2.8798 33.8682 28.2972 59.1835 29.5492 60.4306C30.8013 59.1835 55.8431 33.7435 58.5977 31C55.4674 31 47.9549 31 47.3289 31Z" fill="#C60042"/>
<path d="M95.217 13.1106V7H94.591H82.4457C79.3155 7 71.803 7 71.177 7C70.6761 7.62353 61.5359 16.7271 61.5359 16.7271C61.5359 16.7271 52.02 7.62353 51.394 7C50.7679 7 43.2554 7 40 7C42.8798 9.86823 60.2838 27.0776 61.4107 28.3247C62.2871 27.3271 71.803 17.8494 77.813 11.7388V28.3247H95.217V22.3388C95.217 22.3388 86.0768 22.3388 85.0751 22.3388C85.0751 21.7153 85.0751 21.2165 85.0751 20.7176C86.202 20.7176 95.217 20.7176 95.217 20.7176V14.6071C95.217 14.6071 86.0768 14.6071 85.0751 14.6071C85.0751 14.1082 85.0751 13.6094 85.0751 13.1106C86.0768 13.1106 95.217 13.1106 95.217 13.1106Z" fill="#C60042"/>
<path d="M21.2855 7L0 28.5741H13.0217L21.2855 20.3435L29.5492 28.5741H42.8214L21.2855 7ZM21.2855 18.9718L12.5209 27.5765H2.50417L21.2855 8.37176L40.4424 27.5765H30.0501L21.2855 18.9718Z" fill="#C60042"/>
<path d="M36.6361 7L30 13.6094L45.025 28.6988H58.4224L36.6361 7ZM31.5025 13.6094L36.7613 8.37176L56.0434 27.5765H45.5259L31.5025 13.6094Z" fill="#C60042"/>
</svg>
