<svg xmlns="http://www.w3.org/2000/svg" width="204" height="50" viewBox="0 0 204 50">
  <g fill="#293D66" fill-rule="evenodd" transform="translate(1 14)">
    <path d="M12.3683037,17.5313379 L7.00112321,17.5313379 C3.96649284,17.5313379 3.81195415,18.6750276 3.81195415,20.9178552 C3.81195415,22.9273724 4.12276791,23.7175793 5.44531805,23.7175793 C6.65037249,23.7175793 9.41354728,23.0452 10.8124986,22.0996483 L12.3683037,21.076131 L12.3683037,17.5313379 Z M12.5245788,26.2763724 L12.5245788,24.3846828 C10.3060516,25.881269 7.89594269,26.5899931 5.21148424,26.5899931 C0.855461318,26.5899931 4.93511631e-14,24.3084759 4.93511631e-14,20.9969931 C4.93511631e-14,16.8214414 1.20621203,14.6149586 6.18444126,14.6149586 L12.3683037,14.6149586 L12.3683037,12.8803724 C12.3683037,10.7958207 11.4347049,10.0466483 8.71262464,10.0466483 C6.33955874,10.0466483 5.1345043,10.2817172 1.36075072,11.7402 L1.36075072,8.15437241 C3.34486533,7.56347586 6.06694556,6.85592414 8.71262464,6.85592414 C13.807192,6.85592414 16.6473467,8.50902759 16.6473467,13.1588207 L16.6473467,26.2763724 L12.5245788,26.2763724 Z"/>
    <polygon points="21.626 26.235 21.626 0 25.943 0 25.943 26.276"/>
    <path d="M38.7001903 26.4721069C33.9557948 26.4721069 32.982259 25.2527966 32.982259 20.9570724L32.982259 10.163831 29.5604138 10.163831 29.5604138 7.05165862 32.982259 7.05165862 32.982259 2.91596897 37.2995026 2.91596897 37.2995026 7.05165862 42.2783106 7.05165862 42.2783106 10.163831 37.2995026 10.163831 37.2995026 20.9570724C37.2995026 23.2813828 37.4939782 23.2813828 39.4381559 23.2813828 39.9833822 23.2813828 41.1496573 23.1231069 42.2783106 22.8106586L42.2783106 25.9990379C41.1496573 26.2763138 39.4780928 26.4721069 38.7001903 26.4721069M58.7308344 13.1588207C58.7308344 10.9124759 57.4864218 9.92647586 54.5299289 9.92647586 51.2244218 9.92647586 50.0182097 10.9535103 49.707396 14.2614759L58.7308344 14.2614759 58.7308344 13.1588207zM49.6292585 17.2945103C49.707396 22.6905448 51.3407599 23.4016138 54.0634189 23.4016138 56.5140436 23.4016138 58.8871095 22.8875103 61.8036653 21.5087517L61.8036653 25.2528552C59.2361238 25.9223034 56.7467198 26.5513034 54.0634189 26.5513034 48.8519347 26.5513034 45.3120149 24.9368897 45.3120149 16.741131 45.3120149 9.53488966 48.0346739 6.85592414 54.5299289 6.85592414 59.6644332 6.85592414 62.3865135 8.54947586 62.3865135 13.1588207L62.3865135 17.2945103 49.6292585 17.2945103zM79.6172292 26.2763138L79.6172292 11.976969C79.6172292 10.5589345 78.9944441 10.0067276 77.7494527 10.0067276 76.8939914 10.0067276 75.7271375 10.5173138 71.0597221 14.0245897L71.0597221 26.2763138 66.7818367 26.2763138 66.7818367 7.20993448 71.0209427 7.20993448 71.0209427 10.2816586C73.2383123 8.62855517 75.2988281 6.85586552 78.3328797 6.85586552 83.117212 6.85586552 83.8951146 9.53483103 83.8951146 12.8427966L83.8951146 26.2763138 79.6172292 26.2763138zM98.7921226 9.77206897C96.6534693 9.77206897 94.7474923 11.3864828 93.1523289 12.6444828L93.1523289 20.6022414C94.7474923 21.8637586 96.6534693 23.4805172 98.7921226 23.4805172 100.387286 23.4805172 102.175767 23.202069 102.175767 16.6242414 102.175767 10.047 100.387286 9.77206897 98.7921226 9.77206897M99.1810739 26.6712414C96.9631255 26.6712414 94.7087129 25.6066897 92.9960539 24.3457586L92.9960539 26.2761379 88.873286 26.2761379 88.873286 1.24957516e-14 93.1523289 1.24957516e-14 93.1523289 8.78372414C94.7474923 7.52572414 97.1188218 6.61886207 99.1810739 6.61886207 104.158146 6.61886207 106.493011 9.10027586 106.493011 16.6242414 106.493011 24.1464483 104.158146 26.6712414 99.1810739 26.6712414M123.218032 26.3152379L123.218032 23.6362724C121.194559 25.1738931 119.250382 26.6710655 116.488364 26.6710655 111.665832 26.6710655 110.886771 23.9921 110.886771 20.6823759L110.886771 7.24768621 115.165814 7.24768621 115.165814 21.5476172C115.165814 22.9650655 115.827958 23.5184448 117.072949 23.5184448 117.89021 23.5184448 119.406078 22.9650655 123.178674 19.8945138L123.178674 7.24768621 127.457138 7.24768621 127.457138 20.7222379 127.457138 26.3152379 123.218032 26.3152379zM139.903637 11.5822172L136.712153 14.0618724 136.712153 26.2760793 132.436004 26.2760793 132.436004 12.8027 132.436004 7.2097 136.67511 7.2097 136.67511 10.1635966C139.164514 8.19335517 140.565202 6.85563103 144.027563 6.85563103L144.027563 10.7544931C141.965889 10.5973897 140.914216 10.7955276 139.903637 11.5822172M159.895907 12.9218172C158.339523 11.6614724 156.433546 10.0470586 154.256113 10.0470586 152.699151 10.0470586 150.871311 10.3214034 150.871311 16.899231 150.871311 23.4805759 152.699151 23.7549207 154.256113 23.7549207 156.433546 23.7549207 158.299586 22.1387483 159.895907 20.8801621L159.895907 12.9218172zM156.355409 33.8787138C153.401231 33.8787138 150.444159 33.2075069 148.381907 32.658231L148.381907 28.7974724C151.143924 30.0959207 153.633328 30.6868172 156.355409 30.6868172 159.000509 30.6868172 159.895907 29.9411621 159.895907 27.4966793L159.895907 24.7409207C158.299586 25.9995069 155.966457 26.946231 153.904205 26.946231 148.887197 26.946231 146.592847 24.4249552 146.592847 16.899231 146.592847 9.37702414 148.887197 6.85574828 153.904205 6.85574828 156.122154 6.85574828 158.339523 7.91854138 160.049867 9.18123103L160.049867 7.24733448 164.213151 7.24733448 164.213151 12.8807828 164.213151 27.4966793C164.213151 32.2232655 161.062761 33.8787138 156.355409 33.8787138L156.355409 33.8787138zM182.025789 13.1588207C182.025789 10.9124759 180.780218 9.92647586 177.826041 9.92647586 174.519376 9.92647586 173.312006 10.9535103 173.003508 14.2614759L182.025789 14.2614759 182.025789 13.1588207zM172.923055 17.2945103C173.003508 22.6905448 174.634556 23.4016138 177.358373 23.4016138 179.80784 23.4016138 182.180906 22.8875103 185.098619 21.5087517L185.098619 25.2528552C182.52992 25.9223034 180.040516 26.5513034 177.358373 26.5513034 172.145731 26.5513034 168.608127 24.9368897 168.608127 16.741131 168.608127 9.53488966 171.329628 6.85592414 177.826041 6.85592414 182.960545 6.85592414 185.681468 8.54947586 185.681468 13.1588207L185.681468 17.2945103 172.923055 17.2945103zM197.544771 11.5822172L194.355602 14.0618724 194.355602 26.2760793 190.077138 26.2760793 190.077138 12.8027 190.077138 7.2097 194.316244 7.2097 194.316244 10.1635966C196.805648 8.19335517 198.205178 6.85563103 201.667539 6.85563103L201.667539 10.7544931C199.607023 10.5973897 198.55535 10.7955276 197.544771 11.5822172"/>
  </g>
</svg>
