<svg xmlns="http://www.w3.org/2000/svg" width="202" height="35" viewBox="0 0 202 35">
  <g fill="none" fill-rule="evenodd" transform="translate(-1255 -1161)">
    <rect width="1680" height="6910" fill="#FFF"/>
    <g fill="#293D66" transform="translate(1255 1161)">
      <path d="M12.3683037,17.3097215 L7.00112321,17.3097215 C3.96649284,17.3097215 3.81195415,18.4389536 3.81195415,20.6534292 C3.81195415,22.6375438 4.12276791,23.4177616 5.44531805,23.4177616 C6.65037249,23.4177616 9.41354728,22.7538819 10.8124986,21.8202831 L12.3683037,20.8097043 L12.3683037,17.3097215 Z M12.5245788,25.9442086 L12.5245788,24.0764321 C10.3060516,25.5540997 7.89594269,26.2538648 5.21148424,26.2538648 C0.855461318,26.2538648 4.93511631e-14,24.0011885 4.93511631e-14,20.7315668 C4.93511631e-14,16.6087989 1.20621203,14.4302086 6.18444126,14.4302086 L12.3683037,14.4302086 L12.3683037,12.7175496 C12.3683037,10.659349 11.4347049,9.91964699 8.71262464,9.91964699 C6.33955874,9.91964699 5.1345043,10.1517444 1.36075072,11.5917903 L1.36075072,8.05129169 C3.34486533,7.46786476 6.06694556,6.76925731 8.71262464,6.76925731 C13.807192,6.76925731 16.6473467,8.40146361 16.6473467,12.9924779 L16.6473467,25.9442086 L12.5245788,25.9442086 Z"/>
      <polygon points="21.626 25.903 21.626 0 25.943 0 25.943 25.944"/>
      <path d="M38.7001903 26.1374688C33.9557948 26.1374688 32.982259 24.9335719 32.982259 20.6921507L32.982259 10.0353484 29.5604138 10.0353484 29.5604138 6.96251748 32.982259 6.96251748 32.982259 2.87910774 37.2995026 2.87910774 37.2995026 6.96251748 42.2783106 6.96251748 42.2783106 10.0353484 37.2995026 10.0353484 37.2995026 20.6921507C37.2995026 22.9870791 37.4939782 22.9870791 39.4381559 22.9870791 39.9833822 22.9870791 41.1496573 22.830804 42.2783106 22.5223054L42.2783106 25.6703799C41.1496573 25.9441507 39.4780928 26.1374688 38.7001903 26.1374688M58.7308344 12.9924779C58.7308344 10.7745295 57.4864218 9.8009937 54.5299289 9.8009937 51.2244218 9.8009937 50.0182097 10.8150453 49.707396 14.0811943L58.7308344 14.0811943 58.7308344 12.9924779zM49.6292585 17.0758877C49.707396 22.40371 51.3407599 23.1057903 54.0634189 23.1057903 56.5140436 23.1057903 58.8871095 22.5981857 61.8036653 21.2368562L61.8036653 24.9336298C59.2361238 25.5946155 56.7467198 26.2156642 54.0634189 26.2156642 48.8519347 26.2156642 45.3120149 24.6216585 45.3120149 16.5295037 45.3120149 9.41435759 48.0346739 6.76925731 54.5299289 6.76925731 59.6644332 6.76925731 62.3865135 8.44140057 62.3865135 12.9924779L62.3865135 17.0758877 49.6292585 17.0758877zM79.6172292 25.9441507L79.6172292 11.8255662C79.6172292 10.4254573 78.9944441 9.88023095 77.7494527 9.88023095 76.8939914 9.88023095 75.7271375 10.3843628 71.0597221 13.8473026L71.0597221 25.9441507 66.7818367 25.9441507 66.7818367 7.11879255 71.0209427 7.11879255 71.0209427 10.1516865C73.2383123 8.51948023 75.2988281 6.76919943 78.3328797 6.76919943 83.117212 6.76919943 83.8951146 9.41429971 83.8951146 12.6804487L83.8951146 25.9441507 79.6172292 25.9441507zM98.7921226 9.64853868C96.6534693 9.64853868 94.7474923 11.2425444 93.1523289 12.4846418L93.1523289 20.3418052C94.7474923 21.5873754 96.6534693 23.1836963 98.7921226 23.1836963 100.387286 23.1836963 102.175767 22.9087679 102.175767 16.4140917 102.175767 9.91999427 100.387286 9.64853868 98.7921226 9.64853868M99.1810739 26.334086C96.9631255 26.334086 94.7087129 25.2829914 92.9960539 24.038L92.9960539 25.9439771 88.873286 25.9439771 88.873286 1.23377908e-14 93.1523289 1.23377908e-14 93.1523289 8.67268768C94.7474923 7.43059026 97.1188218 6.53519198 99.1810739 6.53519198 104.158146 6.53519198 106.493011 8.98523782 106.493011 16.4140917 106.493011 23.8412092 104.158146 26.334086 99.1810739 26.334086M123.218032 25.9825828L123.218032 23.3374825C121.194559 24.8556659 119.250382 26.3339123 116.488364 26.3339123 111.665832 26.3339123 110.886771 23.688812 110.886771 20.4209266L110.886771 7.15606705 115.165814 7.15606705 115.165814 21.2752304C115.165814 22.6747605 115.827958 23.2211444 117.072949 23.2211444 117.89021 23.2211444 119.406078 22.6747605 123.178674 19.6430241L123.178674 7.15606705 127.457138 7.15606705 127.457138 20.4602848 127.457138 25.9825828 123.218032 25.9825828zM139.903637 11.4358046L136.712153 13.884114 136.712153 25.9439192 132.436004 25.9439192 132.436004 12.640859 132.436004 7.11856103 136.67511 7.11856103 136.67511 10.0351169C139.164514 8.08978166 140.565202 6.76896791 144.027563 6.76896791L144.027563 10.6185438C141.965889 10.4634264 140.914216 10.6590596 139.903637 11.4358046M159.895907 12.7584705C158.339523 11.5140579 156.433546 9.92005215 154.256113 9.92005215 152.699151 9.92005215 150.871311 10.1909289 150.871311 16.6856052 150.871311 23.1837542 152.699151 23.4546309 154.256113 23.4546309 156.433546 23.4546309 158.299586 21.8588888 159.895907 20.6162126L159.895907 12.7584705zM156.355409 33.4504476C153.401231 33.4504476 150.444159 32.7877255 148.381907 32.2453931L148.381907 28.433439C151.143924 29.7154734 153.633328 30.2989003 156.355409 30.2989003 159.000509 30.2989003 159.895907 29.5626711 159.895907 27.1490894L159.895907 24.4281668C158.299586 25.670843 155.966457 26.6055994 153.904205 26.6055994 148.887197 26.6055994 146.592847 24.1161954 146.592847 16.6856052 146.592847 9.25848768 148.887197 6.76908367 153.904205 6.76908367 156.122154 6.76908367 158.339523 7.81844183 160.049867 9.06516963L160.049867 7.15571977 164.213151 7.15571977 164.213151 12.7179547 164.213151 27.1490894C164.213151 31.8159261 161.062761 33.4504476 156.355409 33.4504476L156.355409 33.4504476zM182.025789 12.9924779C182.025789 10.7745295 180.780218 9.8009937 177.826041 9.8009937 174.519376 9.8009937 173.312006 10.8150453 173.003508 14.0811943L182.025789 14.0811943 182.025789 12.9924779zM172.923055 17.0758877C173.003508 22.40371 174.634556 23.1057903 177.358373 23.1057903 179.80784 23.1057903 182.180906 22.5981857 185.098619 21.2368562L185.098619 24.9336298C182.52992 25.5946155 180.040516 26.2156642 177.358373 26.2156642 172.145731 26.2156642 168.608127 24.6216585 168.608127 16.5295037 168.608127 9.41435759 171.329628 6.76925731 177.826041 6.76925731 182.960545 6.76925731 185.681468 8.44140057 185.681468 12.9924779L185.681468 17.0758877 172.923055 17.0758877zM197.544771 11.4358046L194.355602 13.884114 194.355602 25.9439192 190.077138 25.9439192 190.077138 12.640859 190.077138 7.11856103 194.316244 7.11856103 194.316244 10.0351169C196.805648 8.08978166 198.205178 6.76896791 201.667539 6.76896791L201.667539 10.6185438C199.607023 10.4634264 198.55535 10.6590596 197.544771 11.4358046"/>
    </g>
  </g>
</svg>
