<svg xmlns="http://www.w3.org/2000/svg" width="170" height="42" viewBox="0 0 170 42">
  <g fill="#293D66" fill-rule="evenodd" transform="translate(0 11)">
    <path d="M10.1856619,14.4375724 L5.76563088,14.4375724 C3.26652351,14.4375724 3.13925636,15.3794345 3.13925636,17.226469 C3.13925636,18.8813655 3.39522063,19.5321241 4.48437957,19.5321241 C5.47677735,19.5321241 7.75233305,18.9784 8.90441058,18.1997103 L10.1856619,17.3568138 L10.1856619,14.4375724 Z M10.314359,21.6393655 L10.314359,20.0815034 C8.48733659,21.3139862 6.50254104,21.8976414 4.29181055,21.8976414 C0.704497556,21.8976414 4.06421343e-14,20.0187448 4.06421343e-14,17.2916414 C4.06421343e-14,13.8529517 0.993351087,12.0358483 5.09306927,12.0358483 L10.1856619,12.0358483 L10.1856619,10.6073655 C10.1856619,8.89067586 9.41681578,8.27371034 7.17510265,8.27371034 C5.22081308,8.27371034 4.2284153,8.46729655 1.12061824,9.6684 L1.12061824,6.71536552 C2.75459498,6.22874483 4.99630811,5.64605517 7.17510265,5.64605517 C11.3706287,5.64605517 13.7095796,7.00743448 13.7095796,10.8366759 L13.7095796,21.6393655 L10.314359,21.6393655 Z"/>
    <polygon points="17.809 21.605 17.809 0 21.365 0 21.365 21.639"/>
    <path d="M31.8707449 21.8005586C27.9635958 21.8005586 27.1618604 20.7964207 27.1618604 17.2587655L27.1618604 8.37021379 24.3438702 8.37021379 24.3438702 5.80724828 27.1618604 5.80724828 27.1618604 2.40138621 30.7172374 2.40138621 30.7172374 5.80724828 34.8174323 5.80724828 34.8174323 8.37021379 30.7172374 8.37021379 30.7172374 17.2587655C30.7172374 19.1729034 30.8773938 19.1729034 32.4784813 19.1729034 32.9274913 19.1729034 33.8879531 19.0425586 34.8174323 18.7852483L34.8174323 21.4109724C33.8879531 21.6393172 32.5113706 21.8005586 31.8707449 21.8005586M48.3665695 10.8366759C48.3665695 8.98674483 47.3417591 8.17474483 44.9070003 8.17474483 42.1848179 8.17474483 41.1914668 9.02053793 40.9355026 11.7447448L48.3665695 11.7447448 48.3665695 10.8366759zM40.871154 14.2425379C40.9355026 18.686331 42.2806258 19.2719172 44.5228156 19.2719172 46.540977 19.2719172 48.4952666 18.8485379 50.8971362 17.7130897L50.8971362 20.796469C48.7826902 21.3477793 46.7325928 21.8657793 44.5228156 21.8657793 40.231005 21.8657793 37.315777 20.5362621 37.315777 13.7868138 37.315777 7.85226207 39.5579668 5.64605517 44.9070003 5.64605517 49.1354156 5.64605517 51.3771287 7.04074483 51.3771287 10.8366759L51.3771287 14.2425379 40.871154 14.2425379zM65.56713 21.6393172L65.56713 9.86338621C65.56713 8.6955931 65.0542481 8.24083448 64.0289611 8.24083448 63.3244635 8.24083448 62.363525 8.66131724 58.5197711 11.5496621L58.5197711 21.6393172 54.9968067 21.6393172 54.9968067 5.9375931 58.4878352 5.9375931 58.4878352 8.46724828C60.3139043 7.10586897 62.0107996 5.6460069 64.5094303 5.6460069 68.4494687 5.6460069 69.0900944 7.85221379 69.0900944 10.5764207L69.0900944 21.6393172 65.56713 21.6393172zM81.3582186 8.04758621C79.5969748 8.04758621 78.0273466 9.37710345 76.7136827 10.4131034L76.7136827 16.9665517C78.0273466 18.0054483 79.5969748 19.3368966 81.3582186 19.3368966 82.6718826 19.3368966 84.1447496 19.1075862 84.1447496 13.6905517 84.1447496 8.274 82.6718826 8.04758621 81.3582186 8.04758621M81.6785315 21.9645517C79.8519857 21.9645517 77.9954106 21.0878621 76.5849855 20.0494483L76.5849855 21.6391724 73.1897649 21.6391724 73.1897649 1.02906189e-14 76.7136827 1.02906189e-14 76.7136827 7.23365517C78.0273466 6.19765517 79.9802062 5.45082759 81.6785315 5.45082759 85.7772963 5.45082759 87.7001266 7.49434483 87.7001266 13.6905517 87.7001266 19.8853103 85.7772963 21.9645517 81.6785315 21.9645517M101.473673 21.6713724L101.473673 19.4651655C99.8072841 20.7314414 98.2061967 21.9644069 95.9315943 21.9644069 91.9600965 21.9644069 91.3185176 19.7582 91.3185176 17.0325448L91.3185176 5.96868276 94.8424353 5.96868276 94.8424353 17.7450966C94.8424353 18.9124069 95.3877298 19.368131 96.4130168 19.368131 97.0860551 19.368131 98.3344171 18.9124069 101.441261 16.3837172L101.441261 5.96868276 104.964702 5.96868276 104.964702 17.0653724 104.964702 21.6713724 101.473673 21.6713724zM115.21476 9.53829655L112.586479 11.5803655 112.586479 21.6391241 109.064944 21.6391241 109.064944 10.5434 109.064944 5.9374 112.555973 5.9374 112.555973 8.37002069C114.60607 6.74746897 115.759578 5.64581379 118.610934 5.64581379L118.610934 8.85664138C116.913085 8.72726207 116.047001 8.89043448 115.21476 9.53829655M131.678982 10.6414966C130.397254 9.60356552 128.827626 8.27404828 127.034446 8.27404828 125.752242 8.27404828 124.246962 8.49997931 124.246962 13.9170138 124.246962 19.3369448 125.752242 19.5628759 127.034446 19.5628759 128.827626 19.5628759 130.364365 18.2319103 131.678982 17.1954276L131.678982 10.6414966zM128.763278 27.9001172C126.330425 27.9001172 123.89519 27.3473586 122.196865 26.8950138L122.196865 23.7155655C124.471467 24.7848759 126.521565 25.2714966 128.763278 25.2714966 130.941596 25.2714966 131.678982 24.6574276 131.678982 22.6443241L131.678982 20.3748759C130.364365 21.4113586 128.442965 22.1910138 126.74464 22.1910138 122.612985 22.1910138 120.723521 20.114669 120.723521 13.9170138 120.723521 7.72225517 122.612985 5.64591034 126.74464 5.64591034 128.571185 5.64591034 130.397254 6.52115172 131.805773 7.56101379L131.805773 5.9683931 135.234359 5.9683931 135.234359 10.6077034 135.234359 22.6443241C135.234359 26.5368069 132.639921 27.9001172 128.763278 27.9001172L128.763278 27.9001172zM149.903591 10.8366759C149.903591 8.98674483 148.877827 8.17474483 146.444975 8.17474483 143.721839 8.17474483 142.727535 9.02053793 142.473477 11.7447448L149.903591 11.7447448 149.903591 10.8366759zM142.407222 14.2425379C142.473477 18.686331 143.816694 19.2719172 146.059837 19.2719172 148.077045 19.2719172 150.031334 18.8485379 152.434157 17.7130897L152.434157 20.796469C150.318758 21.3477793 148.268661 21.8657793 146.059837 21.8657793 141.767073 21.8657793 138.853751 20.5362621 138.853751 13.7868138 138.853751 7.85226207 141.094988 5.64605517 146.444975 5.64605517 150.67339 5.64605517 152.91415 7.04074483 152.91415 10.8366759L152.91415 14.2425379 142.407222 14.2425379zM162.683929 9.53829655L160.057555 11.5803655 160.057555 21.6391241 156.534114 21.6391241 156.534114 10.5434 156.534114 5.9374 160.025142 5.9374 160.025142 8.37002069C162.07524 6.74746897 163.227794 5.64581379 166.07915 5.64581379L166.07915 8.85664138C164.382255 8.72726207 163.516171 8.89043448 162.683929 9.53829655"/>
  </g>
</svg>
