<svg xmlns="http://www.w3.org/2000/svg" width="178" height="42" viewBox="0 0 178 42">
  <g fill="#293D66" transform="translate(1 10)">
    <path d="M115.455887,11.3206275 C112.988571,10.8126506 112.190321,10.5949463 112.190321,9.94183312 C112.190321,9.21615187 113.423979,8.78074313 114.585069,8.78074313 C116.399273,8.78074313 117.995771,9.94183312 118.068339,10.0144013 L118.286044,10.1595375 L120.390519,7.11167625 L120.245383,6.96654 C120.172815,6.89397187 117.995771,5.15233688 114.657638,5.15233688 C110.448686,5.15233688 108.199074,7.61965312 108.199074,9.869265 C108.199074,12.3365812 110.013278,13.8605119 113.78682,14.6587612 C116.036432,15.09417 116.471841,15.3118744 116.471841,16.0375556 C116.471841,16.7632369 115.238183,17.1260775 113.931956,17.1260775 C111.609776,17.1260775 109.723005,15.1667381 109.723005,15.09417 L109.505301,14.8764656 L107.183121,17.9243269 L107.328257,18.0694631 C107.400825,18.2145994 109.723005,20.7544838 114.004524,20.7544838 C117.705499,20.7544838 120.535656,18.7225763 120.535656,16.0375556 C120.535656,13.0622625 118.503748,11.9737406 115.455887,11.3206275 Z M132.654533,16.4729644 C132.654533,16.4729644 132.001419,16.9809412 131.275738,16.9809412 C130.187216,16.9809412 129.606671,16.25526 129.606671,14.9490338 L129.606671,9.36128812 L133.960759,9.36128812 L133.960759,5.5151775 L129.606671,5.5151775 L129.606671,0 L125.470288,0 L125.470288,5.5151775 L122.640131,5.5151775 L122.640131,9.28872 L125.470288,9.28872 L125.470288,15.4570106 C125.470288,18.57744 127.647332,20.8270519 130.622625,20.8270519 C132.799669,20.8270519 134.178463,19.8836662 134.251031,19.8110981 L134.396168,19.73853 L132.872237,16.3278281 L132.654533,16.4729644 L132.654533,16.4729644 Z M144.410569,16.9083731 C141.943253,16.9083731 140.637026,14.9490338 140.637026,12.9896944 C140.637026,11.030355 141.943253,9.07101563 144.410569,9.07101563 C146.877885,9.07101563 148.184111,11.030355 148.184111,12.9896944 C148.184111,14.9490338 146.877885,16.9083731 144.410569,16.9083731 Z M144.410569,5.15233688 C139.983913,5.15233688 136.428075,8.56303875 136.428075,12.9896944 C136.428075,17.3437819 139.911345,20.8270519 144.410569,20.8270519 C148.837224,20.8270519 152.393063,17.41635 152.393063,12.9896944 C152.320494,8.56303875 148.837224,5.15233688 144.410569,5.15233688 Z M162.770304,11.3206275 C160.302988,10.8126506 159.504739,10.5949463 159.504739,9.94183312 C159.504739,9.21615187 160.738397,8.78074313 161.899487,8.78074313 C163.71369,8.78074313 165.310189,9.94183312 165.382757,10.0144013 L165.600461,10.1595375 L167.704937,7.11167625 L167.559801,6.96654 C167.487233,6.89397187 165.310189,5.15233688 161.972055,5.15233688 C157.763104,5.15233688 155.513492,7.61965312 155.513492,9.869265 C155.513492,12.3365812 157.327695,13.8605119 161.101238,14.6587612 C163.350849,15.09417 163.786258,15.3118744 163.786258,16.0375556 C163.786258,16.7632369 162.5526,17.1260775 161.246374,17.1260775 C158.924194,17.1260775 157.037423,15.1667381 157.037423,15.09417 L156.819718,14.8764656 L154.497538,17.9243269 L154.642674,18.0694631 C154.715243,18.2145994 157.037423,20.7544838 161.318942,20.7544838 C165.019916,20.7544838 167.850073,18.7225763 167.850073,16.0375556 C167.850073,13.0622625 165.818166,11.9737406 162.770304,11.3206275 Z M76.63194,11.3931956 C76.8496444,10.1595375 77.9381663,8.92587938 79.8975056,8.92587938 C82.0745494,8.92587938 83.0905031,10.3772419 83.2356394,11.3931956 L76.63194,11.3931956 Z M79.8975056,5.15233688 C75.6159863,5.15233688 72.4229888,8.49047062 72.4229888,12.9896944 C72.4229888,17.3437819 75.9062588,20.8270519 80.4054825,20.8270519 C83.9613206,20.8270519 86.2835006,18.7951444 86.3560688,18.7225763 L86.501205,18.57744 L84.3967294,15.4570106 L84.179025,15.674715 C84.179025,15.674715 82.8002306,17.0535094 80.4054825,17.0535094 C78.373575,17.0535094 77.0673488,15.674715 76.63194,14.5861931 L87.3720225,14.5861931 L87.3720225,12.9896944 C87.4445906,8.49047062 84.179025,5.15233688 79.8975056,5.15233688 M46.7338725,14.513625 L46.7338725,15.09417 C46.5887363,15.3844425 45.5727825,16.9083731 43.540875,16.9083731 C42.96033,16.9083731 42.4523531,16.835805 42.0169444,16.6181006 C41.79924,16.5455325 41.5815356,16.4003963 41.3638313,16.25526 C40.7832863,15.8198513 40.2753094,15.2393062 40.057605,14.513625 C39.9124688,14.0782162 39.8399006,13.5702394 39.8399006,12.9896944 C39.8399006,12.4091494 39.9124688,11.9011725 40.1301731,11.3931956 C40.63815,9.94183312 41.9443763,8.9984475 43.6134431,8.9984475 C44.0488519,8.9984475 44.4116925,9.07101562 44.701965,9.14358375 C46.0081913,9.5789925 46.6613044,10.5949463 46.8064406,10.8126506 L46.8064406,14.513625 L46.7338725,14.513625 Z M47.024145,6.24085875 C45.9356231,5.58774562 44.6293969,5.15233688 43.1780344,5.15233688 L42.8151938,5.15233688 C38.7513788,5.15233688 35.5583813,8.63560687 35.5583813,12.9896944 C35.5583813,15.6021469 36.7194713,17.7791906 38.4611063,19.2305531 C39.6947644,20.2465069 41.218695,20.8270519 42.8877619,20.8270519 L43.6860113,20.8270519 C44.8471013,20.8270519 45.863055,20.6093475 46.7338725,20.319075 L46.7338725,20.5367794 C46.7338725,22.7863912 45.3550781,24.0200494 42.8151938,24.0200494 C40.2027413,24.0200494 38.2434019,21.9881419 38.1708338,21.9881419 L37.9531294,21.7704375 L35.6309494,24.963435 L35.7760856,25.1085713 C35.9212219,25.2537075 38.6062425,27.9387281 42.8151938,27.9387281 C46.5161681,27.9387281 50.7976875,25.9793888 50.7976875,20.4642112 L50.7976875,5.5151775 L46.9515769,5.5151775 L46.9515769,6.24085875 L47.024145,6.24085875 Z M65.1661763,14.513625 L65.1661763,15.09417 C65.02104,15.3844425 64.0050863,16.9083731 61.9731788,16.9083731 C61.3926338,16.9083731 60.8846569,16.835805 60.4492481,16.6181006 C60.2315438,16.5455325 60.0138394,16.4003963 59.796135,16.25526 C59.21559,15.8198513 58.7076131,15.2393062 58.4899088,14.513625 C58.3447725,14.0782162 58.2722044,13.5702394 58.2722044,12.9896944 C58.2722044,12.4091494 58.3447725,11.9011725 58.5624769,11.3931956 C59.0704538,9.94183312 60.37668,8.9984475 62.0457469,8.9984475 C62.4811556,8.9984475 62.8439963,9.07101562 63.1342688,9.14358375 C64.440495,9.5789925 65.0936081,10.5949463 65.2387444,10.8126506 L65.2387444,14.513625 L65.1661763,14.513625 Z M65.4564488,6.24085875 C64.3679269,5.58774562 63.0617006,5.15233688 61.6103381,5.15233688 L61.2474975,5.15233688 C57.1836825,5.15233688 53.990685,8.63560687 53.990685,12.9896944 C53.990685,15.6021469 55.151775,17.7791906 56.89341,19.2305531 C58.1270681,20.2465069 59.6509988,20.8270519 61.3200656,20.8270519 L62.118315,20.8270519 C63.279405,20.8270519 64.2953588,20.6093475 65.1661763,20.319075 L65.1661763,20.5367794 C65.1661763,22.7863912 63.7873819,24.0200494 61.2474975,24.0200494 C58.635045,24.0200494 56.6757056,21.9881419 56.6031375,21.9881419 L56.3854331,21.7704375 L54.0632531,24.963435 L54.2083894,25.1085713 C54.3535256,25.2537075 57.0385463,27.9387281 61.2474975,27.9387281 C64.9484719,27.9387281 69.2299913,25.9793888 69.2299913,20.4642112 L69.2299913,5.5151775 L65.3838806,5.5151775 L65.3838806,6.24085875 L65.4564488,6.24085875 Z M28.3741369,15.09417 C28.2290006,15.3844425 27.2130469,16.9083731 25.1811394,16.9083731 C24.6005944,16.9083731 24.0926175,16.835805 23.6572088,16.6181006 C23.4395044,16.5455325 23.2218,16.4003963 23.0040956,16.25526 C22.4235506,15.8198513 21.9155738,15.2393062 21.6978694,14.513625 C21.6978694,14.4410569 21.6978694,14.4410569 21.6253013,14.3684888 C21.5527331,14.0782162 21.480165,13.8605119 21.480165,13.4976713 C21.480165,13.352535 21.4075969,13.1348306 21.4075969,12.9171263 C21.4075969,12.3365813 21.480165,11.8286044 21.6978694,11.3206275 C22.2058463,9.869265 23.5120725,8.92587938 25.1811394,8.92587938 C25.6165481,8.92587938 25.9793888,8.9984475 26.2696613,9.07101562 C27.5758875,9.50642438 28.2290006,10.5223781 28.3741369,10.7400825 L28.3741369,15.09417 Z M28.6644094,5.5151775 L28.6644094,6.24085875 C27.5758875,5.58774562 26.2696613,5.15233688 24.8182988,5.15233688 L24.5280263,5.15233688 C20.4642113,5.15233688 17.2712138,8.63560687 17.2712138,12.9896944 C17.2712138,13.2073987 17.3437819,13.352535 17.3437819,13.5702394 L17.3437819,13.8605119 C17.3437819,14.2233525 17.41635,14.6587612 17.4889181,15.0216019 C17.9243269,16.7632369 18.8677125,18.2145994 20.1013706,19.2305531 C21.3350288,20.2465069 22.8589594,20.8270519 24.5280263,20.8270519 L25.3262756,20.8270519 C25.7616844,20.8270519 26.1970931,20.7544838 26.6325019,20.6819156 C27.3581831,20.4642112 28.0838644,20.2465069 28.7369775,19.8110981 L28.7369775,20.5367794 L32.5830881,20.5367794 L32.5830881,5.5151775 L28.6644094,5.5151775 Z M99.7086038,5.29747313 C99.3457631,5.224905 98.9829225,5.15233688 98.6200819,5.15233688 L98.3298094,5.15233688 C96.8784469,5.15233688 95.5722206,5.58774562 94.4836988,6.24085875 L94.4836988,5.5151775 L90.6375881,5.5151775 L90.6375881,20.4642112 L94.7739713,20.4642112 L94.7739713,10.8852187 C94.7739713,10.44981 95.7173569,9.07101562 97.6041281,9.07101562 C99.2006269,9.07101562 100.071444,10.0869694 100.071444,11.7560362 L100.071444,20.4642112 L104.207828,20.4642112 L104.207828,10.8126506 C104.062691,7.61965312 102.030784,5.73288187 99.7086038,5.29747313 Z M13.0622625,7.32938063 C12.77199,7.03910812 12.4091494,6.74883563 12.1188769,6.45856312 C11.9011725,6.31342687 11.6834681,6.16829062 11.3931956,6.02315438 C11.1754913,5.95058625 11.030355,5.80545 10.8852188,5.73288187 C10.5223781,5.58774562 10.1595375,5.44260937 9.79669688,5.37004125 C9.72412875,5.37004125 9.65156063,5.29747313 9.5789925,5.29747313 C9.14358375,5.224905 8.708175,5.15233688 8.20019813,5.15233688 L7.76478938,5.15233688 C6.45856313,5.15233688 5.224905,5.5151775 4.13638313,6.0957225 L4.13638313,0 L1.44692339e-13,0 L1.44692339e-13,10.8852187 L4.13638313,10.8852187 C4.13638313,10.8126506 4.20895125,10.7400825 4.3540875,10.5949463 C4.64436,10.1595375 5.29747313,9.5789925 6.24085875,9.21615187 C6.60369938,9.14358375 6.96654,9.07101562 7.32938063,9.07101562 C7.69222125,9.07101562 8.05506188,9.14358375 8.34533438,9.21615187 C8.4179025,9.21615187 8.49047063,9.28872 8.56303875,9.28872 C8.85331125,9.36128812 9.14358375,9.50642438 9.43385625,9.72412875 L9.50642438,9.79669687 C9.72412875,9.94183312 9.94183313,10.1595375 10.1595375,10.44981 C10.2321056,10.5223781 10.2321056,10.5949463 10.3046738,10.6675144 C10.5223781,10.9577869 10.6675144,11.2480594 10.7400825,11.5383319 C10.8852188,12.0463088 11.030355,12.5542856 11.030355,13.1348306 C11.030355,13.352535 11.030355,13.4976713 10.9577869,13.7153756 C10.9577869,14.0056481 10.8852188,14.2233525 10.8126506,14.4410569 C10.8126506,14.513625 10.8126506,14.5861931 10.7400825,14.6587612 C10.5949463,15.0216019 10.44981,15.3118744 10.3046738,15.5295787 C10.2321056,15.6021469 10.2321056,15.674715 10.1595375,15.7472831 L9.50642438,16.4003963 C9.21615188,16.6181006 8.92587938,16.7632369 8.56303875,16.835805 C8.49047063,16.835805 8.49047063,16.835805 8.4179025,16.9083731 C8.05506188,16.9809412 7.69222125,17.0535094 7.32938063,17.0535094 C6.82140375,17.0535094 6.31342688,16.9083731 5.87801813,16.7632369 C5.15233688,16.4729644 4.49922375,16.1101237 4.063815,15.7472831 C3.62840625,15.3844425 3.33813375,15.09417 3.33813375,15.09417 L3.12042938,14.8764656 L1.66906688,16.7632369 L0.943385625,17.7066225 L0.72568125,17.996895 L0.8708175,18.1420312 C0.943385625,18.2145994 1.95933938,19.3031213 3.84611063,20.1013706 C4.42665563,20.3916431 5.00720063,20.6093475 5.66031375,20.6819156 C5.80545,20.6819156 6.02315438,20.7544838 6.16829063,20.7544838 C6.31342688,20.7544838 6.53113125,20.7544838 6.6762675,20.8270519 C6.89397188,20.8270519 7.03910813,20.89962 7.2568125,20.89962 L7.47451688,20.89962 C10.3772419,20.89962 12.77199,19.3756894 14.1507844,17.1986456 L14.3684888,16.7632369 C14.5861931,16.3278281 14.7313294,15.8924194 14.8764656,15.3844425 C14.8764656,15.3118744 14.9490338,15.1667381 14.9490338,15.09417 L14.9490338,15.0216019 C15.09417,14.513625 15.1667381,13.93308 15.1667381,13.352535 L15.1667381,13.1348306 C15.1667381,10.9577869 14.3684888,8.9984475 13.0622625,7.547085 C13.1348306,7.40194875 13.0622625,7.32938063 13.0622625,7.32938063 Z"/>
    <path d="M171.798317,14.0056481 C169.476137,13.6428075 167.589366,15.6021469 167.879638,17.9243269 C168.097343,19.3756894 169.258433,20.5367794 170.709795,20.7544838 C173.031975,21.1173244 174.918746,19.157985 174.628474,16.835805 C174.410769,15.4570106 173.249679,14.2233525 171.798317,14.0056481 Z"/>
  </g>
</svg>
