<svg xmlns="http://www.w3.org/2000/svg" width="205" height="50" viewBox="0 0 205 50">
  <path fill="#293D66" d="M131.949585 12.93786C129.129795 12.357315 128.21751 12.10851 128.21751 11.362095 128.21751 10.532745 129.627405 10.035135 130.954365 10.035135 133.02774 10.035135 134.85231 11.362095 134.935245 11.44503L135.18405 11.6109 137.589165 8.12763 137.423295 7.96176C137.34036 7.878825 134.85231 5.888385 131.0373 5.888385 126.22707 5.888385 123.656085 8.708175 123.656085 11.27916 123.656085 14.09895 125.72946 15.840585 130.04208 16.75287 132.613065 17.25048 133.110675 17.499285 133.110675 18.328635 133.110675 19.157985 131.70078 19.57266 130.20795 19.57266 127.55403 19.57266 125.39772 17.333415 125.39772 17.25048L125.148915 17.001675 122.494995 20.484945 122.660865 20.650815C122.7438 20.816685 125.39772 23.71941 130.290885 23.71941 134.52057 23.71941 137.755035 21.39723 137.755035 18.328635 137.755035 14.9283 135.432855 13.684275 131.949585 12.93786zM151.60518 18.826245C151.60518 18.826245 150.858765 19.40679 150.029415 19.40679 148.78539 19.40679 148.12191 18.57744 148.12191 17.08461L148.12191 10.698615 153.09801 10.698615 153.09801 6.30306 148.12191 6.30306 148.12191 0 143.394615 0 143.394615 6.30306 140.16015 6.30306 140.16015 10.61568 143.394615 10.61568 143.394615 17.665155C143.394615 21.23136 145.882665 23.802345 149.283 23.802345 151.77105 23.802345 153.346815 22.72419 153.42975 22.641255L153.59562 22.55832 151.853985 18.660375 151.60518 18.826245 151.60518 18.826245zM165.04065 19.323855C162.22086 19.323855 160.72803 17.08461 160.72803 14.845365 160.72803 12.60612 162.22086 10.366875 165.04065 10.366875 167.86044 10.366875 169.35327 12.60612 169.35327 14.845365 169.35327 17.08461 167.86044 19.323855 165.04065 19.323855zM165.04065 5.888385C159.981615 5.888385 155.9178 9.78633 155.9178 14.845365 155.9178 19.821465 159.89868 23.802345 165.04065 23.802345 170.099685 23.802345 174.1635 19.9044 174.1635 14.845365 174.080565 9.78633 170.099685 5.888385 165.04065 5.888385zM186.023205 12.93786C183.203415 12.357315 182.29113 12.10851 182.29113 11.362095 182.29113 10.532745 183.701025 10.035135 185.027985 10.035135 187.10136 10.035135 188.92593 11.362095 189.008865 11.44503L189.25767 11.6109 191.662785 8.12763 191.496915 7.96176C191.41398 7.878825 188.92593 5.888385 185.11092 5.888385 180.30069 5.888385 177.729705 8.708175 177.729705 11.27916 177.729705 14.09895 179.80308 15.840585 184.1157 16.75287 186.686685 17.25048 187.184295 17.499285 187.184295 18.328635 187.184295 19.157985 185.7744 19.57266 184.28157 19.57266 181.62765 19.57266 179.47134 17.333415 179.47134 17.25048L179.222535 17.001675 176.568615 20.484945 176.734485 20.650815C176.81742 20.816685 179.47134 23.71941 184.364505 23.71941 188.59419 23.71941 191.828655 21.39723 191.828655 18.328635 191.828655 14.9283 189.506475 13.684275 186.023205 12.93786zM87.57936 13.020795C87.828165 11.6109 89.07219 10.201005 91.311435 10.201005 93.799485 10.201005 94.960575 11.859705 95.126445 13.020795L87.57936 13.020795zM91.311435 5.888385C86.41827 5.888385 82.76913 9.703395 82.76913 14.845365 82.76913 19.821465 86.75001 23.802345 91.89198 23.802345 95.955795 23.802345 98.609715 21.480165 98.69265 21.39723L98.85852 21.23136 96.453405 17.665155 96.2046 17.91396C96.2046 17.91396 94.628835 19.489725 91.89198 19.489725 89.5698 19.489725 88.07697 17.91396 87.57936 16.669935L99.85374 16.669935 99.85374 14.845365C99.936675 9.703395 96.2046 5.888385 91.311435 5.888385M53.41014 16.587L53.41014 17.25048C53.24427 17.58222 52.08318 19.323855 49.761 19.323855 49.09752 19.323855 48.516975 19.24092 48.019365 18.992115 47.77056 18.90918 47.521755 18.74331 47.27295 18.57744 46.60947 18.07983 46.028925 17.41635 45.78012 16.587 45.61425 16.08939 45.531315 15.508845 45.531315 14.845365 45.531315 14.181885 45.61425 13.60134 45.863055 13.020795 46.4436 11.362095 47.93643 10.28394 49.843935 10.28394 50.341545 10.28394 50.75622 10.366875 51.08796 10.44981 52.58079 10.94742 53.327205 12.10851 53.493075 12.357315L53.493075 16.587 53.41014 16.587zM53.74188 7.13241C52.497855 6.385995 51.005025 5.888385 49.346325 5.888385L48.93165 5.888385C44.28729 5.888385 40.63815 9.869265 40.63815 14.845365 40.63815 17.831025 41.96511 20.319075 43.95555 21.977775 45.365445 23.138865 47.10708 23.802345 49.014585 23.802345L49.92687 23.802345C51.25383 23.802345 52.41492 23.55354 53.41014 23.2218L53.41014 23.470605C53.41014 26.04159 51.834375 27.451485 48.93165 27.451485 45.94599 27.451485 43.706745 25.129305 43.62381 25.129305L43.375005 24.8805 40.721085 28.52964 40.886955 28.69551C41.052825 28.86138 44.12142 31.929975 48.93165 31.929975 53.161335 31.929975 58.0545 29.69073 58.0545 23.38767L58.0545 6.30306 53.658945 6.30306 53.658945 7.13241 53.74188 7.13241zM74.47563 16.587L74.47563 17.25048C74.30976 17.58222 73.14867 19.323855 70.82649 19.323855 70.16301 19.323855 69.582465 19.24092 69.084855 18.992115 68.83605 18.90918 68.587245 18.74331 68.33844 18.57744 67.67496 18.07983 67.094415 17.41635 66.84561 16.587 66.67974 16.08939 66.596805 15.508845 66.596805 14.845365 66.596805 14.181885 66.67974 13.60134 66.928545 13.020795 67.50909 11.362095 69.00192 10.28394 70.909425 10.28394 71.407035 10.28394 71.82171 10.366875 72.15345 10.44981 73.64628 10.94742 74.392695 12.10851 74.558565 12.357315L74.558565 16.587 74.47563 16.587zM74.80737 7.13241C73.563345 6.385995 72.070515 5.888385 70.411815 5.888385L69.99714 5.888385C65.35278 5.888385 61.70364 9.869265 61.70364 14.845365 61.70364 17.831025 63.0306 20.319075 65.02104 21.977775 66.430935 23.138865 68.17257 23.802345 70.080075 23.802345L70.99236 23.802345C72.31932 23.802345 73.48041 23.55354 74.47563 23.2218L74.47563 23.470605C74.47563 26.04159 72.899865 27.451485 69.99714 27.451485 67.01148 27.451485 64.772235 25.129305 64.6893 25.129305L64.440495 24.8805 61.786575 28.52964 61.952445 28.69551C62.118315 28.86138 65.18691 31.929975 69.99714 31.929975 74.226825 31.929975 79.11999 29.69073 79.11999 23.38767L79.11999 6.30306 74.724435 6.30306 74.724435 7.13241 74.80737 7.13241zM32.427585 17.25048C32.261715 17.58222 31.100625 19.323855 28.778445 19.323855 28.114965 19.323855 27.53442 19.24092 27.03681 18.992115 26.788005 18.90918 26.5392 18.74331 26.290395 18.57744 25.626915 18.07983 25.04637 17.41635 24.797565 16.587 24.797565 16.504065 24.797565 16.504065 24.71463 16.42113 24.631695 16.08939 24.54876 15.840585 24.54876 15.42591 24.54876 15.26004 24.465825 15.011235 24.465825 14.76243 24.465825 14.09895 24.54876 13.518405 24.797565 12.93786 25.37811 11.27916 26.87094 10.201005 28.778445 10.201005 29.276055 10.201005 29.69073 10.28394 30.02247 10.366875 31.5153 10.864485 32.261715 12.025575 32.427585 12.27438L32.427585 17.25048zM32.759325 6.30306L32.759325 7.13241C31.5153 6.385995 30.02247 5.888385 28.36377 5.888385L28.03203 5.888385C23.38767 5.888385 19.73853 9.869265 19.73853 14.845365 19.73853 15.09417 19.821465 15.26004 19.821465 15.508845L19.821465 15.840585C19.821465 16.25526 19.9044 16.75287 19.987335 17.167545 20.484945 19.157985 21.5631 20.816685 22.972995 21.977775 24.38289 23.138865 26.124525 23.802345 28.03203 23.802345L28.944315 23.802345C29.441925 23.802345 29.939535 23.71941 30.437145 23.636475 31.266495 23.38767 32.095845 23.138865 32.84226 22.641255L32.84226 23.470605 37.237815 23.470605 37.237815 6.30306 32.759325 6.30306zM113.95269 6.054255C113.538015 5.97132 113.12334 5.888385 112.708665 5.888385L112.376925 5.888385C110.718225 5.888385 109.225395 6.385995 107.98137 7.13241L107.98137 6.30306 103.585815 6.30306 103.585815 23.38767 108.31311 23.38767 108.31311 12.44025C108.31311 11.94264 109.391265 10.366875 111.547575 10.366875 113.372145 10.366875 114.367365 11.527965 114.367365 13.43547L114.367365 23.38767 119.09466 23.38767 119.09466 12.357315C118.92879 8.708175 116.60661 6.551865 113.95269 6.054255zM14.9283 8.376435C14.59656 8.044695 14.181885 7.712955 13.850145 7.381215 13.60134 7.215345 13.352535 7.049475 13.020795 6.883605 12.77199 6.80067 12.60612 6.6348 12.44025 6.551865 12.025575 6.385995 11.6109 6.220125 11.196225 6.13719 11.11329 6.13719 11.030355 6.054255 10.94742 6.054255 10.44981 5.97132 9.9522 5.888385 9.371655 5.888385L8.874045 5.888385C7.381215 5.888385 5.97132 6.30306 4.727295 6.96654L4.727295 0 0 0 0 12.44025 4.727295 12.44025C4.727295 12.357315 4.81023 12.27438 4.9761 12.10851 5.30784 11.6109 6.054255 10.94742 7.13241 10.532745 7.547085 10.44981 7.96176 10.366875 8.376435 10.366875 8.79111 10.366875 9.205785 10.44981 9.537525 10.532745 9.62046 10.532745 9.703395 10.61568 9.78633 10.61568 10.11807 10.698615 10.44981 10.864485 10.78155 11.11329L10.864485 11.196225C11.11329 11.362095 11.362095 11.6109 11.6109 11.94264 11.693835 12.025575 11.693835 12.10851 11.77677 12.191445 12.025575 12.523185 12.191445 12.854925 12.27438 13.186665 12.44025 13.76721 12.60612 14.347755 12.60612 15.011235 12.60612 15.26004 12.60612 15.42591 12.523185 15.674715 12.523185 16.006455 12.44025 16.25526 12.357315 16.504065 12.357315 16.587 12.357315 16.669935 12.27438 16.75287 12.10851 17.167545 11.94264 17.499285 11.77677 17.74809 11.693835 17.831025 11.693835 17.91396 11.6109 17.996895L10.864485 18.74331C10.532745 18.992115 10.201005 19.157985 9.78633 19.24092 9.703395 19.24092 9.703395 19.24092 9.62046 19.323855 9.205785 19.40679 8.79111 19.489725 8.376435 19.489725 7.79589 19.489725 7.215345 19.323855 6.717735 19.157985 5.888385 18.826245 5.14197 18.41157 4.64436 17.996895 4.14675 17.58222 3.81501 17.25048 3.81501 17.25048L3.566205 17.001675 1.907505 19.157985 1.078155 20.23614.82935 20.56788.99522 20.73375C1.078155 20.816685 2.239245 22.06071 4.395555 22.972995 5.059035 23.304735 5.722515 23.55354 6.46893 23.636475 6.6348 23.636475 6.883605 23.71941 7.049475 23.71941 7.215345 23.71941 7.46415 23.71941 7.63002 23.802345 7.878825 23.802345 8.044695 23.88528 8.2935 23.88528L8.542305 23.88528C11.859705 23.88528 14.59656 22.143645 16.172325 19.655595L16.42113 19.157985C16.669935 18.660375 16.835805 18.162765 17.001675 17.58222 17.001675 17.499285 17.08461 17.333415 17.08461 17.25048L17.08461 17.167545C17.25048 16.587 17.333415 15.92352 17.333415 15.26004L17.333415 15.011235C17.333415 12.523185 16.42113 10.28394 14.9283 8.62524 15.011235 8.45937 14.9283 8.376435 14.9283 8.376435zM200.453895 16.006455C197.799975 15.59178 195.643665 17.831025 195.975405 20.484945 196.22421 22.143645 197.55117 23.470605 199.20987 23.71941 201.86379 24.134085 204.0201 21.89484 203.68836 19.24092 203.439555 17.665155 202.112595 16.25526 200.453895 16.006455z" transform="translate(1 18)"/>
</svg>
