<svg xmlns="http://www.w3.org/2000/svg" width="116" height="42" viewBox="0 0 116 42">
  <g fill="#293D66" transform="translate(1 12)">
    <path d="M18.2868 20.8565238C13.0795 20.8565238 8.85934 16.6915714 8.85934 11.5541524 8.85934 6.41645714 13.0795 2.25550952 18.2868 2.25550952 20.1222 2.25550952 21.8358 2.77184762 23.2834 3.66684286L18.2868 11.5541524 27.6934 6.19660952C26.6714 4.59042381 25.2056 3.20643333 23.4332 2.15621905 21.1778.824290476 18.0404 1.17747082e-14 14.5712 1.17747082e-14 9.62248 1.17747082e-14 5.28094 1.77383333 2.85978 4.43023333 1.06722 6.39394762-3.97903932e-15 8.8654381-3.97903932e-15 11.5540143-3.97903932e-15 14.2445238 1.06722 16.7178095 2.85978 18.6829048 5.28724 21.342619 9.5641 23.1060952 14.4312 23.1060952 19.2976 23.1060952 23.5732 21.3412381 26.0022 18.6829048 26.1352 18.5365238 26.264 18.3887619 26.3858 18.2354762L26.019 16.879381C24.3124 19.2822381 21.4858 20.8565238 18.2868 20.8565238M49.4732 22.5468095L45.5252 8.01919048C44.891 5.67157143 42.7238 3.94607143 40.1436 3.94607143 39.4744 3.94607143 38.8332 4.06400476 38.2382 4.2775L29.7388 7.32609048 38.4804 7.32609048 39.9742 12.8289095C38.5252 11.5987571 36.638 10.850281 34.5716 10.850281 30.4682 10.850281 27.146 13.5626095 27.146 16.908381 27.146 20.2544286 30.4682 22.9707619 34.5716 22.9707619 37.5256 22.9707619 40.138 21.5442381 41.7494 19.3526667L42.616 22.5468095 49.4732 22.5468095M37.4304 20.2903333C35.5376 20.2903333 34.0032 18.7781905 34.0032 16.908381 34.0032 15.0413333 35.5376 13.5278095 37.4304 13.5278095 39.3232 13.5278095 40.859 15.0413333 40.859 16.908381 40.859 18.7781905 39.3232 20.2903333 37.4304 20.2903333zM65.5704 3.94855714C65.0524 3.94855714 64.5624 4.06151905 64.1256 4.26382857L58.6684 6.77246667C58.3982 5.17000952 56.987 3.94855714 55.2846 3.94855714 54.7694 3.94855714 54.278 4.06151905 53.8356 4.26382857L47.173 7.32609048 51.8574 7.32609048 51.8574 22.5469476 58.7146 22.5469476 58.7146 9.01941429C58.7146 8.08602857 59.4804 7.32622857 60.4296 7.32622857 61.3732 7.32622857 62.1446 8.08602857 62.1446 9.01941429L62.1446 22.5469476 68.999 22.5469476 68.999 7.32609048C68.999 5.45945714 67.4632 3.94855714 65.5704 3.94855714M91.2814 13.5276714C91.2814 18.8182381 86.9344 23.1060952 81.5724 23.1060952 76.2062 23.1060952 71.8564 18.8182381 71.8564 13.5276714 71.8564 8.23848571 76.2062 3.94855714 81.5724 3.94855714 86.9344 3.94855714 91.2814 8.23862381 91.2814 13.5276714M81.9742 6.8557381C81.669 5.72860476 80.4944 5.05953333 79.352 5.36251429 78.211 5.66425238 77.5292 6.8235619 77.8358 7.95055714L81.1664 20.1991905C81.4744 21.3274286 82.6462 21.9958095 83.7886 21.6975238 84.931 21.3923333 85.61 20.2337143 85.3034 19.1068571L81.9742 6.8557381z"/>
    <path d="M108.5728,3.94855714 C108.0534,3.94855714 107.5606,4.06151905 107.1168,4.26382857 L101.6652,6.77246667 C101.3964,5.17000952 99.9852,3.94855714 98.2828,3.94855714 C97.7676,3.94855714 97.2762,4.06151905 96.8324,4.26382857 L90.1726,7.32609048 L94.8556,7.32609048 L94.8556,22.5469476 L101.7114,22.5469476 L101.7114,9.01941429 C101.7114,8.08602857 102.4786,7.32622857 103.4278,7.32622857 C104.3742,7.32622857 105.14,8.08602857 105.14,9.01941429 L105.14,22.5469476 L112,22.5469476 L112,7.32609048 C112,5.45945714 110.4628,3.94855714 108.5728,3.94855714"/>
  </g>
</svg>
