<svg xmlns="http://www.w3.org/2000/svg" width="142" height="38" viewBox="0 0 142 38">
  <g fill="none" fill-rule="evenodd" transform="translate(-244 -1161)">
    <rect width="1680" height="6910" fill="#FFF"/>
    <g fill="#293D66" fill-rule="nonzero" transform="translate(244 1162)">
      <path d="M22.8585 26.43025C16.349375 26.43025 11.074175 21.15225 11.074175 14.6419 11.074175 8.1312 16.349375 2.858275 22.8585 2.858275 25.15275 2.858275 27.29475 3.5126 29.10425 4.646775L22.8585 14.6419 34.61675 7.8526C33.33925 5.817175 31.507 4.063325 29.2915 2.73245 26.47225 1.044575 22.5505 1.49213975e-14 18.214 1.49213975e-14 12.0281 1.49213975e-14 6.601175 2.247875 3.574725 5.614175 1.334025 8.102675-4.97379915e-15 11.23465-4.97379915e-15 14.641725-4.97379915e-15 18.05125 1.334025 21.1855 3.574725 23.67575 6.60905 27.04625 11.955125 29.281 18.039 29.281 24.122 29.281 29.4665 27.0445 32.50275 23.67575 32.669 23.49025 32.83 23.303 32.98225 23.10875L32.52375 21.39025C30.3905 24.43525 26.85725 26.43025 22.8585 26.43025M61.8415 28.57225L56.9065 10.16225C56.11375 7.18725 53.40475 5.000625 50.1795 5.000625 49.343 5.000625 48.5415 5.150075 47.79775 5.420625L37.1735 9.283925 48.1005 9.283925 49.96775 16.257325C48.1565 14.698425 45.7975 13.749925 43.2145 13.749925 38.08525 13.749925 33.9325 17.1871 33.9325 21.427 33.9325 25.66725 38.08525 29.1095 43.2145 29.1095 46.907 29.1095 50.1725 27.30175 52.18675 24.5245L53.27 28.57225 61.8415 28.57225M46.788 25.71275C44.422 25.71275 42.504 23.7965 42.504 21.427 42.504 19.061 44.422 17.143 46.788 17.143 49.154 17.143 51.07375 19.061 51.07375 21.427 51.07375 23.7965 49.154 25.71275 46.788 25.71275zM81.963 5.003775C81.3155 5.003775 80.703 5.146925 80.157 5.4033L73.3355 8.58235C72.99775 6.55165 71.23375 5.003775 69.10575 5.003775 68.46175 5.003775 67.8475 5.146925 67.2945 5.4033L58.96625 9.283925 64.82175 9.283925 64.82175 28.572425 73.39325 28.572425 73.39325 11.429775C73.39325 10.24695 74.3505 9.2841 75.537 9.2841 76.7165 9.2841 77.68075 10.24695 77.68075 11.429775L77.68075 28.572425 86.24875 28.572425 86.24875 9.283925C86.24875 6.91845 84.329 5.003775 81.963 5.003775M114.10175 17.142825C114.10175 23.84725 108.668 29.281 101.9655 29.281 95.25775 29.281 89.8205 23.84725 89.8205 17.142825 89.8205 10.44015 95.25775 5.003775 101.9655 5.003775 108.668 5.003775 114.10175 10.440325 114.10175 17.142825M102.46775 8.687875C102.08625 7.259525 100.618 6.41165 99.19 6.7956 97.76375 7.177975 96.9115 8.6471 97.29475 10.075275L101.458 25.59725C101.843 27.027 103.30775 27.874 104.73575 27.496 106.16375 27.10925 107.0125 25.641 106.62925 24.213L102.46775 8.687875z"/>
      <path d="M135.716,5.003775 C135.06675,5.003775 134.45075,5.146925 133.896,5.4033 L127.0815,8.58235 C126.7455,6.55165 124.9815,5.003775 122.8535,5.003775 C122.2095,5.003775 121.59525,5.146925 121.0405,5.4033 L112.71575,9.283925 L118.5695,9.283925 L118.5695,28.572425 L127.13925,28.572425 L127.13925,11.429775 C127.13925,10.24695 128.09825,9.2841 129.28475,9.2841 C130.46775,9.2841 131.425,10.24695 131.425,11.429775 L131.425,28.572425 L140,28.572425 L140,9.283925 C140,6.91845 138.0785,5.003775 135.716,5.003775"/>
    </g>
  </g>
</svg>
