<svg xmlns="http://www.w3.org/2000/svg" width="142" height="50" viewBox="0 0 142 50">
  <g fill="#293D66" transform="translate(1 14)">
    <path d="M22.8585 26.0706548C16.349375 26.0706548 11.074175 20.8644643 11.074175 14.4426905 11.074175 8.02057143 16.349375 2.8193869 22.8585 2.8193869 25.15275 2.8193869 27.29475 3.46480952 29.10425 4.58355357L22.8585 14.4426905 34.61675 7.7457619C33.33925 5.73802976 31.507 4.00804167 29.2915 2.69527381 26.47225 1.0303631 22.5505 1.47183852e-14 18.214 1.47183852e-14 12.0281 1.47183852e-14 6.601175 2.21729167 3.574725 5.53779167 1.334025 7.99243452-4.97379915e-15 11.0817976-4.97379915e-15 14.4425179-4.97379915e-15 17.8056548 1.334025 20.8972619 3.574725 23.353631 6.60905 26.6782738 11.955125 28.882619 18.039 28.882619 24.122 28.882619 29.4665 26.6765476 32.50275 23.353631 32.669 23.1706548 32.83 22.9859524 32.98225 22.7943452L32.52375 21.0992262C30.3905 24.1027976 26.85725 26.0706548 22.8585 26.0706548M61.8415 28.1835119L56.9065 10.0239881C56.11375 7.08946429 53.40475 4.93258929 50.1795 4.93258929 49.343 4.93258929 48.5415 5.08000595 47.79775 5.346875L37.1735 9.1576131 48.1005 9.1576131 49.96775 16.0361369C48.1565 14.4984464 45.7975 13.5628512 43.2145 13.5628512 38.08525 13.5628512 33.9325 16.9532619 33.9325 21.1354762 33.9325 25.3180357 38.08525 28.7134524 43.2145 28.7134524 46.907 28.7134524 50.1725 26.9302976 52.18675 24.1908333L53.27 28.1835119 61.8415 28.1835119M46.788 25.3629167C44.422 25.3629167 42.504 23.4727381 42.504 21.1354762 42.504 18.8016667 44.422 16.9097619 46.788 16.9097619 49.154 16.9097619 51.07375 18.8016667 51.07375 21.1354762 51.07375 23.4727381 49.154 25.3629167 46.788 25.3629167zM81.963 4.93569643C81.3155 4.93569643 80.703 5.07689881 80.157 5.32978571L73.3355 8.46558333C72.99775 6.4625119 71.23375 4.93569643 69.10575 4.93569643 68.46175 4.93569643 67.8475 5.07689881 67.2945 5.32978571L58.96625 9.1576131 64.82175 9.1576131 64.82175 28.1836845 73.39325 28.1836845 73.39325 11.2742679C73.39325 10.1075357 74.3505 9.15778571 75.537 9.15778571 76.7165 9.15778571 77.68075 10.1075357 77.68075 11.2742679L77.68075 28.1836845 86.24875 28.1836845 86.24875 9.1576131C86.24875 6.82432143 84.329 4.93569643 81.963 4.93569643M114.10175 16.9095893C114.10175 23.5227976 108.668 28.882619 101.9655 28.882619 95.25775 28.882619 89.8205 23.5227976 89.8205 16.9095893 89.8205 10.2981071 95.25775 4.93569643 101.9655 4.93569643 108.668 4.93569643 114.10175 10.2982798 114.10175 16.9095893M102.46775 8.56967262C102.08625 7.16075595 100.618 6.32441667 99.19 6.70314286 97.76375 7.08031548 96.9115 8.52945238 97.29475 9.93819643L101.458 25.2489881C101.843 26.6592857 103.30775 27.4947619 104.73575 27.1219048 106.16375 26.7404167 107.0125 25.2921429 106.62925 23.8835714L102.46775 8.56967262z"/>
    <path d="M135.716,4.93569643 C135.06675,4.93569643 134.45075,5.07689881 133.896,5.32978571 L127.0815,8.46558333 C126.7455,6.4625119 124.9815,4.93569643 122.8535,4.93569643 C122.2095,4.93569643 121.59525,5.07689881 121.0405,5.32978571 L112.71575,9.1576131 L118.5695,9.1576131 L118.5695,28.1836845 L127.13925,28.1836845 L127.13925,11.2742679 C127.13925,10.1075357 128.09825,9.15778571 129.28475,9.15778571 C130.46775,9.15778571 131.425,10.1075357 131.425,11.2742679 L131.425,28.1836845 L140,28.1836845 L140,9.1576131 C140,6.82432143 138.0785,4.93569643 135.716,4.93569643"/>
  </g>
</svg>
