<?xml version="1.0" encoding="UTF-8"?>
<svg width="60px" height="60px" viewBox="0 0 60 60" version="1.1" xmlns="http://www.w3.org/2000/svg" xmlns:xlink="http://www.w3.org/1999/xlink">
    <title>datev-60w</title>
    <defs>
        <polygon id="path-1" points="0.0439534884 -1.98290996e-14 59.2258605 -1.98290996e-14 59.2258605 58.1431395 0.0439534884 58.1431395"></polygon>
    </defs>
    <g id="datev-60w" stroke="none" stroke-width="1" fill="none" fill-rule="evenodd">
        <g id="Group" transform="translate(0.000000, 1.000000)">
            <mask id="mask-2" fill="white">
                <use xlink:href="#path-1"></use>
            </mask>
            <g id="Clip-2"></g>
            <path d="M0,1.60982339e-15 L58.7746047,1.60982339e-15 M0,2.42256977 L58.7746047,2.42256977 M0,4.84440698 L58.7746047,4.84440698 M0,7.26697674 L58.7746047,7.26697674 M0,9.68954651 L58.7746047,9.68954651 M0,12.1113837 L58.7746047,12.1113837 M0,14.5339535 L58.7746047,14.5339535 M0,16.9565233 L58.7746047,16.9565233 M0,19.3783605 L58.7746047,19.3783605 M0,21.8009302 L58.7746047,21.8009302 M0,24.2235 L58.7746047,24.2235 M0,26.6460698 L58.7746047,26.6460698 M0,29.067907 L58.7746047,29.067907 M0,31.4904767 L58.7746047,31.4904767 M0,33.912314 L58.7746047,33.912314 M0,36.3348837 L58.7746047,36.3348837 M0,38.7574535 L58.7746047,38.7574535 M0,41.1800233 L58.7746047,41.1800233" id="Stroke-1" stroke="#293D66" stroke-width="1.18604651" mask="url(#mask-2)"></path>
            <path d="M52.044593,44.6135233 L52.044593,46.9027674 L55.4788256,46.9027674 L52.3566628,55.125 L48.5063372,44.6135233 L45.4881977,44.6135233 L50.7955814,58.1431395 L54.0217674,58.1431395 L59.2258605,44.6135233 L52.044593,44.6135233 Z M22.9041628,46.9027674 L22.9041628,44.6135233 L34.5598953,44.6135233 L34.5598953,46.9027674 L30.2934767,46.9027674 L30.2934767,58.1431395 L27.2753372,58.1431395 L27.2753372,46.9027674 L22.9041628,46.9027674 Z M17.7000698,58.1431395 L17.7000698,55.957186 L21.4471047,55.957186 L18.1168953,47.4236163 L14.0577907,58.1431395 L11.1436744,58.1431395 L16.3470349,44.6135233 L19.8860233,44.6135233 L25.193407,58.1431395 L17.7000698,58.1431395 Z M35.7048837,44.6135233 L44.7593023,44.6135233 L44.7593023,46.9027674 L38.619,46.9027674 L38.619,49.920907 L44.3432093,49.920907 L44.3432093,52.2108837 L38.619,52.2108837 L38.619,55.957186 L45.0713721,55.957186 L45.0713721,58.1431395 L35.7048837,58.1431395 L35.7048837,44.6135233 Z M0.00805813954,44.6135233 L5.31544186,44.6135233 C8.95845349,44.6135233 11.5597674,47.319593 11.6637907,51.4819884 C11.6637907,55.2290233 8.54236047,58.1431395 4.89934884,58.1431395 L0.00805813954,58.1431395 L0.00805813954,44.6135233 Z M2.81815116,55.8531628 L4.37923256,55.8531628 C6.7725,55.8531628 8.74967442,54.2920814 8.85369767,51.3779651 C8.95845349,48.5686047 7.39737209,46.9027674 5.10739535,46.9027674 L2.81815116,46.9027674 L2.81815116,55.8531628 L2.81815116,55.8531628 Z" id="Fill-3" fill="#293D66" mask="url(#mask-2)"></path>
        </g>
    </g>
</svg>