<svg xmlns="http://www.w3.org/2000/svg" width="132" height="42" viewBox="0 0 132 42">
  <path fill="#293D66" d="M15.2380952 15.4626566L7.47468672 15.4626566C7.12180451 15.4626566 6.96140351 15.6230576 6.96140351 15.9117794 6.96140351 16.6175439 7.34636591 17.2912281 8.11629073 17.9328321 8.88621554 18.5744361 9.72030075 18.8952381 10.6185464 18.8952381 11.1318296 18.8952381 11.7413534 18.7989975 12.3829574 18.6065163 13.0245614 18.4140351 13.5699248 18.1573935 13.9869674 17.8686717 14.3719298 17.6120301 14.6606516 17.4837093 14.885213 17.4837093 15.1739348 17.4837093 15.4626566 17.6441103 15.7192982 17.9969925 16.0080201 18.3498747 16.1363409 18.7027569 16.1363409 19.0877193 16.1363409 19.8897243 15.6551378 20.6275689 14.6606516 21.3654135 12.9283208 22.6807018 10.9072682 23.3223058 8.62957393 23.3223058 6.3197995 23.3223058 4.39498747 22.6486216 2.82305764 21.3012531 2.05313283 20.6275689 1.44360902 19.8576441.962406015 18.9273183.320802005 17.6761905-3.41060513e-14 16.3929825-3.41060513e-14 15.0135338-3.41060513e-14 13.1849624.545363409 11.516792 1.66817043 10.0411028 2.63057644 8.75789474 3.84962406 7.82756892 5.35739348 7.18596491 6.4802005 6.7047619 7.69924812 6.4802005 8.98245614 6.4802005 11.0676692 6.4802005 12.8320802 7.05764411 14.3077694 8.24461153 15.045614 8.82205514 15.6230576 9.52781955 16.0721805 10.3619048 16.5854637 11.2922306 16.8421053 12.1904762 16.8421053 13.0566416 16.8421053 13.762406 16.6817043 14.3398496 16.3929825 14.8210526 16.0721805 15.2380952 15.687218 15.4626566 15.2380952 15.4626566zM7.92380952 12.3829574L9.59197995 12.3829574C10.2977444 12.3829574 10.6506266 12.0621554 10.6506266 11.4205514 10.6506266 10.8431078 10.4902256 10.3298246 10.1373434 9.97694236 9.78446115 9.59197995 9.36741855 9.43157895 8.78997494 9.43157895 8.18045113 9.43157895 7.69924812 9.68822055 7.34636591 10.1694236 7.02556391 10.6185464 6.86516291 11.0676692 6.86516291 11.5488722 6.86516291 11.8696742 6.92932331 12.0942356 7.08972431 12.2546366 7.25012531 12.318797 7.50676692 12.3829574 7.92380952 12.3829574zM27.3002506 6.4160401C29.2250627 6.4160401 30.8290727 6.89724311 32.1443609 7.85964912 32.8501253 8.37293233 33.3313283 8.95037594 33.6200501 9.62406015 33.9087719 10.2977444 34.0370927 11.19599 34.0370927 12.3508772L34.0050125 14.7889724C34.0050125 16.4892231 34.1333333 17.5799499 34.3578947 18.0932331 34.4862155 18.3498747 34.5824561 18.4781955 34.7107769 18.5423559 34.8070175 18.6065163 35.0636591 18.6706767 35.4165414 18.7348371 35.7694236 18.7989975 35.9298246 19.0235589 35.9298246 19.4406015 35.9298246 19.9538847 35.7052632 20.5313283 35.2882206 21.0766917 34.8711779 21.6541353 34.3258145 22.1353383 33.6521303 22.5203008 32.8180451 23.0015038 31.9518797 23.2581454 31.0536341 23.2581454 29.8987469 23.2581454 29.0005013 22.873183 28.326817 22.0711779 28.1022556 21.7824561 27.8776942 21.6541353 27.685213 21.6541353 27.4606516 21.6541353 27.1719298 21.7824561 26.8190476 22.0711779 25.7283208 22.873183 24.477193 23.2581454 23.0977444 23.2581454 21.6541353 23.2581454 20.4992481 22.9373434 19.6010025 22.3278195 19.0235589 21.9107769 18.5744361 21.3974937 18.2215539 20.7238095 17.8686717 20.0822055 17.7082707 19.3764411 17.7082707 18.6706767 17.7082707 17.5157895 18.1573935 16.5213033 19.0877193 15.6551378 20.5313283 14.2756892 22.6807018 13.5699248 25.5358396 13.5699248 26.1774436 13.5699248 26.562406 13.5057644 26.722807 13.3774436 26.883208 13.2491228 26.9794486 12.960401 26.9794486 12.5112782 26.9794486 11.356391 26.8511278 10.4902256 26.6265664 9.97694236 26.3699248 9.46365915 25.9849624 9.20701754 25.439599 9.20701754 25.118797 9.20701754 24.8300752 9.30325815 24.5734336 9.49573935 24.316792 9.68822055 23.99599 10.0411028 23.6110276 10.5864662 22.6486216 11.9659148 21.6220551 12.6716792 20.5634085 12.6716792 20.0180451 12.6716792 19.6010025 12.5112782 19.2481203 12.1904762 18.8952381 11.8696742 18.7348371 11.4526316 18.7348371 10.9393484 18.7348371 10.4260652 18.9593985 9.88070175 19.3764411 9.36741855 19.7934837 8.85413534 20.3709273 8.37293233 21.1087719 7.98796992 23.0656642 6.92932331 25.118797 6.4160401 27.3002506 6.4160401zM26.1774436 15.9438596C25.6962406 15.9438596 25.279198 16.1363409 24.9263158 16.5213033 24.5734336 16.9062657 24.3809524 17.3874687 24.3809524 17.9328321 24.3809524 18.4461153 24.5092732 18.8952381 24.7659148 19.2160401 25.0225564 19.5368421 25.3433584 19.6972431 25.760401 19.6972431 26.6265664 19.6972431 27.0756892 18.9593985 27.0756892 17.4837093 27.0756892 16.8741855 27.0115288 16.4892231 26.883208 16.2646617 26.7869674 16.0721805 26.5303258 15.9438596 26.1774436 15.9438596zM43.5969925 6.4160401C44.1423559 6.4160401 45.0406015 6.5443609 46.2917293 6.76892231 46.5483709 6.80100251 46.7408521 6.83308271 46.9012531 6.83308271 47.0937343 6.83308271 47.4466165 6.73684211 47.9919799 6.5443609 48.2486216 6.4481203 48.473183 6.3839599 48.633584 6.3839599 49.1468672 6.3839599 49.6601504 6.7047619 50.1734336 7.34636591 50.5904762 7.85964912 50.9433584 8.43709273 51.2 9.04661654 51.4566416 9.65614035 51.5849624 10.2015038 51.5849624 10.6506266 51.5849624 11.0997494 51.4245614 11.4526316 51.1358396 11.7413534 50.8150376 12.0300752 50.4300752 12.1904762 49.9809524 12.1904762 49.59599 12.1904762 49.2431078 12.0942356 48.954386 11.9017544 48.6656642 11.7092732 48.152381 11.2922306 47.5107769 10.6827068 46.8050125 10.0090226 46.2275689 9.65614035 45.7784461 9.65614035 45.4576441 9.65614035 45.2010025 9.78446115 44.9764411 10.0090226 44.7518797 10.233584 44.6235589 10.4902256 44.6235589 10.8110276 44.6235589 11.356391 45.1368421 11.837594 46.1634085 12.318797 48.0240602 13.1528822 49.435589 14.0511278 50.4300752 15.045614 51.2641604 15.8796992 51.681203 16.9062657 51.681203 18.0932331 51.681203 19.6330827 51.0075188 20.8842105 49.6601504 21.9107769 48.5052632 22.8090226 47.0937343 23.2581454 45.4255639 23.2581454 45.0085213 23.2581454 44.2065163 23.193985 43.0837093 23.033584 42.0250627 22.9052632 41.4155388 22.8411028 41.287218 22.8411028 41.1588972 22.8411028 40.966416 22.873183 40.806015 22.9052632 40.485213 22.9373434 40.2606516 22.9694236 40.1002506 22.9694236 39.5869674 22.9694236 39.1699248 22.8411028 38.881203 22.5844612 38.4320802 22.1674185 38.0150376 21.5258145 37.6300752 20.6596491 37.2451128 19.7934837 37.0526316 19.0235589 37.0526316 18.4140351 37.0526316 17.4195489 37.437594 16.9062657 38.239599 16.9062657 38.560401 16.9062657 38.8170426 17.0025063 39.0736842 17.1949875 39.3303258 17.3874687 39.8756892 17.9328321 40.7097744 18.8310777 41.1588972 19.3122807 41.5438596 19.6330827 41.8325815 19.8255639 42.1213033 20.0180451 42.4421053 20.0822055 42.7949875 20.0822055 43.1478697 20.0822055 43.4365915 19.9859649 43.6611529 19.7934837 43.8857143 19.6010025 43.9819549 19.3443609 43.9819549 19.0235589 43.9819549 18.5423559 43.5649123 18.0932331 42.6987469 17.6761905 40.9343358 16.8100251 39.6511278 15.9117794 38.881203 14.9814536 38.1112782 14.0511278 37.6942356 12.9924812 37.6942356 11.7734336 37.6942356 10.4581454 38.079198 9.33533835 38.881203 8.40501253 40.0360902 7.12180451 41.6080201 6.4160401 43.5969925 6.4160401zM68.7478697 14.5323308L66.566416 20.4992481C66.0210526 21.9749373 65.4756892 23.193985 64.9303258 24.1243108 64.3849624 25.0546366 63.7754386 25.8566416 63.0696742 26.5303258 61.6581454 27.8776942 59.9258145 28.5834586 57.9047619 28.5834586 56.2686717 28.5834586 54.9533835 28.166416 53.9588972 27.3002506 53.1889724 26.6265664 52.80401 25.7924812 52.80401 24.797995 52.80401 23.9639098 53.0606516 23.2581454 53.606015 22.6807018 54.1513784 22.1032581 54.8250627 21.8145363 55.5949875 21.8145363 56.3969925 21.8145363 57.0065163 22.0711779 57.5197995 22.6165414 57.7443609 22.873183 57.9047619 23.0656642 57.9689223 23.2581454 58.0330827 23.4506266 58.1614035 23.8676692 58.3218045 24.477193 58.4501253 24.958396 58.7067669 25.2150376 59.1558897 25.2150376 59.5087719 25.2150376 59.7654135 25.0546366 60.0220551 24.7659148 60.2786967 24.477193 60.3749373 24.0922306 60.3749373 23.675188 60.3749373 23.1619048 60.0862155 22.2957393 59.5087719 21.0766917L55.5308271 12.639599C55.1137845 11.7734336 54.7929825 11.2280702 54.6005013 11.0035088 54.3759398 10.7789474 53.926817 10.5223058 53.2210526 10.2015038 52.9964912 10.1052632 52.80401 9.94486216 52.643609 9.68822055 52.483208 9.43157895 52.4190476 9.17493734 52.4190476 8.95037594 52.4190476 7.98796992 53.3814536 7.31428571 55.3383459 6.96140351 56.6215539 6.73684211 58.0972431 6.6085213 59.7654135 6.6085213 60.9203008 6.6085213 61.8506266 6.73684211 62.5243108 6.96140351 63.4225564 7.28220551 63.8716792 7.82756892 63.8716792 8.59749373 63.8716792 8.88621554 63.7433584 9.20701754 63.4867168 9.55989975 63.2300752 9.91278195 63.1338346 10.233584 63.1338346 10.4902256 63.1338346 10.7468672 63.197995 11.035589 63.2942356 11.3243108 63.4225564 11.6130326 63.6471178 12.0942356 64.0320802 12.7679198 64.4491228 13.5378446 64.802005 13.922807 65.122807 13.922807 65.4756892 13.922807 65.8285714 13.5699248 66.1814536 12.8962406 66.5343358 12.2225564 66.726817 11.5809524 66.726817 10.9393484 66.726817 10.4260652 66.5984962 10.0090226 66.3097744 9.72030075 65.8927318 9.23909774 65.6681704 8.78997494 65.6681704 8.43709273 65.6681704 7.89172932 66.0531328 7.44260652 66.7909774 7.08972431 67.5288221 6.76892231 68.5233083 6.5764411 69.7744361 6.5764411 72.1162907 6.5764411 73.2711779 7.12180451 73.2711779 8.24461153 73.2711779 8.66165414 73.1428571 8.98245614 72.9182957 9.23909774 72.6937343 9.49573935 72.2446115 9.72030075 71.6350877 9.94486216 71.1218045 10.1373434 70.7047619 10.4581454 70.3839599 10.9393484 69.9348371 11.6130326 69.3894737 12.8320802 68.7478697 14.5323308zM87.5468672 6.53699317e-14C88.7659148 6.53699317e-14 90.0170426.0962406015 91.3002506.320802005 92.326817.481203008 93.0967419.737844612 93.5458647 1.05864662 93.9949875 1.37944862 94.2195489 1.79649123 94.2195489 2.34185464 94.2195489 2.69473684 94.1233083 2.95137845 93.9629073 3.14385965 93.8025063 3.33634085 93.4496241 3.56090226 92.9042607 3.84962406 92.2626566 4.17042607 91.9097744 4.55538847 91.8135338 5.00451128 91.7172932 5.45363409 91.6210526 7.18596491 91.5568922 10.1694236 91.524812 13.0887218 91.4927318 14.8210526 91.4606516 15.3984962 91.4285714 15.9759398 91.364411 16.5533835 91.2681704 17.0987469 90.9473684 18.7027569 90.3057644 19.9538847 89.3433584 20.8842105 88.5413534 21.6220551 87.5468672 22.2315789 86.2957393 22.6486216 85.0446115 23.0656642 83.7614035 23.2902256 82.3819549 23.2902256 81.1629073 23.2902256 79.9438596 23.1298246 78.724812 22.8090226 77.5057644 22.4882206 76.4471178 22.0390977 75.5488722 21.4937343 74.8110276 21.0446115 74.2015038 20.4030075 73.7844612 19.6330827 73.3353383 18.8631579 73.1107769 17.9969925 73.1107769 17.1308271 73.1107769 16.0401003 73.4636591 15.1097744 74.1373434 14.40401 74.8431078 13.6982456 75.7092732 13.3132832 76.7358396 13.3132832 77.762406 13.3132832 78.6285714 13.602005 79.3343358 14.2115288 80.0401003 14.8210526 80.3929825 15.5909774 80.3929825 16.4892231 80.3929825 16.7137845 80.3288221 17.0987469 80.2005013 17.6441103 80.1684211 17.7403509 80.1684211 17.8686717 80.1684211 17.9969925 80.1684211 18.3498747 80.2967419 18.6385965 80.5533835 18.8631579 80.8100251 19.0877193 81.1308271 19.1839599 81.5478697 19.1839599 82.2857143 19.1839599 82.8631579 18.8631579 83.3122807 18.1894737 83.7614035 17.5157895 83.9859649 16.6496241 83.9859649 15.5909774L83.9538847 14.083208 83.9218045 10.0411028C83.8255639 7.60300752 83.7614035 6.1593985 83.6972431 5.71027569 83.6330827 5.26115288 83.5368421 4.90827068 83.3122807 4.65162907 83.1518797 4.42706767 82.9914787 4.29874687 82.8631579 4.23458647 82.7348371 4.17042607 82.3819549 4.07418546 81.8365915 3.91378446 81.5799499 3.84962406 81.3553885 3.72130326 81.1629073 3.46466165 80.9704261 3.20802005 80.8741855 2.95137845 80.8741855 2.66265664 80.8741855 2.08521303 81.0987469 1.60401003 81.5799499 1.25112782 82.0611529.898245614 82.7989975.60952381 83.8576441.384962406 85.0766917.128320802 86.2957393 6.53699317e-14 87.5468672 6.53699317e-14zM110.291729 15.4626566L102.560401 15.4626566C102.207519 15.4626566 102.047118 15.6230576 102.047118 15.9117794 102.047118 16.6175439 102.43208 17.2912281 103.202005 17.9328321 103.97193 18.5744361 104.806015 18.8952381 105.704261 18.8952381 106.217544 18.8952381 106.827068 18.7989975 107.468672 18.6065163 108.110276 18.4140351 108.655639 18.1573935 109.072682 17.8686717 109.457644 17.6120301 109.746366 17.4837093 109.970927 17.4837093 110.259649 17.4837093 110.548371 17.6441103 110.805013 17.9969925 111.093734 18.3498747 111.222055 18.7027569 111.222055 19.0877193 111.222055 19.8897243 110.740852 20.6275689 109.746366 21.3654135 108.014035 22.6807018 105.992982 23.3223058 103.715288 23.3223058 101.405514 23.3223058 99.4807018 22.6486216 97.9087719 21.3012531 97.1388471 20.6275689 96.5293233 19.8576441 96.0481203 18.9273183 95.4065163 17.6761905 95.0857143 16.3929825 95.0857143 15.0135338 95.0857143 13.1849624 95.6310777 11.516792 96.7538847 10.0411028 97.7162907 8.75789474 98.9353383 7.82756892 100.443108 7.18596491 101.565915 6.7047619 102.784962 6.4802005 104.06817 6.4802005 106.153383 6.4802005 107.917794 7.05764411 109.393484 8.24461153 110.131328 8.82205514 110.708772 9.52781955 111.157895 10.3619048 111.671178 11.2922306 111.92782 12.1904762 111.92782 13.0566416 111.92782 13.762406 111.767419 14.3398496 111.478697 14.8210526 111.157895 15.2380952 110.772932 15.4626566 110.291729 15.4626566zM102.977444 12.3829574L104.645614 12.3829574C105.351378 12.3829574 105.704261 12.0621554 105.704261 11.4205514 105.704261 10.8431078 105.54386 10.3298246 105.190977 9.97694236 104.838095 9.59197995 104.421053 9.43157895 103.843609 9.43157895 103.234085 9.43157895 102.752882 9.68822055 102.4 10.1694236 102.079198 10.6185464 101.918797 11.0676692 101.918797 11.5488722 101.918797 11.8696742 101.982957 12.0942356 102.143358 12.2546366 102.303759 12.318797 102.592481 12.3829574 102.977444 12.3829574zM122.514286 10.7468672L122.514286 16.2967419C122.514286 16.9704261 122.674687 17.4837093 122.995489 17.9007519 123.316291 18.3177945 123.733333 18.5423559 124.246617 18.5423559 124.663659 18.5423559 125.241103 18.3498747 125.946867 17.9649123 126.107268 17.8686717 126.267669 17.8045113 126.42807 17.8045113 126.684712 17.8045113 126.941353 17.9649123 127.165915 18.2857143 127.390476 18.6065163 127.486717 18.9593985 127.486717 19.3122807 127.486717 19.9859649 127.101754 20.6596491 126.36391 21.2691729 124.79198 22.5844612 122.931328 23.2581454 120.685714 23.2581454 118.921303 23.2581454 117.509774 22.7769424 116.451128 21.7824561 115.392481 20.7879699 114.847118 19.4726817 114.847118 17.8686717L114.847118 10.2656642C114.847118 10.0090226 114.815038 9.84862155 114.750877 9.78446115 114.686717 9.72030075 114.526316 9.68822055 114.269674 9.68822055L112.633584 9.68822055C112.312782 9.68822055 112.120301 9.62406015 112.02406 9.52781955 111.92782 9.43157895 111.895739 9.17493734 111.895739 8.78997494L111.895739 8.05213033C111.895739 7.73132832 112.02406 7.47468672 112.280702 7.31428571L119.819549 2.56641604C120.01203 2.47017544 120.236591 2.40601504 120.525313 2.40601504L121.872682 2.40601504C122.161404 2.40601504 122.321805 2.47017544 122.418045 2.59849624 122.514286 2.72681704 122.546366 2.98345865 122.546366 3.33634085L122.546366 5.54987469C122.546366 5.87067669 122.610526 6.0952381 122.706767 6.1914787 122.803008 6.2877193 123.027569 6.3518797 123.380451 6.3518797L126.42807 6.3518797C126.845113 6.3518797 127.101754 6.4160401 127.230075 6.5764411 127.358396 6.73684211 127.422556 7.02556391 127.422556 7.53884712L127.422556 8.50125313C127.422556 9.01453634 127.358396 9.39949875 127.197995 9.59197995 127.037594 9.78446115 126.748872 9.88070175 126.36391 9.88070175L123.380451 9.88070175C123.059649 9.88070175 122.867168 9.94486216 122.770927 10.0411028 122.578446 10.233584 122.514286 10.4260652 122.514286 10.7468672z" transform="translate(1 12)"/>
</svg>
