<svg xmlns="http://www.w3.org/2000/svg" width="130" height="42" viewBox="0 0 130 42">
  <path fill="#293D66" d="M14.8405797 15.059283L7.27969489 15.059283C6.93601831 15.059283 6.77980168 15.2154996 6.77980168 15.4966895 6.77980168 16.1840427 7.15472159 16.8401526 7.9045614 17.4650191 8.65440122 18.0898856 9.46672769 18.4023188 10.3415408 18.4023188 10.841434 18.4023188 11.4350572 18.3085889 12.0599237 18.1211289 12.6847902 17.933669 13.2159268 17.6837223 13.62209 17.4025324 13.9970099 17.1525858 14.2781998 17.0276125 14.4969031 17.0276125 14.7780931 17.0276125 15.059283 17.1838291 15.3092296 17.5275057 15.5904195 17.8711823 15.7153928 18.2148589 15.7153928 18.5897788 15.7153928 19.3708619 15.2467429 20.0894584 14.2781998 20.8080549 12.5910603 22.0890313 10.6227307 22.7138978 8.40445461 22.7138978 6.15493516 22.7138978 4.28033562 22.0577879 2.74941266 20.7455683 1.99957285 20.0894584 1.40594966 19.3396186.937299771 18.4335622.312433257 17.2150725-3.32163282e-14 15.9653394-3.32163282e-14 14.6218764-3.32163282e-14 12.8410069.531136537 11.2163539 1.62465294 9.77916095 2.56195271 8.52942792 3.74919908 7.62337147 5.21763539 6.99850496 6.31115179 6.52985507 7.49839817 6.31115179 8.7481312 6.31115179 10.7789474 6.31115179 12.4973303 6.87353166 13.9345233 8.02953471 14.6531198 8.59191457 15.2154996 9.27926773 15.6529062 10.0915942 16.1527994 10.9976506 16.402746 11.8724638 16.402746 12.7160336 16.402746 13.4033867 16.2465294 13.9657666 15.9653394 14.4344165 15.6529062 14.8405797 15.2779863 15.059283 14.8405797 15.059283zM7.71710145 12.0599237L9.34175439 12.0599237C10.0291076 12.0599237 10.3727841 11.7474905 10.3727841 11.122624 10.3727841 10.5602441 10.2165675 10.0603509 9.87289092 9.71667429 9.52921434 9.34175439 9.12305111 9.18553776 8.56067124 9.18553776 7.96704805 9.18553776 7.49839817 9.43548436 7.15472159 9.90413425 6.84228833 10.3415408 6.6860717 10.7789474 6.6860717 11.2475973 6.6860717 11.5600305 6.74855835 11.7787338 6.90477498 11.9349504 7.06099161 11.9974371 7.31093822 12.0599237 7.71710145 12.0599237zM26.5880702 6.24866514C28.4626697 6.24866514 30.024836 6.71731503 31.3058124 7.6546148 31.9931655 8.15450801 32.4618154 8.71688787 32.7430053 9.37299771 33.0241953 10.0291076 33.1491686 10.9039207 33.1491686 12.0286804L33.1179252 14.4031732C33.1179252 16.0590694 33.2428986 17.1213425 33.4616018 17.6212357 33.5865751 17.8711823 33.6803051 17.9961556 33.8052784 18.0586423 33.8990084 18.1211289 34.148955 18.1836156 34.4926316 18.2461022 34.8363082 18.3085889 34.9925248 18.5272921 34.9925248 18.9334554 34.9925248 19.4333486 34.7738215 19.9957285 34.3676583 20.526865 33.961495 21.0892449 33.4303585 21.5578947 32.7742487 21.9328146 31.9619222 22.4014645 31.1183524 22.6514111 30.2435393 22.6514111 29.1187796 22.6514111 28.2439664 22.2764912 27.5878566 21.4954081 27.3691533 21.2142182 27.15045 21.0892449 26.9629901 21.0892449 26.7442868 21.0892449 26.4630969 21.2142182 26.1194203 21.4954081 25.0571472 22.2764912 23.8386575 22.6514111 22.4951945 22.6514111 21.0892449 22.6514111 19.9644851 22.3389779 19.089672 21.7453547 18.5272921 21.3391915 18.0898856 20.8392982 17.746209 20.1831884 17.4025324 19.5583219 17.2463158 18.8709687 17.2463158 18.1836156 17.2463158 17.0588558 17.6837223 16.0903127 18.5897788 15.2467429 19.9957285 13.9032799 22.0890313 13.2159268 24.8696873 13.2159268 25.4945538 13.2159268 25.8694737 13.1534401 26.0256903 13.0284668 26.1819069 12.9034935 26.2756369 12.6223036 26.2756369 12.184897 26.2756369 11.0601373 26.1506636 10.2165675 25.9319603 9.71667429 25.6820137 9.21678108 25.3070938 8.96683448 24.7759573 8.96683448 24.463524 8.96683448 24.1823341 9.06056445 23.9323875 9.24802441 23.6824409 9.43548436 23.3700076 9.77916095 22.9950877 10.3102975 22.0577879 11.6537605 21.0580015 12.3411137 20.0269718 12.3411137 19.4958352 12.3411137 19.089672 12.184897 18.7459954 11.8724638 18.4023188 11.5600305 18.2461022 11.1538673 18.2461022 10.6539741 18.2461022 10.1540809 18.4648055 9.62294432 18.8709687 9.12305111 19.277132 8.62315789 19.8395118 8.15450801 20.5581083 7.7795881 22.4639512 6.74855835 24.463524 6.24866514 26.5880702 6.24866514zM25.4945538 15.5279329C25.0259039 15.5279329 24.6197407 15.7153928 24.2760641 16.0903127 23.9323875 16.4652326 23.7449275 16.9338825 23.7449275 17.4650191 23.7449275 17.9649123 23.8699008 18.4023188 24.1198474 18.7147521 24.3697941 19.0271854 24.6822273 19.183402 25.0883905 19.183402 25.9319603 19.183402 26.3693669 18.4648055 26.3693669 17.0276125 26.3693669 16.4339893 26.3068802 16.0590694 26.1819069 15.8403661 26.088177 15.6529062 25.8382304 15.5279329 25.4945538 15.5279329zM42.4596796 6.24866514C42.9908162 6.24866514 43.8656293 6.37363844 45.084119 6.59234172 45.3340656 6.62358505 45.5215256 6.65482838 45.6777422 6.65482838 45.8652021 6.65482838 46.2088787 6.5610984 46.7400153 6.37363844 46.9899619 6.27990847 47.2086651 6.21742182 47.3648818 6.21742182 47.864775 6.21742182 48.3646682 6.52985507 48.8645614 7.15472159 49.2707246 7.6546148 49.6144012 8.21699466 49.8643478 8.81061785 50.1142944 9.40424104 50.2392677 9.93537757 50.2392677 10.3727841 50.2392677 10.8101907 50.0830511 11.1538673 49.8018612 11.4350572 49.4894279 11.7162471 49.114508 11.8724638 48.6771014 11.8724638 48.3021815 11.8724638 47.958505 11.7787338 47.677315 11.5912738 47.3961251 11.4038139 46.8962319 10.9976506 46.2713654 10.4040275 45.5840122 9.74791762 45.0216323 9.40424104 44.5842258 9.40424104 44.2717925 9.40424104 44.0218459 9.52921434 43.8031426 9.74791762 43.5844394 9.9666209 43.4594661 10.2165675 43.4594661 10.5290008 43.4594661 11.0601373 43.9593593 11.5287872 44.9591457 11.9974371 46.7712586 12.8097635 48.1459649 13.6845767 49.114508 14.6531198 49.9268345 15.4654462 50.3329977 16.4652326 50.3329977 17.6212357 50.3329977 19.1209153 49.6768879 20.339405 48.3646682 21.3391915 47.2399085 22.2140046 45.8652021 22.6514111 44.2405492 22.6514111 43.834386 22.6514111 43.0533028 22.5889245 41.9597864 22.4327079 40.9287567 22.3077346 40.3351335 22.2452479 40.2101602 22.2452479 40.0851869 22.2452479 39.8977269 22.2764912 39.7415103 22.3077346 39.429077 22.3389779 39.2103738 22.3702212 39.0541571 22.3702212 38.5542639 22.3702212 38.1481007 22.2452479 37.8669108 21.9953013 37.4295042 21.5891381 37.023341 20.9642715 36.6484211 20.1207018 36.2735011 19.277132 36.0860412 18.5272921 36.0860412 17.933669 36.0860412 16.9651259 36.4609611 16.4652326 37.2420442 16.4652326 37.5544775 16.4652326 37.8044241 16.5589626 38.0543707 16.7464226 38.3043173 16.9338825 38.8354539 17.4650191 39.6477803 18.3398322 40.0851869 18.8084821 40.4601068 19.1209153 40.7412967 19.3083753 41.0224867 19.4958352 41.3349199 19.5583219 41.6785965 19.5583219 42.0222731 19.5583219 42.303463 19.4645919 42.5221663 19.277132 42.7408696 19.089672 42.8345995 18.8397254 42.8345995 18.5272921 42.8345995 18.0586423 42.4284363 17.6212357 41.5848665 17.2150725 39.8664836 16.3715027 38.6167506 15.4966895 37.8669108 14.5906331 37.1170709 13.6845767 36.7109077 12.6535469 36.7109077 11.4663005 36.7109077 10.1853242 37.0858276 9.09180778 37.8669108 8.18575133 38.9916705 6.93601831 40.5225934 6.24866514 42.4596796 6.24866514zM66.954447 14.1532265L64.8299008 19.9644851C64.2987643 21.4016781 63.7676278 22.5889245 63.2364912 23.4949809 62.7053547 24.4010374 62.1117315 25.1821205 61.4243783 25.8382304 60.049672 27.15045 58.3625324 27.8378032 56.3942029 27.8378032 54.8007933 27.8378032 53.5198169 27.43164 52.5512738 26.5880702 51.801434 25.9319603 51.4265141 25.1196339 51.4265141 24.1510908 51.4265141 23.3387643 51.6764607 22.6514111 52.2075973 22.0890313 52.7387338 21.5266514 53.3948436 21.2454615 54.1446834 21.2454615 54.9257666 21.2454615 55.5193898 21.4954081 56.019283 22.0265446 56.2379863 22.2764912 56.3942029 22.4639512 56.4566895 22.6514111 56.5191762 22.8388711 56.6441495 23.2450343 56.8003661 23.8386575 56.9253394 24.3073074 57.175286 24.557254 57.6126926 24.557254 57.9563692 24.557254 58.2063158 24.4010374 58.4562624 24.1198474 58.706209 23.8386575 58.799939 23.4637376 58.799939 23.0575744 58.799939 22.5576812 58.518749 21.7141114 57.9563692 20.526865L54.0821968 12.3098703C53.6760336 11.4663005 53.3636003 10.935164 53.1761404 10.7164607 52.9574371 10.4977574 52.5200305 10.2478108 51.8326773 9.93537757 51.6139741 9.8416476 51.4265141 9.68543097 51.2702975 9.43548436 51.1140809 9.18553776 51.0515942 8.93559115 51.0515942 8.71688787 51.0515942 7.7795881 51.988894 7.12347826 53.8947368 6.77980168 55.1444699 6.5610984 56.5816629 6.4361251 58.2063158 6.4361251 59.3310755 6.4361251 60.237132 6.5610984 60.8932418 6.77980168 61.7680549 7.09223494 62.2054615 7.62337147 62.2054615 8.37321129 62.2054615 8.65440122 62.0804882 8.96683448 61.8305416 9.31051106 61.580595 9.65418764 61.486865 9.9666209 61.486865 10.2165675 61.486865 10.4665141 61.5493516 10.747704 61.6430816 11.028894 61.7680549 11.3100839 61.9867582 11.7787338 62.3616781 12.4348436 62.7678413 13.1846834 63.1115179 13.5596034 63.4239512 13.5596034 63.7676278 13.5596034 64.1113043 13.2159268 64.4549809 12.5598169 64.7986575 11.9037071 64.9861175 11.2788406 64.9861175 10.6539741 64.9861175 10.1540809 64.8611442 9.74791762 64.5799542 9.46672769 64.173791 8.9980778 63.9550877 8.56067124 63.9550877 8.21699466 63.9550877 7.68585812 64.3300076 7.24845156 65.0486041 6.90477498 65.7672006 6.59234172 66.7357437 6.40488177 67.9542334 6.40488177 70.2349962 6.40488177 71.3597559 6.93601831 71.3597559 8.02953471 71.3597559 8.43569794 71.2347826 8.7481312 71.0160793 8.9980778 70.797376 9.24802441 70.3599695 9.46672769 69.7663463 9.68543097 69.2664531 9.87289092 68.8602899 10.1853242 68.5478566 10.6539741 68.11045 11.3100839 67.5793135 12.4973303 66.954447 14.1532265zM85.2630359 6.36646291e-14C86.4502822 6.36646291e-14 87.6687719.0937299771 88.918505.312433257 89.9182914.468649886 90.6681312.718596491 91.1055378 1.03102975 91.5429443 1.34346301 91.7616476 1.74962624 91.7616476 2.28076278 91.7616476 2.62443936 91.6679176 2.87438596 91.511701 3.06184592 91.3554844 3.24930587 91.0118078 3.46800915 90.4806712 3.74919908 89.8558047 4.06163234 89.5121281 4.43655225 89.4183982 4.87395881 89.3246682 5.31136537 89.2309382 6.99850496 89.1684516 9.90413425 89.1372082 12.7472769 89.1059649 14.4344165 89.0747216 14.9967963 89.0434783 15.5591762 88.9809916 16.1215561 88.8872616 16.6526926 88.5748284 18.2148589 87.9499619 19.4333486 87.0126621 20.339405 86.2315789 21.0580015 85.2630359 21.6516247 84.0445461 22.0577879 82.8260564 22.4639512 81.5763234 22.6826545 80.2328604 22.6826545 79.045614 22.6826545 77.8583677 22.5264378 76.6711213 22.2140046 75.4838749 21.9015713 74.4528452 21.4641648 73.578032 20.9330282 72.8594355 20.4956217 72.2658124 19.8707551 71.8596491 19.1209153 71.4222426 18.3710755 71.2035393 17.5275057 71.2035393 16.6839359 71.2035393 15.6216629 71.5472159 14.7156064 72.2033257 14.0282532 72.8906789 13.3409001 73.7342487 12.9659802 74.7340351 12.9659802 75.7338215 12.9659802 76.5773913 13.2471701 77.2647445 13.8407933 77.9520976 14.4344165 78.2957742 15.1842563 78.2957742 16.0590694 78.2957742 16.2777727 78.2332876 16.6526926 78.1083143 17.1838291 78.0770709 17.2775591 78.0770709 17.4025324 78.0770709 17.5275057 78.0770709 17.8711823 78.2020442 18.1523722 78.4519908 18.3710755 78.7019375 18.5897788 79.0143707 18.6835088 79.4205339 18.6835088 80.1391304 18.6835088 80.7015103 18.3710755 81.1389169 17.7149657 81.5763234 17.0588558 81.7950267 16.215286 81.7950267 15.1842563L81.7637834 13.71582 81.73254 9.77916095C81.6388101 7.40466819 81.5763234 5.99871854 81.5138368 5.56131198 81.4513501 5.12390542 81.3576201 4.78022883 81.1389169 4.53028223 80.9827002 4.31157895 80.8264836 4.18660564 80.7015103 4.12411899 80.576537 4.06163234 80.2328604 3.96790236 79.7017239 3.81168574 79.4517773 3.74919908 79.233074 3.62422578 79.045614 3.37427918 78.8581541 3.12433257 78.7644241 2.87438596 78.7644241 2.59319603 78.7644241 2.03081617 78.9831274 1.56216629 79.4517773 1.2184897 79.9204272.87481312 80.6390236.593623188 81.6700534.374919908 82.8572998.124973303 84.0445461 6.36646291e-14 85.2630359 6.36646291e-14zM107.414554 15.059283L99.8849123 15.059283C99.5412357 15.059283 99.3850191 15.2154996 99.3850191 15.4966895 99.3850191 16.1840427 99.759939 16.8401526 100.509779 17.4650191 101.259619 18.0898856 102.071945 18.4023188 102.946758 18.4023188 103.446651 18.4023188 104.040275 18.3085889 104.665141 18.1211289 105.290008 17.933669 105.821144 17.6837223 106.227307 17.4025324 106.602227 17.1525858 106.883417 17.0276125 107.102121 17.0276125 107.38331 17.0276125 107.6645 17.1838291 107.914447 17.5275057 108.195637 17.8711823 108.32061 18.2148589 108.32061 18.5897788 108.32061 19.3708619 107.85196 20.0894584 106.883417 20.8080549 105.196278 22.0890313 103.227948 22.7138978 101.009672 22.7138978 98.7601526 22.7138978 96.885553 22.0577879 95.3546301 20.7455683 94.6047902 20.0894584 94.011167 19.3396186 93.5425172 18.4335622 92.9176506 17.2150725 92.6052174 15.9653394 92.6052174 14.6218764 92.6052174 12.8410069 93.1363539 11.2163539 94.2298703 9.77916095 95.1671701 8.52942792 96.3544165 7.62337147 97.8228528 6.99850496 98.9163692 6.52985507 100.103616 6.31115179 101.353349 6.31115179 103.384165 6.31115179 105.102548 6.87353166 106.539741 8.02953471 107.258337 8.59191457 107.820717 9.27926773 108.258124 10.0915942 108.758017 10.9976506 109.007963 11.8724638 109.007963 12.7160336 109.007963 13.4033867 108.851747 13.9657666 108.570557 14.4344165 108.258124 14.8405797 107.883204 15.059283 107.414554 15.059283zM100.291076 12.0599237L101.915728 12.0599237C102.603082 12.0599237 102.946758 11.7474905 102.946758 11.122624 102.946758 10.5602441 102.790542 10.0603509 102.446865 9.71667429 102.103188 9.34175439 101.697025 9.18553776 101.134645 9.18553776 100.541022 9.18553776 100.072372 9.43548436 99.7286957 9.90413425 99.4162624 10.3415408 99.2600458 10.7789474 99.2600458 11.2475973 99.2600458 11.5600305 99.3225324 11.7787338 99.478749 11.9349504 99.6349657 11.9974371 99.9161556 12.0599237 100.291076 12.0599237zM119.318261 10.4665141L119.318261 15.8716095C119.318261 16.5277193 119.474477 17.0276125 119.786911 17.4337757 120.099344 17.839939 120.505507 18.0586423 121.0054 18.0586423 121.411564 18.0586423 121.973944 17.8711823 122.661297 17.4962624 122.817513 17.4025324 122.97373 17.3400458 123.129947 17.3400458 123.379893 17.3400458 123.62984 17.4962624 123.848543 17.8086957 124.067246 18.1211289 124.160976 18.4648055 124.160976 18.8084821 124.160976 19.4645919 123.786056 20.1207018 123.06746 20.7143249 121.536537 21.9953013 119.724424 22.6514111 117.537391 22.6514111 115.819008 22.6514111 114.444302 22.1827613 113.413272 21.2142182 112.382243 20.2456751 111.851106 18.9646987 111.851106 17.4025324L111.851106 9.99786423C111.851106 9.74791762 111.819863 9.59170099 111.757376 9.52921434 111.694889 9.46672769 111.538673 9.43548436 111.288726 9.43548436L109.695317 9.43548436C109.382883 9.43548436 109.195423 9.37299771 109.101693 9.27926773 109.007963 9.18553776 108.97672 8.93559115 108.97672 8.56067124L108.97672 7.84207475C108.97672 7.5296415 109.101693 7.27969489 109.35164 7.12347826L116.693822 2.49946606C116.881281 2.40573608 117.099985 2.34324943 117.381175 2.34324943L118.693394 2.34324943C118.974584 2.34324943 119.130801 2.40573608 119.224531 2.53070938 119.318261 2.65568268 119.349504 2.90562929 119.349504 3.24930587L119.349504 5.40509535C119.349504 5.7175286 119.411991 5.93623188 119.505721 6.02996186 119.599451 6.12369184 119.818154 6.18617849 120.161831 6.18617849L123.129947 6.18617849C123.53611 6.18617849 123.786056 6.24866514 123.91103 6.40488177 124.036003 6.5610984 124.09849 6.84228833 124.09849 7.34218154L124.09849 8.27948131C124.09849 8.77937452 124.036003 9.15429443 123.879786 9.34175439 123.72357 9.52921434 123.44238 9.62294432 123.06746 9.62294432L120.161831 9.62294432C119.849397 9.62294432 119.661937 9.68543097 119.568207 9.77916095 119.380748 9.9666209 119.318261 10.1540809 119.318261 10.4665141z" transform="translate(1 6)"/>
</svg>
