<svg xmlns="http://www.w3.org/2000/svg" width="161" height="37" viewBox="0 0 161 37">
  <g fill="none" fill-rule="evenodd" transform="translate(-931 -1162)">
    <rect width="1680" height="6910" fill="#FFF"/>
    <path fill="#293D66" fill-rule="nonzero" d="M19.047619 19.3283208L9.3433584 19.3283208C8.90225564 19.3283208 8.70175439 19.5288221 8.70175439 19.8897243 8.70175439 20.7719298 9.18295739 21.6140351 10.1453634 22.4160401 11.1077694 23.2180451 12.1503759 23.6190476 13.273183 23.6190476 13.914787 23.6190476 14.6766917 23.4987469 15.4786967 23.2581454 16.2807018 23.0175439 16.962406 22.6967419 17.4837093 22.3358396 17.9649123 22.0150376 18.3258145 21.8546366 18.6065163 21.8546366 18.9674185 21.8546366 19.3283208 22.0551378 19.6491228 22.4962406 20.0100251 22.9373434 20.1704261 23.3784461 20.1704261 23.8596491 20.1704261 24.8621554 19.5689223 25.7844612 18.3258145 26.7067669 16.160401 28.3508772 13.6340852 29.1528822 10.7869674 29.1528822 7.89974937 29.1528822 5.49373434 28.3107769 3.52882206 26.6265664 2.56641604 25.7844612 1.80451128 24.8220551 1.20300752 23.6591479.401002506 22.0952381-4.26325641e-14 20.4912281-4.26325641e-14 18.7669173-4.26325641e-14 16.481203.681704261 14.39599 2.08521303 12.5513784 3.28822055 10.9473684 4.81203008 9.78446115 6.69674185 8.98245614 8.10025063 8.38095238 9.62406015 8.10025063 11.2280702 8.10025063 13.8345865 8.10025063 16.0401003 8.82205514 17.8847118 10.3057644 18.8070175 11.0275689 19.5288221 11.9097744 20.0902256 12.952381 20.7318296 14.1152882 21.0526316 15.2380952 21.0526316 16.320802 21.0526316 17.2030075 20.8521303 17.924812 20.4912281 18.5263158 20.0902256 19.047619 19.6090226 19.3283208 19.047619 19.3283208zM9.9047619 15.4786967L11.9899749 15.4786967C12.8721805 15.4786967 13.3132832 15.0776942 13.3132832 14.2756892 13.3132832 13.5538847 13.112782 12.9122807 12.6716792 12.4711779 12.2305764 11.9899749 11.7092732 11.7894737 10.9874687 11.7894737 10.2255639 11.7894737 9.62406015 12.1102757 9.18295739 12.7117794 8.78195489 13.273183 8.58145363 13.8345865 8.58145363 14.4360902 8.58145363 14.8370927 8.66165414 15.1177945 8.86215539 15.3182957 9.06265664 15.3984962 9.38345865 15.4786967 9.9047619 15.4786967zM34.1253133 8.02005013C36.5313283 8.02005013 38.5363409 8.62155388 40.1804511 9.8245614 41.0626566 10.4661654 41.6641604 11.1879699 42.0250627 12.0300752 42.3859649 12.8721805 42.5463659 13.9949875 42.5463659 15.4385965L42.5062657 18.4862155C42.5062657 20.6115288 42.6666667 21.9749373 42.9473684 22.6165414 43.1077694 22.9373434 43.2280702 23.0977444 43.3884712 23.1779449 43.5087719 23.2581454 43.8295739 23.3383459 44.2706767 23.4185464 44.7117794 23.4987469 44.9122807 23.7794486 44.9122807 24.3007519 44.9122807 24.9423559 44.6315789 25.6641604 44.1102757 26.3458647 43.5889724 27.0676692 42.9072682 27.6691729 42.0651629 28.1503759 41.0225564 28.7518797 39.9398496 29.0726817 38.8170426 29.0726817 37.3734336 29.0726817 36.2506266 28.5914787 35.4085213 27.5889724 35.1278195 27.2280702 34.8471178 27.0676692 34.6065163 27.0676692 34.3258145 27.0676692 33.9649123 27.2280702 33.5238095 27.5889724 32.160401 28.5914787 30.5964912 29.0726817 28.8721805 29.0726817 27.0676692 29.0726817 25.6240602 28.6716792 24.5012531 27.9097744 23.7794486 27.3884712 23.2180451 26.7468672 22.7769424 25.9047619 22.3358396 25.1027569 22.1353383 24.2205514 22.1353383 23.3383459 22.1353383 21.8947368 22.6967419 20.6516291 23.8596491 19.5689223 25.6641604 17.8446115 28.3508772 16.962406 31.9197995 16.962406 32.7218045 16.962406 33.2030075 16.8822055 33.4035088 16.7218045 33.60401 16.5614035 33.7243108 16.2005013 33.7243108 15.6390977 33.7243108 14.1954887 33.5639098 13.112782 33.283208 12.4711779 32.962406 11.8295739 32.481203 11.5087719 31.7994987 11.5087719 31.3984962 11.5087719 31.037594 11.6290727 30.716792 11.8696742 30.39599 12.1102757 29.9949875 12.5513784 29.5137845 13.2330827 28.3107769 14.9573935 27.0275689 15.839599 25.7042607 15.839599 25.0225564 15.839599 24.5012531 15.6390977 24.0601504 15.2380952 23.6190476 14.8370927 23.4185464 14.3157895 23.4185464 13.6741855 23.4185464 13.0325815 23.6992481 12.3508772 24.2205514 11.7092732 24.7418546 11.0676692 25.4636591 10.4661654 26.3859649 9.98496241 28.8320802 8.66165414 31.3984962 8.02005013 34.1253133 8.02005013zM32.7218045 19.9298246C32.1203008 19.9298246 31.5989975 20.1704261 31.1578947 20.6516291 30.716792 21.1328321 30.4761905 21.7343358 30.4761905 22.4160401 30.4761905 23.0576441 30.6365915 23.6190476 30.9573935 24.0200501 31.2781955 24.4210526 31.679198 24.6215539 32.2005013 24.6215539 33.283208 24.6215539 33.8446115 23.6992481 33.8446115 21.8546366 33.8446115 21.0927318 33.764411 20.6115288 33.60401 20.3308271 33.4837093 20.0902256 33.1629073 19.9298246 32.7218045 19.9298246zM54.4962406 8.02005013C55.1779449 8.02005013 56.3007519 8.18045113 57.8646617 8.46115288 58.1854637 8.50125313 58.4260652 8.54135338 58.6265664 8.54135338 58.8671679 8.54135338 59.3082707 8.42105263 59.9899749 8.18045113 60.3107769 8.06015038 60.5914787 7.97994987 60.7919799 7.97994987 61.433584 7.97994987 62.075188 8.38095238 62.716792 9.18295739 63.2380952 9.8245614 63.679198 10.5463659 64 11.3082707 64.320802 12.0701754 64.481203 12.7518797 64.481203 13.3132832 64.481203 13.8746867 64.2807018 14.3157895 63.9197995 14.6766917 63.518797 15.037594 63.037594 15.2380952 62.4761905 15.2380952 61.9949875 15.2380952 61.5538847 15.1177945 61.1929825 14.877193 60.8320802 14.6365915 60.1904762 14.1152882 59.3884712 13.3533835 58.5062657 12.5112782 57.7844612 12.0701754 57.2230576 12.0701754 56.8220551 12.0701754 56.5012531 12.2305764 56.2205514 12.5112782 55.9398496 12.7919799 55.7794486 13.112782 55.7794486 13.5137845 55.7794486 14.1954887 56.4210526 14.7969925 57.7042607 15.3984962 60.0300752 16.4411028 61.7944862 17.5639098 63.037594 18.8070175 64.0802005 19.8496241 64.6015038 21.1328321 64.6015038 22.6165414 64.6015038 24.5413534 63.7593985 26.1052632 62.075188 27.3884712 60.6315789 28.5112782 58.8671679 29.0726817 56.7819549 29.0726817 56.2606516 29.0726817 55.2581454 28.9924812 53.8546366 28.7919799 52.5313283 28.6315789 51.7694236 28.5513784 51.6090226 28.5513784 51.4486216 28.5513784 51.2080201 28.5914787 51.0075188 28.6315789 50.6065163 28.6716792 50.3258145 28.7117794 50.1253133 28.7117794 49.4837093 28.7117794 48.962406 28.5513784 48.6015038 28.2305764 48.0401003 27.7092732 47.518797 26.9072682 47.037594 25.8245614 46.556391 24.7418546 46.3157895 23.7794486 46.3157895 23.0175439 46.3157895 21.7744361 46.7969925 21.1328321 47.7994987 21.1328321 48.2005013 21.1328321 48.5213033 21.2531328 48.8421053 21.4937343 49.1629073 21.7343358 49.8446115 22.4160401 50.887218 23.5388471 51.4486216 24.1403509 51.9298246 24.5413534 52.2907268 24.7819549 52.6516291 25.0225564 53.0526316 25.1027569 53.4937343 25.1027569 53.9348371 25.1027569 54.2957393 24.9824561 54.5764411 24.7418546 54.8571429 24.5012531 54.9774436 24.1804511 54.9774436 23.7794486 54.9774436 23.1779449 54.4561404 22.6165414 53.3734336 22.0952381 51.1679198 21.0125313 49.5639098 19.8897243 48.6015038 18.726817 47.6390977 17.5639098 47.1177945 16.2406015 47.1177945 14.716792 47.1177945 13.0726817 47.5989975 11.6691729 48.6015038 10.5062657 50.0451128 8.90225564 52.0100251 8.02005013 54.4962406 8.02005013zM85.9348371 18.1654135L83.2080201 25.6240602C82.5263158 27.4686717 81.8446115 28.9924812 81.1629073 30.1553885 80.481203 31.3182957 79.7192982 32.320802 78.8370927 33.1629073 77.0726817 34.8471178 74.9072682 35.7293233 72.3809524 35.7293233 70.3358396 35.7293233 68.6917293 35.2080201 67.4486216 34.1253133 66.4862155 33.283208 66.0050125 32.2406015 66.0050125 30.9974937 66.0050125 29.9548872 66.3258145 29.0726817 67.0075188 28.3508772 67.6892231 27.6290727 68.5313283 27.2681704 69.4937343 27.2681704 70.4962406 27.2681704 71.2581454 27.5889724 71.8997494 28.2706767 72.1804511 28.5914787 72.3809524 28.8320802 72.4611529 29.0726817 72.5413534 29.3132832 72.7017544 29.8345865 72.9022556 30.5964912 73.0626566 31.197995 73.3834586 31.518797 73.9448622 31.518797 74.3859649 31.518797 74.7067669 31.3182957 75.0275689 30.9573935 75.3483709 30.5964912 75.4686717 30.1152882 75.4686717 29.593985 75.4686717 28.952381 75.1077694 27.8696742 74.3859649 26.3458647L69.4135338 15.7994987C68.8922306 14.716792 68.4912281 14.0350877 68.2506266 13.754386 67.9699248 13.4736842 67.4085213 13.1528822 66.5263158 12.7518797 66.245614 12.6315789 66.0050125 12.4310777 65.8045113 12.1102757 65.60401 11.7894737 65.5238095 11.4686717 65.5238095 11.1879699 65.5238095 9.98496241 66.726817 9.14285714 69.1729323 8.70175439 70.7769424 8.42105263 72.6215539 8.26065163 74.7067669 8.26065163 76.1503759 8.26065163 77.3132832 8.42105263 78.1553885 8.70175439 79.2781955 9.10275689 79.839599 9.78446115 79.839599 10.7468672 79.839599 11.1077694 79.679198 11.5087719 79.358396 11.9498747 79.037594 12.3909774 78.9172932 12.7919799 78.9172932 13.112782 78.9172932 13.433584 78.9974937 13.7944862 79.1177945 14.1553885 79.2781955 14.5162907 79.5588972 15.1177945 80.0401003 15.9598997 80.5614035 16.9223058 81.0025063 17.4035088 81.4035088 17.4035088 81.8446115 17.4035088 82.2857143 16.962406 82.726817 16.1203008 83.1679198 15.2781955 83.4085213 14.4761905 83.4085213 13.6741855 83.4085213 13.0325815 83.2481203 12.5112782 82.887218 12.1503759 82.3659148 11.5488722 82.085213 10.9874687 82.085213 10.5463659 82.085213 9.86466165 82.566416 9.30325815 83.4887218 8.86215539 84.4110276 8.46115288 85.6541353 8.22055138 87.2180451 8.22055138 90.1453634 8.22055138 91.5889724 8.90225564 91.5889724 10.3057644 91.5889724 10.8270677 91.4285714 11.2280702 91.1478697 11.5488722 90.8671679 11.8696742 90.3057644 12.1503759 89.5438596 12.4310777 88.9022556 12.6716792 88.3809524 13.0726817 87.9799499 13.6741855 87.4185464 14.5162907 86.7368421 16.0401003 85.9348371 18.1654135zM109.433584 8.17124146e-14C110.957393 8.17124146e-14 112.521303.120300752 114.125313.401002506 115.408521.601503759 116.370927.922305764 116.932331 1.32330827 117.493734 1.72431078 117.774436 2.24561404 117.774436 2.9273183 117.774436 3.36842105 117.654135 3.68922306 117.453634 3.92982456 117.253133 4.17042607 116.81203 4.45112782 116.130326 4.81203008 115.328321 5.21303258 114.887218 5.69423559 114.766917 6.2556391 114.646617 6.81704261 114.526316 8.98245614 114.446115 12.7117794 114.406015 16.3609023 114.365915 18.5263158 114.325815 19.2481203 114.285714 19.9699248 114.205514 20.6917293 114.085213 21.3734336 113.684211 23.3784461 112.882206 24.9423559 111.679198 26.1052632 110.676692 27.0275689 109.433584 27.7894737 107.869674 28.3107769 106.305764 28.8320802 104.701754 29.112782 102.977444 29.112782 101.453634 29.112782 99.9298246 28.9122807 98.406015 28.5112782 96.8822055 28.1102757 95.5588972 27.5488722 94.4360902 26.8671679 93.5137845 26.3057644 92.7518797 25.5037594 92.2305764 24.5413534 91.6691729 23.5789474 91.3884712 22.4962406 91.3884712 21.4135338 91.3884712 20.0501253 91.8295739 18.887218 92.6716792 18.0050125 93.5538847 17.122807 94.6365915 16.641604 95.9197995 16.641604 97.2030075 16.641604 98.2857143 17.0025063 99.1679198 17.764411 100.050125 18.5263158 100.491228 19.4887218 100.491228 20.6115288 100.491228 20.8922306 100.411028 21.3734336 100.250627 22.0551378 100.210526 22.1754386 100.210526 22.3358396 100.210526 22.4962406 100.210526 22.9373434 100.370927 23.2982456 100.691729 23.5789474 101.012531 23.8596491 101.413534 23.9799499 101.934837 23.9799499 102.857143 23.9799499 103.578947 23.5789474 104.140351 22.7368421 104.701754 21.8947368 104.982456 20.8120301 104.982456 19.4887218L104.942356 17.60401 104.902256 12.5513784C104.781955 9.5037594 104.701754 7.69924812 104.621554 7.13784461 104.541353 6.5764411 104.421053 6.13533835 104.140351 5.81453634 103.93985 5.53383459 103.739348 5.37343358 103.578947 5.29323308 103.418546 5.21303258 102.977444 5.09273183 102.295739 4.89223058 101.974937 4.81203008 101.694236 4.65162907 101.453634 4.33082707 101.213033 4.01002506 101.092732 3.68922306 101.092732 3.3283208 101.092732 2.60651629 101.373434 2.00501253 101.974937 1.56390977 102.576441 1.12280702 103.498747.761904762 104.822055.481203008 106.345865.160401003 107.869674 8.17124146e-14 109.433584 8.17124146e-14zM137.864662 19.3283208L128.200501 19.3283208C127.759398 19.3283208 127.558897 19.5288221 127.558897 19.8897243 127.558897 20.7719298 128.0401 21.6140351 129.002506 22.4160401 129.964912 23.2180451 131.007519 23.6190476 132.130326 23.6190476 132.77193 23.6190476 133.533835 23.4987469 134.33584 23.2581454 135.137845 23.0175439 135.819549 22.6967419 136.340852 22.3358396 136.822055 22.0150376 137.182957 21.8546366 137.463659 21.8546366 137.824561 21.8546366 138.185464 22.0551378 138.506266 22.4962406 138.867168 22.9373434 139.027569 23.3784461 139.027569 23.8596491 139.027569 24.8621554 138.426065 25.7844612 137.182957 26.7067669 135.017544 28.3508772 132.491228 29.1528822 129.64411 29.1528822 126.756892 29.1528822 124.350877 28.3107769 122.385965 26.6265664 121.423559 25.7844612 120.661654 24.8220551 120.06015 23.6591479 119.258145 22.0952381 118.857143 20.4912281 118.857143 18.7669173 118.857143 16.481203 119.538847 14.39599 120.942356 12.5513784 122.145363 10.9473684 123.669173 9.78446115 125.553885 8.98245614 126.957393 8.38095238 128.481203 8.10025063 130.085213 8.10025063 132.691729 8.10025063 134.897243 8.82205514 136.741855 10.3057644 137.66416 11.0275689 138.385965 11.9097744 138.947368 12.952381 139.588972 14.1152882 139.909774 15.2380952 139.909774 16.320802 139.909774 17.2030075 139.709273 17.924812 139.348371 18.5263158 138.947368 19.047619 138.466165 19.3283208 137.864662 19.3283208zM128.721805 15.4786967L130.807018 15.4786967C131.689223 15.4786967 132.130326 15.0776942 132.130326 14.2756892 132.130326 13.5538847 131.929825 12.9122807 131.488722 12.4711779 131.047619 11.9899749 130.526316 11.7894737 129.804511 11.7894737 129.042607 11.7894737 128.441103 12.1102757 128 12.7117794 127.598997 13.273183 127.398496 13.8345865 127.398496 14.4360902 127.398496 14.8370927 127.478697 15.1177945 127.679198 15.3182957 127.879699 15.3984962 128.240602 15.4786967 128.721805 15.4786967zM153.142857 13.433584L153.142857 20.3709273C153.142857 21.2130326 153.343358 21.8546366 153.744361 22.3759398 154.145363 22.8972431 154.666667 23.1779449 155.308271 23.1779449 155.829574 23.1779449 156.551378 22.9373434 157.433584 22.4561404 157.634085 22.3358396 157.834586 22.2556391 158.035088 22.2556391 158.35589 22.2556391 158.676692 22.4561404 158.957393 22.8571429 159.238095 23.2581454 159.358396 23.6992481 159.358396 24.1403509 159.358396 24.9824561 158.877193 25.8245614 157.954887 26.5864662 155.989975 28.2305764 153.66416 29.0726817 150.857143 29.0726817 148.651629 29.0726817 146.887218 28.4711779 145.56391 27.2280702 144.240602 25.9849624 143.558897 24.3408521 143.558897 22.3358396L143.558897 12.8320802C143.558897 12.5112782 143.518797 12.3107769 143.438596 12.2305764 143.358396 12.1503759 143.157895 12.1102757 142.837093 12.1102757L140.79198 12.1102757C140.390977 12.1102757 140.150376 12.0300752 140.030075 11.9097744 139.909774 11.7894737 139.869674 11.4686717 139.869674 10.9874687L139.869674 10.0651629C139.869674 9.6641604 140.030075 9.3433584 140.350877 9.14285714L149.774436 3.20802005C150.015038 3.0877193 150.295739 3.0075188 150.656642 3.0075188L152.340852 3.0075188C152.701754 3.0075188 152.902256 3.0877193 153.022556 3.2481203 153.142857 3.4085213 153.182957 3.72932331 153.182957 4.17042607L153.182957 6.93734336C153.182957 7.33834586 153.263158 7.61904762 153.383459 7.73934837 153.503759 7.85964912 153.784461 7.93984962 154.225564 7.93984962L158.035088 7.93984962C158.556391 7.93984962 158.877193 8.02005013 159.037594 8.22055138 159.197995 8.42105263 159.278195 8.78195489 159.278195 9.4235589L159.278195 10.6265664C159.278195 11.2681704 159.197995 11.7493734 158.997494 11.9899749 158.796992 12.2305764 158.43609 12.3508772 157.954887 12.3508772L154.225564 12.3508772C153.824561 12.3508772 153.58396 12.4310777 153.463659 12.5513784 153.223058 12.7919799 153.142857 13.0325815 153.142857 13.433584z" transform="translate(931 1162)"/>
  </g>
</svg>
