<?xml version="1.0" encoding="UTF-8"?>
<svg width="115px" height="50px" viewBox="0 0 115 50" version="1.1" xmlns="http://www.w3.org/2000/svg" xmlns:xlink="http://www.w3.org/1999/xlink">
    <title>flatfox-115w</title>
    <g id="flatfox-115w" stroke="none" stroke-width="1" fill="none" fill-rule="evenodd">
        <g id="Group-3" transform="translate(0.000000, 7.000000)" fill="#293D66" fill-rule="nonzero">
            <g id="Group">
                <path d="M0.461933276,0.0429286907 L9.33490163,5.85179381 C9.5081266,5.96954107 9.5081266,6.24428469 9.31565441,6.34240741 L0.423438837,11.3466662 C0.230966638,11.4447889 1.77635684e-15,11.3074171 1.77635684e-15,11.0915471 L1.77635684e-15,0.298047767 C1.77635684e-15,0.062553235 0.250213858,-0.0748185752 0.461933276,0.0429286907 Z M12.3759624,35.7792239 L4.21514115,27.0855507 C4.04191617,26.9089298 4.17664671,26.5949371 4.42686056,26.5949371 L21.2874251,26.5949371 C21.537639,26.5949371 21.6723695,26.8893053 21.4991446,27.0855507 L13.396065,35.7792239 C13.1073567,36.073592 12.6454234,36.073592 12.3759624,35.7792239 Z M25.4255774,23.2587646 L0.288708298,23.2587646 C0.134730539,23.2587646 0,23.1213928 0,22.9643964 L0,15.5659432 C0,15.4678205 0.0577416595,15.3696978 0.153977759,15.3108242 L12.7994012,8.16749003 C12.8763901,8.12824095 12.9918734,8.12824095 13.0688623,8.16749003 L25.560308,15.0753296 C25.6565441,15.1342033 25.7142857,15.232326 25.7142857,15.3304487 L25.7142857,22.9643964 C25.6950385,23.1410173 25.5795552,23.2587646 25.4255774,23.2587646 Z M25.2908469,11.1504208 L16.5333618,6.30315833 C16.3408896,6.2050356 16.3408896,5.93029198 16.5141146,5.81254472 L25.2523524,0.062553235 C25.4448246,-0.0748185752 25.7142857,0.0821777793 25.7142857,0.317672311 L25.7142857,10.9149262 C25.6950385,11.1111717 25.4640719,11.268168 25.2908469,11.1504208 Z" id="Shape"></path>
                <polygon id="Path" points="40.1657143 10.1954407 40.1657143 16.112462 48.96 16.112462 48.96 17.9699088 40.1657143 17.9699088 40.1657143 26.3571429 37.9285714 26.3571429 37.9285714 8.35714286 49.5 8.35714286 49.5 10.2145897 40.1657143 10.2145897"></polygon>
                <polygon id="Path" points="52.0714286 8.35714286 54 8.35714286 54 26.3571429 52.0714286 26.3571429"></polygon>
                <path d="M68.1428571,26.751768 L65.8445596,26.751768 C65.7246484,26.3507779 65.7046632,25.7397454 65.7046632,24.9759547 C64.8253146,26.1980198 63.0466321,27 61.1280533,27 C58.3900814,27 56.5714286,25.4724187 56.5714286,23.1237624 C56.5714286,20.2213579 59.3293856,18.8465347 65.7246484,18.5792079 L65.7246484,18.082744 C65.7246484,16.364215 64.765359,15.2376238 62.527017,15.2376238 C60.588453,15.2376238 59.4892672,16.0586987 59.0096225,17.7199434 L56.9711325,17.2998586 C57.530718,14.8748232 59.5891932,13.5 62.6069578,13.5 C65.9245004,13.5 67.8830496,15.1612447 67.8830496,17.8727016 L67.8830496,24.2694484 C67.8630644,25.3960396 68.0029608,26.0643564 68.1428571,26.751768 Z M65.7046632,21.7871287 L65.7046632,20.1640736 C60.8082902,20.3932107 58.7897853,21.1951909 58.7897853,23.0091938 C58.7897853,24.3267327 59.8090303,25.281471 61.6276832,25.281471 C63.9659511,25.3005658 65.7046632,23.8684583 65.7046632,21.7871287 Z" id="Shape"></path>
                <path d="M76.4052632,24.5555644 C76.7909774,24.5555644 77.2781955,24.497449 77.7857143,24.4005899 L77.7857143,26.0859375 C76.993985,26.2990274 76.3443609,26.3571429 75.7556391,26.3571429 C73.4210526,26.3571429 72.5481203,25.214206 72.5481203,23.1220504 L72.5481203,14.8115434 L70.0714286,14.8115434 L70.0714286,13.0487085 L72.5684211,13.0487085 L72.5684211,9 L74.8218045,9 L74.8218045,13.0487085 L77.6842105,13.0487085 L77.6842105,14.8115434 L74.8218045,14.8115434 L74.8218045,22.7733578 C74.8015038,24.1293846 75.3902256,24.5555644 76.4052632,24.5555644 Z" id="Path"></path>
                <path d="M83.8015038,11.9157682 L83.8015038,13.0687332 L86.7857143,13.0687332 L86.7857143,14.847035 L83.8015038,14.847035 L83.8015038,26.3571429 L81.5481203,26.3571429 L81.5481203,14.847035 L79.0714286,14.847035 L79.0714286,13.0687332 L81.5481203,13.0687332 L81.5481203,12.0721024 C81.5481203,9.19946092 82.6443609,7.71428571 85.3443609,7.71428571 C85.7706767,7.71428571 86.2172932,7.77291105 86.7857143,7.87061995 L86.7857143,9.62938005 C86.2781955,9.55121294 85.8112782,9.4925876 85.4458647,9.4925876 C84.0451128,9.51212938 83.8015038,10.2938005 83.8015038,11.9157682 Z" id="Path"></path>
                <path d="M88.0714286,20.4121942 C88.0714286,16.287791 90.5194604,13.5 94.5995135,13.5 C98.5004423,13.5 100.928571,16.0586575 100.928571,20.1448717 C100.928571,24.0019524 98.7790801,26.9998919 94.4402919,26.9998919 C90.479655,27.018877 88.0714286,24.5365973 88.0714286,20.4121942 Z M98.6596639,20.1448717 C98.6596639,17.0515694 97.0276426,15.2566902 94.6194162,15.2566902 C92.1713843,15.2566902 90.3204334,17.0706638 90.3204334,20.2976274 C90.3204334,23.4864021 92.191287,25.2430923 94.4800973,25.2430923 C96.7888103,25.2430923 98.6596639,23.4482131 98.6596639,20.1448717 Z" id="Shape"></path>
                <polygon id="Path" points="111.853299 27 107.971172 21.4808824 104.146701 27 101.571429 27 106.721973 19.9522059 102.071108 13.5 104.550288 13.5 108.028828 18.5227941 111.488149 13.5 113.967329 13.5 109.335682 19.9125 114.428571 27"></polygon>
            </g>
        </g>
    </g>
</svg>