<svg xmlns="http://www.w3.org/2000/svg" width="216" height="26" viewBox="0 0 216 26">
  <g fill="#60718E" fill-rule="evenodd">
    <path d="M63.0828509 4.89238305C65.3886593 4.89238305 67.1549765 5.30268132 68.3821413 6.12327786 69.608967 6.94353532 70.222719 8.21851177 70.222719 9.94786813 70.222719 11.02719 69.9748446 11.9030581 69.4797739 12.5754725 68.9843642 13.2485651 68.271259 13.7765275 67.3401193 14.1607159 67.6503862 14.5455824 67.975573 14.9850424 68.3156797 15.4804521 68.6554474 15.9758619 68.9918242 16.4929733 69.32481 17.0324647 69.6571177 17.5722951 69.9785746 18.1338273 70.2888414 18.7177394 70.5994474 19.3016515 70.8876735 19.8743736 71.1538587 20.4359058L67.2872214 20.4359058C67.0050989 19.9337143 66.7192465 19.4237237 66.4296641 18.9059341 66.1407598 18.3888226 65.8440565 17.886292 65.5398932 17.3983422 65.23573 16.9103925 64.9349576 16.4485526 64.6382543 16.0124835 64.341551 15.5764144 64.0445086 15.1810361 63.7478053 14.8260094L62.0404898 14.8260094 62.0404898 20.4359058 58.5817771 20.4359058 58.5817771 5.29183046C59.335573 5.14398744 60.1148006 5.04056515 60.9208163 4.98122449 61.7264929 4.92222292 62.4470581 4.89238305 63.0828509 4.89238305zM63.2822355 7.84144427C63.0309702 7.84144427 62.8058148 7.84924333 62.6060911 7.86382418 62.4063673 7.87874411 62.2181727 7.89366405 62.0404898 7.9082449L62.0404898 12.0766719 63.0163893 12.0766719C64.3167975 12.0766719 65.2482763 11.914248 65.8101476 11.5887221 66.3720188 11.2638744 66.6527849 10.7098022 66.6527849 9.92582732 66.6527849 9.1720314 66.3679498 8.63627002 65.7989576 8.31854317 65.2296264 8.00047724 64.3910581 7.84144427 63.2822355 7.84144427zM108.999297 4.89238305C110.314625 4.89238305 111.50822 5.04056515 112.580082 5.33625118 113.651604 5.63193721 114.571893 6.09750706 115.340948 6.73296075 116.108986 7.36875353 116.700358 8.18155102 117.114386 9.1720314 117.528414 10.1625118 117.735259 11.3527159 117.735259 12.7419655 117.735259 14.0722135 117.528414 15.2329168 117.114386 16.2230581 116.700358 17.2135385 116.113055 18.0337959 115.351799 18.6841695 114.590204 19.3348823 113.662794 19.8224929 112.569231 20.1476797 111.474989 20.4725275 110.248163 20.6356295 108.888075 20.6356295 108.267203 20.6356295 107.543246 20.6095196 106.71519 20.5576389 105.887473 20.5057582 105.074336 20.3992841 104.276458 20.2361821L104.276458 5.26945055C105.074336 5.12194662 105.905783 5.02225432 106.770801 4.97037363 107.635479 4.91849294 108.378085 4.89238305 108.999297 4.89238305zM109.176641 7.84144427C108.939956 7.84144427 108.696151 7.84517425 108.444885 7.85263422 108.19362 7.86009419 107.956936 7.87874411 107.735171 7.9082449L107.735171 17.6197677C107.897595 17.6346876 108.086129 17.6462166 108.300772 17.6533375 108.515077 17.6607975 108.770072 17.6641884 109.065758 17.6641884 110.795115 17.6641884 112.077551 17.2284584 112.912728 16.3559812 113.747567 15.4841821 114.165664 14.2793972 114.165664 12.7419655 114.165664 11.1309513 113.766217 9.91124647 112.968339 9.08352904 112.169783 8.25547253 110.906336 7.84144427 109.176641 7.84144427zM138.216942 4.89238305C140.522411 4.89238305 142.288728 5.30268132 143.515893 6.12327786 144.743058 6.94353532 145.356471 8.21851177 145.356471 9.94786813 145.356471 11.02719 145.108597 11.9030581 144.613526 12.5754725 144.118116 13.2485651 143.405011 13.7765275 142.473871 14.1607159 142.784138 14.5455824 143.109325 14.9850424 143.449432 15.4804521 143.789199 15.9758619 144.125576 16.4929733 144.458562 17.0324647 144.79087 17.5722951 145.112327 18.1338273 145.422932 18.7177394 145.733538 19.3016515 146.021425 19.8743736 146.287611 20.4359058L142.420973 20.4359058C142.138851 19.9337143 141.852998 19.4237237 141.563755 18.9059341 141.274512 18.3888226 140.977808 17.886292 140.673984 17.3983422 140.369482 16.9103925 140.06871 16.4485526 139.772006 16.0124835 139.475303 15.5764144 139.178261 15.1810361 138.881557 14.8260094L137.174242 14.8260094 137.174242 20.4359058 133.715529 20.4359058 133.715529 5.29183046C134.469325 5.14398744 135.248892 5.04056515 136.054907 4.98122449 136.860584 4.92222292 137.581149 4.89238305 138.216942 4.89238305zM138.415987 7.84144427C138.164722 7.84144427 137.939567 7.84924333 137.739843 7.86382418 137.540119 7.87874411 137.351925 7.89366405 137.174242 7.9082449L137.174242 12.0766719 138.150141 12.0766719C139.450549 12.0766719 140.382028 11.914248 140.944239 11.5887221 141.505771 11.2638744 141.786537 10.7098022 141.786537 9.92582732 141.786537 9.1720314 141.501702 8.63627002 140.93271 8.31854317 140.363717 8.00047724 139.52481 7.84144427 138.415987 7.84144427z"/>
    <polyline points="36.05 0 30.655 25.462 27.193 25.462 32.588 0 36.05 0"/>
    <polyline points="41.242 0 35.847 25.462 32.385 25.462 37.781 0 41.242 0"/>
    <polyline points=".034 0 0 25.462 25.473 25.462 30.868 0 .034 0"/>
    <path d="M78.6952088,20.7441381 C77.6206342,20.7441381 76.6935636,20.5932433 75.9136578,20.2917928 C75.1334129,19.9903422 74.489821,19.5708885 73.981865,19.0334317 C73.474248,18.496314 73.0992151,17.8564521 72.8560879,17.1128289 C72.6132998,16.3702229 72.4919058,15.5496264 72.4919058,14.6513783 L72.4919058,5.13686656 L75.9356986,5.13686656 L75.9356986,14.3648477 C75.9356986,14.9826688 76.0052119,15.5092747 76.1452559,15.9429702 C76.2849608,16.3770047 76.4765463,16.7303359 76.7193344,17.0026248 C76.9624615,17.2752527 77.2564521,17.4698901 77.6023234,17.5875542 C77.9481947,17.7055573 78.3269576,17.7642198 78.7392904,17.7642198 C79.5778587,17.7642198 80.2584113,17.5068509 80.7809482,16.9917739 C81.303146,16.4763579 81.5649231,15.6008289 81.5649231,14.3648477 L81.5649231,9.71559184 L85.0083768,9.71559184 L85.0083768,14.6513783 C85.0083768,15.5496264 84.8832527,16.3736138 84.6333438,17.1240188 C84.3827567,17.8744239 84.0002637,18.5186939 83.4855259,19.0558116 C82.9701099,19.5929294 82.3156672,20.0086531 81.5208414,20.3029827 C80.7260157,20.5973124 79.7840251,20.7441381 78.6952088,20.7441381"/>
    <polygon points="81.565 8.537 84.965 8.537 84.965 5.137 81.565 5.137"/>
    <polygon points="77.05 8.537 80.45 8.537 80.45 5.137 77.05 5.137"/>
    <path d="M49.630832 11.2401381L49.630832 14.6408666 52.5381852 14.6408666 52.5381852 17.6757174C52.3320188 17.7197991 52.0929608 17.7496389 51.8206719 17.7642198 51.548383 17.7791397 51.2208226 17.7862606 50.8383297 17.7862606 50.1320063 17.7862606 49.5138462 17.6648666 48.9841884 17.4217394 48.4541915 17.1792904 48.012697 16.8371491 47.6593658 16.3956546 47.3063736 15.953821 47.0415447 15.4282323 46.8652182 14.8171931 46.6882135 14.206832 46.6000502 13.5256013 46.6000502 12.7751962 46.6000502 11.2296264 46.9567724 10.0122951 47.6708948 9.12150706 48.3843391 8.23139717 49.5433469 7.78617268 51.1475793 7.78617268 51.8684835 7.78617268 52.5344553 7.87806593 53.1451554 8.06185243 53.7558556 8.24597802 54.2967033 8.46333438 54.7676986 8.71324333L55.7612308 5.95407221C55.6432276 5.8804898 55.4482512 5.77740659 55.1759623 5.64482261 54.9036735 5.51257771 54.5581413 5.3837237 54.1386876 5.25859969 53.7192339 5.13381476 53.2187378 5.02327159 52.6375385 4.92730926 52.056 4.83202512 51.4046091 4.78387441 50.6837049 4.78387441 49.6240502 4.78387441 48.6271272 4.96054003 47.6925965 5.31387127 46.7580659 5.66686342 45.9452684 6.18567033 45.2535259 6.8699529 44.5617834 7.55423548 44.0172057 8.38975196 43.6197928 9.37548509 43.222719 10.3618964 43.0240126 11.4944553 43.0240126 12.7751962 43.0240126 14.0413564 43.2040691 15.1667943 43.5645212 16.1525275 43.9253124 17.1385997 44.4369984 17.9707253 45.0992402 18.6472088 45.7611429 19.3243705 46.5593595 19.8391083 47.4938901 20.1924396 48.4284207 20.5454317 49.4697645 20.7224364 50.6175824 20.7224364 51.9566468 20.7224364 53.082763 20.6302041 53.9952527 20.4460785 54.9074035 20.262292 55.5699843 20.0896954 55.9816389 19.9276107L55.9816389 11.2401381 49.630832 11.2401381M98.1630141 20.4359058C97.1728728 18.6770487 96.101011 16.9402323 94.9481068 15.2251177 93.7952025 13.5106813 92.5676986 11.8922072 91.2676295 10.3693564L91.2676295 20.4359058 87.8526593 20.4359058 87.8526593 5.07006593 90.6687975 5.07006593C91.1564082 5.55767661 91.6958995 6.15650863 92.2872716 6.86588383 92.8783046 7.57525903 93.4808666 8.33346311 94.0942794 9.13880063 94.7076923 9.94481633 95.3173752 10.7796546 95.9236672 11.6443328 96.5296201 12.509011 97.0989513 13.3404584 97.6309827 14.138675L97.6309827 5.07006593 101.067994 5.07006593 101.067994 20.4359058 98.1630141 20.4359058"/>
    <polyline points="120.279 20.436 120.279 5.07 130.656 5.07 130.656 7.975 123.737 7.975 123.737 10.99 129.88 10.99 129.88 13.828 123.737 13.828 123.737 17.531 131.166 17.531 131.166 20.436 120.279 20.436"/>
    <path d="M152.695724 17.7974505C153.183334 17.7974505 153.586173 17.7567598 153.9039 17.6753783 154.221965 17.5943359 154.476961 17.4834537 154.669224 17.3427316 154.861149 17.2023485 154.994072 17.0361947 155.068333 16.8439309 155.142254 16.6520063 155.179215 16.4373626 155.179215 16.2010173 155.179215 15.6984867 154.942531 15.2807284 154.469501 14.9480816 153.996471 14.6154349 153.183334 14.2570173 152.03043 13.8728289 151.52756 13.695146 151.02503 13.4920314 150.522838 13.263146 150.019969 13.0339215 149.569319 12.7456954 149.17021 12.3981287 148.771102 12.0512402 148.445915 11.629752 148.194311 11.1340031 147.943046 10.6389325 147.817582 10.0367096 147.817582 9.32699529 147.817582 8.61795918 147.950845 7.97843642 148.216691 7.40910518 148.482876 6.84011303 148.859604 6.35623234 149.347554 5.95678493 149.835165 5.55767661 150.426198 5.25113972 151.121331 5.03683516 151.816126 4.82253061 152.599422 4.71537834 153.4719 4.71537834 154.506462 4.71537834 155.400641 4.82592151 156.154776 5.04768603 156.908571 5.26945055 157.529444 5.51325589 158.017055 5.77944113L157.019454 8.50673783C156.590505 8.28497331 156.113746 8.08931868 155.589174 7.91909576 155.064264 7.74955102 154.43254 7.66410047 153.693325 7.66410047 152.865608 7.66410047 152.270505 7.77905181 151.908358 8.00793721 151.54621 8.2371617 151.365476 8.5884584 151.365476 9.06114914 151.365476 9.34191523 151.431598 9.57859969 151.56486 9.77052433 151.697783 9.96278807 151.886317 10.1364019 152.130462 10.2917049 152.374267 10.4470078 152.655033 10.5873909 152.97276 10.712854 153.290826 10.8386562 153.641444 10.9678493 154.026311 11.1011115 154.824188 11.3971366 155.518983 11.6884144 156.110355 11.9769796 156.701388 12.2648666 157.192728 12.6015824 157.585055 12.9857708 157.976364 13.3702983 158.26832 13.8209482 158.460923 14.3383987 158.652509 14.8558493 158.74881 15.4841821 158.74881 16.2230581 158.74881 17.6570675 158.246279 18.7696201 157.241218 19.5600377 156.235818 20.3511334 154.720427 20.7461727 152.695724 20.7461727 152.01551 20.7461727 151.401758 20.7054819 150.855146 20.6244396 150.308195 20.5430581 149.824314 20.4433658 149.403165 20.3250235 148.981677 20.2066813 148.61919 20.0812182 148.316722 19.9482951 148.013237 19.815033 147.758242 19.6895699 147.551736 19.5712276L148.527297 16.8218901C148.985068 17.0731554 149.55033 17.2983108 150.223422 17.4980345 150.895837 17.6974192 151.720163 17.7974505 152.695724 17.7974505M172.252031 7.46471586C171.778662 7.95266562 171.216452 8.58438932 170.565739 9.36056515 169.915027 10.1364019 169.242273 10.9827692 168.547479 11.8993281 167.852345 12.815887 167.164672 13.7616075 166.484119 14.737168 165.803567 15.7130675 165.197275 16.6442072 164.665243 17.5312653L172.495837 17.5312653 172.495837 20.4359058 160.411705 20.4359058 160.411705 18.3739027C160.825055 17.6197677 161.331655 16.7811994 161.930148 15.8571805 162.52898 14.9338399 163.153582 14.002022 163.803956 13.0634223 164.45433 12.1248226 165.115554 11.2157237 165.788308 10.3361256 166.460722 9.45686656 167.085325 8.66950078 167.661777 7.97470644L160.766392 7.97470644 160.766392 5.07006593 172.252031 5.07006593 172.252031 7.46471586"/>
    <polyline points="174.935 20.436 174.935 5.07 185.311 5.07 185.311 7.975 178.393 7.975 178.393 10.99 184.535 10.99 184.535 13.828 178.393 13.828 178.393 17.531 185.821 17.531 185.821 20.436 174.935 20.436"/>
    <path d="M198.681683,20.4359058 C197.691203,18.6770487 196.61968,16.9402323 195.466776,15.2251177 C194.313532,13.5106813 193.086367,11.8922072 191.785959,10.3693564 L191.785959,20.4359058 L188.371328,20.4359058 L188.371328,5.07006593 L191.187127,5.07006593 C191.675077,5.55767661 192.214568,6.15650863 192.80594,6.86588383 C193.396973,7.57525903 193.999196,8.33346311 194.612948,9.13880063 C195.226361,9.94481633 195.835705,10.7796546 196.442336,11.6443328 C197.048289,12.509011 197.617281,13.3404584 198.149651,14.138675 L198.149651,5.07006593 L201.586323,5.07006593 L201.586323,20.4359058 L198.681683,20.4359058"/>
    <polyline points="204.795 20.436 204.795 5.07 215.172 5.07 215.172 7.975 208.254 7.975 208.254 10.99 214.396 10.99 214.396 13.828 208.254 13.828 208.254 17.531 215.682 17.531 215.682 20.436 204.795 20.436"/>
  </g>
</svg>
