<svg xmlns="http://www.w3.org/2000/svg" width="241" height="34" viewBox="0 0 241 34">
  <g fill="#60718E" transform="translate(.333)">
    <path d="M20.2416327 26.2465306C18.6612245 26.2465306 16.7804082 26.3183673 14.9355102 26.4293878 15.0861014 25.9277937 15.0861014 25.3930226 14.9355102 24.8914286 16.0653061 24.9273469 16.9306122 25.0742857 17.3812245 25.0742857 17.8318367 25.0742857 17.9069388 24.9632653 17.9461224 24.5257143 18.1355102 22.1093878 18.1714286 19.84 18.1714286 17.4236735L18.1714286 14.2040816C18.1714286 13.6555102 18.1322449 13.6555102 17.3812245 13.6195918 16.1763265 13.5836735 14.3314286 13.5477551 13.0155102 13.5477551 11.5102041 13.5477551 10.004898 13.5836735 8.5355102 13.6195918 7.78122449 13.6555102 7.74530612 13.6555102 7.74530612 14.2040816L7.74530612 17.4236735C7.74530612 19.84 7.74530612 22.1453061 7.93469388 24.5616327 7.97387755 24.9273469 8.23510204 25.0383673 8.83918367 25.0383673 9.36489796 25.0383673 10.2302041 24.9273469 11.0595918 24.8914286 10.984939 25.1404165 10.9464505 25.3988395 10.9453061 25.6587755 10.9515809 25.9182947 10.9899683 26.1760382 11.0595918 26.4261224 9.13959184 26.315102 7.40897959 26.2432653 5.78938776 26.2432653 3.90857143 26.2432653 2.17795918 26.2791837.0685714286 26.3902041.11103649 26.1626988.137225347 25.9324551.146938776 25.7012245.138960112 25.4310648.113875871 25.1616819.0718367347 24.8946939.672653061 24.9306122 1.61632653 25.077551 2.21714286 25.077551 2.81795918 25.077551 3.08571429 24.9306122 3.08571429 24.7216327 3.23591837 22.2334694 3.27510204 17.6587755 3.27510204 13.044898 3.27510204 8.76081633 3.23591837 4.62693878 3.08571429 2.17469388 3.04653061 1.66204082 2.82122449 1.52163265 2.37061224 1.52163265 1.92 1.52163265 1.0644898 1.66857143 6.03961325e-13 1.7044898.0866614377 1.45063246.136153294 1.18557607.146938776.91755102.148841782.669151103.110240361.422102006.0326530612.186122449 2.17795918.297142857 3.90857143.333061224 5.78938776.333061224 7.42204082.333061224 9.13959184.26122449 11.0595918.150204082 10.9090006.651798149 10.9090006 1.1865692 11.0595918 1.68816327 10.08 1.6522449 9.21469388 1.50530612 8.72489796 1.50530612 8.23510204 1.50530612 7.97061224 1.6522449 7.93469388 2.05387755 7.7844898 3.99346939 7.74530612 5.93306122 7.74530612 7.91183673L7.74530612 11.0073469C7.74530612 12.0326531 7.93469388 12.0326531 8.49959184 12.0685714 9.96897959 12.1044898 11.4742857 12.1795918 12.9795918 12.1795918 14.2595918 12.1795918 16.1044898 12.1436735 17.3844898 12.1077551 18.1387755 12.0718367 18.1746939 12.0359184 18.1746939 11.3404082L18.1746939 8.2644898C18.1746939 6.21387755 18.1355102 4.12734694 17.9853061 2.08 17.9461224 1.63918367 17.7208163 1.53142857 17.195102 1.53142857 16.6693878 1.53142857 15.84 1.64244898 14.9355102 1.67836735 15.0076141 1.42881725 15.0460494 1.17075139 15.0497959.911020408 15.0516989.66262049 15.0130975.415571394 14.9355102.179591837 17.0057143.251428571 18.6612245.290612245 20.5812245.290612245 22.0506122.290612245 23.7061224.254693878 25.8873469.179591837 25.8164446.390246668 25.777911.610439027 25.7730612.832653061 25.789534 1.11843342 25.8399566 1.40123817 25.9232653 1.67510204 25.0579592 1.63918367 24.1926531 1.4922449 23.6636735 1.4922449 23.1346939 1.4922449 22.8342857 1.63918367 22.7983673 2.04081633 22.6840816 4.38204082 22.6089796 8.66612245 22.6089796 13.0579592 22.6089796 17.5608163 22.6840816 22.0636735 22.7983673 24.5159184 22.837551 24.917551 23.0628571 25.0644898 23.5885714 25.0644898 24.1142857 25.0644898 24.9795918 24.917551 25.8742857 24.8816327 25.8343101 25.1236759 25.8092289 25.3679447 25.7991837 25.6130612 25.7972275 25.8890353 25.8482164 26.1628237 25.9493878 26.4195918 23.7420408 26.3216327 22.1257143 26.2465306 20.2416327 26.2465306zM39.5885714 26.6155102C37.8938776 26.6155102 36.7673469 26.0310204 36.7673469 24.3102041 36.1142857 26.2857143 33.4171429 26.762449 31.6114286 26.762449 28.4865306 26.762449 26.0408163 25.2244898 26.0408163 21.6 26.0408163 19.1477551 27.7714286 17.1722449 32.5877551 16.1828571 33.7085225 15.9437776 34.8141346 15.6384804 35.8987755 15.2685714 36.1632653 15.157551 36.4636735 15.1216327 36.4636735 14.7918367L36.4636735 12.8163265C36.4636735 10.0342857 35.3730612 9.15591837 33.1526531 9.15591837 32.5455953 9.14428746 31.9393407 9.20568033 31.3469388 9.33877551 31.1216327 9.41061224 31.0204082 9.55755102 30.9714286 9.88734694 30.9322449 10.5110204 30.8963265 11.242449 30.8963265 11.9379592 30.8963265 13.1820408 29.7306122 13.877551 28.7118367 13.877551 28.2071451 13.9059373 27.7141267 13.7187498 27.3554485 13.3625625 26.9967703 13.0063751 26.8061518 12.5146731 26.8310204 12.0097959 26.8310204 9.07102041 30.9322449 7.9477551 34.0146939 7.9477551 38.644898 7.9477551 40.5257143 9.58040816 40.5257143 13.364898L40.5257143 22.1093878C40.5257143 25.1461224 40.9012245 25.2571429 41.6555102 25.2571429 42.2145992 25.2151641 42.7645914 25.0919658 43.2881633 24.8914286 43.2447543 25.0834544 43.2196083 25.2791561 43.2130612 25.4759184 43.2174516 25.7783543 43.2818245 26.0769114 43.402449 26.3542857 42.1363803 26.5056764 40.8634581 26.5928628 39.5885714 26.6155102L39.5885714 26.6155102zM36.1632653 16.437551C35.8522874 16.4859218 35.5484851 16.5725657 35.2587755 16.6955102 34.7330612 16.842449 34.1289796 16.9893878 33.7534694 17.0971429 31.2326531 17.7926531 30.2922449 18.7820408 30.2922449 21.4889796 30.2922449 24.0130612 31.5330612 25.2212245 32.9273469 25.2212245 35.1477551 25.2212245 36.1632653 23.5885714 36.2383673 21.5967347 36.277551 20.3167347 36.4277551 18.7036735 36.4277551 16.6563265 36.4277551 16.5126531 36.3134694 16.437551 36.1632653 16.437551zM59.4220408 26.2106122C57.9638764 26.2027327 56.506398 26.2757701 55.0563265 26.4293878 55.1295767 26.1800888 55.1680355 25.9218656 55.1706122 25.6620408 55.1671378 25.3894182 55.1287296 25.1183656 55.0563265 24.8555102 55.5718453 24.9945451 56.1028326 25.0680495 56.6367347 25.0742857 57.2016327 25.0742857 57.5020408 24.9632653 57.5020408 24.6334694 57.6522449 22.0212245 57.6522449 21.2310204 57.6522449 16.875102L57.6522449 16.0359184C57.6899434 14.5264011 57.5684562 13.0171138 57.2897959 11.5330612 56.9632653 10.1420408 56.0489796 9.77632653 54.9191837 9.77632653 53.1134694 9.77632653 51.8693878 10.7559184 51.2293878 12.4114286 50.7787755 13.5836735 50.5763265 15.1183673 50.5763265 17.28L50.5763265 20.244898C50.5763265 21.7077551 50.6155102 23.1379592 50.7265306 24.6726531 50.7265306 24.9306122 50.9910204 25.0742857 51.5918367 25.0742857 52.1624047 25.0553967 52.7298713 24.9821399 53.2865306 24.8555102 53.2102414 25.1175438 53.1717578 25.389128 53.1722449 25.6620408 53.1727926 25.922022 53.2112938 26.1805305 53.2865306 26.4293878 51.7973336 26.2914633 50.3020144 26.2304299 48.8065306 26.2465306 46.9257143 26.2465306 45.0808163 26.3183673 43.7257143 26.4293878 43.8029729 26.1809884 43.8415199 25.9221732 43.84 25.6620408 43.8424572 25.3889945 43.8039331 25.1171247 43.7257143 24.8555102 44.3353973 24.9676264 44.9516168 25.0407002 45.5706122 25.0742857 46.0212245 25.0742857 46.2465306 24.9632653 46.2857143 24.5616327 46.4 22.2563265 46.475102 19.9510204 46.475102 17.642449 46.475102 15.1902041 46.4359184 12.7020408 46.324898 10.2497959 46.324898 9.80897959 46.2497959 9.66530612 45.4955102 9.66530612 44.8910605 9.67517067 44.2878881 9.72425341 43.6897959 9.8122449 43.7837543 9.59311376 43.8229779 9.35441003 43.8040816 9.11673469 43.8056056 8.85904556 43.7804373 8.60189145 43.7289796 8.34938776 44.7836735 8.42122449 45.3616327 8.42122449 46.0995918 8.42122449 47.68 8.42122449 49.0742857 8.34938776 50.88 8.20244898 50.8408163 8.96979592 50.7657143 9.92326531 50.7297959 10.7265306 51.7453061 8.96979592 54.08 8.01959184 56.4114286 8.01959184 60.1012245 8.01959184 61.7926531 10.0702041 61.7926531 14.0963265 61.7926531 16 61.7534694 17.8677551 61.7534694 19.7714286 61.7534694 21.4563265 61.7534694 23.0661224 61.8677551 24.7510204 61.8677551 24.9697959 62.0571429 25.044898 62.5436735 25.044898 63.1123805 25.0268561 63.6789015 24.9657286 64.2383673 24.8620408 64.1620344 25.124065 64.1235499 25.3956555 64.1240816 25.6685714 64.1447239 25.9292447 64.1951196 26.1867008 64.2742857 26.4359184 62.6971429 26.2857143 61.002449 26.2106122 59.4220408 26.2106122zM81.6293878 26.3542857C80.0489796 26.3542857 78.0538776 26.4653061 76.3591837 26.5730612 76.5844898 23.8661224 76.5093878 24.3755102 76.6236735 23.7910204 75.9085714 25.877551 73.9134694 26.6840816 71.7681633 26.6840816 67.5232653 26.6840816 64.3526531 24.1567347 64.3526531 17.3518367 64.3526531 11.2032653 67.2489796 7.9444898 72.0685714 7.9444898 73.9493878 7.9444898 75.7191837 8.71183673 76.5093878 10.2857143 76.4702041 9.80897959 76.395102 9.30612245 76.395102 8.82285714 76.3559184 7.28489796 76.395102 4.50285714 76.2808163 2.23346939 76.2416327 1.58040816 76.1665306 1.46612245 75.5657143 1.46612245 74.8223115 1.5008574 74.0811927 1.57387941 73.3453061 1.68489796 73.423525 1.42328344 73.462049 1.15141369 73.4595918.878367347 73.4421302.607001693 73.4039234.337370623 73.3453061.0718367347 74.8146939.143673469 75.9804082.21877551 76.8816327.21877551 78.0114286.21877551 79.0269388.146938776 80.6465306 1.42108547e-14 80.4571429 4.75755102 80.32 9.2244898 80.32 13.6522449 80.32 17.2440816 80.395102 20.7902041 80.6204082 24.3755102 80.6595918 24.9991837 80.9208163 25.0710204 81.3355102 25.0710204 81.7502041 25.0710204 82.3902041 24.9991837 83.3306122 24.8881633 83.2637601 25.1266028 83.2253974 25.372124 83.2163265 25.6195918 83.2337754 25.8909588 83.2719824 26.1605908 83.3306122 26.4261224 82.6808163 26.3934694 82.0408163 26.3542857 81.6293878 26.3542857zM72.522449 9.37469388C70.0767347 9.37469388 68.7216327 10.1812245 68.7216327 16.7673469 68.7216327 24.3069388 70.2661224 25.1853061 72.7477551 25.1853061 76.4734694 25.1853061 76.3591837 18.9257143 76.3591837 16.2187755 76.3591837 13.7306122 75.9444898 9.37469388 72.5191837 9.37469388L72.522449 9.37469388zM88.4767347 16.4016327C87.7616327 16.4016327 87.6865306 16.3657143 87.6865306 16.7673469 87.6865306 24.8195918 89.7567347 25.4073469 92.9567347 25.4073469 94.9518367 25.4073469 96.3820408 24.1012245 97.1722449 21.2702041 97.6059566 21.6560183 98.181725 21.8420175 98.7591837 21.7828571 97.7436735 25.2604082 95.2979592 26.8702041 92.0228571 26.8702041 86.1126531 26.8702041 83.2914286 23.3567347 83.2914286 17.3159184 83.2914286 10.762449 87.0922449 7.87265306 91.9477551 7.87265306 96.5028571 7.87265306 98.9485714 10.7265306 99.2130612 16.6204082 95.4383673 16.437551 91.9412245 16.4016327 88.4767347 16.4016327zM91.6016327 9.04816327C89.4204082 9.04816327 87.7616327 11.1706122 87.7616327 15.0497959 87.7616327 15.2326531 87.8008163 15.2685714 87.9510204 15.2685714L88.6661224 15.2685714C89.8318367 15.2685714 91.9771429 15.157551 93.8612245 15.0138776 94.6514286 14.9420408 94.6906122 14.8669388 94.6906122 14.1355102 94.6873469 11.3861224 94.0473469 9.04816327 91.6016327 9.04816327z"/>
    <path d="M104.169796 26.2465306C102.475102 26.2465306 100.858776 26.3183673 99.0889796 26.4293878 99.1652688 26.1673542 99.2037524 25.8957699 99.2032653 25.6228571 99.1848334 25.3645303 99.1466262 25.1079965 99.0889796 24.8555102 99.7327389 24.9958637 100.389301 25.0691799 101.048163 25.0742857 101.498776 25.0742857 101.724082 24.9273469 101.724082 24.5616327 101.799184 22.7330612 101.949388 18.4130612 101.949388 12.3004082 101.949388 6.84734694 101.874286 3.99020408 101.76 2.16163265 101.720816 1.46612245 101.49551 1.39428571 101.159184 1.39428571 100.74449 1.39428571 99.8791837 1.54122449 99.0889796 1.61306122 99.1448412 1.38449563 99.183049 1.15197383 99.2032653.91755102 99.2019055.669402681 99.1633828.42285775 99.0889796.186122449 100.029388.222040816 101.159184.222040816 101.799184.222040816 103.379592.222040816 104.411429.150204082 106.164898.00326530612 106.050612 2.4555102 105.97551 6.99428571 105.97551 11.6440816 105.97551 16.9502041 106.014694 22.2955102 106.089796 24.4930612 106.089796 24.9338776 106.354286 25.077551 106.804898 25.077551 107.498544 25.0437798 108.189719 24.9707376 108.875102 24.8587755 108.798154 25.1329395 108.759691 25.4164691 108.760816 25.7012245 108.762281 25.9525411 108.813324 26.2010985 108.91102 26.4326531 107.333878 26.2857143 105.564082 26.2465306 104.169796 26.2465306zM115.986939 26.8342857C113.616327 26.8342857 111.771429 26.2497959 109.701224 25.5542857 109.791158 24.8253859 109.829349 24.0910313 109.81551 23.3567347 109.792249 22.1089029 109.703966 20.8631314 109.55102 19.6244898 109.765038 19.6745457 109.984301 19.6986647 110.204082 19.6963265 110.474701 19.7011882 110.743503 19.6512044 110.994286 19.5493878 111.258776 23.2097959 112.649796 25.6261224 116 25.6261224 118.56 25.6261224 119.918367 24.8587755 119.918367 22.5142857 119.918367 20.7934694 118.262857 19.9902041 116.417959 19.2489796 113.557551 18.1126531 109.792653 17.162449 109.792653 13.3910204 109.792653 9.91346939 112.163265 7.90204082 116.189388 7.90204082 118.109388 7.90204082 120.140408 8.45061224 121.910204 8.99918367 121.640951 9.98917901 121.501552 11.0099792 121.49551 12.0359184 121.49902 12.6749998 121.562426 13.3123454 121.684898 13.9395918 121.462545 13.8864259 121.236656 13.8493234 121.00898 13.8285714 120.81794 13.8499311 120.628996 13.8870646 120.444082 13.9395918 120.068571 11.4514286 118.788571 9.07102041 116.039184 9.07102041 114.008163 9.07102041 112.463673 9.98530612 112.463673 11.6832653 112.463673 13.3812245 113.893878 14.2073469 115.62449 14.9028571 116.453878 15.2293878 117.319184 15.5265306 118.18449 15.8530612 120.705306 16.8032653 123.04 18.0114286 123.04 20.9404082 123.026939 24.6726531 120.310204 26.8342857 115.986939 26.8342857zM131.454694 26.2857143C128.783673 26.2857143 126.524082 26.3216327 124.27102 26.3967347 124.243218 26.1555643 124.126854 25.933309 123.94449 25.7730612 124.133878 25.515102 124.924082 24.4669388 125.33551 23.8693878 127.516735 20.6857143 128.950204 18.644898 130.302041 16.5844898 131.653878 14.5240816 132.786939 12.522449 134.706939 9.55755102L133.012245 9.55755102C129.325714 9.55755102 127.026939 9.88408163 126.876735 14.8636735 126.591324 14.8060277 126.302147 14.7689257 126.011429 14.7526531 125.936327 14.7526531 125.786122 14.7885714 125.332245 14.8636735 125.468129 13.8200675 125.53141 12.7682882 125.521633 11.7159184 125.521633 10.6546939 125.446531 9.59346939 125.332245 8.34938776 127.94449 8.46040816 130.602449 8.46040816 133.234286 8.46040816 135.604898 8.46040816 137.449796 8.4244898 139.52 8.34938776 139.522274 8.59365262 139.587503 8.83320315 139.709388 9.04489796 137.097143 12.8881633 135.533061 15.157551 134.102857 17.355102 132.747755 19.4416327 131.693061 21.162449 129.622857 24.6759184 129.508571 24.8587755 129.472653 24.9338776 129.472653 25.002449 129.472653 25.0710204 129.547755 25.1134694 129.662041 25.1134694L131.206531 25.1134694C136.212245 25.1134694 138.168163 24.6367347 138.318367 19.0726531 138.538007 19.1383749 138.765163 19.1756855 138.994286 19.1836735 139.261086 19.1772548 139.526249 19.1400005 139.78449 19.0726531 139.66015 20.2394531 139.609981 21.4129678 139.634286 22.5861224 139.634286 23.7942857 139.673469 25.0383673 139.78449 26.3934694 137.139592 26.3216327 134.279184 26.2857143 131.454694 26.2857143zM146.51102 16.4016327C145.795918 16.4016327 145.720816 16.3657143 145.720816 16.7673469 145.720816 24.8195918 147.79102 25.4073469 150.99102 25.4073469 152.986122 25.4073469 154.416327 24.1012245 155.206531 21.2702041 155.637843 21.653388 156.209491 21.8392034 156.783673 21.7828571 155.768163 25.2604082 153.322449 26.8702041 150.047347 26.8702041 144.137143 26.8702041 141.315918 23.3567347 141.315918 17.3159184 141.315918 10.762449 145.116735 7.87265306 149.972245 7.87265306 154.527347 7.87265306 156.973061 10.7265306 157.237551 16.6204082 153.472653 16.437551 149.972245 16.4016327 146.51102 16.4016327zM149.632653 9.04816327C147.451429 9.04816327 145.792653 11.1706122 145.792653 15.0497959 145.792653 15.2326531 145.831837 15.2685714 145.982041 15.2685714L146.697143 15.2685714C147.862857 15.2685714 150.008163 15.157551 151.892245 15.0138776 152.682449 14.9420408 152.721633 14.8669388 152.721633 14.1355102 152.718367 11.3861224 152.078367 9.04816327 149.632653 9.04816327zM162.883265 26.2465306C160.963265 26.2465306 159.268571 26.3183673 157.916735 26.4293878 157.97209 26.1764753 158.010273 25.9201077 158.03102 25.6620408 158.009837 25.3791885 157.971673 25.097865 157.916735 24.8195918 158.560222 24.9732324 159.215673 25.0715499 159.875918 25.1134694 160.440816 25.1134694 160.816327 24.9306122 160.85551 24.235102 160.969796 21.8187755 161.005714 19.5493878 161.005714 17.1722449 161.005714 14.795102 160.966531 12.6008163 160.85551 10.2171429 160.816327 9.66857143 160.555102 9.56408163 160.026122 9.56408163 159.57551 9.56408163 158.785306 9.67510204 157.916735 9.71102041 157.997699 9.47458923 158.048174 9.22879618 158.066939 8.97959184 158.046353 8.71891078 157.995956 8.46144823 157.916735 8.2122449 159.157551 8.28408163 160.401633 8.32326531 161.342041 8.32326531 162.697143 8.32326531 163.627755 8.25142857 165.217959 8.14040816 165.067755 11.4710204 164.992653 14.4718367 164.992653 17.4367347 164.992653 19.7420408 165.031837 21.9395918 165.142857 24.244898 165.182041 24.9404082 165.518367 25.0873469 166.008163 25.0873469 166.688789 25.0532275 167.366905 24.9801829 168.039184 24.8685714 167.98208 25.14648 167.943897 25.4279426 167.924898 25.7110204 167.928385 25.9589931 167.96686 26.205232 168.039184 26.442449 166.759184 26.2857143 164.613878 26.2465306 162.883265 26.2465306zM163.033469 4.79673469C161.48898 4.79673469 160.662857 3.69959184 160.662857 2.59918367 160.662857 1.49877551 161.492245.401632653 163.033469.401632653 164.574694.401632653 165.404082 1.49877551 165.404082 2.59918367 165.404082 3.69959184 164.574694 4.80326531 163.033469 4.80326531L163.033469 4.79673469zM174.961633 26.5763265C171.31102 26.5763265 170.220408 24.7085714 170.220408 21.9657143 170.220408 17.9395918 170.29551 13.9853061 170.29551 9.95918367 170.29551 9.77632653 170.256327 9.74040816 170.070204 9.74040816 169.469388 9.74040816 168.564898 9.77632653 167.585306 9.85142857 167.659757 9.61470451 167.698281 9.36815229 167.699592 9.12 167.680593 8.83692223 167.64241 8.5554596 167.585306 8.27755102 168.335116 8.36573509 169.090055 8.40282747 169.844898 8.38857143 170.259592 8.38857143 170.29551 8.38857143 170.29551 8.13387755 170.29551 7.48081633 170.106122 6.23020408 170.070204 5.75346939 171.41907 5.2088658 172.693011 4.4945371 173.861224 3.6277551 174.011429 3.81061224 174.161633 3.77469388 174.386939 3.84653061 174.311837 4.65306122 174.272653 6.45877551 174.272653 7.98367347 174.272653 8.38530612 174.272653 8.38530612 174.762449 8.38530612 175.777959 8.38530612 176.832653 8.38530612 178.223673 8.31346939 178.073082 8.81506346 178.073082 9.3498345 178.223673 9.85142857 176.917551 9.77959184 175.813878 9.74040816 174.723265 9.74040816 174.308571 9.74040816 174.308571 9.77632653 174.308571 10.0342857 174.308571 11.1706122 174.233469 15.4155102 174.233469 16.842449 174.233469 17.9755102 174.308571 22.5142857 174.458776 23.5787755 174.648163 24.8587755 174.98449 25.2114286 175.813878 25.2114286 176.718367 25.2114286 176.943673 24.4440816 176.943673 22.7591837 177.484261 22.9746202 178.057044 23.0982265 178.638367 23.124898 178.161633 25.6261224 177.671837 26.5763265 174.961633 26.5763265zM199.915102 25.6261224C199.933483 25.8844549 199.971691 26.1409926 200.029388 26.3934694 198.974694 26.3216327 197.959184 26.3216327 197.208163 26.3216327 195.627755 26.3216327 194.422857 26.4326531 192.617143 26.5763265 192.692245 25.7697959 192.617143 25.002449 192.767347 23.9412245 191.526531 25.9918367 189.502041 26.6873469 187.160816 26.6873469 183.320816 26.6873469 181.779592 24.8946939 181.779592 20.6465306 181.779592 18.7428571 181.818776 16.8391837 181.818776 14.9355102 181.818776 13.3028571 181.779592 11.7159184 181.668571 10.0669388 181.629388 9.70122449 181.629388 9.74040816 181.368163 9.74040816 180.663223 9.72946442 179.958632 9.77862191 179.262041 9.88734694 179.33833 9.62531338 179.376814 9.35372912 179.376327 9.08081633 179.375779 8.82083515 179.337278 8.56232665 179.262041 8.31346939 180.842449 8.45931973 182.422857 8.5322449 184.003265 8.5322449 184.117551 8.5322449 185.733878 8.42122449 186.109388 8.42122449 186.070204 8.82285714 185.92 11.4220408 185.92 14.6808163 185.92 15.8530612 185.880816 17.2930612 185.880816 18.7069388 185.868516 20.1871461 185.956883 21.6664767 186.145306 23.1346939 186.370612 24.6367347 187.425306 25.0742857 188.555102 25.0742857 191.115102 25.0742857 192.166531 23.1346939 192.506122 21.0840816 192.755651 19.338898 192.864845 17.576516 192.832653 15.8138776 192.832653 13.8742857 192.793469 12.0816327 192.757551 10.324898 192.757551 9.74040816 192.682449 9.74040816 192.231837 9.74040816 191.467198 9.72691284 190.702739 9.77605666 189.946122 9.88734694 190.022412 9.62531338 190.060895 9.35372912 190.060408 9.08081633 190.059861 8.82083515 190.021359 8.56232665 189.946122 8.31346939 191.301224 8.46040816 193.146122 8.49632653 194.687347 8.49632653 195.363265 8.49632653 196.682449 8.38530612 197.057959 8.34938776 197.057959 8.86204082 196.832653 14.6808163 196.832653 17.1657143 196.832653 19.5820408 196.907755 21.9232653 197.022041 24.4146939 197.061224 24.9991837 197.136327 25.0677551 197.586939 25.0677551 198.41723 25.06204 199.246658 25.0129937 200.071837 24.9208163 199.971914 25.1427278 199.91857 25.3827765 199.915102 25.6261224zM216.473469 26.2106122C215.015305 26.2027327 213.557827 26.2757701 212.107755 26.4293878 212.181005 26.1800888 212.219464 25.9218656 212.222041 25.6620408 212.218566 25.3894182 212.180158 25.1183656 212.107755 24.8555102 212.623274 24.9945451 213.154261 25.0680495 213.688163 25.0742857 214.253061 25.0742857 214.553469 24.9632653 214.553469 24.6334694 214.703673 22.0212245 214.703673 21.2310204 214.703673 16.875102L214.703673 16.0359184C214.737068 14.5259411 214.611203 13.0166498 214.328163 11.5330612 214.001633 10.1420408 213.087347 9.77632653 211.957551 9.77632653 210.151837 9.77632653 208.907755 10.7559184 208.267755 12.4114286 207.817143 13.5836735 207.614694 15.1183673 207.614694 17.28L207.614694 20.244898C207.614694 21.7077551 207.653878 23.1379592 207.764898 24.6726531 207.764898 24.9306122 208.029388 25.0742857 208.630204 25.0742857 209.20077 25.0553769 209.768235 24.9821204 210.324898 24.8555102 210.248609 25.1175438 210.210125 25.389128 210.210612 25.6620408 210.21116 25.922022 210.249661 26.1805305 210.324898 26.4293878 208.835701 26.2914633 207.340382 26.2304299 205.844898 26.2465306 203.964082 26.2465306 202.119184 26.3183673 200.764082 26.4293878 200.84134 26.1809884 200.879887 25.9221732 200.878367 25.6620408 200.880825 25.3889945 200.8423 25.1171247 200.764082 24.8555102 201.373765 24.9676264 201.989984 25.0407002 202.60898 25.0742857 203.059592 25.0742857 203.284898 24.9632653 203.324082 24.5616327 203.438367 22.2563265 203.513469 19.9510204 203.513469 17.642449 203.513469 15.1902041 203.474286 12.7020408 203.363265 10.2497959 203.363265 9.80897959 203.288163 9.66530612 202.533878 9.66530612 201.929428 9.67517984 201.326257 9.72426253 200.728163 9.8122449 200.822122 9.59311376 200.861345 9.35441003 200.842449 9.11673469 200.84395 8.85904664 200.818781 8.60189493 200.767347 8.34938776 201.822041 8.42122449 202.4 8.42122449 203.137959 8.42122449 204.718367 8.42122449 206.112653 8.34938776 207.918367 8.20244898 207.879184 8.96979592 207.804082 9.92326531 207.768163 10.7265306 208.783673 8.96979592 211.118367 8.01959184 213.449796 8.01959184 217.136327 8.01959184 218.83102 10.0702041 218.83102 14.0963265 218.83102 16 218.791837 17.8677551 218.791837 19.7714286 218.791837 21.4563265 218.791837 23.0661224 218.906122 24.7510204 218.906122 24.9697959 219.09551 25.044898 219.582041 25.044898 220.150748 25.0268561 220.717269 24.9657286 221.276735 24.8620408 221.200446 25.1240744 221.161962 25.3956586 221.162449 25.6685714 221.18312 25.9292408 221.233515 26.1866937 221.312653 26.4359184 219.748571 26.2857143 218.053878 26.2106122 216.473469 26.2106122zM238.514286 11.4253061C237.8064 11.3932864 237.213851 10.8778501 237.084082 10.1812245 237.084082 9.96244898 237.273469 9.30285714 237.044898 9.30285714 236.630204 9.30285714 235.879184 9.8155102 235.879184 10.0342857 235.904371 10.1529367 235.955683 10.2644836 236.029388 10.3608163 236.585408 11.3621862 236.895427 12.4813857 236.933878 13.6261224 236.933878 16.7738776 234.648163 19.7746939 230.197551 19.7746939 228.904006 19.7776302 227.627847 19.4767653 226.471837 18.8963265 226.300308 18.7858746 226.108118 18.7114425 225.906939 18.677551 225.041633 18.677551 223.797551 20.1044898 223.797551 20.9828571 223.797551 22.08 225.103673 22.8114286 226.922449 22.8114286 227.712653 22.8114286 231.327347 22.7004082 232.228571 22.7004082 237.126531 22.7004082 239.115102 24.3853061 239.115102 27.7518367 239.115102 32.0359184 235.503673 33.9755102 230.233469 33.9755102 223.911837 33.9755102 221.802449 31.5232653 221.802449 29.364898 221.802449 27.3142857 223.533061 26.1453061 225.377959 25.6685714 225.070906 25.6393596 224.767756 25.578073 224.473469 25.4857143 222.442449 24.7542857 221.861224 23.2522449 221.861224 21.6065306 221.861224 20.1044898 222.726531 18.8995918 224.607347 17.9461224 224.72693 17.906721 224.837797 17.8446359 224.933878 17.7632653 224.933878 17.7273469 224.933878 17.7273469 224.858776 17.6522449 223.799328 16.6259043 223.208883 15.2088376 223.226122 13.7338776 223.226122 10.1093878 226.086531 7.87591837 230.226939 7.87591837 231.70422 7.8236273 233.166011 8.19162285 234.442449 8.93714286 234.584704 9.05746595 234.752046 9.14448378 234.932245 9.19183673 235.046531 9.19183673 235.986939 7.88571429 237.678367 7.88571429 239.033469 7.88571429 239.934694 8.76408163 239.934694 9.9722449 239.945313 10.3551065 239.800151 10.7258959 239.532418 10.9997839 239.264685 11.273672 238.89729 11.4272225 238.514286 11.4253061zM230.677551 26.0669388C226.951837 26.0669388 224.767347 26.6514286 224.767347 29.1787755 224.767347 31.52 226.837551 32.7281633 230.373878 32.7281633 235.004082 32.7281633 236.920816 31.3012245 236.920816 29.2506122 236.946939 26.7591837 234.576327 26.0636735 230.700408 26.0636735L230.677551 26.0669388zM230.187755 8.93714286C228.607347 8.93714286 227.327347 9.41387755 227.327347 14.0244898 227.327347 17.9428571 228.633469 18.635102 230.187755 18.635102 231.957551 18.635102 232.858776 18.1583673 232.858776 13.1069388 232.881633 9.55755102 231.526531 8.93387755 230.210612 8.93387755L230.187755 8.93714286z"/>
  </g>
</svg>
