<svg xmlns="http://www.w3.org/2000/svg" width="151" height="42" viewBox="0 0 151 42">
  <g fill="#293D66" fill-rule="evenodd" transform="translate(2 5)">
    <path d="M132.406352 0L126.604192 1.26464 128.951472 6.67576 134.734912 5.34456 132.406352 0zM116.503712 24.53464L120.416192 25.2044 128.217232 7.1864 126.054032 2.20168 116.503712 24.53464zM129.305072 7.49424L141.012352 34.47288 146.734432 32.86504 135.091632 6.16304 129.305072 7.49424zM126.642672 13.02496L135.519072 33.5452 135.571072 33.55456 140.000432 34.346 128.694592 8.2888 126.642672 13.02496zM121.438512 25.0484L127.421632 23.51128 128.833952 20.29664 126.165312 14.12944 121.438512 25.0484zM122.779072 25.60896L131.798992 27.15336 130.797472 24.83832 127.757552 24.3308 122.779072 25.60896zM114.289552 29.72736L134.483232 33.35904 132.213952 28.11432 116.151152 25.36352 114.289552 29.72736zM5.21872 8.159424L5.21872 16.879824 5.27696 16.879824C6.48232 15.275104 7.94352 14.527344 9.98088 14.527344 13.70512 14.527344 15.51264 16.995264 15.51264 20.722624L15.51264 29.727984 10.296 29.727984 10.296 22.185904C10.296 20.464704 10.03704 18.688384 7.94352 18.688384 5.88016 18.688384 5.21872 20.464704 5.21872 22.185904L5.21872 29.727984 5.68434189e-15 29.727984 5.68434189e-15 8.159424 5.21872 8.159424zM28.3608 20.2358C28.10184 18.83076 26.81224 17.9114 25.40512 17.9114 23.88568 17.9114 22.62416 18.71636 22.30904 20.2358L28.3608 20.2358zM33.20512 23.24764L22.22376 23.24764C22.22376 25.3682 23.3428 26.51532 25.49248 26.51532 26.61048 26.51532 27.4144 26.143 27.98848 25.16852L33.00648 25.16852C32.17344 28.63796 28.87664 30.21564 25.52264 30.21564 20.64712 30.21564 17.00504 27.46276 17.00504 22.38756 17.00504 17.48292 20.35904 14.52828 25.14928 14.52828 30.25152 14.52828 33.20512 17.68364 33.20512 22.70164L33.20512 23.24764z"/>
    <polygon points="34.725 29.727 39.943 29.727 39.943 8.159 34.725 8.159"/>
    <polygon points="49.845 22.559 53.344 15.015 59.194 15.015 51.508 29.727 48.18 29.727 40.468 15.015 46.317 15.015"/>
    <path d="M69.260048,20.2358 C69.003168,18.83076 67.713568,17.9114 66.307488,17.9114 C64.788048,17.9114 63.525488,18.71636 63.210368,20.2358 L69.260048,20.2358 Z M74.107488,23.24764 L63.124048,23.24764 C63.124048,25.3682 64.242048,26.51532 66.393808,26.51532 C67.511808,26.51532 68.314688,26.143 68.887728,25.16852 L73.906768,25.16852 C73.075808,28.63796 69.776928,30.21564 66.422928,30.21564 C61.549488,30.21564 57.905328,27.46276 57.905328,22.38756 C57.905328,17.48292 61.261408,14.52828 66.048528,14.52828 C71.152848,14.52828 74.107488,17.68364 74.107488,22.70164 L74.107488,23.24764 Z"/>
    <polygon points="81.804 29.728 76.585 29.728 76.585 19.319 74.893 19.319 74.893 15.016 76.585 15.016 76.585 10.601 81.804 10.601 81.804 15.016 84.758 15.016 84.758 19.319 81.804 19.319"/>
    <path d="M85.747688 29.72736L90.968488 29.72736 90.968488 15.01552 85.747688 15.01552 85.747688 29.72736zM91.280488 10.37088C91.280488 11.97664 89.965928 13.29432 88.358088 13.29432 86.753368 13.29432 85.432568 11.97664 85.432568 10.37088 85.432568 8.76512 86.753368 7.4464 88.358088 7.4464 89.965928 7.4464 91.280488 8.76512 91.280488 10.37088L91.280488 10.37088zM97.878248 22.386832C97.878248 24.250512 99.110648 25.683632 101.233288 25.683632 103.353848 25.683632 104.587288 24.250512 104.587288 22.386832 104.587288 20.580352 103.353848 19.059872 101.233288 19.059872 99.110648 19.059872 97.878248 20.580352 97.878248 22.386832L97.878248 22.386832zM109.635448 29.727152L104.414648 29.727152 104.414648 28.092272 104.358488 28.092272C103.440168 29.555552 101.634728 30.214912 99.913528 30.214912 95.554888 30.214912 92.485848 26.572832 92.485848 22.357712 92.485848 18.140512 95.497688 14.527552 99.857368 14.527552 101.547368 14.527552 103.324728 15.159872 104.414648 16.450512L104.414648 15.015312 109.635448 15.015312 109.635448 29.727152z"/>
  </g>
</svg>
