<svg xmlns="http://www.w3.org/2000/svg" width="186" height="50" viewBox="0 0 186 50">
  <g fill="#293D66" fill-rule="evenodd" transform="translate(1 5.3)">
    <path d="M165.50794-7.10542736e-15L158.25524 1.5808 161.18934 8.3447 168.41864 6.6807 165.50794-7.10542736e-15zM145.62964 30.6683L150.52024 31.5055 160.27154 8.983 157.56754 2.7521 145.62964 30.6683zM161.63134 9.3678L176.26544 43.0911 183.41804 41.0813 168.86454 7.7038 161.63134 9.3678zM158.30334 16.2812L169.39884 41.9315 169.46384 41.9432 175.00054 42.9325 160.86824 10.361 158.30334 16.2812zM151.79814 31.3105L159.27704 29.3891 161.04244 25.3708 157.70664 17.6618 151.79814 31.3105zM153.47384 32.0112L164.74874 33.9417 163.49684 31.0479 159.69694 30.4135 153.47384 32.0112zM142.86194 37.1592L168.10404 41.6988 165.26744 35.1429 145.18894 31.7044 142.86194 37.1592zM6.5234 10.19928L6.5234 21.09978 6.5962 21.09978C8.1029 19.09388 9.9294 18.15918 12.4761 18.15918 17.1314 18.15918 19.3908 21.24408 19.3908 25.90328L19.3908 37.15998 12.87 37.15998 12.87 27.73238C12.87 25.58088 12.5463 23.36048 9.9294 23.36048 7.3502 23.36048 6.5234 25.58088 6.5234 27.73238L6.5234 37.15998 7.10542736e-15 37.15998 7.10542736e-15 10.19928 6.5234 10.19928zM35.451 25.29475C35.1273 23.53845 33.5153 22.38925 31.7564 22.38925 29.8571 22.38925 28.2802 23.39545 27.8863 25.29475L35.451 25.29475zM41.5064 29.05955L27.7797 29.05955C27.7797 31.71025 29.1785 33.14415 31.8656 33.14415 33.2631 33.14415 34.268 32.67875 34.9856 31.46065L41.2581 31.46065C40.2168 35.79745 36.0958 37.76955 31.9033 37.76955 25.8089 37.76955 21.2563 34.32845 21.2563 27.98445 21.2563 21.85365 25.4488 18.16035 31.4366 18.16035 37.8144 18.16035 41.5064 22.10455 41.5064 28.37705L41.5064 29.05955z"/>
    <polygon points="43.407 37.159 49.929 37.159 49.929 10.198 43.407 10.198"/>
    <polygon points="62.307 28.199 66.68 18.769 73.992 18.769 64.385 37.159 60.225 37.159 50.585 18.769 57.896 18.769"/>
    <path d="M86.57506,25.29475 C86.25396,23.53845 84.64196,22.38925 82.88436,22.38925 C80.98506,22.38925 79.40686,23.39545 79.01296,25.29475 L86.57506,25.29475 Z M92.63436,29.05955 L78.90506,29.05955 C78.90506,31.71025 80.30256,33.14415 82.99226,33.14415 C84.38976,33.14415 85.39336,32.67875 86.10966,31.46065 L92.38346,31.46065 C91.34476,35.79745 87.22116,37.76955 83.02866,37.76955 C76.93686,37.76955 72.38166,34.32845 72.38166,27.98445 C72.38166,21.85365 76.57676,18.16035 82.56066,18.16035 C88.94106,18.16035 92.63436,22.10455 92.63436,28.37705 L92.63436,29.05955 Z"/>
    <polygon points="102.255 37.16 95.732 37.16 95.732 24.149 93.617 24.149 93.617 18.77 95.732 18.77 95.732 13.251 102.255 13.251 102.255 18.77 105.947 18.77 105.947 24.149 102.255 24.149"/>
    <path d="M107.18461 37.1592L113.71061 37.1592 113.71061 18.7694 107.18461 18.7694 107.18461 37.1592zM114.10061 12.9636C114.10061 14.9708 112.45741 16.6179 110.44761 16.6179 108.44171 16.6179 106.79071 14.9708 106.79071 12.9636 106.79071 10.9564 108.44171 9.308 110.44761 9.308 112.45741 9.308 114.10061 10.9564 114.10061 12.9636L114.10061 12.9636zM122.34781 27.98354C122.34781 30.31314 123.88831 32.10454 126.54161 32.10454 129.19231 32.10454 130.73411 30.31314 130.73411 27.98354 130.73411 25.72544 129.19231 23.82484 126.54161 23.82484 123.88831 23.82484 122.34781 25.72544 122.34781 27.98354L122.34781 27.98354zM137.04431 37.15894L130.51831 37.15894 130.51831 35.11534 130.44811 35.11534C129.30021 36.94444 127.04341 37.76864 124.89191 37.76864 119.44361 37.76864 115.60731 33.21604 115.60731 27.94714 115.60731 22.67564 119.37211 18.15944 124.82171 18.15944 126.93421 18.15944 129.15591 18.94984 130.51831 20.56314L130.51831 18.76914 137.04431 18.76914 137.04431 37.15894z"/>
  </g>
</svg>
