<svg xmlns="http://www.w3.org/2000/svg" xmlns:xlink="http://www.w3.org/1999/xlink" width="173" height="30" viewBox="0 0 173 30">
  <defs>
    <polygon id="hr-today-logo-173w-a" points="128.525 5.338 172.108 5.338 172.108 29.046 128.525 29.046"/>
  </defs>
  <g fill="none" fill-rule="evenodd" transform="translate(.667)">
    <path fill="#62708C" d="M45.2245356.3768201C51.5661795.3768201 52.6231566 4.1762952 52.6231566 6.4687086 52.6231566 9.2004903 51.5021004 10.9588383 48.907881 11.8695051L48.907881 11.932272C51.6302586 12.3405849 52.0466634 15.7319658 52.0466634 17.9299008 52.0466634 19.0288683 52.1426727 21.666609 53.2317987 22.7970693L46.4418198 22.7970693C45.8651079 21.7608687 45.832959 20.8502019 45.832959 18.4952403 45.832959 15.354927 44.4558051 14.5700127 42.5340882 14.5700127L34.8150717 14.5700127 34.8150717 22.7970693 28.601586 22.7970693 28.601586.3768201 45.2245356.3768201zM42.7263255 4.6471563L34.8150717 4.6471563 34.8150717 10.2994578 43.0465023 10.2994578C44.4236562 10.2994578 46.0251963 9.5458176 46.0251963 7.4419236 46.0251963 5.2124958 44.2316376 4.6471563 42.7263255 4.6471563zM91.5624729 5.3382483C98.3526705 5.3382483 102.900756 8.0385372 102.900756 14.3814933 102.900756 20.7244494 98.3526705 23.424957 91.5624729 23.424957 84.772494 23.424957 80.2241901 20.7244494 80.2241901 14.3814933 80.2241901 8.0385372 84.772494 5.3382483 91.5624729 5.3382483zM91.5624729 9.2317644C88.0713648 9.2317644 86.0536386 11.0845908 86.0536386 14.3814933 86.0536386 17.6786145 88.0713648 19.5314409 91.5624729 19.5314409 95.053581 19.5314409 97.0713072 17.6786145 97.0713072 14.3814933 97.0713072 11.0845908 95.053581 9.2317644 91.5624729 9.2317644zM126.507234 7.10542736e-15L126.507234 22.7970693 121.062478 22.7970693 121.062478 20.6931753 120.998399 20.6931753C119.172692 22.8598362 116.77071 23.424957 114.20842 23.424957 108.859456 23.424957 104.631766 20.4421077 104.631766 14.5700127 104.631766 9.1062306 108.795377 5.526549 114.20842 5.526549 117.379133 5.526549 119.717036 6.5312568 120.806381 8.0385372L120.87046 8.0385372 120.87046 7.10542736e-15 126.507234 7.10542736e-15zM115.777812 9.6085845C112.927057 9.6085845 110.460996 11.2728915 110.460996 14.475753 110.460996 17.6786145 112.927057 19.3429215 115.777812 19.3429215 118.59598 19.3429215 121.062479 17.6786145 121.062479 14.475753 121.062479 11.2728915 118.59598 9.6085845 115.777812 9.6085845z"/>
    <polyline fill="#62708C" points="0 .377 6.214 .377 6.214 8.792 19.089 8.792 19.089 .377 25.303 .377 25.303 22.797 19.089 22.797 19.089 13.063 6.214 13.063 6.214 22.797 0 22.797 0 .377"/>
    <polyline fill="#62708C" points="68.438 4.647 59.951 4.647 59.951 .377 83.139 .377 83.139 4.647 74.652 4.647 74.652 22.797 68.438 22.797 68.438 4.647"/>
    <mask id="hr-today-logo-173w-b" fill="#fff">
      <use xlink:href="#hr-today-logo-173w-a"/>
    </mask>
    <path fill="#62708C" d="M144.122863 14.6015055C143.066104 15.1038594 141.913118 15.2293932 140.79228 15.3234342L137.524902 15.6062133C135.539544 15.7632399 134.546646 16.2970866 134.546646 17.804367 134.546646 19.3116474 135.987879 20.1593286 138.101614 20.1593286 140.95215 20.1593286 144.122863 18.8090748 144.122863 15.9830334L144.122863 14.6015055zM129.614086 11.1158649C130.286588 5.9348619 135.155069 5.3382483 139.767233 5.3382483 147.838357 5.3382483 149.568055 7.9130034 149.568055 11.053098L149.568055 19.4056884C149.568055 20.8816947 149.824153 21.9493881 150.208409 22.7970693L144.571635 22.7970693C144.379179 22.2004557 144.219309 21.6038421 144.186942 21.0072285 142.265443 22.8911103 138.678326 23.424957 136.147748 23.424957 131.663961 23.424957 128.525179 21.8864025 128.525179 17.9613936 128.525179 13.8791394 132.208524 12.9999654 135.635334 12.7801719L141.624652 12.371859C143.354351 12.2465439 143.931063 11.9637648 143.931063 10.613511 143.931063 9.2632572 142.777858 8.603658 139.510917 8.603658 137.108716 8.603658 135.85972 8.7923961 135.058841 11.1158649L129.614086 11.1158649 129.614086 11.1158649zM172.1169 5.966136L162.732483 25.5605625C161.387259 28.3863852 159.850017 29.0459844 156.711235 29.0459844 155.397941 29.0459844 154.052717 28.9829988 152.739205 28.9204506L152.739205 25.0267158C153.540522 25.089264 154.372894 25.1520309 155.173555 25.1520309 156.550709 25.1520309 157.1915 24.5869101 157.832291 23.424957L158.408784 22.2004557 150.337442 5.966136 156.454918 5.966136 161.355329 17.0820009 166.095652 5.966136 172.1169 5.966136" mask="url(#hr-today-logo-173w-b)"/>
  </g>
</svg>
