<svg xmlns="http://www.w3.org/2000/svg" width="100" height="42" viewBox="0 0 100 42">
  <path fill="#293D66" fill-rule="evenodd" d="M27.6948 37.89864C23.87592 37.89864 22.71384 34.9056 22.71384 25.14744 22.71384 16.66512 23.93208 13.61592 27.36288 13.61592 29.35584 13.61592 30.8268 14.35464 31.84704 15.6672 31.01688 15.55632 30.24144 15.44544 29.7432 15.44544 27.14184 15.44544 25.09344 17.66304 25.09344 20.4912 25.09344 23.48424 27.41832 25.81272 30.40776 25.81272 33.5628 25.81272 35.88768 23.42952 35.88768 20.10312 35.88768 15.72336 31.9572 12.67344 26.31168 12.67344 20.30688 12.67344 15.02064 16.68384 13.17384 22.02768L13.17384 5.1159077e-15 1.79056769e-14 5.1159077e-15 1.79056769e-14.72144 1.3284.72144C3.32136.72144 3.87432 1.49688 3.87432 4.5468L3.87432 33.462C3.87432 36.62208 3.09888 38.0088 1.3284 38.0088L1.79056769e-14 38.0088 1.79056769e-14 38.7288 15.27696 38.7288 15.27696 38.0088C13.78224 37.89792 13.17384 37.50912 13.17384 36.62208L13.17384 30.294C14.9508 35.4348 19.92024 39.17376 25.70256 39.17376 30.77352 39.17376 34.50168 36.43704 35.87616 32.3028 35.87616 32.3028 35.46648 32.17608 35.46576 32.17824 33.99408 35.97552 30.906 37.89864 27.6948 37.89864M57.79224 19.16136L54.3168 19.16136 54.3168 18.73728 54.59832 18.73728C54.83808 18.73728 55.00224 18.72216 55.09008 18.69336 55.17792 18.66384 55.22184 18.61272 55.22184 18.53856 55.22184 18.43056 55.09512 18.19944 54.84312 17.84592L53.4996 15.94944 52.70616 16.6464 52.70616 17.99856C52.70616 18.27216 52.76952 18.46368 52.8948 18.57312 53.02152 18.68184 53.26128 18.73728 53.61552 18.73728L53.61552 19.16136 50.48568 19.16136 50.48568 18.73728C50.75352 18.73728 50.9508 18.7092 51.07896 18.65376 51.2064 18.59832 51.28992 18.51984 51.32808 18.41832 51.36624 18.3168 51.38568 18.1764 51.38568 17.99856L51.38568 14.06592C51.38568 13.88736 51.3684 13.74768 51.3324 13.64832 51.29712 13.54824 51.21432 13.46976 51.08328 13.41288 50.95296 13.35528 50.75352 13.3272 50.48568 13.3272L50.48568 12.9024 53.61552 12.9024 53.61552 13.3272C53.23104 13.3272 52.98264 13.38264 52.87248 13.49352 52.7616 13.6044 52.70616 13.7952 52.70616 14.06592L52.70616 15.94944 54.65376 14.24592C54.78912 14.12856 54.88776 14.02776 54.94896 13.94352 55.01088 13.85856 55.04184 13.76424 55.04184 13.65984 55.04184 13.43808 54.83088 13.3272 54.40896 13.3272L54.40896 12.9024 57.26664 12.9024 57.26664 13.3272C57.04488 13.34592 56.86416 13.37184 56.72376 13.40568 56.58408 13.43952 56.448 13.49496 56.31552 13.572 56.18304 13.64832 56.03832 13.74984 55.88136 13.87656 55.7244 14.00256 55.47672 14.21352 55.13832 14.50872L54.48312 15.0768 56.3292 17.70768C56.52648 17.98776 56.68776 18.19584 56.81376 18.33336 56.93976 18.46944 57.07584 18.5688 57.22056 18.63072 57.36456 18.69192 57.55608 18.72792 57.79224 18.73728L57.79224 19.16136M61.0776 16.70616C61.0776 16.00416 60.8004 15.65352 60.24672 15.65352 59.97888 15.65352 59.77368 15.75072 59.6304 15.9444 59.48712 16.13808 59.40792 16.39224 59.3928 16.70616L61.0776 16.70616zM62.2224 17.13096L59.38344 17.13096C59.38704 17.18856 59.39496 17.31384 59.40936 17.50464 59.42304 17.69544 59.46552 17.89056 59.53824 18.09072 59.61096 18.29088 59.73552 18.45936 59.91192 18.59616 60.08904 18.73296 60.32664 18.80136 60.62544 18.80136 60.78816 18.80136 60.98544 18.76032 61.21584 18.6768 61.44696 18.594 61.6464 18.43344 61.81632 18.19728L62.17632 18.44136C61.81272 19.02312 61.236 19.314 60.44544 19.314 60.0912 19.314 59.76936 19.2636 59.47848 19.16136 59.1876 19.05984 58.94064 18.91872 58.7376 18.73728 58.53456 18.55512 58.37904 18.34128 58.27104 18.09576 58.16376 17.8488 58.10976 17.58456 58.10976 17.3016 58.10976 16.92936 58.19976 16.58448 58.37976 16.26768 58.55976 15.95016 58.81752 15.69816 59.15304 15.51024 59.48856 15.32304 59.8716 15.22872 60.30216 15.22872 60.72336 15.22872 61.07976 15.31944 61.37064 15.5016 61.66152 15.68304 61.87608 15.91848 62.01432 16.20792 62.15328 16.49664 62.2224 16.80408 62.2224 17.13096L62.2224 17.13096zM65.39544 19.16136L62.74152 19.16136 62.74152 18.73728 62.94024 18.73728C63.1188 18.73728 63.2484 18.71208 63.33048 18.66312 63.41184 18.61416 63.46152 18.54432 63.48024 18.45576 63.49896 18.36576 63.5076 18.23544 63.5076 18.06336L63.5076 14.13072C63.5076 13.90896 63.45648 13.76712 63.35352 13.70592 63.25056 13.644 63.04608 13.61376 62.74152 13.61376L62.74152 13.18896 64.69848 12.79152 64.69848 18.06336C64.69848 18.23544 64.70712 18.36576 64.7244 18.45288 64.74096 18.54072 64.78992 18.60984 64.872 18.66096 64.95336 18.71136 65.08296 18.73728 65.26224 18.73728L65.39544 18.73728 65.39544 19.16136M68.5692 19.16136L65.91528 19.16136 65.91528 18.73728 66.11328 18.73728C66.29184 18.73728 66.42216 18.71208 66.50352 18.66312 66.58488 18.61416 66.63528 18.54432 66.65328 18.45576 66.672 18.36576 66.68136 18.23544 66.68136 18.06336L66.68136 14.13072C66.68136 13.90896 66.62952 13.76712 66.52656 13.70592 66.4236 13.644 66.21984 13.61376 65.91528 13.61376L65.91528 13.18896 67.87224 12.79152 67.87224 18.06336C67.87224 18.23544 67.88016 18.36576 67.89744 18.45288 67.91472 18.54072 67.96368 18.60984 68.04504 18.66096 68.12712 18.71136 68.25672 18.73728 68.43528 18.73728L68.5692 18.73728 68.5692 19.16136M71.96184 16.70616C71.96184 16.00416 71.68464 15.65352 71.13096 15.65352 70.86312 15.65352 70.65792 15.75072 70.51464 15.9444 70.37136 16.13808 70.29216 16.39224 70.27704 16.70616L71.96184 16.70616zM73.10664 17.13096L70.26768 17.13096C70.27056 17.18856 70.2792 17.31384 70.29288 17.50464 70.30656 17.69544 70.34976 17.89056 70.42248 18.09072 70.49448 18.29088 70.61904 18.45936 70.79616 18.59616 70.97328 18.73296 71.21088 18.80136 71.50896 18.80136 71.6724 18.80136 71.86968 18.76032 72.10008 18.6768 72.3312 18.594 72.53064 18.43344 72.70056 18.19728L73.06056 18.44136C72.69696 19.02312 72.12024 19.314 71.32896 19.314 70.97544 19.314 70.65288 19.2636 70.362 19.16136 70.07112 19.05984 69.82416 18.91872 69.62112 18.73728 69.41808 18.55512 69.26256 18.34128 69.15528 18.09576 69.048 17.8488 68.994 17.58456 68.994 17.3016 68.994 16.92936 69.084 16.58448 69.264 16.26768 69.444 15.95016 69.70104 15.69816 70.03656 15.51024 70.3728 15.32304 70.75584 15.22872 71.1864 15.22872 71.6076 15.22872 71.964 15.31944 72.25488 15.5016 72.54576 15.68304 72.76032 15.91848 72.89856 16.20792 73.0368 16.49664 73.10664 16.80408 73.10664 17.13096L73.10664 17.13096zM77.6988 15.95808C77.6988 16.13664 77.64408 16.27704 77.53464 16.38072 77.4252 16.48368 77.29704 16.53552 77.14944 16.53552 76.97376 16.53552 76.8204 16.44912 76.68792 16.27704 76.62672 16.2 76.5756 16.14456 76.53528 16.11072 76.49568 16.07616 76.4388 16.0596 76.36464 16.0596 76.12488 16.0596 75.93768 16.1892 75.80376 16.44984 75.66984 16.70976 75.60288 16.97976 75.60288 17.25984L75.60288 18.06336C75.60288 18.32184 75.636 18.49824 75.70224 18.594 75.76848 18.68904 75.94344 18.73728 76.2264 18.73728L76.4712 18.73728 76.4712 19.16136 73.60416 19.16136 73.60416 18.73728 73.84464 18.73728C74.10312 18.73728 74.26152 18.6876 74.31984 18.58968 74.37816 18.49032 74.40768 18.31536 74.40768 18.06336L74.40768 16.71552C74.40768 16.50888 74.3868 16.36128 74.34504 16.272 74.304 16.18272 74.22912 16.12368 74.12112 16.09416 74.01384 16.06464 73.84104 16.05096 73.60416 16.05096L73.60416 15.62616 75.40488 15.22872C75.45096 15.38568 75.49344 15.71976 75.53376 16.23096 75.62016 16.0488 75.7332 15.88248 75.87288 15.732 76.01328 15.58152 76.17024 15.45984 76.34376 15.36768 76.518 15.27552 76.69584 15.22872 76.87728 15.22872 77.12928 15.22872 77.32944 15.3 77.47704 15.44112 77.62464 15.58224 77.6988 15.75504 77.6988 15.95808M83.01024 19.16136L80.63784 19.16136 80.63784 18.73728C80.85024 18.73728 80.9964 18.69912 81.07632 18.62424 81.15624 18.54792 81.19656 18.43848 81.19656 18.29376L81.19656 16.74288C81.19656 16.5888 81.18648 16.45056 81.16632 16.32744 81.14688 16.20432 81.0936 16.09272 81.0072 15.99264 80.9208 15.89256 80.78904 15.84288 80.61048 15.84288 80.46576 15.84288 80.31888 15.88248 80.16984 15.96096 80.02008 16.03944 79.9056 16.14096 79.82568 16.26768 79.73928 16.4088 79.68456 16.54488 79.66152 16.67592 79.63848 16.80696 79.62696 16.96464 79.62696 17.14896L79.62696 17.94312C79.62696 18.1584 79.6356 18.31608 79.65288 18.41616 79.66944 18.51624 79.71696 18.59472 79.79544 18.6516 79.87392 18.70848 80.00424 18.73728 80.18568 18.73728L80.18568 19.16136 77.7672 19.16136 77.7672 18.73728C77.97312 18.73728 78.12504 18.71568 78.22152 18.67248 78.31872 18.62928 78.37848 18.5652 78.40152 18.48096 78.42456 18.396 78.43608 18.25704 78.43608 18.06336L78.43608 14.19048C78.43608 13.95936 78.39936 13.80528 78.3252 13.7268 78.25176 13.64832 78.066 13.60728 77.7672 13.6044L77.7672 13.18896 79.62696 12.79152 79.62696 15.90768C79.8084 15.71616 79.99704 15.5556 80.19288 15.42528 80.388 15.29424 80.65944 15.22872 81.0072 15.22872 81.16776 15.22872 81.32688 15.25176 81.48744 15.29856 81.64728 15.34464 81.79128 15.4116 81.91872 15.5016 82.04688 15.59016 82.13976 15.69168 82.19808 15.80616 82.32408 16.03008 82.38744 16.32312 82.38744 16.68312L82.38744 18.06336C82.38744 18.32184 82.42056 18.49824 82.4868 18.594 82.55232 18.68904 82.72728 18.73728 83.01024 18.73728L83.01024 19.16136M86.24736 18.22464L86.24736 17.07984C85.66272 17.26488 85.2912 17.44488 85.1328 17.622 84.9744 17.79912 84.8952 17.97192 84.8952 18.14184 84.8952 18.28296 84.9384 18.39672 85.02408 18.48312 85.11048 18.5688 85.23216 18.61272 85.38912 18.61272 85.55832 18.61272 85.70736 18.57672 85.83696 18.50616 85.96584 18.43488 86.10336 18.34128 86.24736 18.22464zM88.36632 18.18792C88.36632 18.4212 88.3188 18.62064 88.22304 18.78552 88.128 18.94968 87.99912 19.07136 87.83784 19.14984 87.67656 19.22832 87.49368 19.26792 87.29064 19.26792 87.03216 19.26792 86.81688 19.20672 86.6448 19.08576 86.47272 18.96336 86.36904 18.81792 86.3352 18.64944 85.82184 19.06128 85.30488 19.26792 84.78432 19.26792 84.4524 19.26792 84.17952 19.18728 83.96712 19.02528 83.75472 18.864 83.64888 18.65088 83.64888 18.38592 83.64888 18.16776 83.70576 17.96976 83.81952 17.79336 83.934 17.61552 84.10032 17.45856 84.32064 17.32032 84.54096 17.18136 84.80304 17.05896 85.1076 16.95312 85.41216 16.84656 85.79232 16.73496 86.24736 16.61832L86.24736 16.35552C86.24736 16.13664 86.19624 15.96528 86.09328 15.84072 85.99032 15.71616 85.80024 15.65352 85.52304 15.65352 85.28616 15.65352 85.11552 15.70248 85.0104 15.80112 84.906 15.89976 84.83688 16.0488 84.80304 16.24896 84.77856 16.39008 84.73248 16.50672 84.66696 16.59744 84.60072 16.68816 84.46248 16.73352 84.25368 16.73352 84.12408 16.73352 84.01032 16.6968 83.91168 16.62336 83.81376 16.5492 83.76408 16.43976 83.76408 16.29504 83.76408 16.0092 83.9196 15.76008 84.23064 15.54768 84.54096 15.33528 85.01832 15.22872 85.66128 15.22872 86.3388 15.22872 86.80392 15.34248 87.05808 15.57072 87.31152 15.79824 87.43824 16.1028 87.43824 16.4844L87.43824 17.94312C87.43824 18.12744 87.44328 18.2628 87.45264 18.3492 87.46128 18.43488 87.4872 18.5004 87.52824 18.54576 87.57 18.58968 87.63552 18.61272 87.7248 18.61272 87.80472 18.61272 87.87456 18.57096 87.93504 18.48744 87.9948 18.40464 88.02504 18.30456 88.02504 18.18792L88.36632 18.18792 88.36632 18.18792zM91.42272 19.16136L88.7688 19.16136 88.7688 18.73728 88.96752 18.73728C89.14608 18.73728 89.27568 18.71208 89.35704 18.66312 89.43912 18.61416 89.4888 18.54432 89.50752 18.45576 89.52552 18.36576 89.53488 18.23544 89.53488 18.06336L89.53488 14.13072C89.53488 13.90896 89.48304 13.76712 89.38008 13.70592 89.27784 13.644 89.07336 13.61376 88.7688 13.61376L88.7688 13.18896 90.72576 12.79152 90.72576 18.06336C90.72576 18.23544 90.7344 18.36576 90.75168 18.45288 90.76824 18.54072 90.8172 18.60984 90.89928 18.66096 90.98064 18.71136 91.11024 18.73728 91.2888 18.73728L91.42272 18.73728 91.42272 19.16136M95.88312 18.06336C95.88312 18.3276 95.80392 18.55368 95.64552 18.7416 95.48712 18.9288 95.2704 19.07136 94.99464 19.16856 94.71888 19.26576 94.40136 19.314 94.04136 19.314 93.798 19.314 93.5532 19.29024 93.30768 19.24272 93.06144 19.19448 92.84616 19.1232 92.66112 19.02816L92.48112 19.28664 92.12112 19.28664 92.07504 18.0864 92.46312 18.0864C92.5308 18.29232 92.6856 18.47736 92.92896 18.64224 93.17232 18.8064 93.5244 18.8892 93.98592 18.8892 94.10256 18.8892 94.22928 18.88056 94.36464 18.864 94.5 18.84672 94.6296 18.79992 94.75488 18.72288 94.87944 18.64584 94.94136 18.52776 94.94136 18.36792 94.94136 18.22896 94.878 18.12816 94.74984 18.06552 94.6224 18.00216 94.38336 17.92584 94.032 17.83728 93.60792 17.72856 93.26016 17.62704 92.98872 17.52984 92.718 17.43336 92.48904 17.29368 92.30112 17.11224 92.1132 16.93008 92.0196 16.6968 92.0196 16.41096 92.0196 16.04736 92.18664 15.76008 92.52072 15.54768 92.85408 15.33528 93.29256 15.22872 93.834 15.22872 94.1724 15.22872 94.44312 15.2568 94.64616 15.31224 94.8492 15.36768 95.01984 15.42744 95.1588 15.49224L95.26896 15.2568 95.63832 15.2568 95.63832 16.32744 95.26032 16.32744C95.22648 16.20144 95.14944 16.08552 95.0292 15.98112 94.90896 15.87672 94.74984 15.79608 94.55184 15.7392 94.35312 15.6816 94.12344 15.65352 93.86136 15.65352 93.64608 15.65352 93.43152 15.67656 93.21768 15.72264 93.00384 15.76872 92.89656 15.87816 92.89656 16.05096 92.89656 16.12152 92.91744 16.17984 92.9592 16.22592 93.00024 16.272 93.07224 16.3152 93.17376 16.35552 93.27528 16.39512 93.45384 16.44768 93.70944 16.51248 93.96432 16.57656 94.11696 16.61544 94.16592 16.62768 94.66776 16.75368 95.07888 16.9092 95.40072 17.09352 95.72256 17.27856 95.88312 17.60184 95.88312 18.06336M56.66616 27.13608L56.23272 27.13608C56.16792 26.87184 56.06136 26.63424 55.91376 26.42544 55.67976 26.6688 55.41192 26.8776 55.11096 27.05328 54.80928 27.22824 54.40104 27.31608 53.88768 27.31608 53.32464 27.31608 52.80192 27.17856 52.32024 26.90496 51.83928 26.63136 51.4548 26.24904 51.16896 25.758 50.8824 25.26768 50.73984 24.714 50.73984 24.09912 50.73984 23.66136 50.81688 23.2452 50.9724 22.84776 51.12792 22.45104 51.34968 22.10184 51.63768 21.80016 51.92496 21.49848 52.2684 21.2616 52.66656 21.08952 53.06472 20.91744 53.50104 20.83104 53.97552 20.83104 54.75672 20.83104 55.40328 21.08664 55.91376 21.59712 55.98144 21.46464 56.04768 21.2724 56.11248 21.0204L56.52792 21.0204 56.60136 23.32296 56.15856 23.32296C56.07864 22.93272 55.93392 22.58496 55.7244 22.2804 55.5156 21.97584 55.26648 21.74256 54.9792 21.58056 54.69192 21.41928 54.39096 21.33864 54.07704 21.33864 53.72568 21.33864 53.41104 21.43512 53.13096 21.62736 52.85016 21.8196 52.63128 22.11264 52.47288 22.50648 52.31448 22.90032 52.23528 23.39136 52.23528 23.97888 52.23528 24.55128 52.3008 25.0272 52.43328 25.40736 52.56576 25.78752 52.72992 26.07408 52.92504 26.26848 53.12016 26.46216 53.31672 26.59392 53.514 26.66304 53.71056 26.73216 53.8956 26.76672 54.06768 26.76672 54.4464 26.76672 54.78696 26.6652 55.09008 26.46216 55.3932 26.25912 55.6416 26.0028 55.83528 25.6932 56.02968 25.38432 56.15856 25.0776 56.22336 24.77304L56.66616 24.77304 56.66616 27.13608M60.3108 26.26344L60.3108 25.11864C59.72616 25.30368 59.35464 25.4844 59.19624 25.66152 59.03784 25.83792 58.95864 26.01144 58.95864 26.18064 58.95864 26.32248 59.00184 26.43552 59.08752 26.52192 59.17392 26.60832 59.2956 26.65152 59.45256 26.65152 59.62176 26.65152 59.7708 26.61552 59.9004 26.54496 60.02928 26.4744 60.1668 26.3808 60.3108 26.26344zM62.42976 26.22672C62.42976 26.46072 62.38224 26.65944 62.28648 26.82432 62.19072 26.9892 62.06256 27.11088 61.90128 27.18936 61.73928 27.26784 61.55712 27.30672 61.35408 27.30672 61.0956 27.30672 60.88032 27.24624 60.70824 27.12456 60.53544 27.00288 60.43248 26.85744 60.39864 26.68824 59.88456 27.10008 59.3676 27.30672 58.84776 27.30672 58.51512 27.30672 58.24296 27.22608 58.03056 27.0648 57.81816 26.9028 57.71232 26.68968 57.71232 26.42544 57.71232 26.20656 57.7692 26.00856 57.88296 25.83216 57.99672 25.65504 58.16376 25.49736 58.38408 25.35912 58.6044 25.22016 58.86648 25.09776 59.17104 24.99192 59.4756 24.88608 59.85504 24.77376 60.3108 24.65712L60.3108 24.39432C60.3108 24.17616 60.25896 24.00408 60.156 23.87952 60.05376 23.75496 59.86296 23.69232 59.58648 23.69232 59.3496 23.69232 59.17896 23.742 59.07384 23.84064 58.96944 23.93856 58.8996 24.08832 58.86648 24.28776 58.842 24.4296 58.79592 24.54552 58.7304 24.63624 58.66416 24.72768 58.52592 24.77304 58.31712 24.77304 58.18752 24.77304 58.07376 24.7356 57.97512 24.66216 57.8772 24.588 57.82752 24.47856 57.82752 24.33384 57.82752 24.048 57.98304 23.79888 58.29408 23.58648 58.6044 23.37408 59.08176 23.26824 59.72472 23.26824 60.40224 23.26824 60.86736 23.382 61.1208 23.60952 61.37496 23.83704 61.50168 24.1416 61.50168 24.5232L61.50168 25.98192C61.50168 26.16696 61.50672 26.3016 61.51536 26.388 61.52472 26.4744 61.55064 26.53992 61.59168 26.58456 61.63344 26.6292 61.69896 26.65152 61.78824 26.65152 61.86816 26.65152 61.938 26.60976 61.99776 26.52696 62.05824 26.44344 62.08848 26.34336 62.08848 26.22672L62.42976 26.22672 62.42976 26.22672zM66.90384 23.9976C66.90384 24.17616 66.84984 24.31656 66.7404 24.41952 66.63096 24.52248 66.5028 24.57432 66.3552 24.57432 66.17952 24.57432 66.02544 24.48792 65.89368 24.31584 65.83176 24.2388 65.78136 24.18336 65.74104 24.14952 65.70072 24.11568 65.64384 24.09912 65.5704 24.09912 65.32992 24.09912 65.14344 24.22872 65.00952 24.48864 64.8756 24.74856 64.80864 25.01856 64.80864 25.29864L64.80864 26.10216C64.80864 26.36064 64.84176 26.53704 64.908 26.6328 64.97424 26.72856 65.14848 26.77608 65.43144 26.77608L65.67624 26.77608 65.67624 27.20088 62.80992 27.20088 62.80992 26.77608 63.04968 26.77608C63.30816 26.77608 63.46656 26.7264 63.5256 26.62848 63.58392 26.52984 63.61344 26.35488 63.61344 26.10216L63.61344 24.75432C63.61344 24.54768 63.59256 24.40008 63.5508 24.3108 63.50904 24.22224 63.43416 24.16248 63.32688 24.13368 63.2196 24.10416 63.0468 24.08976 62.80992 24.08976L62.80992 23.66496 64.60992 23.26824C64.656 23.4252 64.6992 23.75856 64.73952 24.26976 64.82592 24.08832 64.93896 23.922 65.07864 23.7708 65.21832 23.62032 65.37528 23.49864 65.54952 23.40648 65.72376 23.31432 65.90088 23.26824 66.08232 23.26824 66.33504 23.26824 66.5352 23.3388 66.6828 23.48064 66.8304 23.62176 66.90384 23.79384 66.90384 23.9976M71.39376 23.9976C71.39376 24.17616 71.33904 24.31656 71.2296 24.41952 71.12016 24.52248 70.992 24.57432 70.8444 24.57432 70.66872 24.57432 70.51536 24.48792 70.38288 24.31584 70.32096 24.2388 70.27056 24.18336 70.23024 24.14952 70.18992 24.11568 70.13304 24.09912 70.0596 24.09912 69.81912 24.09912 69.63264 24.22872 69.49872 24.48864 69.3648 24.74856 69.29784 25.01856 69.29784 25.29864L69.29784 26.10216C69.29784 26.36064 69.33096 26.53704 69.3972 26.6328 69.46344 26.72856 69.63768 26.77608 69.92064 26.77608L70.16544 26.77608 70.16544 27.20088 67.29912 27.20088 67.29912 26.77608 67.53888 26.77608C67.79736 26.77608 67.95576 26.7264 68.01408 26.62848 68.07312 26.52984 68.10192 26.35488 68.10192 26.10216L68.10192 24.75432C68.10192 24.54768 68.08104 24.40008 68.04 24.3108 67.99824 24.22224 67.92336 24.16248 67.81608 24.13368 67.70808 24.10416 67.53528 24.08976 67.29912 24.08976L67.29912 23.66496 69.09912 23.26824C69.1452 23.4252 69.1884 23.75856 69.22872 24.26976 69.31512 24.08832 69.42816 23.922 69.56784 23.7708 69.70752 23.62032 69.86448 23.49864 70.03872 23.40648 70.21296 23.31432 70.39008 23.26824 70.57152 23.26824 70.82424 23.26824 71.0244 23.3388 71.172 23.48064 71.3196 23.62176 71.39376 23.79384 71.39376 23.9976M74.48976 26.26344L74.48976 25.11864C73.90512 25.30368 73.5336 25.4844 73.3752 25.66152 73.2168 25.83792 73.1376 26.01144 73.1376 26.18064 73.1376 26.32248 73.18008 26.43552 73.26648 26.52192 73.35288 26.60832 73.47456 26.65152 73.63152 26.65152 73.80072 26.65152 73.94976 26.61552 74.07864 26.54496 74.20824 26.4744 74.34504 26.3808 74.48976 26.26344zM76.60872 26.22672C76.60872 26.46072 76.5612 26.65944 76.46544 26.82432 76.36968 26.9892 76.24152 27.11088 76.08024 27.18936 75.91824 27.26784 75.73608 27.30672 75.53304 27.30672 75.27456 27.30672 75.05856 27.24624 74.88648 27.12456 74.7144 27.00288 74.61144 26.85744 74.5776 26.68824 74.06352 27.10008 73.54656 27.30672 73.02672 27.30672 72.69408 27.30672 72.42192 27.22608 72.20952 27.0648 71.99712 26.9028 71.89128 26.68968 71.89128 26.42544 71.89128 26.20656 71.94816 26.00856 72.06192 25.83216 72.17568 25.65504 72.34272 25.49736 72.56232 25.35912 72.78264 25.22016 73.04472 25.09776 73.35 24.99192 73.65456 24.88608 74.034 24.77376 74.48976 24.65712L74.48976 24.39432C74.48976 24.17616 74.43792 24.00408 74.33496 23.87952 74.232 23.75496 74.04192 23.69232 73.76472 23.69232 73.52856 23.69232 73.3572 23.742 73.2528 23.84064 73.14768 23.93856 73.07856 24.08832 73.04472 24.28776 73.02024 24.4296 72.97488 24.54552 72.90864 24.63624 72.84312 24.72768 72.70488 24.77304 72.49608 24.77304 72.36648 24.77304 72.25272 24.7356 72.15408 24.66216 72.05616 24.588 72.00648 24.47856 72.00648 24.33384 72.00648 24.048 72.162 23.79888 72.47232 23.58648 72.78336 23.37408 73.26072 23.26824 73.90368 23.26824 74.58048 23.26824 75.0456 23.382 75.29976 23.60952 75.55392 23.83704 75.68064 24.1416 75.68064 24.5232L75.68064 25.98192C75.68064 26.16696 75.68496 26.3016 75.69432 26.388 75.70368 26.4744 75.72888 26.53992 75.77064 26.58456 75.8124 26.6292 75.87792 26.65152 75.96648 26.65152 76.0464 26.65152 76.11696 26.60976 76.17672 26.52696 76.23648 26.44344 76.26672 26.34336 76.26672 26.22672L76.60872 26.22672 76.60872 26.22672zM81.0828 23.9976C81.0828 24.17616 81.0288 24.31656 80.91936 24.41952 80.80992 24.52248 80.68176 24.57432 80.53344 24.57432 80.35848 24.57432 80.2044 24.48792 80.07192 24.31584 80.01072 24.2388 79.9596 24.18336 79.92 24.14952 79.87968 24.11568 79.8228 24.09912 79.74936 24.09912 79.50888 24.09912 79.3224 24.22872 79.18848 24.48864 79.05456 24.74856 78.9876 25.01856 78.9876 25.29864L78.9876 26.10216C78.9876 26.36064 79.02072 26.53704 79.08696 26.6328 79.15248 26.72856 79.32744 26.77608 79.6104 26.77608L79.8552 26.77608 79.8552 27.20088 76.98888 27.20088 76.98888 26.77608 77.22864 26.77608C77.48712 26.77608 77.64552 26.7264 77.70456 26.62848 77.76288 26.52984 77.79168 26.35488 77.79168 26.10216L77.79168 24.75432C77.79168 24.54768 77.77152 24.40008 77.72976 24.3108 77.688 24.22224 77.61312 24.16248 77.50584 24.13368 77.39856 24.10416 77.22576 24.08976 76.98888 24.08976L76.98888 23.66496 78.78888 23.26824C78.83496 23.4252 78.87816 23.75856 78.91848 24.26976 79.00416 24.08832 79.11792 23.922 79.2576 23.7708 79.39728 23.62032 79.55424 23.49864 79.72848 23.40648 79.902 23.31432 80.07984 23.26824 80.26128 23.26824 80.514 23.26824 80.71344 23.3388 80.86176 23.48064 81.00936 23.62176 81.0828 23.79384 81.0828 23.9976M84.85704 26.2728L84.85704 24.40368C84.72744 24.24672 84.57408 24.10344 84.39552 23.97384 84.21696 23.84496 84.00456 23.78016 83.75832 23.78016 83.60712 23.78016 83.466 23.82192 83.33352 23.90472 83.20104 23.98824 83.0952 24.09408 83.01528 24.22368 82.87992 24.43608 82.81224 24.79464 82.81224 25.29864 82.81224 25.80984 82.908 26.19432 83.10024 26.4528 83.2932 26.71128 83.53224 26.84088 83.81808 26.84088 84.02472 26.84088 84.21696 26.78976 84.39552 26.68824 84.57408 26.58672 84.72744 26.44848 84.85704 26.2728zM86.72616 27.14544C86.07384 27.1728 85.4784 27.24192 84.93984 27.3528 84.89736 27.26064 84.86928 27.09936 84.85704 26.86824 84.4632 27.19152 84.03048 27.3528 83.5596 27.3528 83.19672 27.3528 82.86048 27.2592 82.5516 27.07128 82.242 26.88336 81.99576 26.62704 81.81288 26.30304 81.62928 25.97832 81.53784 25.62552 81.53784 25.2432 81.53784 25.00632 81.57816 24.7716 81.65808 24.5376 81.738 24.3036 81.86328 24.08832 82.03464 23.8932 82.20528 23.69808 82.41624 23.54472 82.66896 23.43384 82.92168 23.32296 83.20896 23.26824 83.53224 23.26824 83.76912 23.26824 83.97216 23.29704 84.14136 23.35608 84.31056 23.4144 84.44592 23.48136 84.54744 23.55624 84.64896 23.63184 84.75192 23.72184 84.85704 23.82624L84.85704 22.3128C84.85704 22.10688 84.83976 21.95856 84.80592 21.86928 84.77208 21.78 84.708 21.72384 84.6144 21.69864 84.5208 21.67416 84.36744 21.65904 84.15504 21.65256L84.15504 21.22776 86.04792 20.83104 86.04792 26.00064C86.04792 26.2224 86.058 26.37576 86.07744 26.46216 86.0976 26.54856 86.15376 26.61048 86.24664 26.64936 86.3388 26.68752 86.49864 26.71128 86.72616 26.72064L86.72616 27.14544 86.72616 27.14544z" transform="translate(1 1)"/>
</svg>
