<svg xmlns="http://www.w3.org/2000/svg" width="144" height="42" viewBox="0 0 144 42">
  <path fill="#293D66" d="M19.6036889,4.36986301 C20.0560818,4.36986301 20.5084746,4.21917808 20.8603357,3.86757991 C21.2121967,3.46575342 21.4132602,2.96347032 21.3629944,2.46118721 C21.4132602,1.95890411 21.2121967,1.50684932 20.8603357,1.15525114 C20.5084746,0.853881279 20.0560818,0.703196347 19.6036889,0.703196347 C19.1512961,0.703196347 18.6989033,0.853881279 18.3470422,1.20547945 C17.9951811,1.55707763 17.7941176,2.00913242 17.8443835,2.51141553 C17.7941176,3.76712329 18.3973081,4.36986301 19.6036889,4.36986301 Z M18.9502326,19.3378995 C18.8999668,19.2876712 18.8999668,19.1872146 18.8999668,19.1369863 L20.4582087,6.47945205 L20.4079428,6.47945205 C20.2068794,6.42922374 20.0058159,6.37899543 19.8047524,6.37899543 C19.5031572,6.37899543 19.3020937,6.32876712 19.1512961,6.32876712 C18.5481057,6.32876712 17.9449153,6.37899543 17.3919907,6.52968037 C16.9395979,6.6803653 16.4872051,6.83105023 16.0348122,7.03196347 C15.8337488,7.28310502 15.6829511,7.53424658 15.6326853,7.83561644 C15.5321535,8.1369863 15.4818877,8.38812785 15.4818877,8.68949772 L15.4818877,8.78995434 L17.7438518,8.53881279 L16.135344,19.5388128 C16.135344,19.9406393 16.2861416,20.2922374 16.4872051,20.6438356 C16.6882685,21.0958904 16.9395979,21.4977169 17.2411931,21.8493151 L17.2411931,21.8995434 L17.291459,21.8995434 C17.5930542,21.8995434 17.8443835,21.8995434 18.1459787,21.8493151 C18.4475739,21.7990868 18.799435,21.7488584 19.1512961,21.6986301 C19.5031572,21.6484018 19.8047524,21.5479452 20.1566135,21.4977169 C20.4582087,21.3972603 20.7598039,21.2968037 21.0613991,21.196347 C21.2121967,20.9452055 21.3629944,20.6438356 21.4132602,20.3424658 C21.513792,20.0410959 21.5640578,19.739726 21.5640578,19.4383562 L21.5640578,19.3378995 L19.1010302,19.5890411 C19.0004985,19.4885845 18.9502326,19.4383562 18.9502326,19.3378995 Z M11.3600864,19.2876712 C11.3600864,19.1872146 11.3600864,19.1369863 11.3098205,19.0365297 L13.6220505,0.150684932 L13.5717846,0.150684932 C13.3707212,0.100456621 13.1696577,0.0502283105 12.9685942,0.0502283105 C12.666999,0.0502283105 12.4659355,0 12.3151379,0 C11.7622134,0 11.1590229,0.0502283105 10.6060984,0.200913242 C10.1537056,0.301369863 9.70131273,0.502283105 9.24891991,0.703196347 C9.04785643,0.9543379 8.89705882,1.20547945 8.84679295,1.50684932 C8.74626122,1.80821918 8.69599535,2.05936073 8.69599535,2.36073059 L8.69599535,2.46118721 L10.9076936,2.21004566 L10.3045032,6.73059361 C9.95264207,6.57990868 9.55051512,6.42922374 9.19865404,6.32876712 C8.74626122,6.2283105 8.34413426,6.17808219 7.89174144,6.17808219 C6.73562645,6.17808219 5.57951147,6.47945205 4.52392822,7.03196347 C3.51861083,7.58447489 2.66409106,8.38812785 2.01063476,9.34246575 C1.3069126,10.347032 0.804253905,11.4520548 0.502658691,12.6073059 C0.150797607,13.8630137 0,15.1187215 0,16.4246575 C0,17.2785388 0.100531738,18.1324201 0.301595214,18.9863014 C0.452392822,19.5890411 0.753988036,20.1917808 1.15611499,20.6940639 C1.50797607,21.1461187 1.96036889,21.4474886 2.46302758,21.6986301 C3.01595214,21.8995434 3.5688767,22 4.12180126,22 C4.97632104,22 5.78057494,21.7990868 6.53456298,21.4474886 C7.38908275,21.0456621 8.19333666,20.4429224 8.74626122,19.6894977 L8.79652709,19.6894977 C8.84679295,20.0913242 8.94732469,20.4931507 9.0981223,20.8447489 C9.19865404,21.2465753 9.34945165,21.5981735 9.55051512,21.9497717 L9.55051512,22 L9.60078099,22 C9.85211034,22 10.1537056,22 10.4050349,21.9497717 L11.4103523,21.7990868 C11.7622134,21.7488584 12.0638086,21.6484018 12.4156697,21.5981735 C12.7675307,21.5479452 13.0188601,21.3972603 13.3204553,21.2968037 C13.4712529,21.0456621 13.6220505,20.7442922 13.6723164,20.4429224 C13.7728481,20.1415525 13.823114,19.8401826 13.823114,19.5388128 L13.823114,19.4383562 L11.4103523,19.6392694 C11.4103523,19.4885845 11.3600864,19.3881279 11.3600864,19.2876712 Z M8.74626122,17.4292237 C8.39440013,18.0821918 7.89174144,18.6347032 7.23828514,19.0365297 C6.68536058,19.3881279 6.03190429,19.5890411 5.37844799,19.5890411 C4.62445995,19.6392694 3.92073779,19.2876712 3.46834497,18.7351598 C2.96568627,18.1826484 2.7646228,17.2283105 2.7646228,15.9223744 C2.71435693,15.4703196 2.7646228,15.0182648 2.81488867,14.56621 C2.86515454,14.0639269 2.96568627,13.5616438 3.06621801,13.0593607 C3.16674975,12.5570776 3.31754736,12.0547945 3.46834497,11.5525114 C3.61914257,11.1004566 3.82020605,10.6986301 4.07153539,10.2968037 C4.47366235,9.64383562 5.02658691,9.14155251 5.62977733,8.68949772 C6.28323363,8.23744292 7.03722167,7.98630137 7.84147557,8.03652968 C8.19333666,8.03652968 8.59546361,8.08675799 8.94732469,8.18721461 C9.29918578,8.28767123 9.60078099,8.38812785 9.9023762,8.53881279 L8.74626122,17.4292237 Z M31.0140412,6.12785388 C29.9081921,6.12785388 28.8526088,6.37899543 27.8975573,6.88127854 C26.9927717,7.33333333 26.1885178,7.98630137 25.5350615,8.73972603 C24.6302758,9.79452055 24.0270854,11.0502283 23.7254902,12.4063927 C23.3736291,13.7625571 23.2228315,15.1689498 23.2228315,16.5753425 C23.2228315,18.283105 23.5746926,19.5890411 24.3286806,20.4931507 C25.0826687,21.3972603 26.1382519,21.8995434 27.5456962,21.8995434 C28.6515454,21.8995434 29.7071286,21.6986301 30.712446,21.2968037 C31.5669658,20.9452055 32.3209538,20.4931507 33.024676,19.890411 C33.1252077,19.6392694 33.2257394,19.3881279 33.2760053,19.086758 C33.3262712,18.7853881 33.3765371,18.4840183 33.3765371,18.1826484 L33.3765371,18.0319635 L33.2257394,18.1324201 C32.8738784,18.3333333 32.5220173,18.5342466 32.1198903,18.7351598 L30.9135095,19.1872146 C30.4611167,19.3378995 30.0589897,19.3881279 29.7071286,19.4885845 C29.3552675,19.5388128 28.9531406,19.5890411 28.6012795,19.5890411 C26.9425058,19.5890411 26.087986,18.3835616 26.087986,15.8721461 L26.087986,15.0182648 C27.4954304,15.0182648 28.9531406,14.8173516 30.310319,14.4155251 C31.2653706,14.1643836 32.1198903,13.7123288 32.9241442,13.1598174 C33.4770688,12.7077626 33.9294616,12.1552511 34.2310568,11.5022831 C34.4823862,10.8995434 34.5829179,10.2968037 34.5829179,9.64383562 C34.6834497,8.68949772 34.3818544,7.73515982 33.6781323,7.08219178 C32.9241442,6.42922374 31.9690927,6.07762557 31.0140412,6.12785388 L31.0140412,6.12785388 Z M31.7680292,10.8995434 C31.6172316,11.3013699 31.3659023,11.652968 31.0140412,11.9041096 C30.5113825,12.2557078 29.9081921,12.5068493 29.3050017,12.6575342 C28.3499501,12.8584475 27.3446328,13.0091324 26.3393154,13.0091324 C26.4398471,12.456621 26.5403789,11.9543379 26.6911765,11.4018265 C26.8419741,10.8493151 27.0430376,10.347032 27.3446328,9.89497717 C27.6964939,9.34246575 28.1488867,8.84018265 28.7018112,8.48858447 C29.2044699,8.1369863 29.8579262,7.98630137 30.4611167,7.98630137 C30.9135095,7.93607306 31.3659023,8.1369863 31.6172316,8.48858447 C31.868561,8.89041096 31.9690927,9.34246575 31.9690927,9.79452055 C31.9690927,10.196347 31.9188269,10.5479452 31.7680292,10.8995434 Z M87.7139415,6.17808219 C86.356763,6.17808219 85.1001163,6.6803653 84.1450648,7.6347032 L84.1450648,0.100456621 L79.7719342,0.703196347 L79.7719342,20.2420091 L79.8724659,20.2922374 C80.5761881,20.7945205 82.2349618,21.9497717 85.5022433,21.9497717 C90.5288302,21.9497717 93.0421236,19.0365297 93.0421236,13.3105023 C93.0421236,8.78995434 91.0817547,6.17808219 87.7139415,6.17808219 L87.7139415,6.17808219 Z M85.7535726,18.1826484 C85.2006481,18.2328767 84.6477235,18.0821918 84.1450648,17.8310502 L84.1450648,11 C84.6477235,10.3972603 85.4017115,10.0456621 86.1556996,10.0456621 C87.7642074,10.0456621 88.5684613,11.3013699 88.5684613,13.8630137 C88.5684613,17.7305936 86.9599535,18.1826484 85.7535726,18.1826484 Z M112.846876,0.703196347 C111.439432,0.703196347 110.635178,1.50684932 110.635178,2.8630137 L110.635178,3.01369863 C110.635178,4.36986301 111.439432,5.17351598 112.846876,5.17351598 C114.25432,5.17351598 115.058574,4.36986301 115.058574,3.01369863 L115.058574,2.8630137 C115.058574,1.50684932 114.25432,0.703196347 112.846876,0.703196347 Z M103.095297,21.5981735 L107.468428,21.5981735 L107.468428,0.100456621 L103.095297,0.703196347 L103.095297,21.5981735 Z M141.649219,6.27853881 C139.387255,6.27853881 138.381938,7.03196347 137.829013,8.03652968 L137.225823,6.57990868 L133.656946,6.57990868 L133.656946,21.5981735 L137.979811,21.5981735 L137.979811,11.7534247 C138.532735,10.6484018 139.638584,9.94520548 140.895231,9.94520548 C141.247092,9.94520548 141.800017,9.99543379 141.800017,9.99543379 L142.352941,6.27853881 L141.649219,6.27853881 Z M130.640994,7.38356164 C129.032486,6.52968037 127.172649,6.12785388 125.363077,6.17808219 C120.286225,6.17808219 117.370804,9.14155251 117.370804,14.2648402 C117.370804,19.1872146 119.431705,21.8995434 123.151379,21.8995434 C124.35776,21.8995434 125.714939,21.5479452 126.418661,20.6438356 C126.468927,20.543379 126.519192,20.4931507 126.569458,20.3926941 L127.021851,21.5479452 L130.69126,21.5479452 L130.69126,7.43378995 L130.640994,7.38356164 Z M126.368395,17.2785388 C125.865736,17.8310502 125.162014,18.1826484 124.408026,18.1324201 C123.201645,18.1324201 121.894732,17.6803653 121.894732,14.1643836 C121.894732,11.4018265 122.950316,9.99543379 124.96095,9.99543379 C125.463609,9.94520548 125.916002,10.0456621 126.368395,10.2465753 L126.368395,17.2785388 Z M110.685444,6.57990868 L115.058574,6.57990868 L115.058574,21.5981735 L110.685444,21.5981735 L110.685444,6.57990868 Z M70.6738119,6.17808219 C67.3562645,6.17808219 63.8376537,8.23744292 63.8376537,14.0639269 C63.8376537,17.7305936 65.5969591,21.9497717 70.6738119,21.9497717 C73.9913593,21.9497717 77.5099701,19.890411 77.5099701,14.0639269 C77.5099701,8.23744292 73.9913593,6.17808219 70.6738119,6.17808219 Z M70.6738119,18.1324201 C69.1658358,18.1324201 68.3113161,16.7260274 68.3113161,14.1141553 C68.3113161,11.5022831 69.11557,10.0456621 70.6738119,10.0456621 C72.2320538,10.0456621 73.0363077,11.4520548 73.0865736,14.1141553 C73.1368395,16.7762557 72.2320538,18.1324201 70.6738119,18.1324201 Z M95.5051512,6.57990868 L99.8782818,6.57990868 L99.8782818,21.5981735 L95.5051512,21.5981735 L95.5051512,6.57990868 Z M56.046444,0.703196347 L50.9695912,14.4155251 L45.8927385,0.703196347 L41.1677468,0.703196347 L39.8105683,21.5981735 L44.2339648,21.5981735 L44.8874211,10.2465753 L49.2605517,21.5981735 L52.6283649,21.5981735 L56.9512296,10.2465753 L57.6046859,21.5981735 L62.0783483,21.5981735 L60.670904,0.703196347 C60.670904,0.703196347 56.046444,0.703196347 56.046444,0.703196347 Z M97.7168495,0.703196347 C96.3094051,0.703196347 95.5051512,1.50684932 95.5051512,2.8630137 L95.5051512,3.01369863 C95.5051512,4.36986301 96.3094051,5.17351598 97.7168495,5.17351598 C99.1242938,5.17351598 99.9285477,4.36986301 99.9285477,3.01369863 L99.9285477,2.8630137 C99.9285477,1.50684932 99.1242938,0.703196347 97.7168495,0.703196347 Z" transform="translate(1 11)"/>
</svg>
