<svg xmlns="http://www.w3.org/2000/svg" width="120" height="42" viewBox="0 0 120 42">
  <g fill="#293D66" transform="translate(0 6)">
    <path d="M67.5990998 11.9099775C67.2630158 11.4226557 66.8765191 11.0067517 66.443811 10.6580645 66.0111028 10.3093773 65.5489872 10.0237059 65.0700675 9.79684921 64.5869467 9.5699925 64.103826 9.40195049 63.6165041 9.29272318 63.1291823 9.18349587 62.6712678 9.12468117 62.2343586 9.11207802L62.2049512 9.11207802 52.9206302 9.11207802C52.156039 9.11207802 51.5552888 8.88522131 51.1267817 8.43570893 50.6982746 7.98619655 50.484021 7.37284321 50.484021 6.59564891 50.484021 5.83105776 50.6982746 5.21350338 51.1267817 4.7471868 51.5552888 4.28087022 52.151838 4.04981245 52.9206302 4.04981245L66.6622656 4.04981245 66.6622656.0126031508 52.9206302.0126031508C52.2694674.0126031508 51.5636909.130232558 50.8075019.361290323 50.0513128.592348087 49.3497374.974643661 48.7027757 1.49557389 48.055814 2.01650413 47.5180795 2.69707427 47.0853713 3.52888222 46.6568642 4.36489122 46.4426107 5.38574644 46.4426107 6.59564891 46.4426107 7.80555139 46.6568642 8.83060765 47.0853713 9.6708177 47.5138785 10.5110278 48.0516129 11.1873968 48.7027757 11.7083271 49.3497374 12.2250563 50.0513128 12.6031508 50.8075019 12.8342086 51.5636909 13.0694674 52.2694674 13.1828957 52.9206302 13.1828957L62.2049512 13.1828957C62.5788447 13.1828957 62.9149287 13.2459115 63.2216054 13.3677419 63.5282821 13.4937734 63.7845461 13.6660165 63.9987997 13.8970743 64.2130533 14.123931 64.3726932 14.3969992 64.4861215 14.7036759 64.5995499 15.0145536 64.6583646 15.3548387 64.6583646 15.7287322 64.6583646 16.4933233 64.444111 17.1066767 64.0156039 17.5603901 63.5870968 18.0183046 62.9821455 18.2451613 62.2049512 18.2451613L46.7618905 18.2619655 46.7618905 22.2991748 62.2049512 22.2823706C62.6418605 22.2823706 63.103976 22.231958 63.5954989 22.1269317 64.0870218 22.0219055 64.5701425 21.8622656 65.0490623 21.643811 65.5237809 21.4253563 65.9858965 21.143886 66.4312078 20.8036009 66.8765191 20.4633158 67.2672168 20.0474119 67.5948987 19.56009 67.9267817 19.0727682 68.1914479 18.5098275 68.3930983 17.8754689 68.5947487 17.2369092 68.6955739 16.5227307 68.6955739 15.7245311 68.6955739 14.9263316 68.5989497 14.212153 68.4015004 13.5819955 68.19985 12.956039 67.9351838 12.3972993 67.5990998 11.9099775M73.8208552.168042011C73.5729932.273068267 73.3587397.415903976 73.1780945.600750188 72.9974494.789797449 72.8546137 1.00405101 72.7537884 1.25191298 72.6487622 1.49977494 72.5983496 1.76444111 72.5983496 2.04591148L72.5983496 16.6193548C72.5983496 17.6654164 72.7873968 18.5476369 73.1654914 19.2660165 73.5435859 19.9885971 74.0141035 20.5725431 74.5770443 21.0220555 75.139985 21.4715679 75.7533383 21.7950488 76.4171043 21.9924981 77.0808702 22.1899475 77.6900225 22.2865716 78.2487622 22.2865716L92.8138035 22.2865716 92.8138035 18.2493623 78.2781695 18.2493623C77.7404351 18.2493623 77.3329332 18.1107277 77.0514629 17.8292573 76.7699925 17.5477869 76.6313578 17.1444861 76.6313578 16.6193548L76.6313578 13.1954989 90.9947487 13.1870968 90.9947487 9.11627907 76.6313578 9.12888222 76.6313578 4.04981245 92.8096024 4.04981245 92.8096024.0126031508 74.6316579.0126031508C74.3417854.0126031508 74.0729182.0630157539 73.8208552.168042011M118.927532 10.363991C118.822506 10.1203301 118.683871 9.90607652 118.499025 9.72123031 118.31838 9.5363841 118.104126 9.38934734 117.856264 9.28012003 117.608402 9.17089272 117.339535 9.11627907 117.049662 9.11627907L104.299475 9.11627907 104.299475 13.1870968 115.045761 13.1870968 115.045761 18.2493623 102.484621 18.2493623C101.967892 18.2493623 101.564591 18.1065266 101.283121 17.8208552 100.997449 17.5351838 100.854614 17.136084 100.854614 16.6193548L100.854614 5.71342836C100.854614 5.16309077 100.993248 4.75138785 101.274719 4.46991748 101.551988 4.18844711 101.95949 4.04981245 102.484621 4.04981245L118.667067 4.0372093 118.667067-8.95507724e-15 102.484621.0126031508C101.791448.0126031508 101.169692.100825206 100.619355.277269317 100.073218.453713428 99.5858965.688972243 99.1699925.983045761 98.7498875 1.27711928 98.3927982 1.61740435 98.0903226 1.99969992 97.792048 2.3819955 97.5483871 2.78529632 97.3593398 3.2012003 97.1744936 3.62130533 97.035859 4.0456114 96.9476369 4.47411853 96.8594149 4.90262566 96.8174044 5.30592648 96.8174044 5.6756189L96.8174044 16.6109527C96.8174044 17.304126 96.9056264 17.9300825 97.0820705 18.4804201 97.2585146 19.0349587 97.4937734 19.5222806 97.787847 19.9423856 98.0819205 20.3624906 98.4222056 20.7195799 98.8045011 21.0136534 99.1867967 21.3077269 99.5900975 21.5513878 100.010203 21.7362341 100.430308 21.9210803 100.854614 22.0597149 101.283121 22.147937 101.711628 22.236159 102.114929 22.2781695 102.484621 22.2781695L117.049662 22.2781695C117.339535 22.2781695 117.608402 22.2277569 117.856264 22.1227307 118.104126 22.0177044 118.31838 21.8748687 118.499025 21.6942236 118.67967 21.5135784 118.822506 21.2993248 118.927532 21.0514629 119.032558 20.8036009 119.082971 20.5347337 119.082971 20.2448612L119.082971 11.1495874C119.082971 10.8723181 119.032558 10.6076519 118.927532 10.363991M59.3188297 34.5746437L57.4409602 34.5746437C57.4073518 34.5746437 57.340135 34.5704426 57.2351088 34.5578395 57.1300825 34.5452363 57.0082521 34.5242311 56.8696174 34.4864216 56.7309827 34.4486122 56.588147 34.3897974 56.4327082 34.3099775 56.2772693 34.2301575 56.1386347 34.1209302 56.0084021 33.9822956 55.8781695 33.8436609 55.7731433 33.6672168 55.6891223 33.4571643 55.6051013 33.2471118 55.5630908 32.9950488 55.5630908 32.6925731L55.5630908 29.7392348 54.491823 29.7392348 54.491823 32.6925731C54.491823 33.0370593 54.5338335 33.352138 54.6136534 33.6336084 54.6976744 33.9150788 54.8111028 34.1629407 54.9539385 34.3813953 55.0967742 34.59985 55.2648162 34.7888972 55.4580645 34.9485371 55.6513128 35.108177 55.8571643 35.2384096 56.0714179 35.3434359 56.2898725 35.4484621 56.5167292 35.524081 56.7477869 35.5702926 56.9830458 35.6207052 57.2141035 35.6459115 57.4409602 35.6459115L59.848162 35.6459115C59.9237809 35.6459115 59.9909977 35.6333083 60.0582146 35.603901 60.1254314 35.5786947 60.180045 35.5408852 60.2304576 35.4904726 60.2808702 35.44006 60.3186797 35.3854464 60.348087 35.3182296 60.3732933 35.2510128 60.3858965 35.1795949 60.3858965 35.103976L60.3858965 29.7350338 59.3188297 29.7350338 59.3188297 34.5746437zM74.9425356 33.2555139C74.9425356 33.4655664 74.9089272 33.6588147 74.8417104 33.8310578 74.7744936 34.0033008 74.6778695 34.1503376 74.556039 34.272168 74.4342086 34.3939985 74.2829707 34.4906227 74.1149287 34.5578395 73.9426857 34.6250563 73.7536384 34.6586647 73.5435859 34.6586647L72.1068267 34.6586647C71.8967742 34.6586647 71.7077269 34.6250563 71.5354839 34.5578395 71.3632408 34.4906227 71.2162041 34.3981995 71.0943736 34.272168 70.9725431 34.1503376 70.875919 34.0033008 70.8087022 33.8310578 70.7414854 33.6588147 70.707877 33.4697674 70.707877 33.2555139L70.707877 32.1254314C70.707877 31.9153788 70.7414854 31.7221305 70.8087022 31.5498875 70.875919 31.3776444 70.9725431 31.2306077 71.0943736 31.1087772 71.2162041 30.9869467 71.3674419 30.8903226 71.5354839 30.8231058 71.7077269 30.755889 71.8967742 30.7222806 72.1068267 30.7222806L73.556189 30.7222806C73.7620405 30.7222806 73.9510878 30.755889 74.1233308 30.8231058 74.2955739 30.8903226 74.4426107 30.9869467 74.5644411 31.1087772 74.6862716 31.2306077 74.7786947 31.3776444 74.8459115 31.5498875 74.9131283 31.7221305 74.9467367 31.9153788 74.9467367 32.1254314L74.9467367 33.2555139 74.9425356 33.2555139zM75.3122281 30.3525881C75.0937734 30.1341335 74.8333083 29.9618905 74.5308327 29.84006 74.2325581 29.7140285 73.9048762 29.6552138 73.551988 29.6552138L72.1026257 29.6552138C71.7497374 29.6552138 71.4220555 29.7182296 71.1195799 29.84006 70.8171043 29.9618905 70.5566392 30.1341335 70.3381845 30.3525881 70.1197299 30.5710428 69.9474869 30.8315079 69.8214554 31.1339835 69.6954239 31.4364591 69.6324081 31.7683421 69.6324081 32.1254314L69.6324081 33.2555139C69.6324081 33.6168042 69.6954239 33.9444861 69.8214554 34.2469617 69.9474869 34.5494374 70.1197299 34.8099025 70.3381845 35.0283571 70.5566392 35.2468117 70.8171043 35.4190548 71.1195799 35.5408852 71.4220555 35.6627157 71.7497374 35.7257314 72.1026257 35.7257314L73.551988 35.7257314C73.9048762 35.7257314 74.2325581 35.6627157 74.5308327 35.5408852 74.8333083 35.4190548 75.0895724 35.2468117 75.3122281 35.0283571 75.5306827 34.8099025 75.7029257 34.5494374 75.8247562 34.2469617 75.9465866 33.9444861 76.0096024 33.6126032 76.0096024 33.2555139L76.0096024 32.1254314C76.0096024 31.7683421 75.9507877 31.4406602 75.8247562 31.1339835 75.7029257 30.8315079 75.5306827 30.5710428 75.3122281 30.3525881M51.2696174 33.1210803L47.5096774 33.1210803 47.5096774 32.6883721C47.5096774 32.3900975 47.5516879 32.1338335 47.6357089 31.9237809 47.7197299 31.7137284 47.8247562 31.5372843 47.9549887 31.3986497 48.0852213 31.260015 48.223856 31.1507877 48.3792948 31.0709677 48.5305326 30.9911478 48.6775694 30.9323331 48.8162041 30.8945236 48.9548387 30.8567142 49.0766692 30.8315079 49.1816954 30.8231058 49.2867217 30.8147037 49.3581395 30.8105026 49.3875469 30.8105026L51.2654164 30.8105026 51.2654164 33.1210803 51.2696174 33.1210803zM52.1812453 29.8946737C52.1308327 29.8442611 52.0762191 29.8064516 52.0090023 29.7812453 51.9417854 29.751838 51.8745686 29.7392348 51.7989497 29.7392348L49.3875469 29.7392348C48.9632408 29.7392348 48.5725431 29.8106527 48.2112528 29.9576894 47.8499625 30.1005251 47.5390848 30.3063766 47.2786197 30.5668417 47.0139535 30.8273068 46.808102 31.1381845 46.6610653 31.4994749 46.5140285 31.8607652 46.4384096 32.259865 46.4384096 32.6925731L46.4384096 35.6459115 47.5096774 35.6459115 47.5096774 34.1965491 51.2696174 34.1965491 51.2696174 35.6459115 52.3408852 35.6459115 52.3408852 30.2769692C52.3408852 30.2013503 52.3282821 30.1341335 52.2988747 30.0669167 52.2694674 29.9996999 52.2316579 29.9408852 52.1812453 29.8946737"/>
    <polygon points="62.373 29.735 62.373 30.806 64.734 30.806 64.734 35.642 65.805 35.642 65.805 30.806 68.158 30.806 68.158 29.735"/>
    <polygon points="95.162 29.735 95.162 30.806 97.523 30.806 97.523 35.642 98.594 35.642 98.594 30.806 100.951 30.806 100.951 29.735"/>
    <path d="M84.5671418 29.672018C84.4453113 29.6426107 84.331883 29.6468117 84.2184546 29.6930233 84.1050263 29.7350338 84.0210053 29.8106527 83.9579895 29.9156789L81.5255814 34.1545386 79.0931733 29.9156789C79.0637659 29.8652663 79.0259565 29.8190548 78.9797449 29.7812453 78.9377344 29.7434359 78.8873218 29.7140285 78.8327082 29.6930233 78.7780945 29.672018 78.7234809 29.6594149 78.6646662 29.6552138 78.6058515 29.6510128 78.5512378 29.6552138 78.4924231 29.672018 78.3747937 29.7056264 78.2781695 29.7686422 78.2067517 29.8652663 78.1353338 29.9618905 78.0975244 30.0711178 78.0975244 30.1929482L78.0975244 35.6417104 79.1687922 35.6417104 79.1687922 32.1254314 81.071868 35.4652663C81.1180795 35.5492873 81.1810953 35.6165041 81.2651163 35.6585146 81.3449362 35.7005251 81.4331583 35.7257314 81.5255814 35.7257314 81.6222056 35.7257314 81.7104276 35.7047262 81.7944486 35.6585146 81.8784696 35.6123031 81.9414854 35.5492873 81.9876969 35.4652663L83.8823706 32.1254314 83.8823706 35.6417104 84.9578395 35.6417104 84.9578395 30.1929482C84.9578395 30.0711178 84.92003 29.9618905 84.8486122 29.8652663 84.7813953 29.7686422 84.6847712 29.7056264 84.5671418 29.672018M119.082971 30.8063016L119.082971 29.7350338 114.268567 29.7350338C114.192948 29.7350338 114.12153 29.7476369 114.054314 29.7770443 113.987097 29.8064516 113.932483 29.8442611 113.882071 29.8904726 113.835859 29.9408852 113.79805 29.9954989 113.768642 30.0627157 113.739235 30.1299325 113.726632 30.2013503 113.726632 30.2727682L113.726632 34.1377344C113.726632 34.4150038 113.777044 34.6502626 113.877869 34.8393098 113.978695 35.0283571 114.104726 35.1837959 114.251763 35.3056264 114.3988 35.4232558 114.562641 35.5114779 114.739085 35.5618905 114.915529 35.6165041 115.075169 35.6417104 115.222206 35.6417104L119.07877 35.6417104 119.07877 34.5704426 115.230608 34.5704426C115.087772 34.5704426 114.978545 34.5326332 114.907127 34.4570143 114.831508 34.3813953 114.793698 34.2763691 114.793698 34.1377344L114.793698 33.2261065 118.59985 33.2261065 118.59985 32.1464366 114.793698 32.1464366 114.793698 30.8021005 119.082971 30.8021005 119.082971 30.8063016zM108.769392 33.9906977L106.698275 29.7350338 105.500975 29.7350338 108.290473 35.4316579C108.336684 35.51988 108.403901 35.5912978 108.492123 35.6417104 108.576144 35.6963241 108.672768 35.7215304 108.773593 35.7215304 108.87862 35.7215304 108.971043 35.6963241 109.059265 35.6417104 109.143286 35.5870968 109.210503 35.5156789 109.252513 35.4316579L112.046212 29.7350338 110.853113 29.7350338 108.769392 33.9906977z"/>
    <rect width="1.071" height="5.907" x="102.804" y="29.735"/>
    <path d="M92.4819205 33.2555139C92.4819205 33.4655664 92.4483121 33.6588147 92.3810953 33.8310578 92.3138785 34.0033008 92.2172543 34.1503376 92.0954239 34.272168 91.9735934 34.3939985 91.8223556 34.4906227 91.6543136 34.5578395 91.4820705 34.6250563 91.2930233 34.6586647 91.0829707 34.6586647L89.6420105 34.6586647C89.436159 34.6586647 89.2429107 34.6250563 89.0748687 34.5578395 88.9026257 34.4906227 88.7555889 34.3981995 88.6337584 34.272168 88.511928 34.1503376 88.4153038 34.0033008 88.348087 33.8310578 88.2808702 33.6588147 88.2472618 33.4697674 88.2472618 33.2555139L88.2472618 32.1254314C88.2472618 31.9153788 88.2808702 31.7221305 88.348087 31.5498875 88.4153038 31.3776444 88.511928 31.2306077 88.6337584 31.1087772 88.7555889 30.9869467 88.9068267 30.8903226 89.0748687 30.8231058 89.2471118 30.755889 89.436159 30.7222806 89.6420105 30.7222806L91.0913728 30.7222806C91.2972243 30.7222806 91.4862716 30.755889 91.6585146 30.8231058 91.8307577 30.8903226 91.9777944 30.9869467 92.0996249 31.1087772 92.2214554 31.2306077 92.3138785 31.3776444 92.3810953 31.5498875 92.4483121 31.7221305 92.4819205 31.9153788 92.4819205 32.1254314L92.4819205 33.2555139 92.4819205 33.2555139zM92.8516129 30.3525881C92.6331583 30.1341335 92.3726932 29.9618905 92.0702176 29.84006 91.771943 29.7140285 91.4442611 29.6552138 91.0913728 29.6552138L89.6420105 29.6552138C89.2891223 29.6552138 88.9614404 29.7182296 88.6589647 29.84006 88.3564891 29.9618905 88.096024 30.1341335 87.8775694 30.3525881 87.6591148 30.5710428 87.4868717 30.8315079 87.3608402 31.1339835 87.2348087 31.4364591 87.1717929 31.7683421 87.1717929 32.1254314L87.1717929 33.2555139C87.1717929 33.6168042 87.2348087 33.9444861 87.3608402 34.2469617 87.4868717 34.5494374 87.6591148 34.8099025 87.8775694 35.0283571 88.096024 35.2468117 88.3564891 35.4190548 88.6589647 35.5408852 88.9614404 35.6627157 89.2891223 35.7257314 89.6420105 35.7257314L91.0913728 35.7257314C91.4442611 35.7257314 91.771943 35.6627157 92.0702176 35.5408852 92.3726932 35.4190548 92.6331583 35.2468117 92.8516129 35.0283571 93.0700675 34.8099025 93.2423106 34.5494374 93.364141 34.2469617 93.4859715 33.9444861 93.5489872 33.6126032 93.5489872 33.2555139L93.5489872 32.1254314C93.5489872 31.7683421 93.4859715 31.4406602 93.364141 31.1339835 93.2423106 30.8315079 93.0700675 30.5710428 92.8516129 30.3525881M6.19654914 28.5377344C3.61710428 25.7230308 2.04171043 21.9756939 2.04171043 17.8628657 2.04171043 9.13728432 9.13728432 2.04171043 17.8628657 2.04171043 20.0012003 2.04171043 22.0429107 2.47021755 23.908177 3.2432108L25.1054764 1.53338335C22.8915229.550337584 20.4423106-2.98502575e-15 17.8628657-2.98502575e-15 7.9987997-2.98502575e-15-1.49251287e-15 7.9987997-1.49251287e-15 17.8628657-1.49251287e-15 22.6730683 1.90727682 27.0379595 4.99924981 30.2475619L6.19654914 28.5377344zM30.7264816 5.47816954L29.5291823 7.187997C32.1086272 10.0027007 33.684021 13.7500375 33.684021 17.8628657 33.684021 26.5884471 26.5884471 33.684021 17.8628657 33.684021 15.7245311 33.684021 13.6828207 33.2555139 11.8175544 32.4825206L10.6202551 34.1923481C12.8342086 35.1753938 15.2834209 35.7257314 17.8628657 35.7257314 27.7269317 35.7257314 35.7257314 27.7269317 35.7257314 17.8628657 35.7257314 13.0526632 33.8184546 8.68777194 30.7264816 5.47816954z"/>
  </g>
</svg>
