<svg xmlns="http://www.w3.org/2000/svg" width="180" height="49" viewBox="0 0 180 49">
  <g fill="none">
    <polygon fill="#62708C" points="0 48.446 73.766 48.446 73.766 0 0 0"/>
    <path fill="#FFF" d="M17.435888,12.4989168 C11.5450835,12.4989168 8.69270385,15.0636768 8.69270385,19.1320253 C8.69270385,22.810398 10.6837139,24.9956496 14.1445739,25.8862865 L16.7897404,26.5627222 C18.9687051,27.131597 19.8993255,27.7718646 19.8993255,29.1271203 C19.8993255,31.1284752 18.539676,31.4895973 15.25514,31.4895973 C13.7570178,31.4895973 11.1495119,31.2701721 10.2575925,31.1968117 C9.32834537,31.1285979 9.07658399,31.2421648 8.93500918,32.0246883 L8.51097485,34.7708154 C8.43761319,35.3088011 8.69121222,35.5190963 9.15712241,35.5885959 C10.1906199,35.7301701 12.7941965,35.9116697 15.3258124,35.9116697 C21.004254,35.9116697 25.1492744,34.0557885 25.1492744,28.7737584 C25.1492744,25.6655463 23.7833185,23.3442386 19.071449,22.1305538 L16.4363785,21.4541181 C14.6538221,20.9946458 13.8315961,20.4196714 13.8315961,19.1017371 C13.8315961,17.2432455 15.5425044,16.890701 17.1834866,16.890701 C19.3997759,16.890701 21.6424733,17.0736027 22.534396,17.1431024 C23.4649293,17.212602 23.7141161,17.0990383 23.8569793,16.3152258 L24.2911097,13.6397711 C24.3618984,13.1056461 24.1070126,12.892776 23.6449622,12.8219906 C22.6076046,12.6778415 20.3265906,12.4989168 17.435888,12.4989168 Z M29.1271203,12.7412221 C28.4115216,12.7412221 28.1982832,12.994848 28.1982832,13.7104435 L28.1982832,34.7405272 C28.1982832,35.4509762 28.4115216,35.6996525 29.1271203,35.6996525 L32.4083384,35.6996525 C33.1226481,35.6996525 33.3371755,35.4509762 33.3371755,34.7405272 L33.3371755,16.9916615 L36.7294502,16.9916615 C38.8710933,16.9916615 39.8996116,17.776818 39.8996116,19.7781729 C39.8996116,21.5980539 39.0864705,22.1690771 38.2640506,22.5243 C37.2305538,22.9541723 36.8681942,22.4916243 36.5477212,23.8468833 L36.1943592,25.3511955 C36.0862458,25.7784929 36.0429184,25.9844428 36.0429184,26.1285918 C36.0429184,26.4838179 36.155403,26.7701873 36.4063764,27.1987737 L40.6568158,34.8414878 C41.0146135,35.4476873 41.2951482,35.6996525 42.151032,35.6996525 L46.0481095,35.6996525 C46.5461956,35.6996525 47.1559359,35.3774736 46.5832004,34.4881258 L41.3635397,25.8459023 C43.1139211,24.739045 45.0788881,23.1709354 45.0788881,19.7075005 C45.0788881,15.2453153 42.5823517,12.7412221 37.0828121,12.7412221 L29.1271203,12.7412221 Z M50.7730635,12.7412221 C50.0587538,12.7412221 49.8442264,12.9948447 49.8442264,13.7104435 L49.8442264,34.7405272 C49.8442264,35.452262 50.0587538,35.6996525 50.7730635,35.6996525 L54.0643776,35.6996525 C54.7761124,35.6996525 54.9831187,35.452262 54.9831187,34.7405272 L54.9831187,26.4516656 L63.4839975,26.4516656 C64.1970213,26.4516656 64.4128346,26.2042783 64.4128346,25.4925403 L64.4128346,22.9887185 C64.4128346,22.2744089 64.1970213,22.0295933 63.4839975,22.0295933 L54.9831187,22.0295933 L54.9831187,17.1733905 L64.3421622,17.1733905 C65.0564718,17.1733905 65.2709993,16.9184789 65.2709993,16.2041692 L65.2709993,13.7104435 C65.2709993,12.9948447 65.0564718,12.7412221 64.3421622,12.7412221 L50.7730635,12.7412221 Z"/>
    <path fill="#62708C" d="M96.3264662,12.7513182 L96.3264662,23.069487 L97.5884732,23.069487 L97.5884732,17.3854077 C97.6180667,17.3776862 97.6861448,17.3410787 97.7903943,17.2844471 C97.8946437,17.2278188 98.0282089,17.1758814 98.1942365,17.1128142 C98.3602641,17.051036 98.5532878,16.9976093 98.7798077,16.9512773 C99.0089026,16.903653 99.2630712,16.8806049 99.5269159,16.8806049 C100.041734,16.8806049 100.38039,17.0018965 100.556714,17.254159 C100.733041,17.5077073 100.819211,17.8463597 100.819211,18.2839566 L100.819211,23.069487 L102.081218,23.069487 L102.081218,17.8902105 C102.081218,17.1308546 101.889483,16.5718627 101.495647,16.2243613 C101.104385,15.8807207 100.538072,15.7094625 99.8096054,15.7094625 C99.5058611,15.7094625 99.2290418,15.7338029 98.9716328,15.7801349 C98.7155096,15.8303308 98.488253,15.8848431 98.2951971,15.9517678 C98.0995662,16.0174099 97.9442388,16.0768684 97.8206825,16.1334968 C97.6971261,16.1901284 97.6180667,16.2353297 97.5884732,16.2546495 L97.5884732,12.7513182 L96.3264662,12.7513182 Z M167.08972,12.7513182 L167.08972,15.9517678 C167.0704,15.9440463 167.019765,15.9257442 166.918087,15.9012875 C166.817698,15.875545 166.693828,15.8488203 166.544533,15.8205191 C166.399095,15.7883442 166.232586,15.762915 166.049826,15.7397506 C165.863206,15.7204438 165.673642,15.7094625 165.484447,15.7094625 C164.400754,15.7094625 163.596804,16.0181433 163.061394,16.6282035 C162.525983,17.2421212 162.253709,18.1953698 162.253709,19.5055794 C162.253709,20.8054958 162.513716,21.7619137 163.031105,22.352667 C163.548498,22.9459953 164.28458,23.2411199 165.242142,23.2411199 C165.508558,23.2411199 165.755209,23.2094587 165.979154,23.1502554 C166.203102,23.092338 166.401072,23.0292191 166.574821,22.9584304 C166.743423,22.8902166 166.880646,22.8197768 166.988759,22.7464132 C167.096869,22.6781994 167.170973,22.6220137 167.210872,22.5949724 L167.321929,23.069487 L168.361823,23.069487 L168.361823,12.7513182 L167.08972,12.7513182 Z M122.081504,13.1551604 L122.081504,14.5888003 L123.494952,14.5888003 L123.494952,13.1551604 L122.081504,13.1551604 Z M170.34065,13.1551604 L170.34065,14.5888003 L171.744001,14.5888003 L171.744001,13.1551604 L170.34065,13.1551604 Z M85.5236868,13.2763131 C84.3846514,13.2763131 83.5574501,13.5154361 83.0400571,14.0032291 C82.5226641,14.4923046 82.2626608,15.1680425 82.2626608,16.0123441 C82.2626608,16.7704141 82.4472749,17.3617522 82.8179439,17.799346 C83.1873271,18.2356539 83.7329599,18.5382997 84.4434088,18.6978949 L85.5337828,18.9502963 C85.8092097,19.0069279 86.0446755,19.0737073 86.2506028,19.1522174 C86.4552442,19.225581 86.629074,19.3278823 86.7655016,19.445003 C86.903215,19.5659877 87.0027444,19.7141913 87.0683833,19.8892295 C87.1353112,20.0655535 87.1693438,20.2803426 87.1693438,20.5454731 C87.1693438,20.8479283 87.1305621,21.1006108 87.0481912,21.3026773 C86.9683952,21.5098903 86.844729,21.6763993 86.6645411,21.797384 C86.4830673,21.9222262 86.2461153,22.0122604 85.9578172,22.0598814 C85.6682332,22.1087916 85.3048398,22.1305538 84.8775392,22.1305538 C84.6767618,22.1305538 84.4511917,22.1172109 84.1809114,22.0901696 C83.9106311,22.0605663 83.6443924,22.0239621 83.393419,21.989209 C83.1411566,21.9570341 82.9164749,21.926859 82.7169833,21.8882485 C82.5187776,21.8483489 82.3901619,21.8167038 82.3232372,21.797384 L82.11122,22.897854 C82.1292475,22.9055787 82.2179829,22.9286268 82.3737174,22.9685264 C82.5307345,23.007137 82.7358282,23.0433471 82.9996729,23.0896791 C83.2660892,23.1398751 83.5795225,23.186178 83.938606,23.2209278 C84.3002678,23.2595513 84.6925472,23.2815042 85.1198445,23.2815042 C85.6333768,23.2815042 86.1010455,23.221645 86.5231963,23.1199673 C86.944058,23.0144288 87.3087405,22.8580158 87.6034742,22.6353566 C87.8969189,22.4139864 88.1177431,22.1223219 88.2799099,21.7670958 C88.4420801,21.4105871 88.5222153,20.9756588 88.5222153,20.4647046 C88.5222153,19.7516808 88.3496713,19.1698411 88.0073164,18.718087 C87.6662507,18.2689079 87.0736235,17.9457824 86.2203146,17.7488657 L85.0087879,17.4762722 C84.5454517,17.3707337 84.1807692,17.2117459 83.92851,16.9916615 C83.6788224,16.772863 83.5549559,16.411841 83.5549559,15.9214796 C83.5549559,15.607439 83.6047222,15.3599063 83.7063968,15.1642755 C83.8054996,14.9686446 83.9440111,14.8193522 84.120335,14.709953 C84.2953732,14.6031286 84.4993781,14.5264503 84.7361944,14.4878397 C84.9717217,14.4479434 85.2280678,14.4272634 85.5034947,14.4272634 C85.7789247,14.4272634 86.0559411,14.4380541 86.3313712,14.4676476 C86.6067981,14.4972509 86.8558201,14.5289186 87.0784793,14.5585121 C87.3011385,14.594551 87.4943593,14.6285868 87.6539545,14.6594727 C87.8161214,14.6955116 87.921886,14.719839 87.9669322,14.7301451 L88.1587573,13.6599632 C88.1021289,13.6406595 87.981519,13.6115732 87.8154914,13.5690987 C87.6481747,13.5253416 87.4478334,13.4803245 87.2097281,13.43785 C86.9742008,13.3953787 86.7143946,13.3615464 86.4222357,13.3267934 C86.127502,13.297203 85.8274278,13.2763131 85.5236868,13.2763131 Z M147.412507,13.4883302 L147.412507,23.069487 L148.735091,23.069487 L148.735091,14.5988964 L150.411036,14.5988964 C151.131781,14.5988964 151.631111,14.7216773 151.905252,14.9623544 C152.179393,15.2068921 152.31919,15.60006 152.31919,16.163785 C152.31919,16.5035649 152.262304,16.7782131 152.137461,16.9815655 C152.013905,17.1874927 151.841561,17.3490554 151.612467,17.4661761 C151.387232,17.5832968 151.101403,17.6709597 150.774494,17.7185775 C150.44501,17.7636269 150.083307,17.7987483 149.674024,17.8296341 L149.462007,18.7685673 L152.702841,23.069487 L154.338402,23.069487 L150.986511,18.6676068 C151.310845,18.6199857 151.626449,18.5471681 151.945636,18.4454935 C152.262249,18.3489623 152.550256,18.2080795 152.803801,18.0214592 C153.062499,17.8374105 153.271447,17.5881882 153.429757,17.2844471 C153.585488,16.9807029 153.661966,16.599408 153.661966,16.1334968 C153.661966,15.3085021 153.434709,14.6635402 152.98553,14.1950541 C152.53249,13.7239964 151.789285,13.4883302 150.744206,13.4883302 L147.412507,13.4883302 Z M117.467607,15.7094625 C116.435399,15.7094625 115.655382,16.0119112 115.135418,16.6181075 C114.612878,17.2178713 114.358021,18.1650784 114.358021,19.4752912 C114.358021,20.1690081 114.423515,20.7583723 114.559943,21.2320049 C114.697656,21.7094982 114.899089,22.0957459 115.175802,22.3930513 C115.449943,22.6929316 115.792456,22.9053461 116.2056,23.0391988 C116.620026,23.1704766 117.108378,23.2411199 117.669528,23.2411199 C117.983565,23.2411199 118.278893,23.2176809 118.547885,23.1906397 C118.819454,23.1623255 119.061152,23.1332391 119.274801,23.0997752 C119.488449,23.0663144 119.657133,23.0397965 119.789699,23.0089107 C119.923552,22.9741608 120.014672,22.947462 120.062293,22.9281422 L120.163253,21.8276722 C120.136244,21.8392576 120.046194,21.8624995 119.900756,21.8882485 C119.752746,21.9178517 119.569017,21.9443599 119.365665,21.979113 C119.164884,22.0112879 118.946238,22.0354247 118.709421,22.0598814 C118.471319,22.0843381 118.239314,22.1002657 118.012794,22.1002657 C117.640839,22.1002657 117.316628,22.0735539 117.033476,22.0194972 C116.746467,21.9590049 116.499616,21.8508688 116.30656,21.6964234 C116.113504,21.5381173 115.965297,21.3269918 115.862334,21.0502759 C115.756798,20.7761381 115.690006,20.4065061 115.660413,19.9599019 L120.506519,19.9599019 L120.506519,19.1825056 C120.506519,17.9276353 120.247602,17.0385977 119.739219,16.5070509 C119.230837,15.9767866 118.474075,15.7094625 117.467607,15.7094625 Z M134.832822,15.7094625 C133.795465,15.7094625 133.025748,16.0119112 132.500633,16.6181075 C131.981955,17.2178713 131.713141,18.1650784 131.713141,19.4752912 C131.713141,20.1690081 131.786159,20.7583723 131.925158,21.2320049 C132.0603,21.7094982 132.264305,22.0957459 132.541018,22.3930513 C132.815159,22.6929316 133.157675,22.9053461 133.570815,23.0391988 C133.98267,23.1704766 134.476165,23.2411199 135.034743,23.2411199 C135.348781,23.2411199 135.631438,23.2176809 135.903004,23.1906397 C136.171999,23.1623255 136.416271,23.1332391 136.62992,23.0997752 C136.843569,23.0663144 137.021062,23.0397965 137.154915,23.0089107 C137.288768,22.9741608 137.372366,22.947462 137.417412,22.9281422 L137.518373,21.8276722 C137.491332,21.8392576 137.401314,21.8624995 137.255876,21.8882485 C137.110441,21.9178517 136.934236,21.9443599 136.730881,21.979113 C136.527528,22.0112879 136.314028,22.0354247 136.074637,22.0598814 C135.836532,22.0843381 135.604529,22.1002657 135.378009,22.1002657 C135.006054,22.1002657 134.670461,22.0735539 134.388596,22.0194972 C134.100301,21.9590049 133.867407,21.8508688 133.671776,21.6964234 C133.47872,21.5381173 133.322992,21.3269918 133.217453,21.0502759 C133.11449,20.7761381 133.05267,20.4065061 133.025628,19.9599019 L137.861639,19.9599019 L137.861639,19.1825056 C137.861639,17.9276353 137.611531,17.0385977 137.104435,16.5070509 C136.596052,15.9767866 135.838002,15.7094625 134.832822,15.7094625 Z M158.073942,15.7094625 C157.770201,15.7094625 157.469927,15.726482 157.185489,15.7599428 C156.899766,15.7946958 156.645998,15.8347602 156.418189,15.8810954 C156.191669,15.9274274 156.008341,15.9685838 155.862906,16.0123441 C155.714896,16.0586794 155.617354,16.0815465 155.590312,16.0931126 L155.51964,17.1431024 C155.558254,17.1366667 155.650856,17.1121196 155.782138,17.082526 C155.914701,17.0464904 156.073692,17.0163153 156.266748,16.9815655 C156.46109,16.9429549 156.677365,16.9076462 156.912896,16.8806049 C157.152287,16.8535733 157.392699,16.8301246 157.639812,16.8301246 C158.011767,16.8301246 158.309266,16.869307 158.538361,16.9310852 C158.767456,16.9890026 158.946035,17.0801224 159.073452,17.2036787 C159.202158,17.3246601 159.288328,17.4767277 159.335949,17.6479051 C159.383573,17.8177935 159.406621,18.0045818 159.406621,18.2233803 L159.406621,18.7786634 C159.386042,18.7786634 159.326767,18.7777911 159.214796,18.7584713 C159.101536,18.7378785 158.950558,18.7122556 158.780666,18.6877989 C158.609492,18.6633422 158.421214,18.6501769 158.215287,18.6373186 C158.011935,18.6205834 157.819114,18.6070304 157.61962,18.6070304 C156.737997,18.6070304 156.07344,18.7980801 155.630697,19.1623135 C155.189242,19.5278327 154.974453,20.1374761 154.974453,20.9997956 C154.974453,21.445114 155.032425,21.819689 155.166278,22.1002657 C155.297556,22.3872779 155.472478,22.6080989 155.691273,22.7767014 C155.907497,22.9478788 156.156519,23.0758063 156.438381,23.1401594 C156.717669,23.2057983 157.012997,23.2411199 157.316738,23.2411199 C157.630779,23.2411199 157.908884,23.2118333 158.154711,23.1603515 C158.399248,23.1075806 158.62067,23.0431759 158.800858,22.9685264 C158.979757,22.8990268 159.131624,22.827298 159.255181,22.7565093 C159.378737,22.6870096 159.469857,22.6335829 159.527774,22.5949724 L159.638831,23.069487 L160.648436,23.069487 L160.648436,17.981075 C160.648436,17.1650875 160.427412,16.5871085 159.982097,16.2344574 C159.535492,15.8830952 158.897651,15.7094625 158.073942,15.7094625 Z M176.6103,15.7094625 C176.105778,15.7094625 175.658987,15.7738705 175.257429,15.9012875 C174.85201,16.0287046 174.506922,16.2350841 174.227631,16.527243 C173.948343,16.8245484 173.734443,17.2120818 173.59158,17.6882894 C173.44357,18.1683544 173.369466,18.7723667 173.369466,19.4853873 C173.369466,20.1868289 173.44357,20.7708429 173.59158,21.252197 C173.734443,21.7309794 173.948343,22.1172238 174.227631,22.4132434 C174.506922,22.7054022 174.85201,22.920592 175.257429,23.0492949 C175.658987,23.1767152 176.105778,23.2411199 176.6103,23.2411199 C177.113533,23.2411199 177.566763,23.1767152 177.963172,23.0492949 C178.360869,22.920592 178.704871,22.7054022 178.982873,22.4132434 C179.262161,22.1172238 179.47349,21.7309794 179.618925,21.252197 C179.768224,20.7708429 179.841038,20.1868289 179.841038,19.4853873 C179.841038,18.7723667 179.768224,18.1683544 179.618925,17.6882894 C179.47349,17.2120818 179.262161,16.8245484 178.982873,16.527243 C178.704871,16.2350841 178.360869,16.0287046 177.963172,15.9012875 C177.566763,15.7738705 177.113533,15.7094625 176.6103,15.7094625 Z M142.445248,15.7397506 C142.236746,15.7397506 142.035116,15.7613126 141.839485,15.8205191 C141.646429,15.8758616 141.460325,15.9553152 141.294298,16.0325363 C141.130842,16.1161962 140.991245,16.1961344 140.870263,16.2849376 C140.746707,16.3763191 140.645692,16.450219 140.577478,16.5171469 L140.506805,15.8810954 L139.466912,15.8810954 L139.466912,23.069487 L140.739015,23.069487 L140.739015,17.4257919 C140.757042,17.406485 140.815409,17.3664174 140.910648,17.3046393 C141.004604,17.2428611 141.127382,17.1834026 141.274106,17.1229103 C141.422115,17.0611321 141.588424,17.0014701 141.778908,16.9512773 C141.970679,16.8997793 142.165873,16.8806049 142.384672,16.8806049 C142.622774,16.8806049 142.812337,16.8862393 142.950051,16.9209891 C143.086475,16.9544531 143.185119,16.9811778 143.23274,17.0017576 L143.454854,15.8810954 C143.407233,15.8592136 143.307904,15.8288415 143.141876,15.7902309 C142.975848,15.7516268 142.738693,15.7397506 142.445248,15.7397506 Z M93.1260166,15.7700388 C92.555856,15.7700388 92.0588975,15.8267221 91.6418964,15.9618639 C91.2248922,16.0944275 90.8836649,16.315649 90.6120988,16.6181075 C90.3418185,16.9141271 90.1389023,17.2980001 90.0063354,17.7690578 C89.8724827,18.2388297 89.8044143,18.8034561 89.8044143,19.4752912 C89.8044143,20.1509903 89.8724827,20.7231346 90.0063354,21.1916207 C90.1389023,21.6639642 90.3418185,22.0504121 90.6120988,22.342571 C90.8836649,22.6398796 91.2124248,22.8460556 91.6217043,22.9786225 C92.0296981,23.1111894 92.5145833,23.1805436 93.0654403,23.1805436 C93.6536187,23.1805436 94.0823085,23.1488824 94.3577354,23.0896791 C94.6331623,23.0356224 94.8044143,22.9979423 94.8726342,22.9786225 L94.9836908,21.8882485 C94.964371,21.8882485 94.9010615,21.8953723 94.8019618,21.9185367 C94.7041448,21.9429933 94.5901773,21.9636701 94.4485999,21.979113 C94.3057399,22.0009915 94.1452627,22.0191095 93.9740853,22.0396893 C93.8029111,22.0590091 93.6400561,22.0699775 93.4894746,22.0699775 C93.0904882,22.0699775 92.7380793,22.0383163 92.4394848,21.979113 C92.1396045,21.9237704 91.9019676,21.8033641 91.7024728,21.625751 C91.5029812,21.4442773 91.3521994,21.1894205 91.2582463,20.8483548 C91.1617184,20.507289 91.1169016,20.0454518 91.1169016,19.4752912 C91.1169016,18.9089913 91.1591435,18.4533927 91.2582463,18.1123237 C91.3586351,17.7712579 91.4958606,17.5101659 91.6721846,17.3248314 C91.8485086,17.138211 92.0611234,17.0192908 92.3082361,16.9613734 C92.5540597,16.902183 92.8312829,16.8806049 93.1260166,16.8806049 C93.3332297,16.8806049 93.5286279,16.8877287 93.7216839,16.9108931 C93.9160257,16.9353465 94.0898588,16.9670078 94.2365827,17.0017576 C94.3845925,17.0352216 94.5047986,17.0617362 94.6000407,17.0926221 C94.6952797,17.1273719 94.7547285,17.1529884 94.7817697,17.1632945 L95.0543632,16.1234008 C95.027322,16.1156793 94.9616411,16.0887672 94.8625382,16.0527284 C94.7634385,16.0141178 94.6348229,15.9727611 94.468792,15.9315757 C94.3014786,15.8878154 94.1009337,15.8526972 93.8731247,15.8205191 C93.6466048,15.7857693 93.4001576,15.7700388 93.1260166,15.7700388 Z M103.1514,15.8810954 L105.40282,23.069487 L106.796076,23.069487 L108.350868,17.5671367 L109.865277,23.069487 L111.268628,23.069487 L113.499857,15.8810954 L112.18737,15.8810954 L110.612385,21.7469037 L109.007112,15.8810954 L107.735009,15.8810954 L106.129736,21.625751 L104.544655,15.8810954 L103.1514,15.8810954 Z M122.152176,15.8810954 L122.152176,23.069487 L123.414183,23.069487 L123.414183,15.8810954 L122.152176,15.8810954 Z M125.05984,15.8810954 L125.05984,16.900797 L129.279992,16.900797 L124.9084,22.1002657 L124.9084,23.069487 L130.774208,23.069487 L130.935745,22.0396893 L126.39252,22.0396893 L130.74392,16.8503168 L130.632863,15.8810954 L125.05984,15.8810954 Z M170.411322,15.8810954 L170.411322,23.069487 L171.673329,23.069487 L171.673329,15.8810954 L170.411322,15.8810954 Z M117.467607,16.7493562 C117.781647,16.7493562 118.045111,16.7808171 118.265195,16.8503168 C118.481419,16.926252 118.667522,17.0425973 118.810382,17.2137748 C118.951959,17.3836631 119.057721,17.6132943 119.12336,17.9003065 C119.187713,18.1834549 119.22432,18.535867 119.22432,18.9502963 L115.660413,18.9502963 C115.670719,18.5435917 115.715726,18.1972146 115.791661,17.9204986 C115.868886,17.639922 115.971872,17.4191011 116.114735,17.2440629 C116.256309,17.0664499 116.44607,16.9402088 116.670018,16.8604128 C116.891388,16.7857634 117.156141,16.7493562 117.467607,16.7493562 Z M134.832822,16.7493562 C135.144285,16.7493562 135.411612,16.7808171 135.630411,16.8503168 C135.849206,16.926252 136.022642,17.0425973 136.165502,17.2137748 C136.307079,17.3836631 136.411551,17.6132943 136.478479,17.9003065 C136.544118,18.1834549 136.57944,18.535867 136.57944,18.9502963 L133.025628,18.9502963 C133.03335,18.5435917 133.078367,18.1972146 133.156877,17.9204986 C133.231526,17.639922 133.337088,17.4191011 133.479951,17.2440629 C133.621525,17.0664499 133.803764,16.9402088 134.025138,16.8604128 C134.246508,16.7857634 134.518782,16.7493562 134.832822,16.7493562 Z M176.6103,16.7897404 C176.939784,16.7897404 177.235309,16.8310971 177.478561,16.9108931 C177.728245,16.993264 177.928593,17.1378104 178.084324,17.3450235 C178.240059,17.5535256 178.359176,17.8292594 178.437686,18.1729 C178.512336,18.5216873 178.548743,18.9641336 178.548743,19.4853873 C178.548743,20.006641 178.512336,20.438988 178.437686,20.7877784 C178.359176,21.1314191 178.240059,21.4022066 178.084324,21.6055589 C177.928593,21.8089113 177.728245,21.9534577 177.478561,22.0396893 C177.235309,22.1259209 176.939784,22.170938 176.6103,22.170938 C176.26666,22.170938 175.985288,22.1259209 175.742039,22.0396893 C175.502648,21.9534577 175.302103,21.8089113 175.146372,21.6055589 C174.988066,21.4022066 174.866371,21.1314191 174.79301,20.7877784 C174.723507,20.438988 174.69205,20.006641 174.69205,19.4853873 C174.69205,18.9641336 174.723517,18.5216873 174.79301,18.1729 C174.866371,17.8292594 174.988066,17.5535256 175.146372,17.3450235 C175.302103,17.1378104 175.502648,16.993264 175.742039,16.9108931 C175.985288,16.8310971 176.26666,16.7897404 176.6103,16.7897404 Z M165.524831,16.8200286 C165.9354,16.8200286 166.291272,16.840505 166.595013,16.890701 C166.900043,16.9460435 167.060126,16.9839401 167.08972,16.9916615 L167.08972,21.7166155 C167.060126,21.7359224 167.012043,21.7637197 166.918087,21.80748 C166.827994,21.8486655 166.712534,21.8911109 166.574821,21.9387288 C166.431958,21.9863498 166.26416,22.0326528 166.080114,22.0699775 C165.89478,22.1098868 165.690371,22.1305538 165.484447,22.1305538 C165.149814,22.1305538 164.873195,22.0891971 164.636378,22.0094012 C164.396987,21.9283161 164.196442,21.7848584 164.040711,21.5853668 C163.884976,21.3884469 163.772095,21.1249835 163.697445,20.7877784 C163.62151,20.4505734 163.576292,20.0178225 163.576292,19.5055794 C163.576292,18.9830398 163.62151,18.5556391 163.697445,18.2132843 C163.772095,17.8709294 163.884976,17.5939098 164.040711,17.3854077 C164.196442,17.1781946 164.396787,17.0387948 164.646474,16.9512773 C164.892301,16.8650457 165.183765,16.8200286 165.524831,16.8200286 Z M157.791253,19.5964439 C157.989458,19.5964439 158.181393,19.6024853 158.366728,19.616636 C158.550773,19.6333809 158.713425,19.640285 158.861434,19.6570202 C159.006869,19.6686121 159.1346,19.6819615 159.234989,19.6974044 C159.330231,19.7115551 159.386042,19.7276926 159.406621,19.7276926 L159.406621,21.797384 C159.37832,21.8154018 159.313899,21.8496379 159.214796,21.8882485 C159.114404,21.9281481 158.986878,21.9705871 158.831146,22.0194972 C158.67284,22.0645434 158.508018,22.104611 158.316247,22.1406499 C158.128338,22.1728216 157.930171,22.1810341 157.730676,22.1810341 C157.501585,22.1810341 157.295205,22.1676912 157.104721,22.1406499 C156.912951,22.108475 156.745156,22.0526737 156.610014,21.9690169 C156.472301,21.8827853 156.362876,21.7550581 156.28694,21.5954629 C156.211005,21.4345818 156.175884,21.2331518 156.175884,20.9796035 C156.175884,20.4287465 156.303411,20.0543719 156.559534,19.8690374 C156.815654,19.6824138 157.231388,19.5964439 157.791253,19.5964439 Z M102.283139,25.3814837 L102.283139,28.5920294 C102.262559,28.581733 102.203085,28.5546174 102.10141,28.5314531 C102.004879,28.5069964 101.888537,28.4916665 101.737952,28.4607807 C101.593803,28.4350381 101.429869,28.4018843 101.243245,28.3800122 C101.057911,28.3568284 100.869633,28.3497241 100.677866,28.3497241 C99.5967483,28.3497241 98.7814134,28.647023 98.2447168,29.2583691 C97.7105918,29.8748649 97.4471284,30.8343423 97.4471284,32.1458409 C97.4471284,33.4431825 97.7084208,34.3882185 98.2245247,34.9828326 C98.7419176,35.5761608 99.4779993,35.8712855 100.435561,35.8712855 C100.70198,35.8712855 100.948628,35.8458595 101.172573,35.790517 C101.395232,35.7338854 101.584395,35.6694807 101.758144,35.598692 C101.929322,35.5240425 102.071493,35.4473674 102.182178,35.3765787 C102.290292,35.3070791 102.356871,35.2622752 102.394196,35.235234 L102.515348,35.6996525 L103.555242,35.6996525 L103.555242,25.3814837 L102.283139,25.3814837 Z M149.421623,25.3814837 L149.421623,35.6996525 L150.683629,35.6996525 L150.683629,30.0256693 C150.714515,30.0153729 150.777437,29.9813371 150.885551,29.9247087 C150.987225,29.869363 151.123365,29.806047 151.289393,29.7429797 C151.457995,29.6824906 151.645869,29.6277781 151.874964,29.5814428 C152.104059,29.533825 152.358227,29.5107704 152.622072,29.5107704 C153.138176,29.5107704 153.475546,29.635926 153.65187,29.8843245 C153.828197,30.1391586 153.914367,30.491771 153.914367,30.9242182 L153.914367,35.6996525 L155.18647,35.6996525 L155.18647,30.520376 C155.18647,29.7635918 154.983351,29.2146992 154.590803,28.8646229 C154.196966,28.5196964 153.633228,28.3497241 152.904762,28.3497241 C152.601017,28.3497241 152.324198,28.3727754 152.066789,28.4203964 C151.810666,28.4680175 151.583409,28.5251047 151.390353,28.5920294 C151.194722,28.6563825 151.04197,28.7197049 150.915839,28.7737584 C150.792282,28.8342507 150.714515,28.8667875 150.683629,28.884815 L150.683629,25.3814837 L149.421623,25.3814837 Z M108.562886,26.1285918 L108.562886,35.6996525 L109.885469,35.6996525 L109.885469,31.2876762 L113.77245,31.2876762 L113.77245,30.1367259 L109.885469,30.1367259 L109.885469,27.2896382 L114.1561,27.2896382 L114.1561,26.1285918 L108.562886,26.1285918 Z M93.560147,28.3497241 C93.2551169,28.3497241 92.9722626,28.3788104 92.7019823,28.4405886 C92.4304162,28.5023667 92.1874291,28.5665744 91.9750663,28.6425097 C91.7614176,28.7210198 91.5815495,28.7936371 91.4399753,28.8747189 C91.2971121,28.9532291 91.2038181,29.0141737 91.1471897,29.0463519 L91.0765173,28.521357 L90.0366236,28.521357 L90.0366236,35.6996525 L91.2986306,35.6996525 L91.2986306,30.0256693 C91.3256718,30.0153729 91.3950164,29.9813371 91.5005517,29.9247087 C91.6048043,29.869363 91.7383663,29.806047 91.9043939,29.7429797 C92.0704247,29.6824906 92.2709696,29.6277781 92.5000612,29.5814428 C92.7265811,29.533825 92.9706537,29.5107704 93.2370732,29.5107704 C93.7493164,29.5107704 94.0905437,29.635926 94.2668709,29.8843245 C94.44062,30.1391586 94.5293683,30.491771 94.5293683,30.9242182 L94.5293683,35.6996525 L95.8014713,35.6996525 L95.8014713,30.520376 C95.8014713,29.7635918 95.6033011,29.2146992 95.2159001,28.8646229 C94.8259242,28.5196964 94.2705927,28.3497241 93.560147,28.3497241 Z M118.12385,28.3497241 C117.091639,28.3497241 116.314201,28.6459342 115.791661,29.248273 C115.271697,29.8518944 115.004169,30.8079149 115.004169,32.1155528 C115.004169,32.8092697 115.079762,33.3911127 115.216186,33.8621704 C115.353903,34.3383779 115.557908,34.7233365 115.832046,35.0232168 C116.108762,35.3218113 116.448703,35.5468935 116.861843,35.6794604 C117.273698,35.812024 117.767193,35.8712855 118.325771,35.8712855 C118.637237,35.8712855 118.922466,35.8566502 119.194032,35.8309012 C119.465601,35.8000154 119.707299,35.7722149 119.920948,35.7400367 C120.134597,35.7078586 120.31209,35.6725402 120.445943,35.6390762 C120.577221,35.606898 120.670915,35.575043 120.718537,35.5583077 L120.809401,34.4679337 C120.784944,34.4756552 120.694917,34.487512 120.546904,34.518414 C120.401469,34.5480076 120.225264,34.5771004 120.021909,34.6092785 C119.815985,34.6427393 119.605056,34.6769786 119.365665,34.700143 C119.130135,34.7233074 118.898132,34.730415 118.669037,34.730415 C118.299657,34.730415 117.961486,34.7036968 117.679624,34.6496466 C117.393901,34.5891542 117.15586,34.4898284 116.962804,34.3366689 C116.767173,34.1770769 116.624116,33.9532772 116.518577,33.6804252 C116.413042,33.4011344 116.341113,33.0454657 116.316656,32.6001473 L121.152667,32.6001473 L121.152667,31.812655 C121.152667,30.5603596 120.902559,29.6788463 120.395463,29.1472963 C119.88708,28.6157656 119.130319,28.3497241 118.12385,28.3497241 Z M131.379971,28.3497241 C131.076227,28.3497241 130.785851,28.3788104 130.51171,28.4405886 C130.245291,28.5023667 129.998446,28.5665744 129.784794,28.6425097 C129.571146,28.7210198 129.392567,28.7936371 129.249703,28.8747189 C129.110704,28.9532291 129.01226,29.0141737 128.956918,29.0463519 L128.876149,28.521357 L127.846352,28.521357 L127.846352,35.6996525 L129.108359,35.6996525 L129.108359,30.0256693 C129.13666,30.0153729 129.204741,29.9813371 129.31028,29.9247087 C129.414529,29.869363 129.548091,29.806047 129.714122,29.7429797 C129.88015,29.6824906 130.083269,29.6277781 130.309789,29.5814428 C130.536309,29.533825 130.782957,29.5107704 131.046801,29.5107704 C131.56033,29.5107704 131.900275,29.635926 132.076599,29.8843245 C132.252923,30.1391586 132.339096,30.491771 132.339096,30.9242182 L132.339096,35.6996525 L133.611199,35.6996525 L133.611199,30.520376 C133.611199,29.7635918 133.413029,29.2146992 133.025628,28.8646229 C132.634367,28.5196964 132.091706,28.3497241 131.379971,28.3497241 Z M137.639526,28.3497241 C136.851458,28.3922189 136.271295,28.5862234 135.892908,28.9251992 C135.460461,29.3151751 135.24676,29.8229114 135.24676,30.4497036 C135.24676,31.0468926 135.399516,31.5158503 135.721275,31.8530553 C136.035316,32.1889745 136.460743,32.4052466 136.983282,32.4992029 L137.821255,32.6708358 C138.341219,32.7647889 138.703127,32.8899445 138.911629,33.0443899 C139.120131,33.1949746 139.234702,33.4500316 139.234702,33.8116901 C139.234702,34.2274053 139.09233,34.4958182 138.820764,34.6193746 C138.551773,34.7429309 138.102403,34.8111996 137.467893,34.8111996 C137.249094,34.8111996 137.028273,34.7976628 136.791457,34.7809276 C136.562362,34.7577632 136.333619,34.7347119 136.125117,34.7102552 C135.916618,34.6870908 135.744472,34.6689987 135.590026,34.6496789 C135.439442,34.6303914 135.334766,34.6183084 135.287145,34.6092947 L135.135704,35.5987081 C135.173029,35.6115664 135.259202,35.6309832 135.398201,35.6592844 C135.541065,35.6863257 135.722215,35.7115384 135.933292,35.7501489 C136.146941,35.7797425 136.396163,35.8165568 136.670304,35.8410134 C136.947017,35.8693147 137.247094,35.8712855 137.568853,35.8712855 C138.468497,35.8712855 139.171632,35.7049768 139.689025,35.3664827 C140.206415,35.0215562 140.466421,34.4627646 140.466421,33.6905375 C140.466421,33.1255234 140.326621,32.6712106 140.052483,32.3275699 C139.775767,31.9800686 139.280298,31.7357925 138.558267,31.6006539 L137.659718,31.4189249 C137.433198,31.3803112 137.238688,31.3443078 137.084243,31.2876762 C136.925936,31.2374835 136.809591,31.1668369 136.720785,31.0857551 C136.628117,31.0046701 136.561335,30.9100902 136.518863,30.7929695 C136.476376,30.6784237 136.458287,30.5411981 136.458287,30.3790312 C136.458287,30.1808255 136.494698,30.0168881 136.569344,29.8843245 C136.642707,29.7581933 136.754704,29.6597527 136.892418,29.5915389 C137.03142,29.5194644 137.186747,29.4772354 137.366932,29.4501941 C137.545831,29.4283026 137.743801,29.4098099 137.962599,29.4098099 C138.151795,29.4098099 138.352139,29.4246551 138.568363,29.4400981 C138.789733,29.4581159 138.996316,29.4788023 139.184222,29.5006744 C139.375992,29.5251278 139.543787,29.5455978 139.678929,29.5713468 C139.817928,29.593235 139.903905,29.6203571 139.951522,29.6319231 L140.143347,28.6324136 C140.103451,28.6234031 140.014703,28.5939194 139.88085,28.5617412 C139.745708,28.5282772 139.590584,28.4955305 139.396239,28.4607807 C139.200608,28.4273167 138.983248,28.4044689 138.739996,28.3800122 C138.498033,28.3568575 138.249008,28.3497241 137.992888,28.3497241 C137.871906,28.3497241 137.752107,28.3436535 137.639526,28.3497241 Z M144.777437,28.3497241 C143.742651,28.3497241 142.967788,28.6459342 142.445248,29.248273 C141.922709,29.8518944 141.657756,30.8079149 141.657756,32.1155528 C141.657756,32.8092697 141.733349,33.3911127 141.869773,33.8621704 C142.00749,34.3383779 142.211491,34.7233365 142.485632,35.0232168 C142.759773,35.3218113 143.10229,35.5468935 143.51543,35.6794604 C143.929859,35.812024 144.418205,35.8712855 144.979358,35.8712855 C145.290821,35.8712855 145.586149,35.8566502 145.857715,35.8309012 C146.129281,35.8000154 146.360886,35.7722149 146.574535,35.7400367 C146.788184,35.7078586 146.965677,35.6725402 147.09953,35.6390762 C147.233382,35.606898 147.327077,35.575043 147.372123,35.5583077 L147.462988,34.4679337 C147.435946,34.4756552 147.356024,34.487512 147.210586,34.518414 C147.062577,34.5480076 146.881423,34.5771004 146.675495,34.6092785 C146.472143,34.6427393 146.258643,34.6769786 146.019252,34.700143 C145.783721,34.7233074 145.549144,34.730415 145.322624,34.730415 C144.950669,34.730415 144.617648,34.7036968 144.33321,34.6496466 C144.050059,34.5891542 143.809447,34.4898284 143.616391,34.3366689 C143.422046,34.1770769 143.277703,33.9532772 143.172164,33.6804252 C143.0692,33.4011344 142.997284,33.0454657 142.970243,32.6001473 L147.806254,32.6001473 L147.806254,31.812655 C147.806254,30.5603596 147.556146,29.6788463 147.049049,29.1472963 C146.540667,28.6157656 145.781331,28.3497241 144.777437,28.3497241 Z M159.951808,28.3497241 C158.917026,28.3497241 158.142159,28.6459342 157.61962,29.248273 C157.09708,29.8518944 156.832127,30.8079149 156.832127,32.1155528 C156.832127,32.8092697 156.895046,33.3911127 157.034048,33.8621704 C157.171762,34.3383779 157.383291,34.7233365 157.660004,35.0232168 C157.934145,35.3218113 158.274086,35.5468935 158.689802,35.6794604 C159.099084,35.812024 159.590005,35.8712855 160.15373,35.8712855 C160.465195,35.8712855 160.752999,35.8566502 161.02199,35.8309012 C161.290985,35.8000154 161.535258,35.7722149 161.748906,35.7400367 C161.962558,35.7078586 162.141334,35.6725402 162.273901,35.6390762 C162.407754,35.606898 162.488778,35.575043 162.536399,35.5583077 L162.637359,34.4679337 C162.607766,34.4756552 162.5203,34.487512 162.374862,34.518414 C162.226852,34.5480076 162.053219,34.5771004 161.849867,34.6092785 C161.646515,34.6427393 161.420344,34.6769786 161.183527,34.700143 C160.945425,34.7233074 160.715991,34.730415 160.486899,34.730415 C160.117516,34.730415 159.790734,34.7036968 159.507582,34.6496466 C159.223148,34.5891542 158.986393,34.4898284 158.790762,34.3366689 C158.595131,34.1770769 158.449499,33.9532772 158.346536,33.6804252 C158.241,33.4011344 158.174208,33.0454657 158.144615,32.6001473 L162.980625,32.6001473 L162.980625,31.812655 C162.980625,30.5603596 162.726657,29.6788463 162.223421,29.1472963 C161.712464,28.6157656 160.955702,28.3497241 159.951808,28.3497241 Z M168.119517,28.3497241 C167.815776,28.3497241 167.532919,28.3788104 167.261353,28.4405886 C166.992361,28.5023667 166.748085,28.5665744 166.534437,28.6425097 C166.320785,28.7210198 166.139634,28.7936371 165.999346,28.8747189 C165.8552,28.9532291 165.754382,29.0141737 165.696464,29.0463519 L165.625792,28.521357 L164.585898,28.521357 L164.585898,35.6996525 L165.858001,35.6996525 L165.858001,30.0256693 C165.888887,30.0153729 165.953098,29.9813371 166.059922,29.9247087 C166.162886,29.869363 166.297737,29.806047 166.463764,29.7429797 C166.629792,29.6824906 166.822816,29.6277781 167.049336,29.5814428 C167.27843,29.533825 167.530024,29.5107704 167.796444,29.5107704 C168.307401,29.5107704 168.649917,29.635926 168.826241,29.8843245 C169.002569,30.1391586 169.088739,30.491771 169.088739,30.9242182 L169.088739,35.6996525 L170.350746,35.6996525 L170.350746,30.520376 C170.350746,29.7635918 170.152575,29.2146992 169.765174,28.8646229 C169.376488,28.5196964 168.831252,28.3497241 168.119517,28.3497241 Z M125.736276,28.3699162 C125.523913,28.3699162 125.323569,28.4054349 125.130513,28.4607807 C124.936168,28.5212698 124.761453,28.5790451 124.595422,28.6627018 C124.429394,28.742501 124.284848,28.8312461 124.161291,28.9251992 C124.037735,29.0140057 123.944241,29.0879089 123.878602,29.1574085 L123.80793,28.521357 L122.75794,28.521357 L122.75794,35.6996525 L124.030043,35.6996525 L124.030043,30.0660535 C124.050623,30.0480357 124.106434,30.006679 124.201676,29.9449008 C124.296918,29.8818336 124.419699,29.82495 124.565134,29.7631718 C124.714433,29.7026827 124.882027,29.6430207 125.069936,29.5915389 C125.260418,29.54133 125.467001,29.5107704 125.685796,29.5107704 C125.921326,29.5107704 126.10594,29.5290726 126.241079,29.5612507 C126.380081,29.5972864 126.468626,29.6214394 126.513672,29.6420192 L126.745882,28.521357 C126.698264,28.4994784 126.598932,28.469103 126.432904,28.4304925 C126.264298,28.39058 126.029724,28.3699162 125.736276,28.3699162 Z M82.2626608,28.521357 L82.2626608,33.6400572 C82.2626608,34.4277304 82.4582594,34.9949284 82.848232,35.3462906 C83.235633,35.6976527 83.7821543,35.8712855 84.4938891,35.8712855 C84.8066439,35.8712855 85.1032547,35.8422088 85.3722459,35.780421 C85.6438121,35.717357 85.8867991,35.6494856 86.0991619,35.5684038 C86.3140965,35.4898936 86.4877292,35.4134156 86.6241568,35.3361945 C86.7618703,35.2589702 86.8517042,35.2029589 86.8967503,35.1746576 L86.9876148,35.6996525 L88.0275086,35.6996525 L88.0275086,28.521357 L86.7655016,28.521357 L86.7655016,34.1953402 C86.735908,34.21592 86.6665441,34.244819 86.5635805,34.2963008 C86.4567562,34.3516433 86.3257659,34.4048697 86.1597383,34.4679337 C85.9937074,34.5297119 85.7918768,34.5932314 85.564071,34.6395667 C85.337551,34.6871878 85.0921894,34.7102391 84.8270589,34.7102391 C84.3058052,34.7102391 83.9596285,34.5887472 83.7871652,34.3467811 C83.6172769,34.1035324 83.5246678,33.7524061 83.5246678,33.2967913 L83.5246678,28.521357 L82.2626608,28.521357 Z M118.12385,29.3896178 C118.435316,29.3896178 118.705215,29.4197929 118.921439,29.4905783 C119.140237,29.561367 119.326337,29.684148 119.466626,29.8540363 C119.610775,30.0239279 119.713964,30.2561307 119.779603,30.5405681 C119.843956,30.8262913 119.870468,31.1735536 119.870468,31.5905579 L116.316656,31.5905579 C116.324378,31.18385 116.37197,30.8400478 116.447905,30.5607602 C116.51998,30.2801836 116.628116,30.0479808 116.770979,29.8742284 C116.915128,29.6966186 117.092217,29.5778987 117.316166,29.5006744 C117.537536,29.427314 117.812384,29.3896178 118.12385,29.3896178 Z M144.777437,29.3896178 C145.088899,29.3896178 145.356227,29.4197929 145.575025,29.4905783 C145.793824,29.561367 145.982499,29.684148 146.120212,29.8540363 C146.264361,30.0239279 146.368837,30.2561307 146.43319,30.5405681 C146.498829,30.8262913 146.534151,31.1735536 146.534151,31.5905579 L142.970243,31.5905579 C142.977964,31.18385 143.025556,30.8400478 143.101492,30.5607602 C143.176141,30.2801836 143.284277,30.0479808 143.424565,29.8742284 C143.568715,29.6966186 143.745804,29.5778987 143.969752,29.5006744 C144.193698,29.427314 144.463396,29.3896178 144.777437,29.3896178 Z M159.951808,29.3896178 C160.263274,29.3896178 160.531887,29.4197929 160.749397,29.4905783 C160.97077,29.561367 161.144199,29.684148 161.284488,29.8540363 C161.428637,30.0239279 161.531827,30.2561307 161.597466,30.5405681 C161.661819,30.8262913 161.698426,31.1735536 161.698426,31.5905579 L158.144615,31.5905579 C158.154921,31.18385 158.189832,30.8400478 158.265767,30.5607602 C158.342992,30.2801836 158.45736,30.0479808 158.598937,29.8742284 C158.741797,29.6966186 158.917604,29.5778987 159.144124,29.5006744 C159.365494,29.427314 159.635196,29.3896178 159.951808,29.3896178 Z M100.475945,29.4602902 C100.555722,29.4551016 100.632339,29.4602902 100.71825,29.4602902 C101.124955,29.4602902 101.487266,29.4781949 101.788432,29.5309626 C102.096037,29.5824444 102.256098,29.611521 102.283139,29.6218271 L102.283139,34.3467811 C102.256098,34.3686532 102.194077,34.4052703 102.10141,34.4477416 C102.012604,34.4889271 101.898432,34.5326551 101.758144,34.5789903 C101.615281,34.6266114 101.450058,34.6729144 101.263437,34.7102391 C101.079389,34.7501322 100.886365,34.7607193 100.677866,34.7607193 C100.348383,34.7607193 100.059089,34.7193627 99.8197015,34.6395667 C99.5828852,34.5584816 99.3924364,34.4238342 99.2341302,34.2256284 C99.0783958,34.0248477 98.9554177,33.755149 98.8807683,33.417944 C98.8022581,33.0820248 98.7697117,32.6567983 98.7697117,32.1458409 C98.7697117,31.6233014 98.8022581,31.1946148 98.8807683,30.8535458 C98.9554177,30.5124801 99.0783958,30.2341714 99.2341302,30.0256693 C99.3924364,29.8184562 99.5914918,29.6689635 99.8398936,29.5814428 C100.023296,29.5177359 100.236615,29.4758552 100.475945,29.4602902 Z"/>
  </g>
</svg>
