<svg xmlns="http://www.w3.org/2000/svg" width="178" height="42" viewBox="0 0 178 42">
  <g fill="#293D66">
    <path d="M-5.71986902e-14,-2.48689958e-14 L-5.71986902e-14,41.3154 L41.315925,41.3154 L41.315925,-2.48689958e-14 L-5.71986902e-14,-2.48689958e-14 Z M39.626475,39.625425 C37.68345,39.625425 3.633,39.625425 1.68945,39.625425 C1.68945,37.6824 1.68945,3.633 1.68945,1.688925 C3.633,1.688925 37.68345,1.688925 39.626475,1.688925 C39.626475,3.633525 39.626475,37.6824 39.626475,39.625425 Z"/>
    <polygon points="36.714 5.253 21.14 5.253 11.704 20.657 21.14 36.065 36.714 36.065 27.279 20.657"/>
    <path d="M61.8581125,21.3403904 C60.596128,20.8486981 59.9029846,20.6284827 58.6162449,20.6284827 C57.2304847,20.6284827 55.5961199,21.1191288 55.5961199,22.9143288 C55.5961199,26.2081442 63.0216033,25.444975 63.0216033,31.0983904 C63.0216033,34.760975 60.1758176,36.2104212 56.7101004,36.2104212 C55.4976261,36.2104212 54.3088536,35.8672827 53.1711713,35.4979904 L53.4187225,33.2121442 C54.25987,33.5563288 55.7451774,34.0480212 57.0071619,34.0480212 C58.4182039,34.0480212 60.3975603,33.2613135 60.3975603,31.2458981 C60.3975603,27.4117442 52.9731303,28.4688827 52.9731303,23.1355904 C52.9731303,20.0870981 55.3986057,18.4655596 58.5166977,18.4655596 C59.65596,18.4655596 61.0159117,18.6611904 62.2036308,19.0791288 L61.8581125,21.3403904 Z"/>
    <polygon points="80.446 35.917 77.75 35.917 74.482 25.397 74.433 25.397 71.24 35.917 68.542 35.917 64.483 23.381 67.031 23.381 69.927 33.753 69.978 33.753 73.195 23.381 75.941 23.381 79.11 33.753 79.16 33.753 82.228 23.381 84.505 23.381"/>
    <path d="M92.7240635 33.4585135C93.6389496 34.0480212 94.9514978 34.3425135 95.6193594 34.3425135 96.683303 34.3425135 97.9958512 33.8999904 97.9958512 32.5488827 97.9958512 30.2635596 92.5254958 30.4591904 92.5254958 26.9446365 92.5254958 24.3402365 94.4811505 23.0848519 96.9808912 23.0848519 98.0701166 23.0848519 98.9597209 23.3066365 99.8767138 23.5765442L99.6781461 25.5919596C99.1582886 25.2728827 97.7725284 24.9527596 97.2284424 24.9527596 96.0396698 24.9527596 95.0010081 25.4439288 95.0010081 26.4780519 95.0010081 29.0343288 100.469783 28.2967904 100.469783 32.3025135 100.469783 34.9811904 98.3171411 36.2104212 96.0649516 36.2104212 94.8777592 36.2104212 93.6658116 36.0880212 92.6008146 35.522575L92.7240635 33.4585135zM102.666142 33.4585135C103.581555 34.0480212 104.89305 34.3425135 105.561965 34.3425135 106.626435 34.3425135 107.93793 33.8999904 107.93793 32.5488827 107.93793 30.2635596 102.469155 30.4591904 102.469155 26.9446365 102.469155 24.3402365 104.423756 23.0848519 106.923496 23.0848519 108.011142 23.0848519 108.903906 23.3066365 109.818792 23.5765442L109.620225 25.5919596C109.100894 25.2728827 107.715134 24.9527596 107.169468 24.9527596 105.982275 24.9527596 104.943087 25.4439288 104.943087 26.4780519 104.943087 29.0343288 110.413442 28.2967904 110.413442 32.3025135 110.413442 34.9811904 108.258693 36.2104212 106.008084 36.2104212 104.819311 36.2104212 103.60631 36.0880212 102.542893 35.522575L102.666142 33.4585135zM121.080266 25.4946673C120.189609 25.1264212 119.298424 24.9538058 118.555771 24.9538058 115.956483 24.9538058 114.497511 27.2647596 114.497511 29.6484212 114.497511 31.884575 115.709458 34.3435596 118.704301 34.3435596 119.496992 34.3435596 120.485617 34.0982365 121.204042 33.6311288L121.376274 35.6957135C120.410825 36.1382365 119.298424 36.2114673 118.456223 36.2114673 114.645515 36.2114673 112.021998 33.237775 112.021998 29.6484212 112.021998 25.8398981 114.595478 23.0858981 118.456223 23.0858981 119.396391 23.0858981 120.609392 23.3076827 121.276727 23.5775904L121.080266 25.4946673zM124.496473 24.2654365C125.660491 23.5775904 127.046778 23.085375 128.65428 23.085375 132.269055 23.085375 133.729081 24.8554673 133.729081 28.2722058L133.729081 33.4585135C133.729081 34.8838981 133.778064 35.5482058 133.828101 35.9164519L131.650177 35.9164519 131.650177 34.2933442 131.599613 34.2933442C131.056054 35.0559904 129.818298 36.2109442 127.689357 36.2109442 124.966821 36.2109442 123.061203 35.0303596 123.061203 32.3030365 123.061203 29.1567288 126.52692 28.1738673 128.92764 28.1738673 129.842526 28.1738673 130.48616 28.1738673 131.402626 28.2225135 131.402626 26.0595904 130.609408 24.9532827 128.284007 24.9532827 126.971459 24.9532827 125.560944 25.4444519 124.621302 26.2311596L124.496473 24.2654365zM131.403153 29.9439596C130.906997 29.9439596 130.412948 29.8953135 129.916792 29.8953135 128.654807 29.8953135 125.536188 30.0909442 125.536188 32.3035596 125.536188 33.6306058 126.823982 34.3430365 127.888979 34.3430365 130.190152 34.3430365 131.403679 32.918175 131.403679 31.0497442L131.403679 29.9439596 131.403153 29.9439596zM137.323314 23.3814365L139.574976 23.3814365 139.574976 25.3727904 139.62554 25.3727904C140.318684 23.9463596 142.001505 23.0858981 143.759119 23.0858981 147.025742 23.0858981 148.485241 25.1018365 148.485241 28.4694058L148.485241 35.916975 146.159839 35.916975 146.159839 29.4276827C146.159839 26.5021135 145.516206 25.0762058 143.487339 24.9532827 140.838014 24.9532827 139.650822 27.0686058 139.650822 30.1150058L139.650822 35.9164519 137.32384 35.9164519 137.32384 23.3814365 137.323314 23.3814365zM158.493684 25.2493442L155.153322 25.2493442 155.153322 32.1058365C155.153322 33.5563288 156.04398 34.3425135 157.107397 34.3425135 157.825822 34.3425135 158.34568 34.1212519 158.692252 33.8999904L158.692252 35.8672827C158.172921 36.0137442 157.454495 36.2104212 156.711842 36.2104212 154.311122 36.2104212 152.827394 35.0800519 152.827394 32.5729442L152.827394 25.2493442 149.980555 25.2493442 149.980555 23.3814365 152.827394 23.3814365 152.827394 20.4804519 155.153322 19.7434365 155.153322 23.3814365 158.493684 23.3814365 158.493684 25.2493442zM166.298921 23.085375C170.134385 23.085375 172.707338 25.839375 172.707338 29.6478981 172.707338 33.2372519 170.084875 36.2109442 166.298921 36.2109442 162.486633 36.2109442 159.863116 33.2372519 159.863116 29.6478981 159.863116 25.839375 162.437649 23.085375 166.298921 23.085375zM166.298921 34.3430365C169.020405 34.3430365 170.233932 31.884575 170.233932 29.6478981 170.233932 27.2642365 168.77338 24.9532827 166.298921 24.9532827 163.799181 24.9532827 162.338102 27.2642365 162.338102 29.6478981 162.338102 31.884575 163.550049 34.3430365 166.298921 34.3430365z"/>
    <polygon points="89.202 20.652 87.049 20.652 87.049 17.994 89.202 17.994"/>
    <polygon points="87.17 23.512 89.081 23.512 89.081 36.302 87.17 36.302"/>
  </g>
</svg>
