<svg xmlns="http://www.w3.org/2000/svg" width="116" height="42" viewBox="0 0 116 42">
  <g fill="#293D66" fill-rule="evenodd" transform="translate(1 6)">
    <polyline points="39.267 13.781 43.783 13.781 43.783 26.697 47.342 26.697 47.342 13.781 51.857 13.781 51.858 10.759 39.267 10.759 39.267 13.781"/>
    <path d="M20.2645075,26.3709783 C20.2068537,26.4281087 19.8048358,27.0252391 19.1542836,27.0252391 C18.4655552,27.0252391 18.0830149,26.4288913 18.0635373,26.4093261 L15.6140328,22.6363696 L13.9872627,20.2689783 C12.9915672,18.7679348 11.7862925,16.9968913 11.7862925,16.9968913 C11.4037522,16.4381087 10.5233642,14.8024565 11.5377582,12.7042826 C12.4368448,10.8753261 14.101791,10.0864565 15.6327313,10.0864565 C17.1636716,10.0864565 18.9049701,10.9332391 19.709006,12.7042826 C20.7039224,14.8791522 19.8430119,16.4764565 19.440994,17.0540217 L17.2789791,20.3065435 L19.1542836,23.1928043 L22.8285403,17.7849783 L22.8285403,17.8248913 L26.0049493,17.8248913 L20.2645075,26.3709783 Z M13.2034836,26.3889783 C13.1458299,26.4664565 12.7632896,27.0432391 12.0932597,27.0432391 C11.4232299,27.0432391 11.021991,26.4468913 10.9643373,26.3701957 L4.66839403,16.9953261 C4.28585373,16.4373261 3.40546567,14.8016739 4.4198597,12.7035 C5.31894627,10.8745435 6.98389254,10.0856739 8.51483284,10.0856739 C9.08903284,10.0856739 9.72010746,10.2202826 10.2943075,10.4707174 L9.0313791,12.7997609 C8.85919701,12.7426304 8.68701493,12.7230652 8.49535522,12.7230652 C6.98311343,12.7230652 6.23673134,14.3587174 6.90676119,15.4559348 C7.53861493,16.4764565 8.49535522,17.9391522 8.49535522,17.9391522 L12.0932597,23.0206304 L12.0940388,23.021413 L13.4714955,21.0766304 L15.0982657,23.4831522 L13.2034836,26.3889783 Z M30.2728836,8.33419565 L16.2271881,0.173152174 C15.8251701,-0.0577173913 15.1746179,-0.0577173913 14.7726,0.173152174 L0.726904478,8.33419565 C0.325665672,8.56506522 0,9.12384783 0,9.58558696 L0,25.9076739 C0,26.3701957 0.324886567,26.9281957 0.726904478,27.1590652 L14.7726,35.3201087 C15.1746179,35.5509783 15.8251701,35.5509783 16.2271881,35.3201087 L30.2728836,27.1590652 C30.6741224,26.9281957 30.9997881,26.369413 30.9997881,25.9076739 L30.9997881,9.58558696 C30.9997881,9.12306522 30.6749015,8.56506522 30.2728836,8.33419565 L30.2728836,8.33419565 Z"/>
    <polyline points="67.237 18.804 67.102 19.723 66.928 18.804 64.029 10.293 62.87 10.293 59.971 18.804 59.797 19.723 59.682 18.804 57.517 10.293 54 10.293 58.541 26.493 59.991 26.493 63.334 17.434 63.45 16.711 63.45 16.711 63.566 17.434 66.909 26.493 68.359 26.493 72.9 10.293 69.402 10.293 67.237 18.804"/>
    <path d="M15.3002154,12.9930652 C13.8172119,12.9930652 13.0852607,14.6863885 13.7423359,15.8222925 C14.3619731,16.8787967 15.3002154,18.3930652 15.3002154,18.3930652 C15.3002154,18.3930652 16.2575587,16.8787967 16.8580949,15.8222925 C17.5144061,14.6871988 16.7824548,12.9930652 15.3002154,12.9930652"/>
    <polyline points="97.2 10.293 97.2 13.365 101.726 13.365 101.726 26.493 105.292 26.493 105.292 13.365 109.799 13.365 109.8 10.293 97.2 10.293"/>
    <polygon points="75.6 26.493 79.2 26.493 79.2 10.293 75.6 10.293"/>
    <path d="M89.0709912,10.2930652 C85.0399229,10.2930652 82.8,12.7966455 82.8,16.4201267 L82.8,26.4930652 L86.3830838,26.4930652 L86.3830838,16.3445411 C86.3830838,14.7703553 87.337727,13.5563579 89.109843,13.5563579 C90.881959,13.5563579 91.8167799,14.9978833 91.8167799,16.3445411 L91.8167799,26.4930652 L95.3998637,26.4930652 L95.3998637,16.4201267 C95.4204789,12.7966455 93.1020596,10.2930652 89.0709912,10.2930652"/>
  </g>
</svg>
