<svg xmlns="http://www.w3.org/2000/svg" xmlns:xlink="http://www.w3.org/1999/xlink" width="100" height="50" viewBox="0 0 100 50">
  <defs>
    <polygon id="uniqa-re-100w-a" points=".009 .099 98.43 .099 98.43 49.66 .009 49.66"/>
  </defs>
  <g fill="none" fill-rule="evenodd">
    <g transform="translate(1)">
      <mask id="uniqa-re-100w-b" fill="#fff">
        <use xlink:href="#uniqa-re-100w-a"/>
      </mask>
      <path fill="#293D66" d="M49.5599021,48.971187 L97.741826,48.971187 L97.741826,0.78838153 L49.5599021,0.78838153 L49.5599021,48.971187 Z M0,0.0994659515 L0,49.6595149 L98.4303008,49.6595149 L98.4303008,0.10020056 L0,0.0994659515 L0,0.0994659515 Z" mask="url(#uniqa-re-100w-b)"/>
    </g>
    <path fill="#293D66" d="M58.5679922 35.7268394L59.3152187 35.7268394C61.0000312 35.7268394 61.3125078 34.5155413 61.3125078 33.7385791 61.3125078 32.6062787 60.5788672 32.1717913 59.695625 32.1717913L58.5679922 32.1717913 58.5679922 35.7268394zM57.25 31.25L59.9674999 31.25C61.5161407 31.25 62.7256015 32.0269621 62.7256015 33.6200826 62.7256015 34.9763612 62.0461485 35.7400057 61.1358906 36.306156L63.5 40.2300115 62.1684219 40.625 59.9674999 36.6486307 58.5679922 36.6486307 58.5679922 40.4670046 57.25 40.4670046 57.25 31.25 57.25 31.25zM68.543898 36.8558072C68.543898 35.9255045 68.0656289 35.1383253 66.9206817 35.1383253 65.5291869 35.1383253 64.9782862 36.0924819 64.9349738 36.8558072L68.543898 36.8558072zM64.8478492 37.5715617C64.8333562 38.7643946 65.862526 39.8616747 67.2973332 39.8616747 67.9641779 39.8616747 68.775786 39.6589164 69.2830411 39.3488155L69.6600258 39.9332365C68.9063897 40.3745339 68.0076569 40.625 67.2540208 40.625 64.9927792 40.625 63.5 39.4800121 63.5 37.3807304 63.5 35.3172297 65.2972989 34.375 66.9351747 34.375 69.1381111 34.375 69.8774208 36.0089932 69.7324908 37.5715617L64.8478492 37.5715617 64.8478492 37.5715617z"/>
    <path fill="#FFFFFE" d="M5.6875,31.25 L7.35295935,31.25 L7.35295935,36.3347356 C7.35295935,38.0140167 8.32194599,39.0206266 9.59367768,39.0206266 C10.8795847,39.0206266 11.8341067,38.0140167 11.8341067,36.3347356 L11.8341067,31.25 L13.5,31.25 L13.5,36.7001354 C13.5,38.8171772 11.9679047,40.625 9.59367768,40.625 C7.21916137,40.625 5.6875,38.8171772 5.6875,36.7001354 L5.6875,31.25"/>
    <polyline fill="#FFFFFE" points="22.875 40.625 22.875 31.25 21.131 31.25 21.131 37.099 16.015 31.25 15.063 31.25 15.063 40.61 16.806 40.61 16.806 34.785 21.911 40.625 22.875 40.625"/>
    <polygon fill="#FFFFFE" points="24.438 40.625 26 40.625 26 31.25 24.438 31.25"/>
    <path fill="#FFFFFE" d="M32.2495721 39.1535842C30.5684963 39.1535842 29.2060632 37.7134261 29.2060632 35.9377881 29.2060632 34.1607096 30.5684963 32.7218479 32.2495721 32.7218479 33.9315037 32.7218479 35.2933662 34.1607096 35.2933662 35.9377881 35.2933662 36.5446481 35.1349007 37.1121839 34.8573363 37.5966059L33.848919 36.5784986 32.77974 37.6588332 33.8105507 38.6988354C33.3539816 38.9872127 32.8199626 39.1535842 32.2495721 39.1535842zM36.9375 35.9377881C36.9375 33.348442 34.8390792 31.25 32.2495721 31.25 29.6614913 31.25 27.5625 33.348442 27.5625 35.9377881 27.5625 38.5258378 29.6614913 40.625 32.2495721 40.625 33.2348828 40.625 34.1484489 40.3207778 34.9022658 39.8020731L35.6664949 40.573432 36.7359592 39.4939616 35.9988304 38.7506914C36.5879058 37.9668006 36.9375 36.9929149 36.9375 35.9377881L36.9375 35.9377881zM40.2232434 37.3174839L41.6419854 33.9454332 43.0170286 37.3174839 40.2232434 37.3174839zM44.3652041 40.625L46.3125 40.625 42.2891281 31.25 41.0660268 31.25 36.9375 40.625 38.8319869 40.625 39.5753286 38.8591111 43.6440977 38.8591111 44.3652041 40.625 44.3652041 40.625zM19.75 26.5625L10.375 26.5625 11.4494299 25 16.9568932 25C17.197801 25.1823643 17.4495285 25.3554539 17.7098843 25.5192689 18.3268769 25.9065696 19.0118002 26.2689516 19.75 26.5625M21.9649768 12.5C21.6298963 12.7831397 19.4890458 16.9651176 22.1225993 20.6462379 22.8652878 21.6843154 23.950476 22.9492393 25.2212984 23.6904842 26.5452674 24.4621577 27.4287714 24.6575104 27.9955161 24.8123929 28.9947008 25.0851868 30.5420063 25.1983818 32.5356819 25.3060997 34.1503668 25.3938867 37.4546869 25.4133611 38.0321821 25.4113832L38.6473795 25.4141218 40.0625 28.1234994C40.0625 28.1234994 35.2599328 28.145256 33.0282335 28.0230845 30.5170229 27.8879807 28.5678632 27.7446612 27.3091539 27.4009683 26.59478 27.2063763 25.4820343 26.9599033 23.8155656 25.9886169 22.2132967 25.0541494 20.5712057 23.420581 19.7188931 22.0564593 17.6634404 18.7681743 18.1794612 16.5601107 18.4495848 15.4766943 19.0354077 14.6592255 19.7929348 13.8759889 20.6098164 13.2929737 21.2016959 12.8652974 21.5723588 12.6968741 21.9649768 12.5"/>
    <path fill="#FFFFFE" d="M24.6907657,26.4037385 C24.0730921,26.5132072 23.471657,26.5633391 22.910052,26.5625 C20.8560422,26.558949 18.9215228,25.6693211 17.3241809,24.5324326 C15.4077383,23.1699509 14.0067896,21.272871 13.6523014,19.2079769 C13.600369,18.9683636 13.5769305,18.7235106 13.5389387,18.3830672 C13.3964693,16.9688958 13.6155351,15.1919058 14.6892638,13.4898303 C15.6173061,12.0198625 17.0006376,10.7461736 19.2796877,9.86461775 C20.2305557,9.49641771 22.2724633,9.08375044 24.6363822,9.66409035 C27.1207108,10.2964031 29.2909939,11.7220453 30.6875,13.5917934 C30.6875,13.5917934 28.5454043,11.0183584 24.8804185,10.7233735 C24.7152766,10.7099201 24.5490623,10.7019896 24.3828481,10.6990157 C22.5725681,10.6664441 20.8405697,11.2418275 19.3979526,12.1999973 C18.476038,12.8062528 17.665801,13.5681437 17.0387826,14.445451 C17.004161,14.4943084 16.893709,14.6452704 16.7469502,14.8853085 L16.7034435,14.9569659 C16.6723453,15.0092219 16.6401748,15.0636023 16.6075447,15.1225143 C16.1632855,15.9089046 15.5419352,17.3181194 15.5172712,19.0965256 C15.4860198,21.3880043 16.5969744,23.0395231 17.0131994,23.5963549 C17.0240761,23.6112245 18.0581279,24.2569907 19.6226865,24.5321494 C20.2567517,24.6436007 20.8549698,24.663002 21.3637233,24.6492654 C21.7931229,24.969741 22.2456546,25.2634513 22.7151907,25.5148187 C23.4750272,25.922671 24.1294671,26.2015117 24.6907657,26.4037385"/>
    <path fill="#FFFFFE" d="M29.1303577,12.5 C30.3705824,13.300357 32.1570966,15.8108108 32.2383721,18.0919582 C32.3694253,20.2698338 31.3634653,22.3963789 30.6931533,23.4375 C29.6053554,23.3519493 28.7800857,23.2463859 28.2087667,23.0765067 C28.0308887,23.024718 27.8171538,22.9678879 27.5625,22.88249 C28.2756995,22.1695169 29.3355151,20.8269825 29.8723833,18.7649059 C30.6141277,15.8862787 29.882367,13.9308349 29.1303577,12.5"/>
  </g>
</svg>
