<?xml version="1.0" encoding="UTF-8"?>
<svg width="95px" height="50px" viewBox="0 0 95 50" version="1.1" xmlns="http://www.w3.org/2000/svg" xmlns:xlink="http://www.w3.org/1999/xlink">
    <title>verit-95w</title>
    <g id="verit-95w" stroke="none" stroke-width="1" fill="none" fill-rule="evenodd">
        <g id="Group" transform="translate(0.000000, 10.000000)" fill="#293D66" fill-rule="nonzero">
            <path d="M70.372093,8.14418605 C72.2697674,7.82790698 74.0093023,6.48372093 74.0093023,4.03255814 C74.0093023,0.237209302 70.2930233,0.237209302 68.4744186,0.237209302 L61.7534884,0.237209302 L61.3581395,0.237209302 L61.3581395,13.7581395 L66.1023256,13.7581395 C66.1023256,13.7581395 66.1023256,10.9116279 66.1023256,9.56744186 C66.972093,10.8325581 69.027907,13.7581395 69.027907,13.7581395 L74.8,13.7581395 C74.8790698,13.7581395 71.0837209,9.09302326 70.372093,8.14418605 Z M68.1581395,5.77209302 C68.1581395,5.77209302 66.7348837,5.77209302 66.1813953,5.77209302 C66.1813953,5.29767442 66.1813953,4.50697674 66.1813953,4.03255814 C66.655814,4.03255814 67.8418605,4.03255814 67.8418605,4.03255814 C69.1069767,4.03255814 69.2651163,4.26976744 69.2651163,4.82325581 C69.2651163,5.37674419 68.7906977,5.77209302 68.1581395,5.77209302 Z" id="Shape"></path>
            <polygon id="Path" points="80.255814 0.237209302 75.7488372 0.237209302 75.7488372 13.7581395 80.6511628 13.7581395 80.6511628 0.237209302"></polygon>
            <path d="M94.4093023,0.237209302 L82.0744186,0.237209302 L82.0744186,4.42790698 C82.0744186,4.42790698 85.3162791,4.42790698 85.9488372,4.42790698 C85.9488372,5.13953488 85.9488372,13.7581395 85.9488372,13.7581395 L90.8511628,13.7581395 C90.8511628,13.7581395 90.8511628,5.21860465 90.8511628,4.42790698 C91.4837209,4.42790698 94.7255814,4.42790698 94.7255814,4.42790698 L94.7255814,0.237209302 L94.4093023,0.237209302 Z" id="Path"></path>
            <path d="M29.8883721,14.944186 C29.4930233,15.3395349 18.6604651,26.172093 18.6604651,26.172093 C18.6604651,26.172093 7.59069767,15.3395349 7.19534884,14.944186 C6.8,14.944186 2.05581395,14.944186 2.5282102e-14,14.944186 C1.81860465,16.7627907 17.8697674,32.8139535 18.6604651,33.6046512 C19.4511628,32.8139535 35.2651163,16.6837209 37.0046512,14.944186 C35.027907,14.944186 30.2837209,14.944186 29.8883721,14.944186 Z" id="Path"></path>
            <path d="M59.9348837,4.11162791 L59.9348837,0.237209302 L59.5395349,0.237209302 L51.8697674,0.237209302 C51.8697674,0.237209302 51.8697674,0.237209302 51.8697674,0.237209302 C49.8930233,0.237209302 45.1488372,0.237209302 44.7534884,0.237209302 C44.4372093,0.63255814 38.6651163,6.40465116 38.6651163,6.40465116 C38.6651163,6.40465116 32.655814,0.63255814 32.2604651,0.237209302 C31.8651163,0.237209302 27.1209302,0.237209302 25.0651163,0.237209302 C26.8837209,2.05581395 37.8744186,12.9674419 38.5860465,13.7581395 C39.1395349,13.1255814 45.1488372,7.11627907 48.944186,3.24186047 L48.944186,13.7581395 L59.9348837,13.7581395 L59.9348837,9.9627907 C59.9348837,9.9627907 54.1627907,9.9627907 53.5302326,9.9627907 C53.5302326,9.56744186 53.5302326,9.25116279 53.5302326,8.93488372 C54.2418605,8.93488372 59.9348837,8.93488372 59.9348837,8.93488372 L59.9348837,5.06046512 C59.9348837,5.06046512 54.1627907,5.06046512 53.5302326,5.06046512 C53.5302326,4.74418605 53.5302326,4.42790698 53.5302326,4.11162791 C54.1627907,4.11162791 59.9348837,4.11162791 59.9348837,4.11162791 Z" id="Path"></path>
            <path d="M13.6790698,0.0790697674 L0.237209302,13.7581395 L8.46046512,13.7581395 L13.6790698,8.53953488 L18.8976744,13.7581395 L27.2790698,13.7581395 L13.6790698,0.0790697674 Z M13.6790698,7.66976744 L8.14418605,13.1255814 L1.81860465,13.1255814 L13.6790698,0.948837209 L25.7767442,13.1255814 L19.2139535,13.1255814 L13.6790698,7.66976744 Z" id="Shape"></path>
            <path d="M23.2465116,-8.42736733e-15 L19.055814,4.19069767 L28.544186,13.7581395 L37.0046512,13.7581395 L23.2465116,-8.42736733e-15 Z M20.0046512,4.19069767 L23.3255814,0.869767442 L35.5023256,13.0465116 L28.8604651,13.0465116 L20.0046512,4.19069767 Z" id="Shape"></path>
        </g>
    </g>
</svg>