<svg xmlns="http://www.w3.org/2000/svg" xmlns:xlink="http://www.w3.org/1999/xlink" width="151" height="42" viewBox="0 0 151 42">
  <defs>
    <polygon id="wincasa-150w-a" points=".031 .095 22.934 .095 22.934 18.394 .031 18.394"/>
    <polygon id="wincasa-150w-c" points="102.622 15.458 146.21 15.458 146.21 31.639 102.622 31.639"/>
  </defs>
  <g fill="none" fill-rule="evenodd" transform="translate(2 3)">
    <path fill="#7F8BA3" d="M31.4228983,12.5340845 L18.9285308,0.644241628 C18.7454197,0.470930829 18.4694635,0.443077308 18.2564357,0.575123631 C18.4116933,0.488984038 18.6082153,0.600913928 18.6082153,0.783509233 L18.6082153,9.27367512 L27.0375161,14.9784889 C27.1901947,15.0811343 27.2814923,15.2523818 27.2814923,15.4365246 L27.2814923,31.2887887 L31.2975574,31.2898203 C31.4806685,31.2898203 31.6292207,31.1412682 31.6292207,30.9576413 L31.6292207,13.0142998 C31.6292207,12.8327362 31.5544288,12.6589095 31.4228983,12.5340845"/>
    <path fill="#3E5075" d="M14.7025327,6.97988607 C14.8820332,6.887041 15.0981559,6.89890454 15.2657928,7.01289765 L18.6082153,9.27470673 L18.6082153,0.784540845 C18.6082153,0.60194554 18.4116933,0.490015649 18.2564357,0.576155243 C12.0089941,4.73458279 4.97494836,9.4196482 3.6519061,10.3011606 C3.5131543,10.392974 3.43062535,10.5482316 3.43062535,10.7143211 L3.43062535,13.4135336 C6.74932081,11.52001 14.5911186,7.0433302 14.7025327,6.97988607"/>
    <g transform="translate(0 12.895)">
      <mask id="wincasa-150w-b" fill="#fff">
        <use xlink:href="#wincasa-150w-a"/>
      </mask>
      <path fill="#E9EBEF" d="M22.933764,18.3936401 L22.933764,5.60835806 C22.933764,5.41441502 22.8213183,5.2385252 22.6459443,5.15702786 L11.8619894,0.145973083 C11.7139531,0.077886698 11.5416739,0.0789183099 11.3941534,0.147004695 C11.5081465,0.0980031299 11.6298767,0.17692144 11.6298767,0.296588419 L11.6298767,18.3936401 L22.933764,18.3936401" mask="url(#wincasa-150w-b)"/>
      <path fill="#D4D8E0" d="M11.6298767,0.300714867 C11.6298767,0.177953052 11.5024726,0.0964557121 11.3910585,0.148552113 L0.287819718,5.308159 C0.112445696,5.38965634 0,5.56554617 0,5.7594892 L0,18.0624926 C0,18.2461196 0.148552113,18.3936401 0.33217903,18.3936401 L11.6298767,18.3936401 L11.6298767,0.300714867" mask="url(#wincasa-150w-b)"/>
    </g>
    <path fill="#A9B1C2" d="M11.3910585,13.0442166 C11.3982798,13.0411218 11.4044695,13.0400901 11.411175,13.0375111 C11.4049853,13.0395743 11.3998272,13.0406059 11.3941534,13.0426692 C11.5416739,12.9745828 11.7139531,12.9735512 11.8619894,13.0416376 L14.9810679,14.4910523 L14.9810679,7.15319687 C14.9810679,7.00877121 14.829421,6.91747355 14.7025327,6.97988607 C14.5612019,7.06086761 1.97398936,14.2460444 1.97398936,14.2460444 C1.81408951,14.3368263 1.71557058,14.5070423 1.71557058,14.691185 L1.71557058,17.5410128 L11.3910585,13.0442166"/>
    <path fill="#BEC4D1" d="M27.0375161,14.9795205 L15.2657928,7.01289765 C15.0981559,6.89890454 14.8820332,6.887041 14.7025327,6.97988607 C14.829421,6.91747355 14.9810679,7.00877121 14.9810679,7.15319687 L14.9810679,14.4910523 L22.6459443,18.0526923 C22.8213183,18.1341897 22.933764,18.3100795 22.933764,18.5040225 L22.933764,31.2893045 L27.2814923,31.2893045 L27.2814923,15.4370404 C27.2814923,15.2534135 27.1901947,15.0821659 27.0375161,14.9795205"/>
    <path fill="#293D66" d="M67.6892144 9.7755543L65.0921315 9.7755543C64.9131468 9.7755543 64.7687211 9.91946416 64.7687211 10.0984488L64.7687211 12.5511061C64.7687211 12.7290592 64.9131468 12.8740006 65.0921315 12.8740006L67.6892144 12.8740006C67.8676833 12.8740006 68.0121089 12.7290592 68.0121089 12.5511061L68.0121089 10.0984488C68.0121089 9.91946416 67.8676833 9.7755543 67.6892144 9.7755543M67.6257703 15.7991362L65.1550598 15.7991362C64.9760751 15.7991362 64.8316495 15.9445934 64.8316495 16.1225465L64.8316495 30.9679574C64.8316495 31.1459105 64.9760751 31.2913678 65.1550598 31.2913678L67.6257703 31.2913678C67.8047549 31.2913678 67.9486648 31.1459105 67.9486648 30.9679574L67.9486648 16.1225465C67.9486648 15.9445934 67.8047549 15.7991362 67.6257703 15.7991362M94.7349834 18.2729415C96.0874266 18.2729415 96.95037 18.7036394 97.9613496 19.9575637 98.0908169 20.1174635 98.2610329 20.1530541 98.4111324 20.0220394L100.03231 18.6881653C100.276803 18.492159 100.267002 18.3693972 100.110197 18.1522429 98.7670385 16.2881202 96.8951787 15.4581884 94.7349834 15.4581884 91.7015286 15.4581884 89.4649941 16.9880689 88.595861 19.6568488 88.2760613 20.6869133 88.1135825 21.9913865 88.1135825 23.5326147 88.1135825 25.1171706 88.2714191 26.3943061 88.595861 27.4408764 89.4649941 30.1096563 91.7015286 31.6385052 94.7349834 31.6385052 96.9808025 31.6385052 98.845441 30.7038648 100.034374 29.0347167 100.318583 28.6901584 100.222127 28.5612069 100.100913 28.4642354L98.4214485 27.0875493C98.1243443 26.8502786 97.9701183 27.1076657 97.8334297 27.2639549 96.9467593 28.3853171 96.0740156 28.8222047 94.7349834 28.8222047 93.1267005 28.8222047 91.9857377 28.0252845 91.522544 26.5748382 91.2842416 25.8325934 91.1821121 24.9221959 91.1821121 23.5326147 91.1821121 22.1636657 91.2842416 21.2641002 91.522544 20.5208238 91.9857377 19.0724407 93.1267005 18.2729415 94.7349834 18.2729415M79.7345002 15.4999687C77.382425 15.4999687 76.2569365 16.7409978 75.6833603 17.3754391L75.6513803 17.3754391 75.6513803 16.1215149C75.6513803 15.943046 75.5074704 15.7986203 75.32797 15.7986203L72.8572595 15.7986203C72.6782748 15.7986203 72.5343649 15.943046 72.5343649 16.1215149L72.5333333 30.9679574C72.5333333 31.1459105 72.6787906 31.2913678 72.8572595 31.2913678L75.3351912 31.2913678C75.5131443 31.2913678 75.6580858 31.1459105 75.6580858 30.9679574L75.6580858 21.8443818C75.6580858 19.7708419 76.9548219 18.3781659 78.8937365 18.3781659 81.4975249 18.3781659 82.0437634 20.3485446 82.0437634 22.0017027L82.0437634 30.9669258C82.0437634 31.1459105 82.188189 31.2903362 82.3671737 31.2903362L84.8373684 31.2903362C85.0168689 31.2903362 85.1607787 31.1459105 85.1607787 30.9669258L85.1607787 21.3698404C85.1607787 17.7189659 83.1119975 15.4999687 79.7345002 15.4999687M61.6243681 15.799652L59.1077509 15.799652C58.8833753 15.799652 58.7549396 15.8961077 58.6904638 16.1209991L55.5662272 26.6888313 55.5017515 26.6888313 52.1902773 16.1209991C52.1258016 15.9280876 51.9648701 15.799652 51.7724745 15.799652L49.9191837 15.799652C49.7267881 15.799652 49.5663725 15.9280876 49.5018967 16.1209991L46.2172444 26.6919261 46.1527687 26.6919261 42.9269183 16.1225465C42.8624426 15.8971393 42.7345227 15.8006836 42.5096313 15.8006836L40.0043618 15.799652C39.8109346 15.799652 39.7149947 15.9280876 39.7794704 16.1209991L44.6295937 30.968989C44.6940695 31.1619005 44.8219894 31.2893045 45.0149008 31.2893045L47.0961778 31.2893045C47.2890892 31.2893045 47.4170091 31.1619005 47.4814848 30.968989L50.7960538 20.5440351 50.8605296 20.5440351 54.1364131 30.968989C54.2008889 31.1619005 54.3298404 31.2893045 54.522236 31.2893045L56.5844282 31.2893045C56.7778554 31.2893045 56.9057753 31.1619005 56.970251 30.968989L61.8487437 16.1209991C61.9132194 15.9280876 61.8167637 15.799652 61.6243681 15.799652M126.397731 22.062052L124.816786 21.9047311C122.475027 21.6741659 122.005128 21.0134185 122.005128 20.0261659 122.005128 18.8289803 123.01456 18.11201 124.705372 18.1156207 126.877431 18.1181997 128.44187 19.1797283 128.827693 19.3855349 128.953034 19.4525897 129.116545 19.5624563 129.346078 19.2354354L130.550485 17.7179343C130.646425 17.5900144 130.63972 17.3867869 130.487041 17.2676357 128.931886 16.0776714 126.892389 15.4581884 124.862693 15.4581884 121.230387 15.4581884 119.063487 17.2475192 119.063487 20.246415 119.063487 22.8259606 120.680023 24.3604833 123.739783 24.6869884L125.35013 24.8437934C127.688278 25.0944751 128.131355 25.7191161 128.131355 26.7873502 128.131355 28.1418567 126.986266 28.9181446 124.989065 28.9181446 123.36634 28.9181446 121.677075 28.3182623 120.355065 27.165436 120.145132 26.9823249 120.001222 26.9931568 119.851122 27.1128238L118.331558 28.7458654C118.202607 28.8748169 118.198996 29.0997083 118.396034 29.2590923 119.524617 30.2463449 121.601252 31.6385052 124.830713 31.6385052 128.759607 31.6385052 131.104461 29.7176438 131.104461 26.5031412 131.104461 23.8838786 129.476061 22.3483243 126.397731 22.062052"/>
    <mask id="wincasa-150w-d" fill="#fff">
      <use xlink:href="#wincasa-150w-c"/>
    </mask>
    <path fill="#293D66" d="M108.491528 29.0125371C107.130316 29.0125371 105.507591 28.6318723 105.507591 26.8182986 105.507591 25.2167211 106.576341 24.5332782 109.079547 24.5296676L109.079547 24.5306992 111.937112 24.5306992C111.940207 24.5306992 111.94227 24.5306992 111.944849 24.5306992 112.073285 24.5306992 112.138276 24.5946592 112.138276 24.7230948L112.138276 26.2184163C112.138276 27.9669984 110.775517 29.0125371 108.491528 29.0125371zM108.958332 15.4581884C106.829085 15.4581884 105.131568 15.9255086 103.56816 17.0762717 103.482021 17.1567374 103.421671 17.2949734 103.510906 17.4945903L104.522917 19.2292457C104.621436 19.3875981 104.78701 19.4371155 105.071219 19.2313089 106.132232 18.4653371 107.249467 18.1476006 108.705587 18.1476006 111.61267 18.1476006 112.163035 19.1281477 112.163035 20.9417214L112.163035 21.8706879C112.163035 21.9924182 112.102685 22.0548307 111.986113 22.0610203 111.28307 22.0610203 108.705587 22.0610203 108.705587 22.0610203 108.655038 22.0610203 108.606037 22.0630836 108.55652 22.0630836L108.525055 22.0630836C104.663732 22.11518 102.622172 23.7874228 102.622172 26.9126911 102.622172 29.8275105 104.58894 31.6385052 107.833875 31.6385052 109.436485 31.6385052 111.180424 30.8302372 111.84633 29.7099067L111.875731 29.7099067 111.875731 30.9643468C111.875731 31.1438473 112.020156 31.2882729 112.19811 31.2882729L114.728654 31.2882729C114.907638 31.2882729 115.053095 31.1438473 115.053095 30.9643468L115.051032 20.7828532C115.051032 16.9509308 113.358673 15.4581884 108.958332 15.4581884L108.958332 15.4581884zM139.652397 29.0125371C138.291185 29.0125371 136.668459 28.6318723 136.668459 26.8182986 136.668459 25.2167211 137.736178 24.5332782 140.239384 24.5296676L140.239384 24.5306992 143.098496 24.5306992C143.101075 24.5306992 143.102623 24.5306992 143.105202 24.5306992 143.235185 24.5306992 143.298629 24.5946592 143.298629 24.7230948L143.298629 25.9115117 143.299661 26.2184163C143.299661 27.9669984 141.936901 29.0125371 139.652397 29.0125371zM140.11817 15.4581884C137.988923 15.4581884 136.291921 15.9255086 134.727997 17.0762717 134.64031 17.1567374 134.581509 17.2949734 134.670743 17.4945903L135.681723 19.2292457C135.781273 19.3875981 135.946331 19.4371155 136.229509 19.2313089 137.2931 18.4653371 138.410336 18.1476006 139.865425 18.1476006 142.774054 18.1476006 143.324419 19.1281477 143.324419 20.9417214L143.323388 21.8706879C143.323388 21.9924182 143.263038 22.0548307 143.147498 22.0610203 142.44497 22.0610203 139.865425 22.0610203 139.865425 22.0610203 139.815907 22.0610203 139.766906 22.0630836 139.716357 22.0630836L139.685924 22.0630836C135.823569 22.11518 133.782009 23.7874228 133.782009 26.9126911 133.782009 29.8275105 135.748262 31.6385052 138.994744 31.6385052 140.597353 31.6385052 142.341809 30.8302372 143.006683 29.7099067L143.036084 29.7099067 143.036084 30.9643468C143.036084 31.1438473 143.18051 31.2882729 143.358463 31.2882729L145.890554 31.2882729C146.068507 31.2882729 146.212933 31.1438473 146.212933 30.9643468L146.212933 20.7828532C146.212933 16.9509308 144.520573 15.4581884 140.11817 15.4581884L140.11817 15.4581884z" mask="url(#wincasa-150w-d)"/>
    <rect width="41.956" height="44.8" x="-7.111" y="-7.822" fill="#293D66" mask="url(#wincasa-150w-d)" style="mix-blend-mode:color-burn"/>
  </g>
</svg>
