<svg xmlns="http://www.w3.org/2000/svg" xmlns:xlink="http://www.w3.org/1999/xlink" width="185" height="50" viewBox="0 0 185 50">
  <defs>
    <polygon id="wincasa-185w-a" points=".039 .119 28.667 .119 28.667 22.992 .039 22.992"/>
    <polygon id="wincasa-185w-c" points="128.278 19.323 182.763 19.323 182.763 39.548 128.278 39.548"/>
  </defs>
  <g fill="none" fill-rule="evenodd" transform="translate(1 4)">
    <path fill="#7F8BA3" d="M39.2786228,15.6676056 L23.6606635,0.805302034 C23.4317746,0.588663537 23.0868294,0.553846635 22.8205446,0.718904538 C23.0146166,0.611230047 23.2602692,0.75114241 23.2602692,0.979386541 L23.2602692,11.5920939 L33.7968951,18.7231111 C33.9877433,18.8514178 34.1018654,19.0654773 34.1018654,19.2956557 L34.1018654,39.1109859 L39.1219468,39.1122754 C39.3508357,39.1122754 39.5365258,38.9265853 39.5365258,38.6970516 L39.5365258,16.2678748 C39.5365258,16.0409202 39.443036,15.8236369 39.2786228,15.6676056"/>
    <path fill="#3E5075" d="M18.3781659,8.72485759 C18.6025415,8.60880125 18.8726948,8.62363067 19.082241,8.76612207 L23.2602692,11.5933834 L23.2602692,0.980676056 C23.2602692,0.752431925 23.0146166,0.612519562 22.8205446,0.720194053 C15.0112426,5.91822848 6.21868545,11.7745603 4.56488263,12.8764507 C4.39144288,12.9912175 4.28828169,13.1852895 4.28828169,13.3929014 L4.28828169,16.7669171 C8.43665102,14.4000125 18.2388983,8.80416275 18.3781659,8.72485759"/>
    <g transform="translate(0 16.119)">
      <mask id="wincasa-185w-b" fill="#fff">
        <use xlink:href="#wincasa-185w-a"/>
      </mask>
      <path fill="#E9EBEF" d="M28.667205,22.9920501 L28.667205,7.01044757 C28.667205,6.76801878 28.5266479,6.54815649 28.3074304,6.44628482 L14.8274867,0.182466354 C14.6424413,0.0973583725 14.4270923,0.0986478873 14.2426917,0.183755869 C14.3851831,0.122503912 14.5373459,0.2211518 14.5373459,0.370735524 L14.5373459,22.9920501 L28.667205,22.9920501" mask="url(#wincasa-185w-b)"/>
      <path fill="#D4D8E0" d="M14.5373459,0.375893584 C14.5373459,0.222441315 14.3780908,0.12056964 14.2388232,0.185690141 L0.359774648,6.63519875 C0.140557121,6.73707042 0,6.95693271 0,7.1993615 L0,22.5781158 C0,22.8076495 0.185690141,22.9920501 0.415223787,22.9920501 L14.5373459,22.9920501 L14.5373459,0.375893584" mask="url(#wincasa-185w-b)"/>
    </g>
    <path fill="#A9B1C2" d="M14.2388232,16.3052707 C14.2478498,16.3014022 14.2555869,16.3001127 14.2639687,16.2968889 C14.2562316,16.2994679 14.249784,16.3007574 14.2426917,16.3033365 C14.4270923,16.2182285 14.6424413,16.216939 14.8274867,16.3020469 L18.7263349,18.1138153 L18.7263349,8.94149609 C18.7263349,8.76096401 18.5367762,8.64684194 18.3781659,8.72485759 C18.2015023,8.82608451 2.4674867,17.8075556 2.4674867,17.8075556 C2.26761189,17.9210329 2.14446322,18.1338028 2.14446322,18.3639812 L2.14446322,21.926266 L14.2388232,16.3052707"/>
    <path fill="#BEC4D1" d="M33.7968951,18.7244006 L19.082241,8.76612207 C18.8726948,8.62363067 18.6025415,8.60880125 18.3781659,8.72485759 C18.5367762,8.64684194 18.7263349,8.76096401 18.7263349,8.94149609 L18.7263349,18.1138153 L28.3074304,22.5658654 C28.5266479,22.6677371 28.667205,22.8875994 28.667205,23.1300282 L28.667205,39.1116307 L34.1018654,39.1116307 L34.1018654,19.2963005 C34.1018654,19.0667668 33.9877433,18.8527074 33.7968951,18.7244006"/>
    <path fill="#293D66" d="M84.611518 12.2194429L81.3651643 12.2194429C81.1414335 12.2194429 80.9609014 12.3993302 80.9609014 12.623061L80.9609014 15.6888826C80.9609014 15.9113239 81.1414335 16.0925008 81.3651643 16.0925008L84.611518 16.0925008C84.8346041 16.0925008 85.0151362 15.9113239 85.0151362 15.6888826L85.0151362 12.623061C85.0151362 12.3993302 84.8346041 12.2194429 84.611518 12.2194429M84.5322128 19.7489202L81.4438247 19.7489202C81.2200939 19.7489202 81.0395618 19.9307418 81.0395618 20.1531831L81.0395618 38.7099468C81.0395618 38.9323881 81.2200939 39.1142097 81.4438247 39.1142097L84.5322128 39.1142097C84.7559437 39.1142097 84.935831 38.9323881 84.935831 38.7099468L84.935831 20.1531831C84.935831 19.9307418 84.7559437 19.7489202 84.5322128 19.7489202M118.418729 22.8411768C120.109283 22.8411768 121.187962 23.3795493 122.451687 24.9469546 122.613521 25.1468294 122.826291 25.1913177 123.013915 25.0275493L125.040388 23.3602066C125.346003 23.1151987 125.333753 22.9617465 125.137746 22.6903036 123.458798 20.3601502 121.118973 19.3227355 118.418729 19.3227355 114.626911 19.3227355 111.831243 21.2350861 110.744826 24.571061 110.345077 25.8586416 110.141978 27.4892332 110.141978 29.4157684 110.141978 31.3964632 110.339274 32.9928826 110.744826 34.3010955 111.831243 37.6370704 114.626911 39.5481315 118.418729 39.5481315 121.226003 39.5481315 123.556801 38.379831 125.042967 36.2933959 125.398228 35.862698 125.277659 35.7015086 125.126141 35.5802942L123.026811 33.8594366C122.65543 33.5628482 122.462648 33.8845822 122.291787 34.0799437 121.183449 35.4816463 120.09252 36.0277559 118.418729 36.0277559 116.408376 36.0277559 114.982172 35.0316056 114.40318 33.2185477 114.105302 32.2907418 113.97764 31.1527449 113.97764 29.4157684 113.97764 27.7045822 114.105302 26.5801252 114.40318 25.6510297 114.982172 23.8405509 116.408376 22.8411768 118.418729 22.8411768M99.6681252 19.3749609C96.7280313 19.3749609 95.3211706 20.9262473 94.6042003 21.7192989L94.5642254 21.7192989 94.5642254 20.1518936C94.5642254 19.9288075 94.384338 19.7482754 94.1599624 19.7482754L91.0715743 19.7482754C90.8478435 19.7482754 90.6679562 19.9288075 90.6679562 20.1518936L90.6666667 38.7099468C90.6666667 38.9323881 90.8484883 39.1142097 91.0715743 39.1142097L94.168989 39.1142097C94.3914304 39.1142097 94.5726072 38.9323881 94.5726072 38.7099468L94.5726072 27.3054773C94.5726072 24.7135524 96.1935274 22.9727074 98.6171706 22.9727074 101.871906 22.9727074 102.554704 25.4356808 102.554704 27.5021283L102.554704 38.7086573C102.554704 38.9323881 102.735236 39.1129202 102.958967 39.1129202L106.04671 39.1129202C106.271086 39.1129202 106.450973 38.9323881 106.450973 38.7086573L106.450973 26.7123005C106.450973 22.1487074 103.889997 19.3749609 99.6681252 19.3749609M77.0304601 19.7495649L73.8846886 19.7495649C73.6042191 19.7495649 73.4436745 19.8701346 73.3630798 20.1512488L69.457784 33.3610391 69.3771894 33.3610391 65.2378466 20.1512488C65.157252 19.9101095 64.9560876 19.7495649 64.7155931 19.7495649L62.3989797 19.7495649C62.1584851 19.7495649 61.9579656 19.9101095 61.8773709 20.1512488L57.7715556 33.3649077 57.6909609 33.3649077 53.6586479 20.1531831C53.5780532 19.8714241 53.4181534 19.7508545 53.1370391 19.7508545L50.0054523 19.7495649C49.7636682 19.7495649 49.6437433 19.9101095 49.724338 20.1512488L55.7869922 38.7112363C55.8675869 38.9523756 56.0274867 39.1116307 56.268626 39.1116307L58.8702222 39.1116307C59.1113615 39.1116307 59.2712613 38.9523756 59.351856 38.7112363L63.4950673 25.6800438 63.575662 25.6800438 67.6705164 38.7112363C67.7511111 38.9523756 67.9123005 39.1116307 68.152795 39.1116307L70.7305352 39.1116307C70.9723192 39.1116307 71.1322191 38.9523756 71.2128138 38.7112363L77.3109296 20.1512488C77.3915243 19.9101095 77.2709546 19.7495649 77.0304601 19.7495649M157.997164 27.5775649L156.020983 27.3809139C153.093784 27.0927074 152.50641 26.2667731 152.50641 25.0327074 152.50641 23.5362254 153.7682 22.6400125 155.881715 22.6445258 158.596789 22.6477496 160.552338 23.9746604 161.034617 24.2319186 161.191293 24.3157371 161.395681 24.4530704 161.682598 24.0442942L163.188106 22.1474178C163.308031 21.987518 163.299649 21.7334836 163.108801 21.5845446 161.164858 20.0970892 158.615487 19.3227355 156.078366 19.3227355 151.537984 19.3227355 148.829358 21.5593991 148.829358 25.3080188 148.829358 28.5324507 150.850028 30.4506041 154.674729 30.8587355L156.687662 31.0547418C159.610347 31.3680939 160.164194 32.1488951 160.164194 33.4841878 160.164194 35.1773208 158.732833 36.1476808 156.236332 36.1476808 154.207925 36.1476808 152.096344 35.3978279 150.443831 33.956795 150.181415 33.7279061 150.001527 33.741446 149.813903 33.8910297L147.914448 35.9323318C147.753258 36.0935211 147.748745 36.3746354 147.995042 36.5738654 149.405772 37.8079311 152.001565 39.5481315 156.038391 39.5481315 160.949509 39.5481315 163.880576 37.1470548 163.880576 33.1289264 163.880576 29.8548482 161.845077 27.9354053 157.997164 27.5775649"/>
    <mask id="wincasa-185w-d" fill="#fff">
      <use xlink:href="#wincasa-185w-c"/>
    </mask>
    <path fill="#293D66" d="M135.61441 36.2656714C133.912895 36.2656714 131.884488 35.7898404 131.884488 33.5228732 131.884488 31.5209014 133.220426 30.6665978 136.349433 30.6620845L136.349433 30.663374 139.92139 30.663374C139.925258 30.663374 139.927837 30.663374 139.931061 30.663374 140.091606 30.663374 140.172845 30.7433239 140.172845 30.9038685L140.172845 32.7730203C140.172845 34.958748 138.469396 36.2656714 135.61441 36.2656714zM136.197915 19.3227355C133.536357 19.3227355 131.41446 19.9068858 129.4602 21.3453396 129.352526 21.4459218 129.277089 21.6187167 129.388632 21.8682379L130.653646 24.0365571C130.776795 24.2344977 130.983762 24.2963944 131.339023 24.0391362 132.66529 23.0816714 134.061834 22.6845008 135.881984 22.6845008 139.515837 22.6845008 140.203793 23.9101847 140.203793 26.1771518L140.203793 27.3383599C140.203793 27.4905227 140.128357 27.5685383 139.982642 27.5762754 139.103837 27.5762754 135.881984 27.5762754 135.881984 27.5762754 135.818798 27.5762754 135.757546 27.5788545 135.695649 27.5788545L135.656319 27.5788545C130.829665 27.643975 128.277715 29.7342786 128.277715 33.6408638 128.277715 37.2843881 130.736175 39.5481315 134.792344 39.5481315 136.795606 39.5481315 138.975531 38.5377966 139.807912 37.1373834L139.844664 37.1373834 139.844664 38.7054335C139.844664 38.9298091 140.025196 39.1103412 140.247637 39.1103412L143.410817 39.1103412C143.634548 39.1103412 143.816369 38.9298091 143.816369 38.7054335L143.81379 25.9785665C143.81379 21.1886635 141.698341 19.3227355 136.197915 19.3227355L136.197915 19.3227355zM174.565496 36.2656714C172.863981 36.2656714 170.835574 35.7898404 170.835574 33.5228732 170.835574 31.5209014 172.170222 30.6665978 175.29923 30.6620845L175.29923 30.663374 178.873121 30.663374C178.876344 30.663374 178.878279 30.663374 178.881502 30.663374 179.043981 30.663374 179.123286 30.7433239 179.123286 30.9038685L179.123286 32.3893897 179.124576 32.7730203C179.124576 34.958748 177.421127 36.2656714 174.565496 36.2656714zM175.147712 19.3227355C172.486153 19.3227355 170.364901 19.9068858 168.409997 21.3453396 168.300388 21.4459218 168.226886 21.6187167 168.338429 21.8682379L169.602153 24.0365571C169.726592 24.2344977 169.932914 24.2963944 170.286886 24.0391362 171.616376 23.0816714 173.01292 22.6845008 174.831781 22.6845008 178.467568 22.6845008 179.155524 23.9101847 179.155524 26.1771518L179.154235 27.3383599C179.154235 27.4905227 179.078798 27.5685383 178.934372 27.5762754 178.056213 27.5762754 174.831781 27.5762754 174.831781 27.5762754 174.769884 27.5762754 174.708632 27.5788545 174.645446 27.5788545L174.607405 27.5788545C169.779462 27.643975 167.227512 29.7342786 167.227512 33.6408638 167.227512 37.2843881 169.685327 39.5481315 173.74343 39.5481315 175.746692 39.5481315 177.927261 38.5377966 178.758354 37.1373834L178.795105 37.1373834 178.795105 38.7054335C178.795105 38.9298091 178.975637 39.1103412 179.198078 39.1103412L182.363192 39.1103412C182.585634 39.1103412 182.766166 38.9298091 182.766166 38.7054335L182.766166 25.9785665C182.766166 21.1886635 180.650717 19.3227355 175.147712 19.3227355L175.147712 19.3227355z" mask="url(#wincasa-185w-d)"/>
    <rect width="52.444" height="56" x="-8.889" y="-9.778" fill="#293D66" mask="url(#wincasa-185w-d)" style="mix-blend-mode:color-burn"/>
  </g>
</svg>
