<?xml version="1.0" encoding="utf-8"?>
<svg version="1.1" id="Ebene_1" xmlns="http://www.w3.org/2000/svg" xmlns:xlink="http://www.w3.org/1999/xlink" x="0px" y="0px"
	 viewBox="0 0 44 44" enable-background="new 0 0 44 44" xml:space="preserve">
<path fill="#254875" d="M29.4,27.8c-0.2-0.1-0.3-0.2-0.5-0.2c-2.9-1-7.3-2.1-12.2-2.1s-9.3,1.1-12.2,2.1c-2.1,0.7-3.5,2.7-3.5,5v6.9h25.1
	c-0.4-1.1-0.6-2.3-0.6-3.5C25.5,32.7,27,29.7,29.4,27.8z M16.8,22c4.8,0,8.8-5.7,8.8-10.5V9.8c0-4.8-3.9-8.8-8.8-8.8S8,4.9,8,9.8
	v1.8C8,16.3,11.9,22,16.8,22z M37.8,34.2V29h-3.5v5.2H29v3.5h5.2V43h3.5v-5.2H43v-3.5H37.8z"/>
</svg>
