<?xml version="1.0" encoding="utf-8"?>
<svg version="1.1" id="Ebene_1" xmlns="http://www.w3.org/2000/svg" xmlns:xlink="http://www.w3.org/1999/xlink" x="0px" y="0px"
	 viewBox="0 0 44 44" enable-background="new 0 0 44 44" xml:space="preserve">
<path fill="#254875" d="M27.9,36.7c0,1-0.8,1.8-1.8,1.8H7.9c-1,0-1.8-0.8-1.8-1.8V11c0-1,0.8-1.8,1.8-1.8h5.5V3.7H7.9c-3,0-5.5,2.5-5.5,5.5v29.3
	c0,3,2.4,5.5,5.5,5.5h18.2c3,0,5.5-2.5,5.5-5.5V23.8h-3.6V36.7z M38.8,0H20.6c-2,0-3.6,1.6-3.6,3.7v20.2c0,1,0.8,1.8,1.8,1.8
	c0.4,0,0.8-0.1,1.1-0.4l6.8-5.1h12.1c2,0,3.6-1.6,3.6-3.7V3.7C42.4,1.6,40.8,0,38.8,0z"/>
</svg>
