<?xml version="1.0" encoding="utf-8"?>
<svg version="1.1" id="Ebene_1" xmlns="http://www.w3.org/2000/svg" xmlns:xlink="http://www.w3.org/1999/xlink" x="0px" y="0px"
	 viewBox="0 0 44 44" enable-background="new 0 0 44 44" xml:space="preserve">
	<path d="M31.2,38.8h-3.7V35h-11v3.7h-3.7c-1,0-1.8,0.8-1.8,1.9s0.8,1.9,1.8,1.9h18.3c1,0,1.8-0.8,1.8-1.9S32.2,38.8,31.2,38.8z"/>
	<path d="M42.2,1.5H1.8C0.8,1.5,0,2.3,0,3.4v26.1c0,1,0.8,1.9,1.8,1.9h40.3c1,0,1.8-0.8,1.8-1.9V3.4C44,2.3,43.2,1.5,42.2,1.5z
		 M23.8,16.4v9.3h-3.7v-9.3h-5.5L22,7.1l7.3,9.3H23.8z"/>
</svg>
