<?xml version="1.0" encoding="utf-8"?>
<svg version="1.1" id="Ebene_1" xmlns="http://www.w3.org/2000/svg" xmlns:xlink="http://www.w3.org/1999/xlink" x="0px" y="0px"
	 viewBox="0 0 44 44" enable-background="new 0 0 44 44" xml:space="preserve">
<path fill="#254875" d="M42.2,3.7H1.8C0.8,3.7,0,4.5,0,5.5v33c0,1,0.8,1.8,1.8,1.8h40.3c1,0,1.8-0.8,1.8-1.8v-33C44,4.5,43.2,3.7,42.2,3.7z
	 M14.7,14.7c2,0,3.7,1.6,3.7,3.7S16.7,22,14.7,22S11,20.4,11,18.3S12.6,14.7,14.7,14.7z M7.3,29.3c0-3,2.5-5.5,5.5-5.5h3.7
	c3,0,5.5,2.5,5.5,5.5H7.3z M36.7,27.5h-11v-3.7h11V27.5z M36.7,20.2h-11v-3.7h11V20.2z"/>
</svg>
