<?xml version="1.0" encoding="utf-8"?>
<svg version="1.1" id="Ebene_1" xmlns="http://www.w3.org/2000/svg" xmlns:xlink="http://www.w3.org/1999/xlink" x="0px" y="0px"
	 viewBox="0 0 44 44" enable-background="new 0 0 44 44" xml:space="preserve">
<circle fill="#254875" cx="21.2" cy="19.8" r="3.8"/>
<path fill="#254875" d="M35.5,4h-27C7.7,4,7,4.7,7,5.5v33C7,39.3,7.7,40,8.5,40h27c0.8,0,1.5-0.7,1.5-1.5v-33C37,4.7,36.3,4,35.5,4z M29.5,30.1
	l-4.7-4.7c-1.1,0.7-2.3,1-3.6,1c-3.7,0-6.8-3-6.8-6.8s3-6.8,6.8-6.8s6.8,3,6.8,6.8c0,1.3-0.4,2.5-1,3.6l4.7,4.7L29.5,30.1z"/>
</svg>
