<?xml version="1.0" encoding="utf-8"?>
<svg version="1.1" id="Ebene_1" xmlns="http://www.w3.org/2000/svg" xmlns:xlink="http://www.w3.org/1999/xlink" x="0px" y="0px"
	 viewBox="0 0 44 44" enable-background="new 0 0 44 44" xml:space="preserve">
	<path fill="#254875" d="M22,24.9c5.5,0,10-4.5,10-10v-3.3c0-5.5-4.5-10-10-10s-10,4.5-10,10v3.3C12,20.5,16.5,24.9,22,24.9z"/>
	<path fill="#254875" d="M37,34.9c-4,0-7.4-2.9-8.2-6.7H13.7C7.3,28.3,2,33.5,2,39.9v1.7h40v-1.7c0-2.1-0.6-4.1-1.5-5.8
		C39.4,34.7,38.3,34.9,37,34.9z"/>
	<polygon fill="#254875" points="38.7,24.9 38.7,21.6 35.4,21.6 35.4,24.9 32,24.9 32,28.3 35.4,28.3 35.4,31.6 38.7,31.6 38.7,28.3 42,28.3 
		42,24.9 	"/>
</svg>
