<?xml version="1.0" encoding="utf-8"?>
<svg version="1.1" id="Ebene_1" xmlns="http://www.w3.org/2000/svg" xmlns:xlink="http://www.w3.org/1999/xlink" x="0px" y="0px"
	 viewBox="0 0 44 44" enable-background="new 0 0 44 44" xml:space="preserve">
<path d="M41.9,9.7l-1.9-3.2l-6.3,3.7l1.9,3.2L41.9,9.7z M16.5,37.2l-9.2-2.7v-4l-3.7-1.2v6.6c0,0.8,0.5,1.6,1.3,1.8l12.8,3.7
	c0.6,0.2,1.1,0,1.6-0.3c0.5-0.4,0.7-0.9,0.7-1.5v-4.8l-3.7-1.2V37.2z M33.8,28.2l6.3,3.7l1.9-3.2L35.6,25L33.8,28.2z M30.4,2.9
	c-0.5-0.3-1.1-0.4-1.7-0.3L1.3,11.9c-0.7,0.3-1.3,1-1.3,1.8v11.1c0,0.8,0.5,1.5,1.3,1.8l27.5,9.3c0.2,0.1,0.4,0.1,0.6,0.1
	c1,0,1.8-0.8,1.8-1.9V4.4C31.2,3.8,30.9,3.2,30.4,2.9z M36.7,17.4v3.7H44v-3.7H36.7z"/>
</svg>
