<?xml version="1.0" encoding="utf-8"?>
<svg version="1.1" id="Ebene_1" xmlns="http://www.w3.org/2000/svg" xmlns:xlink="http://www.w3.org/1999/xlink" x="0px" y="0px"
	 viewBox="0 0 44 44" enable-background="new 0 0 44 44" xml:space="preserve">
<path fill="#254875" d="M11.2,20.2h20c5.5,0,10-4.6,10-10.1S36.7,0,31.2,0h-20c-5.5,0-10,4.6-10,10.1S5.8,20.2,11.2,20.2z M11.2,3.7
	c3.5,0,6.4,2.9,6.4,6.4s-2.9,6.4-6.4,6.4s-6.4-2.9-6.4-6.4S7.8,3.7,11.2,3.7z M31.2,23.8h-20c-5.5,0-10,4.6-10,10.1S5.8,44,11.2,44
	h20c5.5,0,10-4.6,10-10.1S36.7,23.8,31.2,23.8z M31.2,40.3c-3.5,0-6.4-2.9-6.4-6.4s2.9-6.4,6.4-6.4c3.5,0,6.4,2.9,6.4,6.4
	S34.7,40.3,31.2,40.3z"/>
</svg>
