<?xml version="1.0" encoding="utf-8"?>
<svg version="1.1" id="Ebene_1" xmlns="http://www.w3.org/2000/svg" xmlns:xlink="http://www.w3.org/1999/xlink" x="0px" y="0px"
	 viewBox="0 0 50 50" enable-background="new 0 0 50 50" xml:space="preserve">
<path fill="#254875" d="M14.6,0h-4.2v6.2h4.2V0z M10.4,50h4.2v-6.2h-4.2V50z M35.4,50h4.2v-6.2h-4.2V50z M0,14.6h6.2v-4.2H0V14.6z M0,39.6h6.2v-4.2
	H0V39.6z M43.8,10.4v4.2H50v-4.2H43.8z M43.8,39.6H50v-4.2h-6.2V39.6z M35.4,6.2h4.2V0h-4.2V6.2z M37.5,10.4h-25
	c-1.2,0-2.1,0.9-2.1,2.1v25c0,1.2,0.9,2.1,2.1,2.1h25c1.2,0,2.1-0.9,2.1-2.1v-25C39.6,11.3,38.7,10.4,37.5,10.4z M26.2,30.1L23,26.5
	l-4.8,5.4l-1.8-2l6.6-7.4l3.2,3.6l5.7-7.1l1.7,1.9L26.2,30.1z"/>
</svg>
