<?xml version="1.0" encoding="utf-8"?>
<svg version="1.1" id="Ebene_1" xmlns="http://www.w3.org/2000/svg" xmlns:xlink="http://www.w3.org/1999/xlink" x="0px" y="0px"
	 viewBox="0 0 44 44" enable-background="new 0 0 44 44" xml:space="preserve">
<path fill="#254875" d="M37.9,20.6l6.1,3.1V3.7c0-1-0.8-1.8-1.8-1.8H1.8C0.8,1.9,0,2.7,0,3.7v22.7l11-8.5l7.4,5.6l4.2-2.8c0.5,1.2,1.2,2.2,2.2,3
	l-6.5,4.3L11,22.5L0,31v9.3c0,1,0.8,1.8,1.8,1.8h40.3c1,0,1.8-0.8,1.8-1.8V27.7l-8.3-4.1C36.6,22.7,37.4,21.7,37.9,20.6z M31.2,21.9
	v16.6h-1.8V21.9c-2.1-0.4-3.7-2.3-3.7-4.5s1.6-4.1,3.7-4.5V5.5h1.8v7.4c2.1,0.4,3.7,2.3,3.7,4.5S33.3,21.5,31.2,21.9z"/>
</svg>
