<?xml version="1.0" encoding="utf-8"?>
<svg version="1.1" id="Ebene_1" xmlns="http://www.w3.org/2000/svg" xmlns:xlink="http://www.w3.org/1999/xlink" x="0px" y="0px"
	 viewBox="0 0 44 44" enable-background="new 0 0 44 44" xml:space="preserve">
<path fill="#254875" d="M28.7,10.3h-3.3v5h-6.7v-5h-3.3v5H12V22c0,5.5,4.5,10,10,10s10-4.5,10-10v-6.7h-3.3V10.3z M22,2C11,2,2,11,2,22s9,20,20,20
	h1.7v-8.3h-3.3v4.9c-8.4-0.8-15-8-15-16.6c0-9.2,7.5-16.7,16.7-16.7S38.7,12.8,38.7,22c0,4.6-1.9,8.9-5.2,12.1l-1.2,1.1l2.3,2.4
	l1.2-1.1c4-3.8,6.3-9,6.3-14.5C42,11,33,2,22,2z"/>
</svg>
