<?xml version="1.0" encoding="utf-8"?>
<svg version="1.1" id="Ebene_1" xmlns="http://www.w3.org/2000/svg" xmlns:xlink="http://www.w3.org/1999/xlink" x="0px" y="0px"
	 viewBox="0 0 44 44" enable-background="new 0 0 44 44" xml:space="preserve">
<path fill="#254875" d="M41,30.4c-0.2-1.7-1.7-4.8-6.6-4.8h-8.3c-1.6-2.1-4-3.3-6.6-3.3h-4.2c-2.5-2.7-7.3-3.3-9.1-3.3H2.9v14.3l12.2,6.1
	c1.7,0.8,3.6,0.9,5.3,0.3l20.7-8L41,30.4z M19.3,36.5c-0.9,0.3-1.8,0.3-2.7-0.1L6.2,31.2v-8.9c2.9-0.1,5.6,1.1,7.4,3.3h5.8
	c2.1,0,4,1.3,4.7,3.3h-9.7c-0.9,0-1.7,0.7-1.7,1.7c0,0.9,0.7,1.7,1.7,1.7h13.3v-1.7c0-0.6-0.1-1.1-0.2-1.7h6.8
	c1-0.1,1.9,0.2,2.7,0.8L19.3,36.5z M19.4,16.4c1-0.6,1.8-1.4,2.4-2.4h4.2l2.5,1.7l2.5-1.7h3.3c0.6,0,1.2-0.4,1.5-0.9l1.7-3.3
	c0.3-0.5,0.2-1.1-0.1-1.6c-0.3-0.5-0.8-0.8-1.4-0.8H21.9C20,4.1,16,3.1,12.8,4.9c-3.2,1.8-4.3,5.9-2.4,9.1
	C12.2,17.1,16.3,18.2,19.4,16.4z M14.5,9c0.9,0,1.7,0.7,1.7,1.7c0,0.9-0.7,1.7-1.7,1.7c-0.9,0-1.7-0.7-1.7-1.7
	C12.8,9.7,13.6,9,14.5,9z"/>
</svg>
