<?xml version="1.0" encoding="utf-8"?>
<svg version="1.1" id="Ebene_1" xmlns="http://www.w3.org/2000/svg" xmlns:xlink="http://www.w3.org/1999/xlink" x="0px" y="0px"
	 viewBox="0 0 44 44" enable-background="new 0 0 44 44" xml:space="preserve">
	<path fill="#254875" d="M38.5,4h-33C4.7,4,4,4.7,4,5.5v33C4,39.3,4.7,40,5.5,40h33c0.8,0,1.5-0.7,1.5-1.5v-33C40,4.7,39.3,4,38.5,4z M25,10h9v9h-9
		V10z M19,31h-3v3h-3v-3h-3v-3h3v-3h3v3h3V31z M14.5,19C12,19,10,17,10,14.5s2-4.5,4.5-4.5s4.5,2,4.5,4.5S17,19,14.5,19z M23.5,34
		l6-9l6,9H23.5z"/>
</svg>
