<?xml version="1.0" encoding="utf-8"?>
<svg version="1.1" id="Ebene_1" xmlns="http://www.w3.org/2000/svg" xmlns:xlink="http://www.w3.org/1999/xlink" x="0px" y="0px"
	 viewBox="0 0 44 44" enable-background="new 0 0 44 44" xml:space="preserve">
<path fill="#254875" d="M36.3,18.7L28,27l2.4,2.4L41,18.7l-4-4L34.6,17L36.3,18.7z M5.3,36l3.2-3.2c1,0.5,2,0.9,3.2,0.9c1.7,0,3.3-0.7,4.5-1.9
	l18.9-18.9c2.5-2.5,2.5-6.5,0-9c-2.5-2.5-6.5-2.5-9,0L7.2,22.8C6,24,5.3,25.6,5.3,27.3c0,1.1,0.3,2.2,0.9,3.2L3,33.7L5.3,36z
	 M40.3,38.7H3.7c-0.9,0-1.7,0.7-1.7,1.7S2.7,42,3.7,42h36.7c0.9,0,1.7-0.7,1.7-1.7S41.3,38.7,40.3,38.7z"/>
</svg>
