<?xml version="1.0" encoding="utf-8"?>
<svg version="1.1" id="Ebene_1" xmlns="http://www.w3.org/2000/svg" xmlns:xlink="http://www.w3.org/1999/xlink" x="0px" y="0px"
	 viewBox="0 0 44 44" enable-background="new 0 0 44 44" xml:space="preserve">
<path fill="#254875" d="M20.4,26.3L17.2,23L15,25.3l4.3,4.5c0.3,0.3,0.7,0.5,1.1,0.5c0.4,0,0.8-0.2,1.1-0.5L29,22l-2.2-2.4L20.4,26.3z M37.8,2H6.2
	C5.3,2,4.6,2.7,4.6,3.7v36.7c0,0.9,0.7,1.7,1.6,1.7h31.7c0.9,0,1.6-0.7,1.6-1.7V3.7C39.4,2.7,38.7,2,37.8,2z M34.7,37H9.3V7h4.8v5
	h4.8c0-1.8,1.4-3.3,3.2-3.3s3.2,1.5,3.2,3.3h4.8V7h4.8V37z"/>
</svg>
