<?xml version="1.0" encoding="utf-8"?>
<svg version="1.1" id="Ebene_1" xmlns="http://www.w3.org/2000/svg" xmlns:xlink="http://www.w3.org/1999/xlink" x="0px" y="0px"
	 viewBox="0 0 44 44" enable-background="new 0 0 44 44" xml:space="preserve">
<path fill="#254875" d="M7.4,29.2c-1-0.5-2.2-0.1-2.7,0.9l-4.5,9c-0.5,1-0.1,2.2,0.9,2.7C1.4,41.9,1.7,42,2,42c0.7,0,1.4-0.4,1.8-1.1l4.5-9
	C8.8,30.9,8.4,29.7,7.4,29.2z M40.9,24.3l-11,7.4l-17.2-8.6l4.1-8.1l12.1,8.6c0.4,0.3,1,0.4,1.5,0.3c0.5-0.1,1-0.4,1.3-0.9l12-18
	c0.6-0.9,0.4-2.2-0.6-2.8c-0.9-0.6-2.2-0.4-2.8,0.6L29.5,19.2l-12.3-8.8c-0.5-0.3-1.1-0.5-1.6-0.3c-0.6,0.1-1,0.5-1.3,1L8.8,22H2
	c-1.1,0-2,0.9-2,2s0.9,2,2,2h7.5l19.6,9.8c0.3,0.1,0.6,0.2,0.9,0.2c0.4,0,0.8-0.1,1.1-0.3l12-8c0.9-0.6,1.2-1.9,0.6-2.8
	C43.1,24,41.8,23.7,40.9,24.3z"/>
</svg>
