<?xml version="1.0" encoding="utf-8"?>
<svg version="1.1" id="Ebene_1" xmlns="http://www.w3.org/2000/svg" xmlns:xlink="http://www.w3.org/1999/xlink" x="0px" y="0px"
	 viewBox="0 0 44 44" enable-background="new 0 0 44 44" xml:space="preserve">
<path fill="#254875" d="M22,12c2.8,0,5-2.2,5-5s-2.2-5-5-5s-5,2.2-5,5S19.2,12,22,12z M35.3,13.7c1.8,0,3.3-1.5,3.3-3.3S37.2,7,35.3,7
	S32,8.5,32,10.3S33.5,13.7,35.3,13.7z M8.7,13.7c1.8,0,3.3-1.5,3.3-3.3S10.5,7,8.7,7s-3.3,1.5-3.3,3.3S6.8,13.7,8.7,13.7z M8.7,20.3
	c0-1.9,0.7-3.6,1.7-5h-5c-1.8,0-3.3,1.5-3.3,3.3v10h3.3V37c0,0.9,0.7,1.7,1.7,1.7h3.3c0.9,0,1.7-0.7,1.7-1.7v-3.3H8.7V20.3z
	 M38.7,15.3h-5c1.1,1.4,1.7,3.1,1.7,5v13.3H32V37c0,0.9,0.7,1.7,1.7,1.7H37c0.9,0,1.7-0.7,1.7-1.7v-8.3H42v-10
	C42,16.8,40.5,15.3,38.7,15.3z M32,20.3c0-2.8-2.2-5-5-5H17c-2.8,0-5,2.2-5,5v10h5v10c0,0.9,0.7,1.7,1.7,1.7h6.7
	c0.9,0,1.7-0.7,1.7-1.7v-10h5V20.3z"/>
</svg>
