<?xml version="1.0" encoding="utf-8"?>
<svg version="1.1" id="Ebene_1" xmlns="http://www.w3.org/2000/svg" xmlns:xlink="http://www.w3.org/1999/xlink" x="0px" y="0px"
	 viewBox="0 0 44 44" enable-background="new 0 0 44 44" xml:space="preserve">
<path fill="#254875" d="M37.6,7.3v9.2h5.5V7.3H37.6z M37.6,29.3h5.5v-9.2h-5.5V29.3z M30.3,0H0.9v44h29.3c3,0,5.5-2.5,5.5-5.5v-33
	C35.7,2.5,33.3,0,30.3,0z M18.3,11c2.5,0,4.6,2.1,4.6,4.6s-2.1,4.6-4.6,4.6s-4.6-2.1-4.6-4.6S15.8,11,18.3,11z M26.6,31.2H10.1v-3
	c0-1.6,1.1-3.1,2.6-3.5c1.5-0.4,3.4-0.8,5.6-0.8s4.2,0.4,5.6,0.8c1.6,0.5,2.6,1.9,2.6,3.5V31.2z"/>
</svg>
