<?xml version="1.0" encoding="utf-8"?>
<svg version="1.1" id="Ebene_1" xmlns="http://www.w3.org/2000/svg" xmlns:xlink="http://www.w3.org/1999/xlink" x="0px" y="0px"
	 viewBox="0 0 44 44" enable-background="new 0 0 44 44" xml:space="preserve">
<path fill="#254875" d="M40.5,0h-33v3.7h31.2v36.7h3.7V1.8C42.3,0.8,41.5,0,40.5,0z M33.2,7.3H3.8C2.8,7.3,2,8.2,2,9.2v33c0,1,0.8,1.8,1.8,1.8h29.3
	c1,0,1.8-0.8,1.8-1.8v-33C35,8.2,34.2,7.3,33.2,7.3z M20.3,34.8h-11v-3.7h11V34.8z M27.7,27.5H9.3v-3.7h18.3V27.5z M27.7,20.2H9.3
	v-3.7h18.3V20.2z"/>
</svg>
