<?xml version="1.0" encoding="utf-8"?>
<svg version="1.1" id="Ebene_1" xmlns="http://www.w3.org/2000/svg" xmlns:xlink="http://www.w3.org/1999/xlink" x="0px" y="0px"
	 viewBox="0 0 44 44" enable-background="new 0 0 44 44" xml:space="preserve">
<path fill="#254875" d="M38.5,0.2H5.8C4.8,0.2,4,1,4,2v41.8l7.3-5.5l5.5,5.5l5.5-5.5l5.5,5.5l5.5-5.5l7.3,5.5V2C40.3,1,39.5,0.2,38.5,0.2z M24,29.3
	H11.3v-3.6H24V29.3z M24,22H11.3v-3.6H24V22z M24,14.7H11.3v-3.6H24V14.7z M33.1,29.3h-5.5v-3.6h5.5V29.3z M33.1,22h-5.5v-3.6h5.5
	V22z M33.1,14.7h-5.5v-3.6h5.5V14.7z"/>
</svg>
