<?xml version="1.0" encoding="utf-8"?>
<svg version="1.1" id="Ebene_1" xmlns="http://www.w3.org/2000/svg" xmlns:xlink="http://www.w3.org/1999/xlink" x="0px" y="0px"
	 viewBox="0 0 44 44" enable-background="new 0 0 44 44" xml:space="preserve">
<path fill="#254875" d="M22.8,25.2C22.6,25,22.3,25,22,25c-0.3,0-0.6,0.1-0.8,0.2c-0.3,0.1-0.5,0.3-0.6,0.6l-5.2,7.8c-0.2,0.3-0.3,0.6-0.3,1v1.4
	h13.8v-1.4c0-0.3-0.1-0.7-0.3-1l-5.2-7.8C23.3,25.5,23.1,25.3,22.8,25.2z M21.2,19.2c0.3,0.1,0.5,0.2,0.8,0.2c0.3,0,0.6-0.1,0.8-0.2
	c0.3-0.1,0.5-0.3,0.6-0.6l4.6-7H15.9l4.6,7C20.7,18.9,20.9,19.1,21.2,19.2z M35.8,9.5V4.7h3.5V1.3H4.8v3.4h3.5v4.8
	c0,1.7,0.5,3.4,1.4,4.8l5.1,7.7l-5.1,7.7c-0.9,1.4-1.4,3.1-1.4,4.8v4.8H4.8v3.4h34.5v-3.4h-3.5v-4.8c0-1.7-0.5-3.4-1.4-4.8L29.2,22
	l5.1-7.7C35.3,12.9,35.8,11.3,35.8,9.5z M32.4,9.5c0,1-0.3,2-0.9,2.9L25.1,22l6.4,9.6c0.6,0.9,0.9,1.9,0.9,2.9v4.8H11.6v-4.8
	c0-1,0.3-2,0.9-2.9l6.4-9.6l-6.4-9.6c-0.6-0.9-0.9-1.9-0.9-2.9V4.7h20.8V9.5z"/>
</svg>
