<?xml version="1.0" encoding="utf-8"?>
<svg version="1.1" id="Ebene_1" xmlns="http://www.w3.org/2000/svg" xmlns:xlink="http://www.w3.org/1999/xlink" x="0px" y="0px"
	 viewBox="0 0 44 44" enable-background="new 0 0 44 44" xml:space="preserve">
<path fill="#254875" d="M20.2,22.8l-3.6-3.7l-2.7,2.5l6.3,6.5l9.9-10.3l-2.7-2.5L20.2,22.8z M38.4,19.8C37.5,11.3,30.5,4.6,22,4.6
	S6.5,11.3,5.6,19.8H0v3.6h5.6c0.9,8.5,7.9,15.2,16.4,15.2s15.5-6.7,16.4-15.2H44v-3.6H38.4z M22,35c-7.1,0-12.8-6-12.8-13.4
	S14.9,8.2,22,8.2s12.8,6,12.8,13.4S29.1,35,22,35z"/>
</svg>
