<?xml version="1.0" encoding="utf-8"?>
<svg version="1.1" id="Ebene_1" xmlns="http://www.w3.org/2000/svg" xmlns:xlink="http://www.w3.org/1999/xlink" x="0px" y="0px"
	 viewBox="0 0 44 44" enable-background="new 0 0 44 44" xml:space="preserve">
<path fill="#254875" d="M22,2.8L5.3,6.5v18c0,4.5,1.7,8.7,4.9,11.8c3.2,3.2,7.3,4.9,11.8,4.9s8.7-1.7,11.8-4.9c3.2-3.2,4.9-7.3,4.9-11.8v-18L22,2.8
	z M35.3,24.5c0,3.6-1.4,6.9-3.9,9.4c-2.5,2.5-5.9,3.9-9.4,3.9s-6.9-1.4-9.4-3.9c-2.5-2.5-3.9-5.9-3.9-9.4V9.2l13.3-3l13.3,3V24.5z
	 M18.4,12.6c-0.9,0.9-1.5,2.2-1.5,3.6v3.3h-3.3v11.7h16.7V19.5H27v-3.3c0-1.3-0.5-2.6-1.5-3.6s-2.2-1.5-3.6-1.5
	C20.7,11.2,19.4,11.7,18.4,12.6z M27,22.9v4.9H17v-4.9h3.3v0h3.3v0H27z M23.2,15c0.3,0.3,0.5,0.7,0.5,1.2v3.3h-3.3v-3.3
	c0-0.4,0.2-0.8,0.5-1.2C21.5,14.4,22.5,14.4,23.2,15z"/>
</svg>
