<?xml version="1.0" encoding="utf-8"?>
<svg version="1.1" id="Ebene_1" xmlns="http://www.w3.org/2000/svg" xmlns:xlink="http://www.w3.org/1999/xlink" x="0px" y="0px"
	 viewBox="0 0 44 44" enable-background="new 0 0 44 44" xml:space="preserve">
<path fill="#254875" d="M42,22l-8.3-6.5v4.9h-30C2.7,20.4,2,21.1,2,22c0,0.9,0.7,1.6,1.7,1.6h30v4.9L42,22z M22,31.7H3.7c-0.9,0-1.7,0.7-1.7,1.6
	S2.7,35,3.7,35H22v4.9l8.3-6.5L22,26.9V31.7z M3.7,12.3H12v4.9l8.3-6.5L12,4.2V9H3.7C2.7,9,2,9.8,2,10.7C2,11.5,2.7,12.3,3.7,12.3z"
	/>
</svg>
