<?xml version="1.0" encoding="utf-8"?>
<svg version="1.1" id="Ebene_1" xmlns="http://www.w3.org/2000/svg" xmlns:xlink="http://www.w3.org/1999/xlink" x="0px" y="0px"
	 viewBox="0 0 44 44" enable-background="new 0 0 44 44" xml:space="preserve">
<path fill="#254875" d="M10.3,22h3.4c0-1,0.1-1.9,0.4-2.7l-3.2-1.1C10.5,19.3,10.3,20.7,10.3,22z M22,10.6c-1.4,0-2.7,0.2-3.9,0.6l1,3.2
	C20,14.1,21,14,22,14c4.6,0,8.3,3.6,8.3,8h3.4C33.7,15.7,28.5,10.6,22,10.6z M22,17.1c-0.8,0-1.5,0.2-2.1,0.5l-6.2-6.1l-2.4,2.4
	l6.2,6C17.1,20.6,17,21.3,17,22c0,2.7,2.3,4.9,5,4.9c2.8,0,5-2.2,5-4.9S24.8,17.1,22,17.1z M22,23.5c-0.9,0-1.6-0.7-1.6-1.5
	c0-0.3,0.1-0.6,0.2-0.8l0.4-0.4c0.3-0.2,0.6-0.3,1-0.3c0.9,0,1.6,0.7,1.6,1.5S22.9,23.5,22,23.5z M22,2.5C11,2.5,2,11.2,2,22
	s9,19.5,20,19.5S42,32.8,42,22S33,2.5,22,2.5z M22,38.1c-9.2,0-16.6-7.2-16.6-16.1S12.8,5.9,22,5.9S38.6,13.1,38.6,22
	S31.2,38.1,22,38.1z"/>
</svg>
