<?xml version="1.0" encoding="utf-8"?>
<svg version="1.1" id="Ebene_1" xmlns="http://www.w3.org/2000/svg" xmlns:xlink="http://www.w3.org/1999/xlink" x="0px" y="0px"
	 viewBox="0 0 44 44" enable-background="new 0 0 44 44" xml:space="preserve">
<path fill="#254875" d="M38.7,8.7c-5.3,0-11.4-1.9-15.7-4.7c-0.6-0.4-1.3-0.4-1.8,0C16.8,6.8,10.6,8.7,5.3,8.7c-0.9,0-1.7,0.7-1.7,1.7
	c0,14,6.6,25.1,17.7,29.9c0.2,0.1,0.4,0.1,0.7,0.1c0.2,0,0.4,0,0.7-0.1c11.1-4.7,17.7-15.9,17.7-29.9C40.3,9.4,39.6,8.7,38.7,8.7z
	 M22,36.8V22H8.9C7.8,18.9,7.2,15.6,7,11.9c5.1-0.3,10.7-2.1,15-4.6V22h13.1C32.7,28.7,28.2,34,22,36.8z"/>
</svg>
