<?xml version="1.0" encoding="utf-8"?>
<svg version="1.1" id="Ebene_1" xmlns="http://www.w3.org/2000/svg" xmlns:xlink="http://www.w3.org/1999/xlink" x="0px" y="0px"
	 viewBox="0 0 44 44" enable-background="new 0 0 44 44" xml:space="preserve">
<path fill="#254875" d="M25.3,17.8c0,4,2.6,8.3,8.3,8.3c5.7,0,8.3-4.3,8.3-8.3c0-0.3-0.1-0.7-0.3-1L33.4,5.2C33.2,5,33,4.8,32.7,4.6
	c-0.2-0.1-0.4-0.1-0.7-0.1H12c-0.2,0-0.5,0-0.7,0.1C11,4.8,10.8,5,10.6,5.2L2.3,16.9c-0.2,0.3-0.3,0.6-0.3,1c0,4,2.6,8.3,8.3,8.3
	s8.3-4.3,8.3-8.3c0-0.2,0-0.4-0.1-0.7l-4-9.3h5.8v28.3h-10c-0.9,0-1.7,0.7-1.7,1.7c0,0.9,0.7,1.7,1.7,1.7h23.3
	c0.9,0,1.7-0.7,1.7-1.7c0-0.9-0.7-1.7-1.7-1.7h-10V7.8h5.8l-4,9.3C25.4,17.4,25.3,17.6,25.3,17.8z M15.2,17.8H5.7l5.9-8.3L15.2,17.8
	z M32.4,9.5l5.9,8.3h-9.5L32.4,9.5z"/>
</svg>
