<?xml version="1.0" encoding="utf-8"?>
<svg version="1.1" id="Ebene_1" xmlns="http://www.w3.org/2000/svg" xmlns:xlink="http://www.w3.org/1999/xlink" x="0px" y="0px"
	 viewBox="0 0 44 44" enable-background="new 0 0 44 44" xml:space="preserve">
<path fill="#254875" d="M22,0.6L3,4.7v18.1c0,14.2,17.6,20,18.4,20.3l0.6,0.2l0.6-0.2C23.4,42.9,41,37,41,22.9V4.7L22,0.6z M37,22.9
	c0,9.9-12.1,15.1-15,16.2C19.1,38,7,32.9,7,22.9V8l15-3.2L37,8V22.9z M14.4,18.2l-2.8,2.9l8.6,8.4l14-15.9l-3-2.6L20,23.7L14.4,18.2
	z"/>
</svg>
