<?xml version="1.0" encoding="utf-8"?>
<svg version="1.1" id="Ebene_1" xmlns="http://www.w3.org/2000/svg" xmlns:xlink="http://www.w3.org/1999/xlink" x="0px" y="0px"
	 viewBox="0 0 44 44" enable-background="new 0 0 44 44" xml:space="preserve">
<path fill="#254875" d="M3.7,14.9c0-5.9,4.9-10.7,11-10.7c4.9,0,9.2,3.1,10.6,7.6l0.5,1.6l3.3-1l-0.5-1.6c-1.8-5.9-7.5-10-13.8-10
	c-8,0-14.4,6.3-14.4,14.1C0.3,22.7,6.8,29,14.7,29h1.7v-3.4h-1.7C8.6,25.6,3.7,20.8,3.7,14.9z M31.1,15c-7.2,0-12.6,3-12.6,7v14.1
	c0,4,5.4,7,12.6,7s12.6-3,12.6-7V22C43.7,18,38.3,15,31.1,15z M40.3,36.1c0,1.5-3.6,3.6-9.2,3.6s-9.2-2.1-9.2-3.6v-2.2
	c2.3,1.3,5.5,2.1,9.2,2.1s6.9-0.8,9.2-2.1V36.1z M40.3,29.1c0,1.5-3.6,3.6-9.2,3.6s-9.2-2.1-9.2-3.6v-2.2c2.3,1.3,5.5,2.1,9.2,2.1
	s6.9-0.8,9.2-2.1V29.1z M31.1,25.6c-5.6,0-9.2-2.1-9.2-3.6s3.6-3.6,9.2-3.6s9.2,2.1,9.2,3.6S36.7,25.6,31.1,25.6z M13,13.2H7.6v3.4
	h8.9V7.9H13V13.2z"/>
</svg>
