<?xml version="1.0" encoding="utf-8"?>
<svg version="1.1" id="Ebene_1" xmlns="http://www.w3.org/2000/svg" xmlns:xlink="http://www.w3.org/1999/xlink" x="0px" y="0px"
	 viewBox="0 0 44 44" enable-background="new 0 0 44 44" xml:space="preserve">
<path fill="#254875" d="M41,18.1c-0.6-0.6-1.5-0.9-2.4-0.9h-15c-0.9,0-1.7,0.3-2.4,0.9c-0.6,0.6-1,1.4-1,2.3v17.8c0,0.9,0.4,1.7,1,2.3
	c0.6,0.6,1.5,0.9,2.4,0.9h15c0.9,0,1.7-0.3,2.4-0.9c0.6-0.6,1-1.4,1-2.3V20.4C42,19.5,41.6,18.7,41,18.1z M38.7,36.6h-15V20.4h15
	V36.6z M5.3,5.8h23.3v8.1H32V5.8c0-0.9-0.4-1.7-1-2.3c-0.6-0.6-1.5-0.9-2.4-0.9H5.3C4.4,2.5,3.6,2.9,3,3.5C2.4,4.1,2,4.9,2,5.8V35
	c0,0.9,0.4,1.7,1,2.3c0.6,0.6,1.5,0.9,2.4,0.9H17v-6.5H5.3V5.8z"/>
</svg>
