<?xml version="1.0" encoding="utf-8"?>
<svg version="1.1" id="Ebene_1" xmlns="http://www.w3.org/2000/svg" xmlns:xlink="http://www.w3.org/1999/xlink" x="0px" y="0px"
	 viewBox="0 0 44 44" enable-background="new 0 0 44 44" xml:space="preserve">
		<path fill="#254875" d="M37.6,26.1c0-2.6-2.1-4.8-4.8-4.8c-2.6,0-4.8,2.1-4.8,4.8V29h-3.1v11.1h15.8V29h-3.1V26.1z M31.4,26.1
			c0-0.8,0.6-1.4,1.4-1.4c0.8,0,1.4,0.6,1.4,1.4V29h-2.8V26.1z M37.3,36.8h-9v-4.3h9V36.8z M26.7,7.3l-9.3-3.1L3.3,7.8v31.3l14-3.5
			l4.2,1.4l1.1-3.2l-5.2-1.7L6.7,34.7V10.4l10.6-2.6l9.3,3.1l10.7-2.7v13.4h3.4V3.8L26.7,7.3z"/>
</svg>
