<svg xmlns="http://www.w3.org/2000/svg" viewBox="0 0 24 24" width="24" height="24"><title>hybrid car</title><g class="nc-icon-wrapper" fill="#000000"><path d="M16,10H14v3H10V10H8v3H6v5a6,6,0,0,0,12,0V13H16Z" fill="#000000"/> <path d="M12,0A12,12,0,0,0,1.94,18.544a1,1,0,1,0,1.676-1.092,10,10,0,1,1,16.768,0,1,1,0,0,0,1.676,1.092A12,12,0,0,0,12,0Z" data-color="color-2"/> <path d="M7,8.1a1,1,0,0,0,.714-.3A6,6,0,0,1,16.2,7.714a1,1,0,0,0,1.4-1.43A8,8,0,0,0,6.285,6.4,1,1,0,0,0,7,8.1Z" data-color="color-2"/></g></svg>