<?xml version="1.0" encoding="utf-8"?>
<svg version="1.1" id="Ebene_1" xmlns="http://www.w3.org/2000/svg" xmlns:xlink="http://www.w3.org/1999/xlink" x="0px" y="0px"
	 viewBox="0 0 44 44" enable-background="new 0 0 44 44" xml:space="preserve">
<path d="M32.5,19.7V11c0-6.1-5-11-11.2-11S10,4.9,10,11v8.7c-2.3,2.6-3.8,6-3.8,9.7c0,8.1,6.7,14.7,15,14.7s15-6.6,15-14.7
	C36.2,25.6,34.8,22.2,32.5,19.7z M23.1,32.7v4h-3.8v-4c-2.2-0.8-3.8-2.8-3.8-5.2c0-3,2.5-5.5,5.6-5.5s5.6,2.5,5.6,5.5
	C26.9,29.9,25.3,31.9,23.1,32.7z M28.7,16.7c-2.2-1.3-4.8-2-7.5-2s-5.3,0.7-7.5,2V11c0-4,3.4-7.3,7.5-7.3S28.7,7,28.7,11V16.7z"/>
</svg>
