<?xml version="1.0" encoding="utf-8"?>
<svg version="1.1" id="Ebene_1" xmlns="http://www.w3.org/2000/svg" xmlns:xlink="http://www.w3.org/1999/xlink" x="0px" y="0px"
	 viewBox="0 0 44 44" enable-background="new 0 0 44 44" xml:space="preserve">
<path d="M7.3,1.6H1.8C0.8,1.6,0,2.4,0,3.4v3.7h7.3V1.6z M0,40.4c0,1,0.8,1.8,1.8,1.8h40.3c1,0,1.8-0.8,1.8-1.8V10.8H0V40.4z
	 M28.6,21.9l2.6-2.6l5,5c0.7,0.7,0.7,1.9,0,2.6l-5,5l-2.6-2.6l3.7-3.7L28.6,21.9z M22.5,16l3.6,0.9l-4.6,18.4l-3.6-0.9L22.5,16z
	 M7.9,24.3l5-5l2.6,2.6l-3.7,3.7l3.7,3.7L12.8,32l-5-5C7.2,26.2,7.2,25.1,7.9,24.3z M42.2,1.6H11v5.5h33V3.4
	C44,2.4,43.2,1.6,42.2,1.6z"/>
</svg>
