<?xml version="1.0" encoding="utf-8"?>
<svg version="1.1" id="Ebene_1" xmlns="http://www.w3.org/2000/svg" xmlns:xlink="http://www.w3.org/1999/xlink" x="0px" y="0px"
	 viewBox="0 0 44 44" enable-background="new 0 0 44 44" xml:space="preserve">
<path d="M40.3,3.5H3.7C2.7,3.5,2,4.3,2,5.2v13.5c0,0.9,0.7,1.7,1.7,1.7h36.7c0.9,0,1.7-0.8,1.7-1.7V5.2C42,4.3,41.3,3.5,40.3,3.5z
	 M18.7,13.6h-10v-3.4h10V13.6z M33.7,13.6c-0.9,0-1.7-0.8-1.7-1.7s0.7-1.7,1.7-1.7s1.7,0.8,1.7,1.7S34.6,13.6,33.7,13.6z M40.3,23.7
	H3.7c-0.9,0-1.7,0.8-1.7,1.7v13.5c0,0.9,0.7,1.7,1.7,1.7h36.7c0.9,0,1.7-0.8,1.7-1.7V25.4C42,24.4,41.3,23.7,40.3,23.7z M18.7,33.8
	h-10v-3.4h10V33.8z M33.7,33.8c-0.9,0-1.7-0.8-1.7-1.7s0.7-1.7,1.7-1.7s1.7,0.8,1.7,1.7S34.6,33.8,33.7,33.8z"/>
</svg>
