<?xml version="1.0" encoding="utf-8"?>
<svg version="1.1" id="Ebene_1" xmlns="http://www.w3.org/2000/svg" xmlns:xlink="http://www.w3.org/1999/xlink" x="0px" y="0px"
	 viewBox="0 0 44 44" enable-background="new 0 0 44 44" xml:space="preserve">
<path fill="#254875" d="M43.6,32.5c-0.2-1.9-2-5.5-7.5-5.5h-9.4c-1.8-2.4-4.6-3.8-7.5-3.8h-4.8c-2.9-3.1-8.3-3.8-10.3-3.8H0.3v16.4l13.9,7
	c1.9,1,4.1,1.1,6.1,0.3l23.4-9.1L43.6,32.5z M18.9,39.5c-1,0.4-2.1,0.3-3-0.1l-11.8-6V23.2c3.2-0.2,6.4,1.2,8.4,3.8h6.6
	c2.4,0,4.5,1.5,5.3,3.8h-11c-1,0-1.9,0.9-1.9,1.9c0,1.1,0.8,1.9,1.9,1.9h15v-1.9c0-0.6-0.1-1.3-0.2-1.9H36c1.1-0.1,2.2,0.2,3,0.9
	L18.9,39.5z M39.5,6.9C39.2,6.4,38.6,6,37.9,6H21.8c-1.7-3-5.2-4.4-8.5-3.5S7.8,6.4,7.8,9.8s2.3,6.5,5.6,7.4
	c3.3,0.9,6.8-0.6,8.5-3.5h4.8l2.8,1.9l2.8-1.9H36c0.7,0,1.4-0.4,1.7-1.1l1.9-3.8C39.9,8.2,39.9,7.5,39.5,6.9L39.5,6.9z M13.5,11.7
	c-1,0-1.9-0.9-1.9-1.9s0.8-1.9,1.9-1.9s1.9,0.9,1.9,1.9S14.5,11.7,13.5,11.7z"/>
</svg>
