<?xml version="1.0" encoding="utf-8"?>
<svg version="1.1" id="Ebene_1" xmlns="http://www.w3.org/2000/svg" xmlns:xlink="http://www.w3.org/1999/xlink" x="0px" y="0px"
	 viewBox="0 0 44 44" enable-background="new 0 0 44 44" xml:space="preserve">
<path fill="#254875" d="M40.3,10.2H22.8l-5-6.7H3.7C2.7,3.5,2,4.3,2,5.2v30.3c0,2.8,2.2,5,5,5h30c2.8,0,5-2.3,5-5V11.9C42,11,41.3,10.2,40.3,10.2z
	 M27,15.3c1.8,0,3.3,1.5,3.3,3.4S28.8,22,27,22s-3.3-1.5-3.3-3.4S25.2,15.3,27,15.3z M17,20.3c1.8,0,3.3,1.5,3.3,3.4S18.8,27,17,27
	c-1.8,0-3.3-1.5-3.3-3.4S15.2,20.3,17,20.3z M10.3,35.5c0-3.7,3-6.7,6.7-6.7s6.7,3,6.7,6.7H10.3z M25.6,30.4c-1-1.7-2.4-3-4.1-3.9
	c1.7-2.4,4.7-3.4,7.5-2.5s4.6,3.5,4.6,6.4H25.6z"/>
</svg>
