<?xml version="1.0" encoding="utf-8"?>
<svg version="1.1" id="Ebene_1" xmlns="http://www.w3.org/2000/svg" xmlns:xlink="http://www.w3.org/1999/xlink" x="0px" y="0px"
	 viewBox="0 0 44 44" enable-background="new 0 0 44 44" xml:space="preserve">
<path fill="#254875" d="M28.8,18.7h-3.4v5.1h-6.8v-5.1h-3.4v5.1h-3.4v8.5c0,5.7,4.5,10.2,10.2,10.2S32.2,38,32.2,32.3v-8.5h-3.4V18.7z M13.5,15.4
	c0.5,0,0.9-0.2,1.2-0.5c1.9-1.9,4.5-3,7.2-3.1c2.7,0,5.3,1,7.2,2.9c0.7,0.7,1.7,0.6,2.4,0c0.7-0.7,0.6-1.8,0-2.4
	c-2.6-2.5-6-3.9-9.6-3.9c-3.6,0-7,1.5-9.5,4.1c-0.5,0.5-0.6,1.2-0.4,1.9C12.2,15,12.9,15.4,13.5,15.4z M39.9,12.3
	C36.3,5.7,29.4,1.6,22,1.6c-7.4,0-14.3,4.1-17.9,10.7C0.6,18.9,0.9,27,5,33.3c0.5,0.8,1.6,1,2.3,0.5c0.8-0.5,1-1.6,0.5-2.4
	c-4.6-7.1-3.3-16.6,3.1-22.2c6.4-5.6,15.8-5.6,22.2,0c6.4,5.6,7.7,15.1,3.1,22.2c-0.5,0.8-0.3,1.8,0.5,2.4c0.8,0.5,1.8,0.3,2.3-0.5
	C43.1,27,43.4,18.9,39.9,12.3z"/>
</svg>
