<?xml version="1.0" encoding="utf-8"?>
<svg version="1.1" id="Ebene_1" xmlns="http://www.w3.org/2000/svg" xmlns:xlink="http://www.w3.org/1999/xlink" x="0px" y="0px"
	 viewBox="0 0 44 44" enable-background="new 0 0 44 44" xml:space="preserve">
<path d="M22.8,1.2C12,1.2,3.2,10,3.2,20.8v10.7c0,2.9,2.4,5.3,5.3,5.3h5.4c1,0,1.8-0.8,1.8-1.8V22.6c0-1-0.8-1.8-1.8-1.8H6.8
	C6.8,12,14,4.8,22.8,4.8c8.8,0,16,7.2,16,16.1h-7.1c-1,0-1.8,0.8-1.8,1.8v12.5c0,1,0.8,1.8,1.8,1.8h5.4c0.6,0,1.2-0.1,1.8-0.3
	c0,2.6-1.8,3.9-3.6,3.9h-8.9c-1,0-1.8,0.8-1.8,1.8c0,1,0.8,1.8,1.8,1.8h8.9c3.9,0,7.1-3.2,7.1-7.1v-16C42.4,10,33.6,1.2,22.8,1.2z"
	/>
</svg>
