<?xml version="1.0" encoding="utf-8"?>
<svg version="1.1" id="Ebene_1" xmlns="http://www.w3.org/2000/svg" xmlns:xlink="http://www.w3.org/1999/xlink" x="0px" y="0px"
	 viewBox="0 0 44 44" enable-background="new 0 0 44 44" xml:space="preserve">
	<path d="M40.3,3.5H3.7C2.7,3.5,2,4.3,2,5.2v33.6c0,0.9,0.7,1.7,1.7,1.7h36.7c0.9,0,1.7-0.8,1.7-1.7V5.2C42,4.3,41.3,3.5,40.3,3.5z
		 M13.7,6.9c0.9,0,1.7,0.8,1.7,1.7s-0.7,1.7-1.7,1.7c-0.9,0-1.7-0.8-1.7-1.7S12.7,6.9,13.7,6.9z M7,6.9c0.9,0,1.7,0.8,1.7,1.7
		S7.9,10.2,7,10.2S5.3,9.5,5.3,8.5S6.1,6.9,7,6.9z M38.7,37.1H5.3V13.6h33.3V37.1z"/>
	<rect x="8.7" y="17" width="6.7" height="16.8"/>
	<rect x="18.7" y="17" width="16.7" height="16.8"/>
</svg>
